<svg version="1.1" xmlns="http://www.w3.org/2000/svg" xmlns:xlink="http://www.w3.org/1999/xlink" width="150" height="160" style="width: 150px; height: 160px;"><defs><clipPath id="VuBVNeoKciUi"><path fill="none" stroke="none" d=" M 10 27 L 140 27 L 140 150 L 10 150 L 10 27 Z"/></clipPath></defs><g><g transform="scale(1,1) translate(0.5,0.5)"><rect fill="#FFFFFF" stroke="none" x="0" y="0" width="150" height="160"/><rect fill="#ffffff" stroke="none" x="0" y="0" width="150" height="160"/><rect fill="#FFFFFF" stroke="none" x="10" y="27" width="130" height="123"/><rect fill="#ffffff" stroke="none" x="10" y="27" width="130" height="123"/><g><rect fill="none" stroke="#FFFFFF" x="10" y="27" width="130" height="123" stroke-linejoin="bevel" stroke-miterlimit="10"/></g><g clip-path="url(#VuBVNeoKciUi)"><g><g/><g/><g><path fill="none" stroke="none"/><path fill="none" stroke="#6FA5B9" paint-order="fill stroke markers" d=" M 74.68155091372319 101.11710172847961 L 74.71383355301805 101.05689126931247 L 74.84022829355672 100.48154688123032 L 74.8221719020512 100.39591422810918 L 74.77839883172419 100.24338106476353 L 74.59783491678536 99.87141422784771 L 73.77380686835386 98.7448096354201 L 73.33881198230665 98.17281027289573 L 73.29941621888429 98.09587468611426 L 73.26603925274685 97.99619292584248 L 72.57223608845379 96.69497800167301 L 72.22259868949186 96.28889190457994 L 72.1087887067115 96.14706282285624 L 70.92746297188569 95.9691074656439 L 70.26156513998285 97.27835045100073 L 70.00385118857957 97.80151244107401 L 69.72862800897565 98.35076563010807 L 69.5606488516787 98.86054751815391 L 69.49936655326746 98.99100351310335 L 69.44355588871986 99.10674139580806 L 69.4068959421711 99.26730262039928 L 69.21812457661144 99.72624012062442 L 69.0468624390196 100.15841741679469 L 68.97682552656624 100.44542060571257 L 68.92046769859735 100.56316550372867 L 68.72294171887916 100.91907621818245 L 68.53909482352901 101.2830149938818 L 68.21626843023114 101.66033387166681 L 68.12325065571349 101.78476882068207 L 67.96074313216377 102.09451818309026 L 67.70959514135029 102.60563808129518 L 67.56952131632715 102.89866231614724 L 67.246147759608 103.58171652565943 L 67.10716826131102 103.88745185747393 L 66.96162280254066 104.19720121988212 L 66.81826599733904 104.5310347659688 L 66.28861184651032 105.38869930722285 L 66.04785995988641 105.73992698601796 L 65.56854484020732 106.68322418039315 L 65.34147203795146 107.15286576224025 L 64.75600722257514 108.47214382412494 L 64.04086468659807 109.80613999831257 L 63.43898496986367 110.73070504982024 L 62.924651393899694 112.07808132600621 L 62.30362095905002 113.43683068893733 L 61.434178350144066 114.65977201613714 L 60.62164073262829 115.78838362384704 L 59.68270837480668 116.87685492544551 L 58.882755514932796 118.04895186485373 L 58.07733102142811 119.29062533486285 L 57.26041609700769 120.52895377934328 L 56.49001005955506 121.8656259739655 L 55.56092664238531 123.06113809192902 L 54.508184301666915 124.01313235261478 L 53.12769109685905 124.2880934496934 L 51.73297164449468 124.54499140899861 L 50.391327039687894 124.89555008267052 L 48.9714380716905 125.07751947053475 L 47.62596332363319 125.52106985342107 L 46.7253324019257 126.49647929269122 L 46.53273089264985 127.12066105322447 L 46.39539288461674 128.1957522527664 L 46.39046841417439 128.81859600308235 L 46.247658772277646 129.45147482992616 L 46.08186826843303 130.0783326108649 L 45.75083442428149 130.53258707540226 L 45.24251964548603 130.83765340209357 L 44.178834037156776 130.99888363174978 L 43.58406744443346 130.81089319798048 L 42.215064670774154 130.81825225410284 L 42.0848397865193 130.8510335041501 L 41.35273518564645 130.74733771325555 L 40.776024984545074 130.72659855507663 L 39.757206773152575 130.5024818457896 L 39.068328079301864 130.31649842730258 L 38.46808985271491 130.22216870789998 L 37.709174246527255 130.1445641159953 L 37.22384032944683 130.25160493238945 L 37.08759664837271 130.2890692181536 L 36.208305098465644 130.44427840187564 L 35.47948347800411 130.642972917296 L 34.75832214462571 130.7801189632737 L 33.860427040141076 130.72258452448295 L 32.77047758968547 130.49579179476132 L 31.367550686583854 130.21146462627803 L 31.236778639024124 130.16329625886283 L 30.460900967824273 130.1224869476282 L 29.84643649344798 130.02615021291422 L 29.30146176822018 129.16447164100828 L 28.302341438480653 128.37638363038423 L 27.754083733074367 127.74283579841722 L 27.68842412752565 127.61505582387326 L 26.943734769010916 126.80087661425932 L 26.37523201853037 126.03218975159689 L 26.273459630087018 125.72645441984059 L 25.959935014136136 124.90826117960387 L 25.42754504631739 123.75623439328047 L 25.107454469893128 122.2422758465982 L 25.159434990840964 120.7390213815379 L 25.273244973854162 119.84255454436061 L 25.84010623395443 118.65105645699077 L 26.70681302610319 117.08892954289331 L 26.89065992133692 116.77249012948596 L 27.475577573291957 115.75627137895208 L 28.07472147291992 114.81498119988828 L 28.50260323518887 113.67700352068641 L 29.29270715417806 112.37311257614056 L 29.968453926965594 110.98158196319127 L 30.045603963313624 110.82035173350596 L 30.43463712569792 109.50642571243225 L 30.688520933385007 108.99129178357543 L 30.923801186378114 108.58052265073638 L 31.40202197933104 107.81852583910222 L 32.100749614066444 106.60896461401717 L 32.85911805694923 105.33250287862029 L 32.960890445508994 105.20873693467001 L 33.54143079044297 104.20656729131588 L 34.24781871237792 103.07862468872918 L 34.74464306025766 101.78075479005929 L 34.73096397577319 101.69378412672086 L 34.56736212561373 101.67170695838286 L 34.49075925257057 101.75667060635169 L 34.01363278622739 102.75482621911215 L 33.34335764718708 104.01656984223519 L 33.22243454051204 104.26477073522983 L 32.57459309999831 105.64492826146306 L 32.37433130352292 106.16474522600765 L 31.623075984301977 107.06121206321404 L 30.727916696690954 108.15904943624628 L 30.339430697844364 108.4821789006819 L 29.72168324305676 109.40808196237776 L 29.154274819418788 109.77937979422859 L 27.97896788176149 110.7414091314422 L 27.579538615304045 111.08728476939723 L 26.974375918274745 111.65460109620471 L 26.38453379587736 112.1289257137978 L 25.241509497747757 112.92370377547923 L 24.453047068906017 113.49837915837998 L 23.394285931019112 114.43030326601001 L 23.313852914143354 114.54135811299784 L 22.287921579089016 115.48532431249623 L 22.178488903213292 115.56627392990049 L 21.264726060908288 116.30217954248656 L 21.027804317767732 116.46809280788875 L 20.88663616590202 116.50154306300101 L 20.7503924848279 116.57111959366011 L 20.608130006236024 116.644710154942 L 20.469697671360336 116.692878522299 L 20.32305788586382 116.73435683862772 L 19.72172533266712 116.70358260389185 L 19.286730446619913 116.75442699171253 L 18.809056816855446 116.87083387954044 L 18.63232304539997 116.90160811424721 L 18.310590978711843 116.96315658363164 L 17.35086641239468 117.57128222170286 L 16.590309315826744 118.42961576805101 L 16.479235150036402 118.67514064064017 L 16.430537609383464 118.81429370195838 L 16.379104251624085 118.92200352347572 L 16.293199601233937 119.15080326847965 L 16.135616548010148 119.36822992673842 L 15.909090909175575 120.42258196807234 L 16.255445327959023 121.93118847397272 L 16.346274448907934 122.51389191817725 L 16.78400515182875 123.38359855127055 L 17.42254481499549 124.23591105174273 L 17.945633005117998 124.93167635818827 L 19.006035633268766 125.79937597599928 L 19.11656263563782 125.87698056787485 L 19.68014091590885 126.31450990482699 L 19.825686374562792 126.4075016140705 L 20.45382993342355 127.17618847667472 L 20.533168623340316 127.30998949718196 L 20.80237300565932 127.90072100260295 L 20.92329611221794 129.16781666650786 L 20.74109070713166 130.08702967720455 L 20.548489197855815 130.968109397043 L 20.410604026401415 132.18034664253355 L 20.27271885506343 133.03199013791163 L 20.272171691642143 133.7230724086403 L 20.557790975435637 134.39140850593685 L 20.699506290489808 134.63492636324372 L 21.04640787281096 135.3474167972745 L 21.88849231263157 136.06392126192804 L 22.017075706622563 136.1676170528226 L 22.14784775406588 136.25324970591464 L 22.52648481214419 136.5221897570591 L 22.96476267860271 136.90619868584326 L 23.16064716828987 137.07077394099906 L 23.671697763958946 137.50629626272712 L 23.96278868149966 137.6735475382884 L 24.247860801871866 137.9351285332814 L 24.72772308497224 138.3545947325183 L 25.78320124268066 139.07377521757735 L 26.24938444129657 139.32532113607158 L 26.748397442745045 139.6063032790844 L 26.97984755213838 139.75013937609037 L 27.06137489550747 139.85517317714402 L 27.29829663853161 139.98763618743396 L 27.379276818595827 140.01305838132976 L 27.533576891524717 140.08263491198886 L 27.6058024574304 140.15087343245978 L 27.678028023452498 140.19636577938218 L 27.852573141339235 140.2619282793894 L 27.959817163529806 140.29671654471895 L 28.976993884542026 140.7121687133622 L 29.68174031644594 140.92758835628047 L 30.182941971346736 141.14367700438015 L 30.64638935320545 141.30892126465915 L 31.49722840730101 141.56247419846477 L 32.273106078384444 141.84747037207126 L 32.575140263536014 141.89430072924006 L 32.98824861436151 141.96722228536964 L 34.251101692556404 142.27630264271284 L 34.38406239380129 142.32781603559852 L 34.71345474757254 142.43552585708676 L 34.79443492786959 142.50844741324545 L 34.84532112197485 142.61013618879952 L 34.927395628765225 142.74193019393715 L 35.090450315736234 142.97340595943388 L 35.160487228189595 143.01956731147948 L 35.231071304064244 143.0643906533369 L 35.37114512908738 143.14935430136393 L 35.43406891752966 143.18681858706987 L 35.56976543541532 143.24569103607791 L 35.72515983507037 143.25305009217118 L 36.66901666333433 143.28583134221844 L 37.2687077265 143.25840213298216 L 38.23335676337592 143.202874709561 L 38.37178909825161 143.14199524521246 L 39.69866029161494 142.9874550665554 L 40.84660906041972 142.77203542357893 L 40.96479635022115 142.73791616340168 L 41.10213435825426 142.72119103578734 L 41.49116752052214 142.7071419286367 L 41.76310771983117 142.72587407147512 L 41.903728708275594 142.7064729235426 L 42.329421816859394 142.6148192245455 L 43.631670658360235 142.0749321068579 L 44.72107294539455 141.69092317813192 L 46.11196225439198 141.4360322341381 L 47.0634793699719 141.31494231056422 L 48.26614447659813 140.67002139188116 L 49.53994082240388 139.91203861084068 L 50.84437831735704 139.28785685036564 L 52.24839954730123 139.2243013655825 L 53.5807423745282 139.18884409515886 L 54.95849976234604 139.0831412890111 L 56.24925817293115 138.89113682461902 L 56.92774076270871 138.74596271742485 L 57.31403810798656 138.62821781937964 L 58.69398414925672 138.118435931392 L 59.81129176856484 137.52770442600013 L 59.95081843028311 137.44608580344357 L 60.475000947131775 137.0868300634611 L 60.71958297758829 136.95102202770067 L 61.40736734471284 136.67539192552795 L 62.63739062019158 136.1676170528226 L 63.204251880641095 136.3121221548936 L 64.01295935432427 135.89600098124356 L 64.22908888896927 135.78762215466122 L 64.8047047634609 135.79631922097178 L 66.16933023009915 135.59361067495774 L 66.286423193058 135.54009026676067 L 66.54468430788256 135.4838938381581 L 66.67053188511636 135.42836641467875 L 66.7974737889599 135.40896526668803 L 66.9255100194132 135.38822610853822 L 67.07050831487868 135.37551501157577 L 67.2078463230282 135.3460787870863 L 67.60508693603333 135.30861450135126 L 68.1921932415571 135.37283899117028 L 68.28083370870445 135.36481092992472 L 68.41051142953802 135.28519932273775 L 68.67971581185702 135.18351054715458 L 68.81322367640678 135.1099199859309 L 68.95220317447092 135.02228031752747 L 69.41729204647709 134.82291679701302 L 69.56666764896363 134.7807694755611 L 69.83368337783031 134.68108771526022 L 69.96773840568494 134.6389403938374 L 70.22271654009819 134.50714638869977 L 71.5572480208939 134.12915850582067 L 71.70826511341147 134.11444039357593 L 73.15441792353522 134.12581348032109 L 73.50460248591844 134.050884908851 L 74.13985916867387 133.86824651589268 L 74.54530723241623 133.59596143921954 L 74.88290703704115 133.39793592889328 L 75.7528968093684 133.40997802076163 L 76.5791135111358 133.54645506164525 L 77.31942556274589 133.71437534235884 L 77.56236610293854 133.75652266381076 L 78.12266140279826 133.89433771488257 L 78.17026461684145 133.89768274041126 L 78.49473250040319 134.05556794456788 L 79.20495056605432 133.82676819956396 L 80.47546393144876 133.3236763625464 L 81.10306032712106 133.05072228077915 L 81.36241576855537 132.8286125868035 L 82.1508781973971 131.97964511186 L 82.357158791041 131.89802648933255 L 82.86930371355265 131.5575028922467 L 83.06026373291388 131.33873822377063 L 83.90727264317684 130.83430837656488 L 84.62132085254416 130.60550863156095 L 85.46340529236477 130.39811704980093 L 86.81818181835115 130.34058261103928 L 87.15687594970223 130.16597227932652 L 87.98582846869249 129.6066840136773 L 88.4142573941499 129.40196845238097 L 89.56220616295468 128.60384536519996 L 89.80076939612627 128.5449729161919 L 90.36981930979528 128.4278970232699 L 90.53670414048247 128.45800225285348 L 90.96622739266604 128.41518592636567 L 91.28248782560695 128.23388554356643 L 92.00693213916384 128.1228306966077 L 92.45505894650705 128.06395824754145 L 92.79375307785813 128.04857113026083 L 94.11898278142326 127.80371526276576 L 94.48175210144836 127.78498311989824 L 94.77940897957888 127.72008962495602 L 94.91018102702219 127.67526628309861 L 95.4868912283564 127.4404454921605 L 95.83324564702343 127.17083643586375 L 96.3202210542513 126.80489064488211 L 96.4827285775682 126.60084408865077 L 96.953289083438 126.11046334859566 L 97.4134534848854 125.77596079741488 L 97.82163736526854 125.64149077184265 L 97.96116402710322 125.61406156263547 L 98.60189234360587 125.59064638405107 L 98.73868318810128 125.5605411544384 L 98.86945523589384 125.52508388398564 L 99.00077444675844 125.4668804401008 L 99.77719928114675 125.21934855220024 L 99.91289579938166 125.17519421546604 L 100.5771521407878 125.05477329704445 L 100.70682986162137 125.0413931949879 L 100.83979056286626 125.01530199599802 L 101.54836713836994 124.76843911324977 L 102.85663477692287 124.30281156193814 L 104.32740993914194 124.10545505673508 L 105.34185084339697 124.1469333730638 L 105.64333786501084 124.27872737823054 L 106.7666642817203 124.2666852864204 L 107.15405595395714 124.15027839859249 L 107.87083998008166 123.99707623015274 L 107.92555631813593 123.93352074542781 L 108.4776441672584 123.68331283717998 L 108.52524738106877 123.6317994442652 L 108.70799994969275 123.55285684217233 L 108.95094048976898 123.33476117876125 L 109.70657311577816 122.75540276014362 L 109.997116870014 122.61290467332583 L 110.79980554664508 122.48713171406416 L 111.1182546330383 122.4791036528477 L 111.45421294763219 122.56741232634522 L 111.80220885644667 122.6430099029385 L 111.91273585893214 122.6182567141368 L 112.43746553943492 122.56808133146842 L 112.5540113390889 122.57209536212031 L 112.67438728222623 122.5252650049224 L 113.04809987009503 122.40283707116032 L 113.57994267414324 122.19143145880662 L 113.86556195782032 122.14727712207241 L 114.20644474274013 122.13523503023316 L 115.06056677713059 122.33995059155859 L 115.27505482162815 122.57677839780808 L 115.37846870010253 122.65036895903177 L 115.47476945491508 122.72596653562505 L 115.63782414188609 122.89723184183822 L 116.2413453485351 123.39028860229882 L 116.3885322973365 123.51739957174868 L 117.15237237408292 124.5249212559429 L 117.5020097733941 124.8534027612186 L 117.69406411924865 125.02868209805456 L 118.07379550393671 125.16783515934367 L 118.35613180766813 125.37723375641508 L 118.45243256213143 125.48293656256283 L 118.79659832746256 125.59934345036163 L 119.15608466730919 125.68765212385915 L 119.29287551203743 125.73180646065157 L 120.1524691801751 125.89972674136516 L 120.47310692002065 126.09775225163321 L 121.1729288813658 126.43827584880637 L 121.69382841791958 126.81760174181545 L 122.6398738999851 126.92731857861509 L 123.8961610175902 127.42773439519806 L 124.9713370569516 127.43977648706641 L 125.61644268035889 127.63579498205218 L 125.78004453063477 127.66054817082477 L 125.93708042055368 127.69801245658891 L 126.2270770111354 127.76156794128474 L 126.38684871781152 127.75822291578515 L 126.53239417658187 127.77963107908727 L 126.69599602685776 127.85857368115103 L 127.09925543691497 127.93350225262111 L 127.54191061051097 128.04589510982623 L 128.17771445657127 128.14223184456932 L 128.4108060557628 128.18571717620944 L 128.51093695429154 128.16163299256004 L 128.6460863087559 128.14022482925793 L 128.78725446062163 128.12149268641951 L 129.22170218324754 128.0097688343085 L 129.4739445009036 127.97230454854434 L 129.60416938504204 127.9582554413937 L 129.72071518469602 127.91008707403671 L 130.1037295499118 127.8405105433776 L 130.22902996337507 127.80639128314215 L 130.63174221036024 127.73882176779443 L 131.2002449608408 127.73280072188936 L 131.3381301322952 127.76424396171933 L 131.85027505492326 127.84519357909448 L 132.4844374108361 128.11011959964526 L 133.04418554750737 128.61254243153962 L 133.198485620087 128.70754115606542 L 133.36974775767885 128.8761304418731 L 133.82717634225264 129.51636832486838 L 134.01813636149745 130.0749875853362 L 134.09090909082443 130.62959281523945 L 133.79051639593672 132.02179243331193 L 133.3588044901844 132.91023120924365 L 132.91614931670483 133.78328286789474 L 132.74160419870168 134.03884281704086 L 131.9859715726925 135.1540743226942 L 131.25824427918997 136.39842381316703 L 130.75649546075147 137.4889021300478 L 130.1524270903319 138.92927011550637 L 129.54398141335696 140.27196335594635 L 128.87972507148515 141.5544461372774 L 128.65648241282906 142.74326820418355 L 128.50382383016404 143.2972044289345 L 128.45950359664857 143.84511960780947 L 128.6034075653879 144.02842700583278 L 128.5678419455653 144.0511731793522 L 128.6646898635663 144.15553797531174 L 128.67399164102972 144.19835430188687 L 128.66687851701863 144.2157484345371 L 128.6592182298191 144.2124034090084 L 128.5771437229123 144.2833179498848 L 129.29556923930068 144.40909090911737 L 129.41047354892362 144.08997547527542 L 129.40719056862872 143.99029371500365 L 129.04277975833975 143.45107560249744 L 128.68001043831464 142.36126629068167 L 128.72706648882013 141.910356851673 L 128.75114167749416 141.77254180060118 L 128.77631119277794 141.63807177502895 L 128.91693218122236 141.04867827982525 L 129.06794927385636 140.7295628459833 L 129.13087306229863 140.5663256010157 L 129.492548055714 139.75214639140177 L 129.55054737383034 139.58824014134007 L 129.68952687212732 139.109232488001 L 129.83835531107616 138.7780749623198 L 130.07965436112136 138.31110940082 L 130.22027534944937 137.64678733417531 L 130.43312190379947 137.0366546808218 L 130.4861967515899 136.88479052259936 L 130.6891943650553 136.46800034376793 L 130.86647529993206 136.20842636405723 L 130.96441754465923 136.08599843032425 L 131.0776803640183 135.96089447618579 L 131.18711303989403 135.84448758835788 L 131.2976400423795 135.7220596546249 L 131.60241004428826 135.43104243511334 L 132.49921082216315 134.7319321030809 L 133.24061720015015 133.42068210238358 L 133.51912336004898 132.7804442194174 L 134.04385304043535 131.30328095334698 L 134.02743813907728 130.5225519988162 L 133.95904271653853 130.2194926874363 L 133.27618281985633 129.02197355416138 L 132.18787485954817 128.72092125809286 L 132.05600848526228 128.72894931939663 L 131.22049000591505 128.59983133460628 L 130.51683790085372 128.47941041612648 L 130.22738847334404 128.49479753352352 L 130.1004465695005 128.49078350287164 L 129.1385333496146 128.43927011001506 L 127.87677459826227 128.5255717682303 L 127.18570725072641 128.35229944670573 L 125.94255205418449 127.91410110463039 L 125.6821022859076 127.74015977804083 L 125.34504964447115 127.57625352795003 L 124.0373291693395 127.19759664000594 L 123.87646313593723 127.19090658900677 L 122.56983698741533 126.82429179284372 L 122.17259637452662 126.58411896112375 L 120.9228752173949 125.93183898626012 L 120.0452251577517 125.88567763418541 L 119.63977709400933 125.68497610348277 L 118.7955040007364 125.32973439412308 L 118.04479584505316 125.25881985327578 L 117.66834744054358 125.01463299090392 L 117.43744449445512 124.85072674081312 L 117.31433273444418 124.76643209790927 L 116.83447045111097 124.49615403654752 L 116.66484980389941 124.41453541404917 L 116.49741780990735 124.33224778648582 L 115.86270829022396 123.94021079645609 L 115.48188257880975 123.62912342385971 L 115.34892187791411 123.52542763299425 L 115.19735762185883 123.43711895943852 L 115.04086889547762 123.3494792910933 L 114.61025131645147 123.19895314302994 L 114.02916380797978 123.07451819395646 L 113.72001649928279 123.05043401030707 L 113.30690814822447 123.01363872966613 L 113.17832475411706 123.0203287806653 L 113.022930354462 123.0430749541265 L 112.70338694134261 123.07251117867418 L 112.37727756763343 123.05311003068346 L 111.13631102454383 122.72462852543686 L 110.4260929588927 122.51188490286586 L 110.29532091144938 122.49984281102661 L 109.44721767434385 122.84772546423483 L 108.63030274980702 123.3949716380157 L 107.42380749981385 124.13756730165915 L 106.38966871367302 124.29745952112717 L 105.70352583681233 124.36636704669218 L 104.55831288499758 124.32488873033435 L 103.30312009400222 125.06213235316682 L 102.25256640673615 125.64483579734224 L 101.56587636645418 125.9351840117888 L 101.44550042308401 125.94120505769388 L 100.72269759967458 125.89838873114786 L 99.58022046473343 126.0308517414087 L 99.10801846894901 126.01145059341798 L 98.11382260988466 126.14525161389611 L 96.8931011116365 127.05978158887592 L 96.09971421235241 127.75420888516237 L 94.94957679032814 128.3810666661011 L 94.45603542251047 128.50617062026868 L 93.06842909392435 128.72092125809286 L 92.27668368490413 128.90623567151488 L 90.94762383785564 129.0172905184736 L 90.77800319052767 129.02531857969007 L 90.05903051083442 129.1845417940931 L 88.85910122119822 129.99002393736737 L 88.02194125158712 130.5499812080525 L 86.94129357847851 130.6215647540521 L 86.24092445371207 130.79885110614123 L 84.95563767699059 131.33137916764827 L 84.54581230611075 131.58693911676528 L 83.39841070096008 132.40044932125602 L 82.3106499039568 132.92829434704618 L 81.68797797884326 133.2534308267641 L 81.13370147615205 133.52705391368363 L 80.67791438172571 133.85754243427073 L 79.71928414213471 134.14186960278312 L 78.3661491064122 134.4027815927111 L 78.2085660531884 134.41549268961535 L 77.53938524110708 134.4047886080225 L 76.4045683934819 134.0488778935396 L 75.02790533239022 134.1445456231886 L 73.60746920120437 134.57270888870698 L 73.03458914358635 134.7098549347429 L 72.16514653468039 134.83830391435185 L 71.87514994409867 134.82224779191893 L 71.20651629508939 134.94868975624559 L 70.75784232467413 135.01023822568823 L 69.35272676765453 135.37618401669897 L 68.98010850674473 135.44241552180029 L 67.58429472753778 135.47185174631886 L 66.28915901004802 135.71470059850253 L 64.82713846198749 135.68593337907805 L 63.468531792401336 136.05856922111707 L 62.794973673298955 136.24722865998046 L 62.370374891208485 136.4485991958354 L 61.20382256782614 137.00521144096274 L 60.82737416296732 137.1316534053476 L 59.53387993562501 137.70900480871205 L 58.31479992787354 138.27364511514315 L 57.06453160732053 138.67705519185984 L 56.6733097913675 138.80951820214977 L 56.173202463192865 138.90384792161058 L 55.64081249572337 139.00888172266423 L 55.49964434397407 139.04166297265328 L 55.03181965497788 139.05838810023852 L 54.857274537323974 139.09719039616175 L 54.591353135183454 139.2069072329905 L 54.23952708253637 139.24437151869643 L 53.87183329218533 139.2517305747897 L 53.0603900012793 139.33334919731715 L 52.69214904739056 139.38218656976824 L 52.521981236641295 139.40560174835264 L 52.359473713324405 139.3895456258906 L 52.18657008535229 139.37482751364587 L 51.54967191244941 139.343384273845 L 51.10373375879135 139.3413772585045 L 50.26766811613925 139.45443912080373 L 49.048588108154945 140.1869997079193 L 48.44014243106358 140.78910430011456 L 47.94112942949869 141.18515532070887 L 47.71022648375947 141.37180774428998 L 46.957876837812364 141.77254180060118 L 45.604194638784975 142.0943332548777 L 44.73639352014288 142.2836616988643 L 43.780499097309075 142.46763810198172 L 43.037998392246664 142.46429307648214 L 42.37155339703895 142.61883325511008 L 42.16198982298374 142.6576355510333 L 41.44630012358539 142.81351373993675 L 40.183447045390494 143.19016361256945 L 39.459549895022064 143.3901961382071 L 38.79967086040415 143.53603925049538 L 38.63935199030675 143.528680194373 L 37.839946294086985 143.45575863818522 L 37.68783487472683 143.4363574902527 L 37.54010076250415 143.42030136779067 L 37.26433041959535 143.3908651433012 L 36.34673743334133 143.33333070448134 L 36.217606876045465 143.3186125922366 L 35.51559626101516 143.11991807681625 L 34.79935939819552 142.8958013675583 L 34.53890962980222 142.84094294911483 L 34.24946020252537 142.78809154604096 L 34.10008459992241 142.74059218377806 L 33.4495073427679 142.62217828063876 L 32.66487505764235 142.45894103567116 L 31.672320688376203 142.25355646922253 L 30.966479929862544 141.96922930071014 L 30.517805959214456 141.8153581271472 L 30.20428134314716 141.69025417300873 L 29.7517772288993 141.4862076167774 L 29.58543956174981 141.43068019329803 L 29.28340537683107 141.28216106057516 L 28.967144943890162 141.180472284992 L 28.67277104605455 141.0814595298434 L 28.52065962681081 141.00251692775055 L 28.112475746078417 140.76836514193565 L 27.813177377800457 140.43520060094306 L 27.357937446795404 140.18298567735474 L 26.43870297051035 139.67654881480848 L 25.476789750740863 139.1065564675955 L 24.801042977836914 138.6609990693978 L 24.280690604588017 138.29706029369845 L 23.573208355810493 137.95252266596071 L 23.37021074234508 137.78058835465345 L 23.290872052311897 137.6300622066192 L 23.158458514604717 137.51833835453726 L 22.06796190084424 136.81789001228753 L 21.225877460907213 135.92811322613852 L 21.07212455139961 135.61501883823075 L 20.875145735102706 135.2504110574373 L 20.677619755268097 134.75267126128892 L 20.617978947004303 134.3091208783735 L 20.549583524814807 133.75585365868756 L 20.558885302161798 132.9945258521766 L 20.58733779785689 132.27668337730574 L 20.478999448823743 131.56954498408595 L 20.550677851424553 130.81423822350916 L 20.47790512209758 130.04889638637542 L 20.329623846453615 128.6881400081329 L 19.915421168669127 127.63244995655259 L 19.424615617841482 126.81425671631587 L 19.28290030278731 126.67711067033815 L 18.635058862389997 126.07032304248423 L 17.714182895841077 125.08153350112843 L 17.125435100402683 124.02918847507681 L 16.877022926462814 123.59165913812467 L 16.78291082533542 123.43176691865665 L 16.678402619902045 123.27120569409453 L 16.602894073701464 123.09525735216448 L 16.224257015506737 122.16266423941124 L 16.11810731992591 121.25683133077109 L 16.137258038390428 120.87081538667553 L 16.235200283117592 119.9850526311784 L 16.46829188230913 119.0430934469914 L 17.02585136552807 117.86229944127263 L 17.099171258159913 117.69036512996536 L 17.20258513686713 117.55255007889355 L 17.782578318263404 117.0902675531106 L 18.02168871462345 116.93840339485905 L 19.260466604377143 116.46006474664318 L 19.79504522541538 116.27140530777979 L 20.86146665061824 115.7977496953099 L 21.891775293042883 114.95547227142379 L 22.83672644791659 113.97203477084986 L 22.89855590974912 113.8462618116173 L 23.51575620099902 112.89493655602564 L 24.64947872189805 112.14698885157122 L 25.796880327165127 111.46527265221812 L 26.886829777620733 110.97288489688071 L 27.95543985639233 109.95599714125274 L 28.290303844376467 109.69909918194753 L 28.346661672112532 109.64557877375046 L 28.804090256919153 109.16121907960041 L 29.547685288707726 108.24334407915012 L 29.714022955857217 107.8707082371111 L 30.04122665640898 107.26994165516226 L 30.370071846875362 106.80498310897383 L 31.174949177191593 105.96002966468222 L 31.425002841162495 105.71985683293315 L 32.00280736910645 104.95852902642218 L 32.09746663365513 104.81603093960439 L 32.94283405400347 103.67002519921516 L 33.49765771999955 103.04517443358782 L 34.318402788136154 101.77473374415422 L 34.99469672422856 101.22012851425097 L 35.22505250677932 101.57470121851657 L 35.30329687008634 101.84297226456692 L 35.1161669944413 102.65982749461546 L 34.787321803858504 103.18566550506512 L 34.58158837328665 103.50344292868976 L 33.78710714739282 104.71300415386213 L 33.707768457592465 104.79529178139637 L 33.018342600087635 106.01555708819069 L 32.46570758766029 106.98494548152667 L 31.704056164366193 108.21658387503703 L 31.48026634240523 108.53837532928446 L 30.825858941534534 109.64825479418505 L 30.46582543826662 110.17409280463471 L 29.807040730142035 111.24516997352475 L 29.215009954292327 112.5289907650149 L 28.62571499554906 113.4943651277863 L 28.08292892354075 114.48248566396069 L 27.34097538201604 115.77098949116771 L 26.392741246614605 116.94643145610462 L 26.241724154097028 117.08625352248782 L 25.54901531653013 118.37141232419526 L 25.285282567958347 119.84924459535978 L 25.193359120516106 120.72296525904676 L 25.233849210548215 121.64753031058353 L 25.43246951699257 122.67512214783346 L 25.858709788997658 123.94288681686157 L 26.243365644244477 125.41469804212102 L 26.517494497122243 125.9371910270711 L 27.210203334572725 127.01362023683032 L 27.81098872446455 128.1495909006917 L 29.019125464721583 128.96577712558792 L 29.57777927443385 128.9216227888537 L 30.292921810643747 128.91024970210856 L 30.7016528545646 128.90690467657987 L 31.71226361510344 128.74901947242324 L 32.14123970409855 128.15360493134358 L 32.12591912946664 127.23907495630556 L 31.811847350094467 126.0295137312205 L 31.609944063122384 125.206637455296 L 31.441964906058274 124.6426661539881 L 31.28274036280345 124.30281156193814 L 31.187533934833482 124.03989255672786 L 31.06442217458971 123.56422992891748 L 31.12898745329585 122.86311258163187 L 31.15196831524372 122.06231347404537 L 31.180420810938813 121.69837469834602 L 31.20832614332903 120.77314064174425 L 31.381776934256777 120.07737533526961 L 31.590793345007114 119.63382495238329 L 31.814583166968077 119.12136704399018 L 32.19595604180358 118.46306602322147 L 32.49689590022899 118.0556419158529 L 33.040776298730634 117.31772928789724 L 33.590675494400784 116.66344229778042 L 34.30253505031578 115.83119995042216 L 34.77364271925762 115.34148821546114 L 35.62338744662702 114.57949140385608 L 36.312813303782605 113.22074204089586 L 37.076106217107736 111.86600670852931 L 37.878247730550356 110.54672864664462 L 38.679294917033985 109.32445632459712 L 39.38732432911638 108.05334663004032 L 39.81739474483766 107.42247481850791 L 40.45100993744563 106.37213680773857 L 41.08079498645384 104.94314190902514 L 41.71659883263055 103.67136320937425 L 42.41259065037593 102.34940912708407 L 42.970150133245625 101.41547800414264 L 43.5605394190643 100.01056728913682 L 43.88719595607836 98.59495249250904 L 44.527924272813834 97.29574458365096 L 44.970579446293414 95.79382812877884 L 45.12925682601053 95.35161575610982 L 45.69830673991237 94.26916550041642 L 46.42712836060673 93.05559024473769 L 46.91793391131796 91.70419993787073 L 47.448135225335136 90.19559343199944 L 48.07737311092205 88.76726753838011 L 48.67542268394027 87.57978348166216 L 49.225321879494004 86.18156281771371 L 49.803673570859246 84.8669677915168 L 50.32840325124562 83.50821842852747 L 50.510061493027024 82.72013041790342 L 50.57790975179523 82.68668016284937 L 50.64466368407011 82.71544738221564 L 50.49692957196385 82.14478602987947 L 50.38476107921451 80.7030800342327 L 50.35247843968682 80.31840210032533 L 50.33004474127665 79.93372416647617 L 50.363421707530506 78.94359661493218 L 50.31362983980216 78.61979814540246 L 50.31855431036092 78.27526051766472 L 50.345365315908566 77.93206090014428 L 50.38749689597171 77.41692697125836 L 50.40828910446726 77.28446396099753 L 50.444949050899595 77.15869100176496 L 50.47668452677317 77.04161510887207 L 50.50349553232081 76.92186319554457 L 50.531948028015904 76.78940018525464 L 50.63973921362776 76.32310362890712 L 50.70649314590264 75.95381281233858 L 50.81483149493579 75.47012212334084 L 50.84601980750449 75.36508832225809 L 50.87392513966188 75.27276561813778 L 50.87009499617852 75.1971680415736 L 50.85915172856767 75.04329686803976 L 50.87447230319958 74.94829814348486 L 50.84930278768297 74.67266804131214 L 50.859698891988955 74.4927056687593 L 51.05613054498099 73.22427199460799 L 51.10701673920266 72.89579048936139 L 51.16884620091878 72.71449010662036 L 51.43914491008036 71.84076944290427 L 51.610954210860655 70.70279176373151 L 51.58687902218662 70.42916867684107 L 51.56389816047158 68.96204048732761 L 51.740084768272936 68.65162211982533 L 52.06126967188902 68.25557109917281 L 52.49079292395618 67.76786637952318 L 52.83988315972965 67.39991357325925 L 52.9673722271109 67.30759086908074 L 53.194992192671634 67.1303045170207 L 53.41987634124234 66.8921387004957 L 53.644213326391764 66.63925477181328 L 54.00096384959761 66.27999903183081 L 54.115320995566435 66.16359214406111 L 54.2138104038313 66.05588232251466 L 54.70516311796382 65.52603028144222 L 55.05370619031601 65.11994418429094 L 55.10295089439023 65.04300859753857 L 55.29172226006631 64.85100413314649 L 55.338231147266924 64.79012466879794 L 55.43945637228899 64.66568971978268 L 55.63534086197615 64.39139762782725 L 55.77650901360903 64.22013232161407 L 56.63993282546289 63.062084489356494 L 57.43331972451415 61.88864953973098 L 57.98048310331069 61.12464571284363 L 58.83241648413241 59.883641247899504 L 59.65425587911159 58.71689634936047 L 59.80034850095399 58.43390719103627 L 59.96176169789396 58.1683121654205 L 60.52260416117497 56.85840017491137 L 60.780865275883116 56.207458210294135 L 61.37289605173282 54.793181423825445 L 62.07600099348929 53.51605068339268 L 62.63520196650643 52.84905259631341 L 62.72001229028683 52.717258591146674 L 63.601492493529804 51.56456279975828 L 63.75086809589993 51.34178410063032 L 64.66463093843777 50.242608717409894 L 65.28566137340385 49.324064711807296 L 65.70205270464066 48.761431420687586 L 65.92255954630673 48.49316037466633 L 66.22514089476317 48.11249647141085 L 66.68311664275825 47.383949914888944 L 66.7783230706118 47.25750795053318 L 66.87352949858177 47.146453103545355 L 66.96764159970917 47.04810935349087 L 67.30633573117666 46.492835118522635 L 67.49784291372634 46.214528995915316 L 68.14130704721902 45.43246203122544 L 68.42200186057016 45.076551316771656 L 68.51830261503346 44.93873626567074 L 68.56317001231946 44.85377261770191 L 68.61405620642472 44.77616802579723 L 68.67643283156212 44.70859851044952 L 68.73880945681594 44.643036010384094 L 68.79462012159638 44.56810743897222 L 68.85699674661737 44.49317886744393 L 69.04522094898857 44.29649136736407 L 69.85392842278816 43.15516866266262 L 70.4645627536811 42.308208203088725 L 70.52256207168102 42.233948636683635 L 70.71352209092584 42.013845958019374 L 71.6480771418428 40.80428473290522 L 72.24339089775458 40.00214761518873 L 72.34844626649283 39.88841674773721 L 72.4436526944628 39.79074200280593 L 72.88083623407874 39.31441036990145 L 72.99683487031143 39.21807363515836 L 73.17137998819817 39.047477334039286 L 74.07967119698878 38.255375292821554 L 74.2580464585917 38.173087665229104 L 74.97975495515857 37.8673523334146 L 75.55482366634533 37.59573626186466 L 76.85707250784617 37.17827707796823 L 77.1093148252694 37.112045572837815 L 77.36374579649419 37.015708838094724 L 78.28243310935795 36.676523251167964 L 79.3209492021706 36.28582427138463 L 80.59091540437657 35.717169934359845 L 81.1577766649425 35.45224391377997 L 81.32302000524942 35.38132937296177 L 81.64256341848522 35.278302587219514 L 81.95225789071992 35.180627842230024 L 82.61323125229683 35.01471457685693 L 82.78941786033101 34.99598243396031 L 82.95739701762795 34.96922222984722 L 83.11333858058788 34.95985615844256 L 83.90453682618681 34.81602006140747 L 84.20000505098142 34.702958199137356 L 84.34336185606662 34.65813485730905 L 85.47325423324946 34.187155265157344 L 85.73808130854741 34.05870628551929 L 85.87049484613817 33.99581980591756 L 86.23928296356462 33.76233702516765 L 86.37716813478619 33.672690341452835 L 86.8318609027192 33.43586253517424 L 86.98397232219577 33.364947994356044 L 87.27287458593491 33.25389314736822 L 88.04875225713477 32.974249014572706 L 88.38963504205458 32.86453217777307 L 88.56035001634154 32.79896967773675 L 88.72559335676488 32.72805513686035 L 90.12742593314033 32.59090909091174 L 91.00617031939328 32.75147031544475 L 91.7984628919512 33.41110934643075 L 91.82308524404652 33.54223434647429 L 92.10213856701739 34.06606534169987 L 92.51907706167549 34.757147612428525 L 92.55683133483399 34.83140717877541 L 92.69745232327841 35.03879876053543 L 93.61121516593266 36.1500162355951 L 94.5682039152598 37.19700922086486 L 95.498928822577 38.16639761420083 L 96.04882801824715 38.87755003804341 L 96.1538833869854 38.98726687481394 L 96.25784442888107 39.092300675896695 L 96.7617819007719 39.587364451697795 L 97.7795057852054 40.697243916540174 L 98.62432604213245 41.92353026921046 L 98.81911620509345 42.23729366221232 L 99.66174780833535 43.35185616277158 L 100.5093038820196 44.30853345923242 L 101.2020127197029 45.07186828108388 L 101.80170378263574 45.76629557731212 L 102.05449326371308 46.03657363867387 L 102.26022669405211 46.27206343473517 L 102.48620516958181 46.56642567977542 L 102.68920278304722 46.8293446850148 L 103.65713480021805 47.8415494049259 L 103.91320726147387 48.10915144588216 L 104.92381802201271 49.263854252611054 L 105.1339287593728 49.604377849726006 L 105.49232077249326 50.11415973777184 L 105.82773192366585 50.64802580943797 L 106.29610377596691 51.28625667709275 L 106.55983652465511 51.572590860916534 L 107.51791960082483 52.542648259404814 L 108.11323335696943 53.156794943410205 L 108.59145415003877 53.641154637531145 L 109.1856735793408 54.33022989294841 L 109.61355534149334 54.78381535242079 L 109.77989300864283 55.000573005585466 L 109.86853347590659 55.11229685769649 L 109.96975870092865 55.23071076083579 L 110.04472008394077 55.33708257210674 L 110.1065495457733 55.42739826091565 L 110.18151092866901 55.51905195994186 L 110.32924504089169 55.89503282748046 L 110.37739541823976 55.97598244482651 L 110.40639507735614 56.06094609288266 L 110.5453745755367 56.32118907768745 L 111.3414972916944 57.17283257303643 L 111.46625054208562 57.28254940980696 L 112.16661966685206 57.89335106831277 L 113.19364532874897 58.817916119791334 L 113.42235962115228 59.161115737311775 L 113.70305443450343 59.523047497699736 L 113.78184596099891 59.611356171255466 L 113.8447697495576 59.70300987025257 L 114.22887844138313 60.22617186032585 L 114.33502813684754 60.366662931861356 L 114.75524961180054 61.083167396485806 L 115.52127834211569 62.092696095991414 L 115.71059687109664 62.403114463493694 L 115.87584021151997 62.71888487180695 L 116.10291301377583 63.264124030276434 L 116.21562866983004 63.8133772193396 L 116.28675990912598 64.86572224539123 L 116.147780410829 65.15138742409181 L 116.0350647547748 65.4370526028506 L 114.9571528986562 66.5181648483267 L 113.77090269327164 67.45343398145633 L 113.11813678254839 67.82071778268437 L 112.72965078346897 68.10370694092126 L 112.47467264905572 68.34856280841632 L 112.27714666933753 68.55528538505314 L 111.4317792491056 69.3172821967164 L 110.58422317530494 70.12544036033796 L 109.77989300864283 70.69810872801463 L 109.31152115634177 71.15771523336298 L 108.88473372103181 71.7390806673211 L 107.85606656887103 72.80079176480649 L 107.71489841723815 72.9406138312188 L 106.73000433517154 74.03042314300546 L 106.33112223213539 74.35756663806387 L 106.02306925004814 74.58435936778551 L 105.6099608988734 74.96836829656968 L 105.05130708927754 75.57916995504638 L 104.80617789539974 75.86617314396426 L 104.57910509337671 76.29299839929445 L 103.55372092151083 77.4343211039959 L 102.54694030468818 78.44786383403698 L 102.31549019529484 78.69539572196663 L 101.82194882771 79.15567123237997 L 101.42908552184235 79.84073245726177 L 101.15878681256436 80.68100286583649 L 100.79382883897051 81.06501179464976 L 100.53556772414595 81.312543682463 L 100.1673267702572 81.6677853918809 L 99.8193308613263 82.00563296859036 L 98.8010598133551 82.90878985679592 L 98.55428912967909 83.23860937228892 L 97.38281233573798 83.90694546952727 L 96.02584715629928 84.40000223001698 L 95.38019436935429 84.57260554644745 L 95.22479996969923 84.59869674546644 L 94.91127535386477 84.65623118422809 L 94.75642811751459 84.6796463628416 L 94.44892229884863 84.71042059751926 L 93.08757981227245 84.91915018946747 L 92.91029887762852 84.91446715375059 L 92.55792566179298 84.91647416903288 L 92.36970145930536 84.92918526602443 L 92.20391095569357 84.93319929661811 L 92.0397619419964 84.92584024049575 L 91.89148066635244 84.93386830177042 L 91.28084633557592 84.9820366690983 L 91.20533778937533 84.96129751089029 L 90.88470004929695 84.959290495608 L 89.63662038231269 84.78668717920664 L 88.486482960172 84.55855643929681 L 87.1891585891135 84.41003730654484 L 87.05182058108039 84.40067123514018 L 85.60895075125154 84.45017761271447 L 85.16629557788838 84.45151562290266 L 84.82322413928341 84.43211447494105 L 84.65086767508183 84.38729113308364 L 84.4949261121219 84.37859406671487 L 84.40902146149892 84.37725605655578 L 84.31983383081388 84.37391103102709 L 84.11957203422207 84.38461511267815 L 84.01068652176764 84.37926307186717 L 83.89961235586088 84.39933322489378 L 83.79017968010157 84.42141039328999 L 82.39983753464185 84.71175860776566 L 81.98289904010016 84.80809534247965 L 81.70110989990644 84.87499585273326 L 80.3611067852471 85.34196141417488 L 79.13491365360096 86.08121205231873 L 78.33222497673705 86.63983131278655 L 78.1932454786729 86.76761128738872 L 78.06083194096573 86.89472225683858 L 77.16950279695448 87.49816485919291 L 76.24643817683682 88.14040975747048 L 75.35784484981559 89.26166230905801 L 74.5245150240371 90.58495440159459 L 74.2547634781804 91.13420759065775 L 74.07474672666285 91.37638743771822 L 73.54180959565565 92.2982764688204 L 73.47177268308587 92.49228794852388 L 73.32732155127451 92.87629687727895 L 73.04662673780695 93.47104241332272 L 72.82447840622626 93.98885236258502 L 72.738026592182 94.1574416483636 L 72.55582118709572 94.4651839954604 L 72.3495405933354 94.97429687838303 L 72.16678802471142 95.44193144494784 L 72.804233361152 96.76656154770171 L 73.57846954197157 97.94066550239222 L 74.45721392845735 99.20508514586254 L 74.72039951372426 100.59728476393502 L 74.27719717670698 101.18400223870412 L 74.16119854047429 101.27833195813582 L 72.97604266216513 101.42016103988863 L 72.67127266002353 101.81219802991836 L 72.90381709602661 102.21159407601226 L 72.8075163414469 102.37416231591487 L 72.8261198962573 102.15339063209831 L 72.82502556953114 102.16275670350296 L 72.87208162003662 102.38352838731953 L 72.5974056039704 102.5768708618998 L 71.91290421714075 103.05520951008657 L 71.8264524032129 103.27196716328035 L 71.76188712450676 103.27464318368584 L 71.76298145134933 103.31679050510866 L 71.770094575244 103.32481856638333 L 71.89047051861417 103.424500326626 L 71.91399854386691 103.48738680625684 L 71.88609321147669 103.61717379608308 L 71.81332048214972 103.79914318397641 L 71.59500229405239 104.23065147502348 L 71.56873845192604 104.28149586278596 L 71.54138028284069 104.33769229138852 L 71.38708021002822 104.59927328643971 L 71.37121247209143 104.68891997015453 L 71.19830884435214 105.1197592561075 L 70.80052106804214 106.17946333825239 L 70.47660034778528 106.30724331282545 L 69.97813450987451 106.27379305771319 L 69.97594585607294 106.26375798115623 L 69.97321003943216 106.24234981788322 L 69.95132350421045 106.03964127186919 L 70.0842842052225 106.02626116981264 L 70.22271654009819 106.107879792311" stroke-linejoin="bevel" stroke-miterlimit="10" stroke-width="3"/></g></g></g><g><g fill="#444444"><path fill="" stroke="none" d=""/><g transform="translate(10,22)"><path fill="none" stroke="none"/><text fill="" stroke="none" font-family="helvetica" font-size="10pt" font-style="normal" font-weight="bold" text-decoration="normal" x="0" y="0" text-anchor="start" dominant-baseline="text-after-edge">10.92392</text></g></g></g><g/></g></g></svg>