<svg version="1.1" xmlns="http://www.w3.org/2000/svg" xmlns:xlink="http://www.w3.org/1999/xlink" width="150" height="160" style="width: 150px; height: 160px;"><defs><clipPath id="WwwzlzokJCEZ"><path fill="none" stroke="none" d=" M 10 27 L 140 27 L 140 150 L 10 150 L 10 27 Z"/></clipPath></defs><g><g transform="scale(1,1) translate(0.5,0.5)"><rect fill="#FFFFFF" stroke="none" x="0" y="0" width="150" height="160"/><rect fill="#ffffff" stroke="none" x="0" y="0" width="150" height="160"/><rect fill="#FFFFFF" stroke="none" x="10" y="27" width="130" height="123"/><rect fill="#ffffff" stroke="none" x="10" y="27" width="130" height="123"/><g><rect fill="none" stroke="#FFFFFF" x="10" y="27" width="130" height="123" stroke-linejoin="bevel" stroke-miterlimit="10"/></g><g clip-path="url(#WwwzlzokJCEZ)"><g><g/><g/><g><path fill="none" stroke="none"/><path fill="none" stroke="#2E4E60" paint-order="fill stroke markers" d=" M 74.73600292764604 71.2826335625723 L 75.24308641254902 72.83391016162932 L 74.31778974365443 71.43896376248449 L 78.10261905938387 85.00361495255493 L 76.27816404309124 83.99348135339096 L 74.05117883905768 82.36403965437785 L 72.40446442645043 81.94916335493326 L 71.453029432334 81.82890935475007 L 69.0587589526549 81.14346155547537 L 66.80040775891393 80.54820425575599 L 64.82957812771201 80.39788675564341 L 62.759422866627574 80.85485195554793 L 60.80427623074502 81.12542345514521 L 59.12096816394478 81.78682045498863 L 57.12922787480056 82.30992535455152 L 55.39364316035062 82.37005235441029 L 53.39144754130393 81.22162665519863 L 51.96952271461487 79.55610875645652 L 50.90307909529656 77.87255275738426 L 50.19211668241769 75.81620935932733 L 50.07188039179891 73.92822156054899 L 50.615557530894876 72.43105926178396 L 51.70291181001812 71.09623986273073 L 52.98891734983772 69.94180146348663 L 54.442208166234195 69.00382026424631 L 55.869360658340156 68.10191526520066 L 57.301740813069046 67.35634046513587 L 58.79162528179586 66.57468946604058 L 60.20832244306803 65.80506386654451 L 61.614564274437726 64.85505726723932 L 63.13581473194063 63.826885567745194 L 64.63092686608434 62.87687896890566 L 66.06853468623012 61.80060566961765 L 67.51137017086148 60.628129170043394 L 69.08489727601409 59.431601871037856 L 70.70024569984525 58.19899837207049 L 72.25808981154114 56.894242473179474 L 74.00935752037913 55.89012157381512 L 75.77108055818826 54.99422927433625 L 77.45438862685114 54.05624807532877 L 79.11155836749822 53.028076375834644 L 80.79486643429846 52.029968176735565 L 82.49385749269277 51.0378726774361 L 84.23989753890783 50.160018478287384 L 85.9859375813976 49.12583407876082 L 87.68492864258587 47.86316707963124 L 89.48324533458799 46.744804880581796 L 91.15087040606886 45.46409978112206 L 92.86031679715961 43.990988282253966 L 94.51225887332112 42.632118083536625 L 96.1276072980836 41.33938758447766 L 97.81614302936941 39.89032688550651 L 99.60923205595464 38.48936778656207 L 101.30299545172602 37.653602487174794 L 102.94448220171034 36.589354587951675 L 104.51278164237738 35.741563888732344 L 106.02357676811516 34.91181128891185 L 107.65460818540305 34.11212218971923 L 109.3117779288441 33.258318790467456 L 111.02122431993484 32.67508689081296 L 112.98682628478855 32.590909090824425 L 115.13016885239631 33.19819179037586 L 117.13759213779122 33.925728489877656 L 119.19729206897318 35.02003988926299 L 121.00606408994645 36.24663068843074 L 122.79915311746299 37.40106908744201 L 124.53473783191293 38.89221868594177 L 126.19190757535398 40.257101584924385 L 127.62428773008287 41.609959084307775 L 128.8527889577672 43.14921028306708 L 129.51670238748193 44.45997888222337 L 129.11417219880968 43.81661998294294 L 128.7743739867583 43.44984528259374 L 128.57049505971372 43.41376908286475 L 128.51299074757844 43.630226282868534 L 128.58617805410177 44.38181378226727 L 128.86847195401788 45.22359178168699 L 129.21872549504042 46.22771268081851 L 129.51147472392768 47.38215108006261 L 130.00287521537393 48.57867837883532 L 130.48382037878036 49.99166287807748 L 131.01704218704253 51.50085057714023 L 131.63913429807872 52.961936675943434 L 132.3762350352481 54.453086274908856 L 132.940822834149 56.28094707336277 L 133.51586596202105 58.006591972196475 L 134.09090909082443 59.66609717113897 L 117.16373046115041 73.53739606100135 L 112.95546029508114 81.49219815502875 L 111.36625019460917 87.69129185052589 L 110.93758168071508 92.30303274723701 L 110.93758168071508 96.11508454452269 L 111.25646923482418 99.29580284212716 L 111.63808876648545 102.55468623968773 L 112.32814051862806 105.35059173754416 L 112.8665899951011 107.99016703595407 L 113.5095927650109 110.5996788337361 L 114.45580009464175 113.02880963170901 L 115.28177113179117 115.43388963025063 L 115.85158659610897 117.74877912853844 L 116.0345548633486 120.31018932675943 L 115.86204192601144 122.65514232497662 L 115.31313712242991 124.84977782331407 L 114.30942547973245 126.49124492215924 L 112.9711432904005 127.78397542098537 L 111.56490145716816 128.9504392205272 L 110.11683830991387 129.90645851986483 L 108.58513252157718 130.6219698190689 L 107.11615871172398 131.30741761857644 L 105.66809556167573 131.94476381829008 L 104.18866642285138 132.79255451750942 L 102.70923728309572 134.34984381659888 L 101.26117413304746 135.75681561557576 L 99.77128966525197 136.8992286142893 L 98.32322651427239 138.0476543137338 L 96.86993569973856 138.89544501318596 L 95.44801087398082 139.57488011289388 L 93.9267604155466 140.47678511193953 L 92.55188457295299 141.31856311135925 L 91.06200010329485 142.04609981109388 L 89.40483036078513 142.8037000100594 L 87.64310732390732 143.4530716096051 L 85.7088713478297 143.65750340931118 L 83.86350567266345 143.26667790999636 L 82.33702754974365 142.32268401049078 L 80.97260703612119 141.03596621146426 L 79.82252078130841 139.71918491250835 L 78.70380051154643 138.3723401131574 L 77.9562444454059 136.88119051465765 L 77.50143760815263 135.54637111537158 L 77.60599090438336 134.33180571650155 L 76.87934549711645 133.00299901748076 L 76.0220084702596 131.77039551828057 L 75.26399707235396 130.6159571192693 L 74.11913848109543 129.32923932000995 L 73.06837785616517 127.04441332188435 L 72.36264310777187 125.14440012327395 L 71.09754822496325 123.0279297248926 L 69.81154268421233 121.13994192611426 L 69.08489727601409 119.51651292736642 L 68.58304145466536 118.07346492819488 L 67.736159757711 116.5522518295329 L 66.85268440656364 114.75445453100838 L 65.96398138999939 113.13703823206015 L 65.08050603792071 111.51962193287909 L 64.16566469799727 110.10062473407015 L 63.156725390814245 108.39301793533377 L 62.59736525826156 106.69743653666228 L 62.03800512291491 105.1521726376377 L 61.24862773809582 103.70311193866655 L 60.140362800098956 102.16987343970686 L 59.37189607322216 100.48631744110025 L 58.76025929208845 98.86890114215203 L 57.793141305446625 97.99104694277048 L 56.50713576283306 97.3537007435225 L 55.34659417811781 96.47584654414095 L 54.159914267249405 95.68818284478039 L 52.92618537321687 94.65399844525382 L 51.82837576512247 93.46949654608034 L 50.782842804677784 92.33910894719884 L 49.904595118016005 91.7859405472409 L 48.52971927635372 91.20270864805207 L 47.52077996917069 91.04637844813988 L 46.42819802463055 91.22675944771618 L 45.05854984559119 91.51536904787645 L 43.76731663942337 91.87011834746227 L 42.48653876315802 92.18879144731909 L 41.42532280832529 92.4774010470137 L 40.18113858718425 92.69385824725032 L 39.0571906529367 93.13278534659185 L 37.76595744676888 93.80620774603449 L 36.3231219612062 94.40146504575387 L 35.1730357054621 95.1710906450171 L 34.043860107660294 96.00685594440438 L 32.846724869683385 96.80654504382983 L 31.811647238209844 97.32964994362555 L 30.7817972721532 97.97902154293843 L 29.56375137437135 98.87491384265013 L 28.110460558906198 99.71669184206985 L 26.709446390159428 100.1135300414171 L 25.21433425694704 100.49834284116514 L 23.8499137442559 101.07556204055436 L 22.490720896050334 101.53853994049132 L 21.277902661822736 101.85721304011531 L 19.90302682016045 101.9353781400714 L 18.705891577526927 101.72493364033289 L 17.482618015259504 101.00340964086354 L 16.95462387148291 99.68662834190764 L 16.322076430544257 98.09326284285635 L 15.909090909175575 96.37363064405508 L 16.28548277541995 94.49766824557446 L 16.949396206066012 92.53151534684002 L 18.031522819772363 90.89606094826013 L 19.558000941760838 89.63940664916299 L 21.246536672115326 88.42484125006013 L 22.788697788491845 87.17419965099543 L 24.45632286183536 86.00773585168645 L 26.134403264150023 84.89538635266945 L 27.702702704817057 83.81911305338144 L 29.260546814650297 82.76087785419077 L 30.87066757399589 81.82289665495045 L 32.44942234456539 80.98713135533035 L 33.897485493682325 80.07921365578659 L 35.376914634369314 79.09914355678484 L 36.89816509000957 77.92666705767624 L 38.320089916698635 76.86241915845312 L 39.91452768165618 75.834247458959 L 41.69193371292204 75.07664725976065 L 43.385697110556066 74.26493276050314 L 44.98013487365097 73.5915103610605 L 46.59548329748213 72.79783396120183 L 48.21605938579887 71.89592896215618 L 49.74253750964999 70.99402396287769 L 51.35265826899558 70.17028406332247 L 53.11438130680472 69.37660766392946 L 54.83428302593529 68.47470266441815 L 56.53327408712357 67.42849286505952 L 58.3786397613585 66.36424496606924 L 60.25537142623216 65.4322764670942 L 62.1216477593407 64.56043496751226 L 63.92519211675972 63.694606168428436 L 65.47258089855313 62.79270116868429 L 67.10883998125792 61.95092316926457 L 68.83396936487406 61.16927217016928 L 70.41795180086046 60.48983707022853 L 71.94965758919716 59.738249571062624 L 73.63296565413475 58.80026837182231 L 75.2901353975758 57.940452272538096 L 76.67546656820923 57.02050917292945 L 78.25944900512695 56.094553373754025 L 79.8486591046676 55.28283887426369 L 81.36468189675361 54.5613148745615 L 83.12117727007717 53.96605757530779 L 85.1965601965785 53.73757497523911 L 87.36604108847678 53.80371467536315 L 89.60870928969234 54.61542917508632 L 91.68931988161057 56.03442637366243 L 93.62355585768819 57.519563272362575 L 95.33300224784762 59.12495417147875 L 97.05813163239509 60.83857367001474 L 98.66825239174068 62.66042176866904 L 100.1529091950506 64.65663816710003 L 101.48596371896565 66.82121016574092 L 102.5001306924969 68.92565516429022 L 103.3731507146731 70.83168106316589 L 104.20434941723943 72.76175776147284 L 105.06691411044449 74.5775931600947 L 105.89811281301081 76.3212761587929 L 106.79727115854621 78.16116235754453 L 107.67029118072242 79.94092155597173 L 108.522400544025 81.62447755481116 L 109.41633122507483 83.35613515367731 L 110.35208322294056 85.09981815237552 L 110.98985833115876 86.74729795125313 L 111.6485440954566 88.4849682499189 L 112.42223848495632 90.12643534876406 L 113.24298185948282 91.62961034779437 L 114.02190391439945 93.13278534659185 L 114.95765591599047 94.86444294522516 L 115.778399287723 96.47584654414095 L 116.46845104172826 98.05117394309491 L 117.21077944431454 99.80086964182556 L 118.04720581322908 101.45436214050278 L 118.82090020366013 102.96956253936514 L 119.66255423706025 104.5629280381836 L 120.56171258352697 106.07211573701352 L 121.35108996741474 107.44902403606102 L 122.27638663724065 108.87403393513523 L 123.36374091729522 110.38923433399759 L 124.4092738777399 111.89842203282751 L 125.30843222420663 113.35950813209638 L 126.30691619962454 114.98894983064383 L 127.27926185447723 116.44402322964743 L 127.79680066835135 117.9832744281739 L 128.2097861878574 119.8472114270553 L 128.25160750653595 121.88551672548056 L 127.92749228794128 123.96591092413291 L 127.23221287038177 125.87794952257536 L 125.15682994388044 127.33302292157896 L 123.71922212373465 128.45739782089368 L 122.19797166623175 129.7080394201912 L 120.58262324240059 130.89254131889902 L 118.75294056069106 131.98685271805152 L 116.9964451873675 133.2495197171811 L 115.18244550097734 134.46408511628397 L 113.35276281926781 135.51630761590786 L 111.87333368137479 136.47833961481228 L 110.24230226315558 137.71695581427775 L 108.12509801797569 138.65493701328523 L 106.17517904844135 139.12994031282142 L 104.8578075170517 139.61696901265532 L 103.35746772028506 140.392607311951 L 102.07668984215707 141.2103345117066 L 100.68090333975852 141.9559093110729 L 98.97145694959909 142.8217381099239 L 97.08426995761693 143.5252240097616 L 95.6780281253159 143.976176509168 L 94.12541167810559 144.40909090917557 L 92.243452350609 144.3670020091813 L 90.6594699146226 144.04832890932448 L 89.23231742344797 143.35085570975207 L 87.98290553595871 141.99198551056907 L 86.82759161572903 140.41064541204832 L 85.94934392813593 138.83531801309437 L 85.11291756015271 137.3020795143675 L 84.10397825203836 135.51630761590786 L 83.18390924762934 134.07927231653593 L 82.55136180762202 132.8226180174388 L 82.2742955731228 131.73431931831874 L 82.0913273030892 130.64602061919868 L 81.23399027623236 129.305188520113 L 80.1832296513021 127.92226752080023 L 78.9181347694248 126.52130842185579 L 77.66872288100421 125.12636202317663 L 76.57614093832672 123.59913622424938 L 75.49924198910594 122.17412632517517 L 74.65758795570582 120.55671002645977 L 73.95185320731252 119.25195412756875 L 72.90632024686784 117.97726172860712 L 71.83464896213263 116.62440422945656 L 70.8884416334331 115.2535086304415 L 69.52402112074196 114.29748933110386 L 68.45757749956101 113.5098256317433 L 67.69956610444933 112.92058103182353 L 67.09838465321809 112.10886653279886 L 66.40833289735019 111.27911393321119 L 65.80715144518763 110.4373359340243 L 65.10664436314255 109.58954523457214 L 64.32772230729461 108.52529733534902 L 63.49129593838006 107.43699863622896 L 63.020806105807424 106.34869993687607 L 62.58168226201087 105.31451553734951 L 62.21051806397736 104.5629280381836 L 61.71911757066846 103.91956913867034 L 60.914057191461325 102.7410799395293 L 60.354697057045996 101.32809544051997 L 59.11051283311099 99.69865374173969 L 58.671388992108405 97.58218334312551 L 58.48842072207481 95.66413204465061 L 58.41000575106591 93.9565252456814 L 58.284541795030236 92.21885494724847 L 57.662449683994055 90.64954024855979 L 57.1658215271309 88.88781914976425 L 56.805112657137215 87.06597105110995 L 56.28234617691487 85.5988722522743 L 55.456375136971474 84.39031955320388 L 54.53630613256246 83.2899954537861 L 53.5378221552819 82.0874554545153 L 52.649119139648974 81.22162665519863 L 51.572220189496875 79.73047705623321 L 50.4325892617926 78.10704805748537 L 49.136128393001854 76.78425405849703 L 47.54169062804431 75.58772675925866 L 45.86883789114654 74.62569475988857 L 44.06529353372753 74.01841206033714 L 42.26697684265673 73.7117643605452" stroke-linejoin="bevel" stroke-miterlimit="10" stroke-width="3"/></g></g></g><g><g fill="#444444"><path fill="" stroke="none" d=""/><g transform="translate(10,22)"><path fill="none" stroke="none"/><text fill="" stroke="none" font-family="helvetica" font-size="10pt" font-style="normal" font-weight="bold" text-decoration="normal" x="0" y="0" text-anchor="start" dominant-baseline="text-after-edge">1.01051</text></g></g></g><g/></g></g></svg>