<svg version="1.1" xmlns="http://www.w3.org/2000/svg" xmlns:xlink="http://www.w3.org/1999/xlink" width="150" height="160" style="width: 150px; height: 160px;"><defs><clipPath id="VGkzCzZuJCPe"><path fill="none" stroke="none" d=" M 10 27 L 140 27 L 140 150 L 10 150 L 10 27 Z"/></clipPath></defs><g><g transform="scale(1,1) translate(0.5,0.5)"><rect fill="#FFFFFF" stroke="none" x="0" y="0" width="150" height="160"/><rect fill="#ffffff" stroke="none" x="0" y="0" width="150" height="160"/><rect fill="#FFFFFF" stroke="none" x="10" y="27" width="130" height="123"/><rect fill="#ffffff" stroke="none" x="10" y="27" width="130" height="123"/><g><rect fill="none" stroke="#FFFFFF" x="10" y="27" width="130" height="123" stroke-linejoin="bevel" stroke-miterlimit="10"/></g><g clip-path="url(#VGkzCzZuJCPe)"><g><g/><g/><g><path fill="none" stroke="none"/><path fill="none" stroke="#440154" paint-order="fill stroke markers" d=" M 15.909090909175575 66.05889547546394 L 15.929186440072954 66.17205121601 L 15.951793912798166 66.36354554630816 L 16.032176036853343 66.35484125872608 L 16.429062775336206 66.42157413158566 L 16.667697206139565 66.57244845235255 L 16.8560928106308 66.68560419289861 L 17.197716838680208 66.93802853766829 L 17.544364749453962 67.17594573600218 L 17.84328577341512 67.3529329203302 L 18.23012474644929 67.44577865640167 L 18.770192143972963 67.48639866581652 L 19.44339243415743 67.48639866581652 L 20.21707038069144 67.32391862780787 L 20.877710964996368 67.03087427373976 L 21.44289777521044 66.63627989578526 L 21.864903927780688 66.31131982000079 L 22.153777187224478 65.8180768477032 L 22.57327139796689 65.467003908474 L 23.007837257348 65.00277522881515 L 23.43235535081476 64.54434940754436 L 23.897064506541938 64.05981072294526 L 24.36428560409695 63.639103481778875 L 24.87169776344672 63.02400048112031 L 25.384133805520833 62.39439033402596 L 25.856378785334527 61.80249876738526 L 26.373838710598648 61.38759438483976 L 26.788309038151056 61.05683145055082 L 27.250506252981722 60.505559893208556 L 27.677536288276315 60.00651406252291 L 28.061863319948316 59.49296108528506 L 28.519036651123315 58.96490096207708 L 28.963650275953114 58.39331940014381 L 29.395704194437712 57.8362449844135 L 29.860413349233568 57.232747700763866 L 30.355265802238137 56.4609675204847 L 30.759688364341855 55.77332878834568 L 31.201790048275143 54.96383002807852 L 31.67654696991667 54.075992678059265 L 32.13120835926384 53.21136676182505 L 32.55572645366192 52.33513512869831 L 32.95512513304129 51.537242085440084 L 33.402250699233264 50.73934904183261 L 33.829280734062195 49.90373741812073 L 34.3392048352398 49.094238657853566 L 34.81647369870916 48.33696562401019 L 35.28118285397068 47.64062260417268 L 35.73082036152482 46.883349570212886 L 36.23823252087459 46.15509082877543 L 36.793371566571295 45.36300064390525 L 37.37865390814841 44.58831903443206 L 37.88857800886035 43.87166601000354 L 38.30304833734408 43.262365867733024 L 38.68737536901608 42.65596715477295 L 39.12194122886285 42.130808460875414 L 39.53389961505309 41.65207263454795 L 39.89813111582771 41.161731091560796 L 40.42563880607486 40.55533237871714 L 40.940586789976805 39.96634224103764 L 41.45804671384394 39.397662108414806 L 42.075984293594956 38.945039145532064 L 42.4527755016461 38.35895043739583 L 42.89487718604505 37.801876021781936 L 43.389729637652636 37.2535058936337 L 44.002643334679306 36.72254434111528 L 44.66830780170858 36.22930136881769 L 45.18827966786921 35.62870551412925 L 45.793657541740686 35.10934967873618 L 46.51458471780643 34.58709241391625 L 47.23048801207915 34.050328002893366 L 47.5595523333177 33.55708503071219 L 47.81828229594976 32.988404897856526 L 47.72785240598023 32.70116340217646 L 47.69519716873765 32.61121909553185 L 47.1475939466618 32.59090909094084 L 46.665301200933754 32.831727718468755 L 47.07474764669314 33.33657640765887 L 47.22295218752697 33.925566545221955 L 47.35357313975692 34.491345248767175 L 47.70775687508285 35.02520823047962 L 48.262895920779556 35.50974691496231 L 48.61959159746766 36.034905609092675 L 48.98633503867313 36.510740005760454 L 49.204873939044774 36.92854581773281 L 49.60678456025198 37.25640732294414 L 50.44577298220247 37.49432452139445 L 51.31490470096469 37.72063600260299 L 52.15640506381169 38.08041322953068 L 53.06572784483433 38.37345758359879 L 53.74144007591531 38.66650193778332 L 54.366913481615484 39.00306773057673 L 55.002434650901705 39.38315496209543 L 57.107441530097276 39.98665224597789 L 58.41113910684362 40.421866633347236 L 59.28278276743367 40.81355958187487 L 60.074044302571565 41.222661105915904 L 60.820090893656015 41.637565488461405 L 61.51841059792787 41.994441286078654 L 62.967800775542855 42.841658626683056 L 63.899731028825045 43.39583161321934 L 64.78644633758813 44.0718646281166 L 65.6128750522621 44.48967043985613 L 66.45939929876477 44.93358911504038 L 67.16525482665747 45.24114061554428 L 67.85855064867064 45.65894642716739 L 68.57445394294336 46.163795116590336 L 69.22755870269611 46.75858811242506 L 69.82540075108409 47.0081110278843 L 70.31522932089865 47.414311122731306 L 70.87288030842319 47.582594019244425 L 71.53603283315897 47.75667977402918 L 72.15899429609999 48.15417558129411 L 72.82968264538795 48.39499420882203 L 73.53805011464283 48.72575714311097 L 74.22883399529383 49.13485866726842 L 74.84425963461399 49.61359449336305 L 75.4471255671233 50.054611739120446 L 76.00226461188868 50.58847472094931 L 76.55740365758538 50.99757624499034 L 77.10249493736774 51.61558067507576 L 77.680241455324 52.178457949194126 L 78.16002226015553 52.941533841658384 L 78.66994636040181 53.663989724591374 L 79.16228687157854 54.505404206574894 L 79.65211544092745 55.21915580192581 L 80.21479031071067 55.81104736868292 L 80.74229800095782 56.59153183654416 L 81.24971016077325 57.19793054962065 L 81.75963426101953 57.8014278333867 L 82.33486883854493 58.30627652257681 L 82.91763923922554 58.811125211883336 L 83.48784993356094 59.38850963243749 L 84.12839498603716 59.86724545864854 L 84.78903556941077 60.37209414772224 L 85.47479556687176 60.865337119903415 L 86.16055556386709 61.36728438013233 L 86.78100508544594 61.88664021564182 L 87.42155013838783 62.356671753921546 L 88.10731013631448 62.84411186771467 L 88.7704626605846 63.39828485425096 L 89.43612712714821 63.91764068976045 L 90.06913635600358 64.38477079872973 L 90.72475305665284 64.82868947391398 L 91.35273840231821 65.2987210120773 L 91.94053268665448 65.82678113540169 L 92.54339861823246 66.36354554630816 L 93.21408696705475 66.89160566974897 L 93.83704843046144 67.39355292974506 L 94.52532036975026 67.85488018032629 L 95.2035445435904 68.32201028941199 L 95.85413736011833 68.82976040791254 L 96.51226600306109 69.32300338021014 L 97.09754834510386 69.75821776746307 L 97.71297398442402 70.21664358885027 L 98.37361456779763 70.7476051413687 L 98.9413133203052 71.2408481137827 L 99.54920313553885 71.74569680308923 L 100.22240342572331 72.27955978468526 L 100.85792459500954 72.75539418158587 L 101.49093382339925 73.20511571504176 L 102.14152664225549 73.69545725802891 L 102.7418806324713 74.15098165010568 L 103.35228238860145 74.62391461769585 L 104.01543491333723 75.1490733117098 L 104.6358844358474 75.60749913298059 L 105.23623842559755 76.07172781287227 L 105.85668794671074 76.48373076610733 L 106.46960164466873 76.85801513923798 L 107.07497951807454 77.2061866489239 L 107.74064398510382 77.59497816825751 L 108.4063084507361 77.97796682931948 L 109.11718786275014 78.38416692405008 L 109.75019709020853 78.79036701889709 L 110.33547943271697 79.1965671137441 L 110.94336924795061 79.54473862354644 L 111.46836499730125 79.99155872792471 L 111.91800250438973 80.45868883701041 L 112.43797437101603 80.88810036575887 L 113.05842389212921 81.288497601985 L 113.72157641733065 81.64537339971866 L 114.41236029798165 82.06608064065222 L 115.09309641225263 82.48968931124546 L 115.84919076878577 82.83495939173736 L 116.53997464850545 83.3514137979364 L 117.19810329051688 83.84755819954444 L 117.88888717070222 84.34080117195845 L 118.51436057547107 84.85435414884705 L 119.08708321116865 85.26925853139255 L 119.7276282645762 85.59712003648747 L 120.31542254658416 86.03813728236128 L 120.88312130002305 86.37470307515468 L 121.44077228661627 86.7634945944883 L 122.04363821912557 87.0826518117683 L 122.65906385798007 87.42792189237662 L 123.27951337909326 87.84282627515495 L 123.88991513522342 88.22581493586767 L 124.44505418045446 88.61460645520128 L 125.13583806157112 88.92215795558877 L 125.80401446903124 89.27032946550753 L 126.45460728695616 89.71424814057536 L 127.17804640484974 90.23650540539529 L 127.82110339868814 90.70943837286904 L 128.48927980661392 91.2520056423964 L 129.09968156320974 91.68141717114486 L 129.76785797113553 91.93964437430259 L 130.45361796813086 92.21818158216774 L 131.0991869037971 92.54894451668952 L 131.75982748763636 93.0073703378439 L 132.40790836373344 93.64858620183077 L 132.9354160549119 94.30721064121462 L 133.43026850745082 94.9571307930164 L 133.78194030141458 95.75212240719702 L 133.9979672599584 96.67477690824308 L 134.09090909082443 97.60033283871599 L 133.9979672599584 98.61873450491112 L 133.64127158327028 99.72708047798369 L 133.1489310725592 100.72517213958781 L 132.68924579955637 101.75227809383068 L 132.07884404342622 102.64011544373352 L 131.46341840503737 103.4060927653918 L 130.747515110299 104.13435150682926 L 129.8808953333646 104.7900745170191 L 129.07707409048453 105.44289609813131 L 128.29334837943316 106.08121053292416 L 127.44431219203398 106.72242639679462 L 126.71836113231257 107.40716369950678 L 126.03511307621375 108.16443673346657 L 125.53523674141616 109.08128837600816 L 125.1232783542946 109.9749285846483 L 124.63847366767004 110.79313163284678 L 124.21144363190979 111.64034897345118 L 123.6839359421283 112.46435488003772 L 123.10870136506855 113.27095221122727 L 122.62892056070268 114.07464811310638 L 122.19937858404592 114.93056974152569 L 121.68945448379964 115.73136421421077 L 121.30763939348981 116.61049727653153 L 120.81781082367525 117.47512319253292 L 120.36314943339676 118.28752338222694 L 119.9838462844491 119.08831785502844 L 119.58444760460407 119.95004234206863 L 119.12978621432558 120.71311823418364 L 118.66256511677057 121.4210669711465 L 118.21041566878557 122.2160585852107 L 117.8562319339253 123.10099450603593 L 117.44678548816592 123.92209898342844 L 117.01473157061264 124.64745629567187 L 116.65301201073453 125.3379964568885 L 116.23351779999211 126.0343394766096 L 115.89691765466705 126.78000679332763 L 115.643211575225 127.64173128048424 L 115.32921890169382 128.44542718236335 L 115.05039340863004 129.17948878218886 L 114.76654403330758 130.0383118399186 L 114.26415575575083 130.7897820151411 L 113.7592555382289 131.56446362484712 L 113.47791810333729 132.51323098898865 L 113.17146125389263 133.26179973524995 L 112.77206257451326 133.94073417934123 L 112.35005642194301 134.62837291124742 L 111.97577715618536 135.27249020454474 L 111.5361874140799 135.95432607806288 L 111.05138272698969 136.68258481961675 L 110.53141086082906 137.4456607119646 L 110.11694053281099 138.27837090636604 L 109.71000602887943 139.08206680824514 L 109.3708939421922 139.8973684272496 L 108.95893555507064 140.7010643291287 L 108.58214434795082 141.5395773819182 L 108.19781731581315 142.3316675670212 L 107.71050068736076 143.09474345936906 L 107.12773028668016 143.7794807619648 L 106.3490284588188 144.26982230506837 L 105.40956238051876 144.40909090917557 L 104.34449923457578 144.31914660218172 L 103.38242568494752 144.16246942291036 L 102.5936760911718 143.88973507354967 L 101.87023697281256 143.5937892899383 L 101.20206056488678 143.2398149217479 L 100.54895580466837 142.89164341206197 L 99.93353016674519 142.5260633265134 L 99.34071199968457 142.03572178352624 L 98.7579415999353 141.51636594801676 L 98.18521896423772 140.98830582457595 L 97.54467391222715 140.37900568230543 L 96.9468318624422 139.78711411566474 L 96.39671669900417 139.1487996808719 L 95.84660153649747 138.54530239722226 L 95.29648637352511 137.98242512287106 L 94.73381150374189 137.40794213174377 L 94.16360081033781 136.847966286703 L 93.61097370600328 136.2734832954593 L 93.0081077744253 135.64387314848136 L 92.60619715275243 135.02877014770638 L 92.0108670447953 134.44558286876418 L 91.43060858594254 133.83628272649366 L 90.872957598418 133.27340545225888 L 90.2801394322887 132.6757110269973 L 89.71244067931548 132.0838194602402 L 89.17488522361964 131.5383507615188 L 88.54187599522993 130.9638677702751 L 87.87118764547631 130.36907477420755 L 87.28088142070919 129.756873202743 L 86.66796772368252 129.08954447554424 L 86.03495849529281 128.47154004545882 L 85.41199703188613 127.86514133261517 L 84.79908333485946 127.28775691206101 L 84.20375322690234 126.73648535460234 L 83.59335147077218 126.03724090568721 L 82.9578303010203 125.37281360779889 L 82.3926434898749 124.7025834514061 L 81.79731338238344 124.05846615810879 L 81.14672056399286 123.48398316686507 L 80.65186811098829 122.86888016620651 L 80.08919324213639 122.259580023936 L 79.54159002006054 121.64737845247146 L 78.94625991256908 121.05548688571434 L 78.35344174597412 120.4868067529751 L 77.7907668761909 119.9239294786239 L 77.2406517136842 119.3581507751951 L 76.70058431662619 118.78076635452453 L 76.1153019736521 118.25850908982102 L 75.46973303845152 117.7275475373026 L 74.81662827916443 117.16757169237826 L 74.15347575349733 116.6075958473375 L 73.50037099421024 116.04471857310273 L 72.88996923854575 115.47893986944109 L 72.314734661486 114.9044568783138 L 71.71186872944236 114.32997388707008 L 71.1190505628474 113.76419518364128 L 70.49357715947554 113.19841647997964 L 69.91834258241579 112.6471449227538 L 69.36571547808126 112.12778908724431 L 68.73019430832937 111.69257469975855 L 68.21775826672092 111.19062743976247 L 67.7279296964407 110.70028589689173 L 67.21549365436658 110.15771862748079 L 66.7507844986394 109.64416565024294 L 66.29109922563657 109.1364155318588 L 65.67064970452338 108.63736970082391 L 65.15067783836275 108.09770386072341 L 64.59302685083821 107.56093944970053 L 64.0655191601254 106.99225931696128 L 63.62341747665778 106.38295917457435 L 63.100933669134974 105.75334902771283 L 62.64878422021866 105.13244316843338 L 62.15141982678324 104.5347487431718 L 61.58372107381001 103.94285717641469 L 60.95824766904116 103.37127561448142 L 60.31770261703059 102.82870834495407 L 59.606823205947876 102.33836680173408 L 58.973813977558166 101.85382811736781 L 58.353364455513656 101.38669800828211 L 57.79571346845478 100.93407504551578 L 57.293325191829354 100.49305779964197 L 56.74069808796048 100.01142054435331 L 56.21319039724767 99.56750186928548 L 55.673122999724 99.10907604801469 L 55.1104481308721 98.57521306630224 L 54.59801208879799 98.05585723067634 L 54.060456632170826 97.56261425837874 L 53.54550864873454 97.07807557377964 L 53.11847861437127 96.66897404985502 L 52.70652022724971 96.26567538408563 L 52.26190660195425 95.84786957246251 L 51.789661621674895 95.49389520403929 L 51.196843456011266 95.13992083573248 L 50.71455071028322 94.70470644836314 L 50.22723408183083 94.23177348088939 L 49.66958309523761 93.80236195202451 L 49.24004111858085 93.40776757418644 L 48.802963317837566 93.0160746256588 L 48.2955511584878 92.58086023828946 L 47.702732992358506 92.17175871424843 L 47.089819295331836 91.71913575124927 L 46.4593220083043 91.23459706676658 L 45.853944134898484 90.78197410411667 L 45.34402003418654 90.32935114111751 L 44.86423922935501 89.7722767253872 L 44.40204201499 89.22680802678224 L 43.94486868334934 88.75387505919207 L 43.495231175329536 88.27513923309743 L 43.04559366777539 87.848629133543 L 42.58339645341039 87.35828759055585 L 42.07849623542279 86.79541031608824 L 41.563548252452165 86.1570958814118 L 41.13149433443323 85.4404428570997 L 40.61152246873826 84.9471998848021 L 39.90566693991423 84.34950545954052 L 38.89586650393903 83.96071394020692 L 38.23271397827193 83.49068240192719 L 37.29827178409323 83.02935515134595 L 36.83105068700388 82.5651264715707" stroke-linejoin="bevel" stroke-miterlimit="10" stroke-width="3"/></g></g></g><g><g fill="#444444"><path fill="" stroke="none" d=""/><g transform="translate(10,22)"><path fill="none" stroke="none"/><text fill="" stroke="none" font-family="helvetica" font-size="10pt" font-style="normal" font-weight="bold" text-decoration="normal" x="0" y="0" text-anchor="start" dominant-baseline="text-after-edge">1.01191</text></g></g></g><g/></g></g></svg>