<svg version="1.1" xmlns="http://www.w3.org/2000/svg" xmlns:xlink="http://www.w3.org/1999/xlink" width="150" height="160" style="width: 150px; height: 160px;"><defs><clipPath id="yMxfCkTzUcXS"><path fill="none" stroke="none" d=" M 10 27 L 140 27 L 140 150 L 10 150 L 10 27 Z"/></clipPath></defs><g><g transform="scale(1,1) translate(0.5,0.5)"><rect fill="#FFFFFF" stroke="none" x="0" y="0" width="150" height="160"/><rect fill="#ffffff" stroke="none" x="0" y="0" width="150" height="160"/><rect fill="#FFFFFF" stroke="none" x="10" y="27" width="130" height="123"/><rect fill="#ffffff" stroke="none" x="10" y="27" width="130" height="123"/><g><rect fill="none" stroke="#FFFFFF" x="10" y="27" width="130" height="123" stroke-linejoin="bevel" stroke-miterlimit="10"/></g><g clip-path="url(#yMxfCkTzUcXS)"><g><g/><g/><g><path fill="none" stroke="none"/><path fill="none" stroke="#440154" paint-order="fill stroke markers" d=" M 51.78423538710922 68.49236172018573 L 51.74578399956226 68.8203557904344 L 55.51993556600064 77.65395879838616 L 57.270952593535185 79.4996203458868 L 60.19917363766581 85.1255525322631 L 60.545236124657094 86.00390953361057 L 60.920876601710916 87.02680629491806 L 61.31722167227417 88.18868359434418 L 62.1956879850477 89.61740352702327 L 63.17767726350576 91.30740687204525 L 64.55305381398648 93.85908955312334 L 68.34790997393429 96.22731792391278 L 77.67680812533945 93.00852865935303 L 80.04896295070648 90.95717591559514 L 81.01024763658643 91.16286711231805 L 81.82955796830356 92.3747774050571 L 82.5749233243987 93.275371292606 L 88.57038196455687 100.99157077376731 L 94.9296498876065 108.85786923626438 L 96.46474758721888 110.77024144190364 L 100.18861657008529 114.68949261913076 L 101.53145733103156 115.97923201369122 L 104.47150957025588 118.71992822689936 L 107.42930860351771 121.94983593490906 L 108.16580056212842 122.57802796759643 L 114.79422819707543 127.84816997637972 L 120.58559870440513 136.46496334508993 L 127.3619162896648 140.46760284504853 L 131.0798696745187 138.79983638669364 L 133.66794382873923 137.89368327776901 L 134.09090909082443 139.0277644698508 L 127.67248518858105 143.85316875600256 L 124.86849170457572 144.40909090917557 L 120.20108482986689 135.03624341241084 L 118.95880923606455 133.20170030812733 L 118.38499622326344 132.5790674968157 L 117.73723823577166 131.92307935655117 L 112.94560380093753 127.9482359639369 L 109.15074764098972 119.00344852497801 L 107.87002065964043 116.06817955803126 L 106.59520927537233 112.60478454618715 L 101.1439856570214 104.9052627296187 L 94.97697467263788 98.19528234517202 L 88.23319287598133 93.72566823638044 L 85.94681422412395 89.1115143680945 L 83.51846121717244 77.79293933650479 L 78.48724506050348 68.09209776995704 L 76.29551597684622 65.10679580946453 L 72.63671857304871 58.51355907693505 L 71.24359522759914 55.61720466078259 L 68.51354672014713 54.3219060448464 L 64.33713448513299 53.60476646781899 L 57.75898943468928 46.98929284908809 L 54.83964178804308 42.73092915862799 L 52.656786100938916 40.72405018680729 L 51.0595746235922 39.84013396385126 L 47.03696793783456 37.07720086444169 L 39.43246662337333 36.45456805289723 L 38.00384968984872 38.611546005820855 L 28.808052495121956 40.37937845196575 L 27.009710682556033 38.594868341460824 L 19.109429463744164 34.13637267588638 L 15.909090909175575 32.590909091057256 L 15.920922106131911 39.2953302541282 L 16.870375595986843 39.90684462222271 L 22.859918639063835 43.225699874339625 L 24.83868619147688 44.70445280103013 L 27.15760063380003 46.349982373416424 L 33.16489047091454 53.45466748601757 L 34.54026702232659 58.35790087422356 L 36.35635562799871 60.86510978336446 L 42.68900335859507 67.09699711645953 L 44.2181854583323 68.52015782776289 L 49.950399986468256 77.142510417616 L 55.6382475271821 86.37637737602927 L 59.22309995535761 94.71520966850221 L 62.07441822439432 106.5341146371793 L 64.60037859901786 109.4193506105803 L 70.80288317147642 108.65217803954147 L 71.66656049061567 107.77938025980256 L 74.86394124478102 105.06648015417159 L 76.69777664542198 103.75450387294404 L 77.72413291037083 103.18746327748522 L 77.82469807751477 102.35358004830778" stroke-linejoin="bevel" stroke-miterlimit="10" stroke-width="3"/><path fill="none" stroke="none"/><path fill="none" stroke="#440154" paint-order="fill stroke markers" d=" M 69.61089016124606 85.83713288791478 L 63.74853247683495 79.76646297913976 L 61.095386744476855 78.03198586218059 L 68.36269896943122 81.3730780009646 L 71.09274747688323 83.32436475716531" stroke-linejoin="bevel" stroke-miterlimit="10" stroke-width="3"/><path fill="none" stroke="none"/><path fill="none" stroke="#440154" paint-order="fill stroke markers" d=" M NaN NaN" stroke-linejoin="bevel" stroke-miterlimit="10" stroke-width="3"/></g></g></g><g><g fill="#444444"><path fill="" stroke="none" d=""/><g transform="translate(10,22)"><path fill="none" stroke="none"/><text fill="" stroke="none" font-family="helvetica" font-size="10pt" font-style="normal" font-weight="bold" text-decoration="normal" x="0" y="0" text-anchor="start" dominant-baseline="text-after-edge">1.01136</text></g></g></g><g/></g></g></svg>