<svg version="1.1" xmlns="http://www.w3.org/2000/svg" xmlns:xlink="http://www.w3.org/1999/xlink" width="150" height="160" style="width: 150px; height: 160px;"><defs><clipPath id="mqPRdWfUWlUx"><path fill="none" stroke="none" d=" M 10 27 L 140 27 L 140 150 L 10 150 L 10 27 Z"/></clipPath></defs><g><g transform="scale(1,1) translate(0.5,0.5)"><rect fill="#FFFFFF" stroke="none" x="0" y="0" width="150" height="160"/><rect fill="#ffffff" stroke="none" x="0" y="0" width="150" height="160"/><rect fill="#FFFFFF" stroke="none" x="10" y="27" width="130" height="123"/><rect fill="#ffffff" stroke="none" x="10" y="27" width="130" height="123"/><g><rect fill="none" stroke="#FFFFFF" x="10" y="27" width="130" height="123" stroke-linejoin="bevel" stroke-miterlimit="10"/></g><g clip-path="url(#mqPRdWfUWlUx)"><g><g/><g/><g><path fill="none" stroke="none"/><path fill="none" stroke="#2E4E60" paint-order="fill stroke markers" d=" M 16.565811519045383 64.00106876168866 L 16.035870949272066 64.20283379568718 L 15.909090909175575 63.18159231590107 L 16.672306752298027 62.899121268535964 L 18.09477880783379 63.215737168095075 L 19.342294406611472 64.069358465611 L 19.938160596881062 64.36114174535032 L 23.756775417830795 66.41914509166963 L 25.283207105472684 67.38761725462973 L 25.983032929711044 67.93083080765791 L 26.551007511094213 68.39954650192522 L 27.144338100682944 68.58579114847817 L 27.742739892099053 68.39644242450595 L 29.974068605341017 66.22048413520679 L 33.96510428143665 63.44233482144773 L 36.99261164944619 60.332049221149646 L 38.120954010635614 58.74276156909764 L 39.12505193054676 57.03551897406578 L 42.768710295669734 50.967047568177804 L 45.75057684909552 46.67410846112762 L 48.202502832747996 44.153597575379536 L 49.41452002059668 42.81263611896429 L 52.02618885599077 39.75201575772371 L 55.30472070304677 34.68305728910491 L 57.756646688096225 32.59090909094084 L 58.60100175719708 32.941669842461124 L 62.57175262691453 37.10423769673798 L 63.24368684226647 37.92992229713127 L 67.80776830110699 43.107523476239294 L 70.520861168392 45.88877686741762 L 75.52360156737268 50.299670917447656 L 80.05725581711158 55.095470570609905 L 85.24002387421206 58.73034525930416 L 91.09726174594834 62.095165210193954 L 95.05787021294236 64.3549335906282 L 96.6071223076433 65.35134245047811 L 102.52775020059198 68.92103151290212 L 107.97168514085934 72.53417765931226 L 113.48915250459686 76.09455448924564 L 118.72770377993584 79.79151072690729 L 124.15642511565238 84.05030498187989 L 129.44822400715202 88.52017650357448 L 134.0909090912901 93.21043752355035 L 133.79931499809027 100.0052630516002 L 129.5699328458868 104.93764211249072 L 128.59879773575813 105.56776983384043 L 124.91456975787878 111.52139037428424 L 121.7957807611674 117.54640469595324 L 120.22624385915697 121.27440170792397 L 117.15309567656368 128.02577015163843 L 115.47706354036927 130.53386472759303 L 111.9120088010095 136.4098833318567 L 108.75265019061044 142.56526890629902 L 103.36703406879678 144.40909090894274 L 98.56460613384843 140.23100266733672 L 96.90632320335135 138.69138025457505 L 91.7159483442083 134.0538885507267 L 89.34769718721509 131.80032832548022 L 88.63012215821072 130.8846254791133 L 84.31960077909753 126.01122388988733 L 80.86357687413692 122.36703696858604 L 75.74927004007623 117.42224159801845 L 74.16451953304932 115.89503549505025 L 68.79665261693299 110.97817682137247 L 63.55049453955144 105.89990612061229 L 58.276444853283465 101.23447771999054 L 53.352308080065995 96.65285941050388 L 48.34449647879228 91.79497820837423 L 43.481214123778045 87.5579124953365 L 38.02460117917508 82.74969653226435 L 35.65381442103535 79.44385405268986 L 33.07003719499335 76.44841931795236" stroke-linejoin="bevel" stroke-miterlimit="10" stroke-width="3"/></g></g></g><g><g fill="#444444"><path fill="" stroke="none" d=""/><g transform="translate(10,22)"><path fill="none" stroke="none"/><text fill="" stroke="none" font-family="helvetica" font-size="10pt" font-style="normal" font-weight="bold" text-decoration="normal" x="0" y="0" text-anchor="start" dominant-baseline="text-after-edge">1.01469</text></g></g></g><g/></g></g></svg>