<svg version="1.1" xmlns="http://www.w3.org/2000/svg" xmlns:xlink="http://www.w3.org/1999/xlink" width="150" height="160" style="width: 150px; height: 160px;"><defs><clipPath id="vubXQmexvROM"><path fill="none" stroke="none" d=" M 10 27 L 140 27 L 140 150 L 10 150 L 10 27 Z"/></clipPath></defs><g><g transform="scale(1,1) translate(0.5,0.5)"><rect fill="#FFFFFF" stroke="none" x="0" y="0" width="150" height="160"/><rect fill="#ffffff" stroke="none" x="0" y="0" width="150" height="160"/><rect fill="#FFFFFF" stroke="none" x="10" y="27" width="130" height="123"/><rect fill="#ffffff" stroke="none" x="10" y="27" width="130" height="123"/><g><rect fill="none" stroke="#FFFFFF" x="10" y="27" width="130" height="123" stroke-linejoin="bevel" stroke-miterlimit="10"/></g><g clip-path="url(#vubXQmexvROM)"><g><g/><g/><g><path fill="none" stroke="none"/><path fill="none" stroke="#2E4E60" paint-order="fill stroke markers" d=" M 23.929591776803136 36.93408976786304 L 21.995235685259104 42.344345007208176 L 21.025436560623348 45.02139171725139 L 20.41472521983087 46.64696437004022 L 18.34669411368668 55.48933077650145 L 18.100312714464962 55.027555819484405 L 17.24059889605269 55.932385127060115 L 16.569602745119482 56.86529534426518 L 16.068976710084826 57.923009603866376 L 15.909090909175575 58.568870523478836 L 15.943164931610227 59.420658113085665 L 16.181683095172048 60.06963913375512 L 16.480486067943275 60.51893368654419 L 16.82122630206868 61.04935086669866 L 17.16458761319518 61.63592986634467 L 17.486980295274407 62.094584722071886 L 17.89062641747296 62.72484513663221 L 18.4672637344338 63.158539183903486 L 19.148744200821966 63.46430908795446 L 19.979626152664423 63.969765459769405 L 20.792160554789007 64.5033027412137 L 21.444809155538678 65.14604355976917 L 22.045036179944873 65.81374518678058 L 22.60856810491532 66.29736085119657 L 23.164236791897565 66.59065035090316 L 23.78805352561176 66.8215378295863 L 24.427596733439714 66.73729510081466 L 25.01996052218601 66.28176034591161 L 25.593976760748774 65.73262255918235 L 26.123434660956264 65.24900689464994 L 26.68958766432479 64.77163143246435 L 27.38417352316901 64.11017000768334 L 28.1442863503471 63.59847343375441 L 28.967305066995323 63.15541908296291 L 29.6933438712731 62.70612453005742 L 30.34337139222771 62.078984216903336 L 31.022230779752135 61.39880218578037 L 31.690605852287263 60.84030409576371 L 32.450718679931015 60.362928633461706 L 33.137441302184016 59.81067074567545 L 33.74553156411275 59.30521437397692 L 34.37983261374757 58.765436890302226 L 35.042965528555214 58.097735263290815 L 35.72444599494338 57.352031109738164 L 36.51339068822563 56.53456463187467 L 37.09527016291395 55.80446098360699 L 37.8213089662604 54.98699450562708 L 38.44250462157652 54.28497176698875 L 39.10825861571357 53.66719175700564 L 39.80022339615971 53.00885043316521 L 40.44762983871624 52.294347290182486 L 41.07668873062357 51.48624111560639 L 41.67691575642675 50.565811302512884 L 42.27452170336619 49.73586442018859 L 42.92454922478646 49.05256228800863 L 43.495944384951144 48.32557874068152 L 44.2455728976056 47.69531832635403 L 44.968990622553974 47.13994033774361 L 45.56659656949341 46.572081944555975 L 46.40272067906335 45.754615466692485 L 47.094685460440814 44.89970777602866 L 47.736849745735526 44.02607947890647 L 48.37377187330276 43.21173310209997 L 48.98710429249331 42.447308342321776 L 49.62402642052621 41.63920216751285 L 50.18755834409967 40.79053467907943 L 50.77205889811739 39.77962193521671 L 51.41946534020826 39.01831727637909 L 52.00920805055648 38.238292011083104 L 52.5937086045742 37.38338432041928 L 53.172966999933124 36.668881177552976 L 53.767951868940145 35.9855790452566 L 54.349831343628466 35.267955801216885 L 54.887152480427176 34.48481043509673 L 55.56863294588402 33.776547494228 L 56.21603938844055 33.09324536193162 L 56.99449976719916 32.64395080914255 L 57.86469790060073 32.59090909094084 L 58.80304407980293 33.267971021239646 L 59.69158976478502 34.09167770133354 L 60.63779918057844 34.8311416527722 L 61.678367430344224 35.67044883791823 L 62.574776351451874 36.6189595607575 L 63.44235340598971 37.61115169792902 L 64.2994461460039 38.36933625570964 L 65.0936329960823 39.01207707438152 L 65.77511346293613 39.473852031165734 L 66.46183608518913 40.16339436569251 L 67.10662144934759 40.765573870390654 L 67.78810191527009 41.28975084866397 L 68.54035150725394 42.256982177495956 L 69.28735894104466 43.077568756532855 L 70.05533500341699 43.90439553745091 L 70.8154478315264 44.22888604796026 L 71.56507634371519 44.97771030268632 L 72.38547398196533 45.598610413610004 L 73.15082896640524 46.40671658841893 L 73.89521532226354 47.077538316487335 L 74.70250756572932 47.517472565872595 L 75.5229052035138 48.23821591108572 L 76.28301803069189 48.94647885195445 L 76.98022496933118 49.55177845759317 L 77.75868534715846 49.9823524041567 L 78.68130505504087 50.42540675459895 L 79.63799878628924 50.98078474367503 L 80.51606015535071 51.56112354085781 L 81.39150044647977 52.235065370216034 L 82.29053044551983 52.92460770450998 L 83.16859181597829 53.57046862412244 L 83.9444311154075 54.26625116053037 L 84.7622076747939 54.752986926119775 L 85.65861659450457 55.34268602670636 L 86.652005427517 55.916784621658735 L 87.56676189927384 56.51272392447572 L 88.46317081945017 57.15858484385535 L 89.36744297668338 57.76388444984332 L 90.20094600785524 58.38790466194041 L 91.07900737738237 58.93704244855326 L 91.97017414076254 59.44873902271502 L 92.85871982434765 60.04155822424218 L 93.72629688028246 60.634377425769344 L 94.61484256433323 61.52360622806009 L 95.55056766467169 62.17882745084353 L 96.43911334872246 62.74980594497174 L 97.41677570994943 63.47054929006845 L 98.41278562275693 64.1195303107379 L 99.25415188958868 64.77787163446192 L 99.93301127664745 65.61405871878378 L 100.6852608686313 66.4284050957067 L 101.44537369534373 67.23963137157261 L 102.28149780584499 67.97909532289486 L 103.18052780488506 68.65615725319367 L 104.06645241146907 69.4112217099173 L 104.9523770166561 70.16940626758151 L 105.7491849460639 70.91511042125057 L 106.61414092127234 71.60465275554452 L 107.46337042469531 72.22555286670104 L 108.36764258239418 72.98997762671206 L 109.2955044475384 73.67015965783503 L 110.17356581659988 74.27233916253317 L 111.03065855661407 74.9431608908344 L 111.85367727233097 75.67638464004267 L 112.64000088674948 76.34720636811107 L 113.4472931320779 77.05234920803923 L 114.23361674556509 77.5921266914811 L 115.00683496706188 78.12254387175199 L 115.86392770707607 78.70288266905118 L 116.72888368321583 79.29258176940493 L 117.64888231223449 79.97276380087715 L 118.5583966257982 80.67478653939907 L 119.40238397289068 81.3393680654699 L 120.28044534195215 82.0133098945953 L 121.09822190133855 82.62172960129101 L 121.90289306594059 83.3019116326468 L 122.75212256982923 83.9852137650596 L 123.56203589309007 84.59675357292872 L 124.39291784539819 85.23013408842962 L 125.11109341401607 85.8073527845554 L 125.79257387947291 86.41577249136753 L 126.54744454938918 87.13027563435026 L 127.26824119547382 87.77301645290572 L 128.05718588922173 88.39703666500282 L 128.86185705428943 89.07097849412821 L 129.64555959124118 89.70123890845571 L 130.46857830695808 90.2815777057549 L 131.38071369985119 90.84319589659572 L 132.18276378698647 91.49529701843858 L 132.87472856696695 92.24100117187481 L 133.435639412608 93.08654855936766 L 133.831422298681 94.10994170745835 L 134.08304585516453 95.22069768502843 L 134.09090909082443 96.42817679559812 L 133.9336443678476 97.6450162094552 L 133.66105218138546 98.84937521896791 L 133.3229330284521 99.99445230828132 L 132.90356043353677 101.19257111544721 L 132.34264958789572 102.247165273875 L 131.50652547786012 103.13951417733915 L 130.65729597443715 103.91329924052116 L 129.8106875498779 104.59972147375811 L 128.88544676313177 105.1956607765751 L 127.92875303234905 105.74167846213095 L 127.09525000071153 106.41562029125635 L 126.33251609420404 107.26428777980618 L 125.83713221782818 108.47800709248986 L 125.28932676650584 109.68860630411655 L 124.66551003139466 110.77440147323068 L 124.2173055713065 111.9694001795724 L 123.73764816625044 113.09575666266028 L 123.24226428987458 114.20963274128735 L 122.7861965931952 115.29542791028507 L 122.28032840136439 116.3874632816296 L 121.70369108393788 117.36093481257558 L 121.12967484537512 118.28136462566908 L 120.56352184293792 119.20491453958675 L 120.0995909110643 120.07230263459496 L 119.59110164036974 120.9615314368857 L 119.10882315551862 121.95060347311664 L 118.68158732540905 123.06447955186013 L 118.27532012481242 124.15651492320467 L 117.91099018370733 125.19238847540691 L 117.43395385658368 126.05041626712773 L 116.93070674408227 126.7898802185664 L 116.41435423772782 127.49502305826172 L 115.8088850537315 128.12216337153222 L 115.30563794076443 128.86162732285447 L 114.78404327621683 129.64789279038087 L 114.2624486121349 130.42167785321362 L 113.69629561016336 131.13618099619634 L 113.08034211210907 131.85692434129305 L 112.4827361642383 132.55894708016422 L 111.87988805957139 133.25160951551516 L 111.318977214396 133.96299255732447 L 110.81573010236025 134.82102034892887 L 110.30199867393821 135.70400894945487 L 109.73322459263727 136.5370759324869 L 109.1985245347023 137.460625846521 L 108.73197252349928 138.40913656912744 L 108.24445188278332 139.39508850430138 L 107.82245820900425 140.4309620562708 L 107.39522237842903 141.4512351033045 L 106.99943949328735 142.47774835245218 L 106.44639188377187 143.4293791758828 L 105.59716237988323 144.11892151029315 L 104.59328923234716 144.40909090905916 L 103.66018520947546 144.3404486856889 L 102.77163952542469 143.98475716472603 L 101.91978894220665 143.5760239259107 L 101.02600110089406 143.11424896877725 L 100.22919317148626 142.60879259672947 L 99.35375288082287 142.01285329426173 L 98.45210180291906 141.28586974716745 L 97.55307180294767 140.57136660406832 L 96.63831533212215 139.79446144006215 L 95.75763288373128 138.9925954673672 L 94.9477195609361 138.2749722234439 L 94.15091163152829 137.50118716037832 L 93.29119781265035 136.7835639163386 L 92.5363271436654 136.0753009755863 L 91.8207726534456 135.35767773154657 L 91.14715542364866 134.64941479091067 L 90.49712790315971 133.87874982866924 L 89.84185822401196 133.05816324974876 L 89.18920962326229 132.26565758010838 L 88.57063504727557 131.404509687447 L 87.83149085007608 130.54336179466918 L 87.12642067531124 129.69781440717634 L 86.31126519525424 128.88658813142683 L 85.44106706185266 128.12216337153222 L 84.54727921960875 127.28597628721036 L 83.61679627606645 126.40298768691719 L 82.69679764611647 125.60112171433866 L 81.713893128559 124.75869442790281 L 80.73098861053586 123.900666636182 L 79.70090467529371 123.06135945068672 L 78.70227368548512 122.2064517600229 L 77.78489613486454 121.3484239684185 L 76.90421368647367 120.51847708621062 L 76.03139447420835 119.70101060834713 L 75.18740712851286 118.91162503988016 L 74.37487272638828 118.1284796736436 L 73.57282263971865 117.27045188192278 L 72.8231941270642 116.45610550499987 L 72.09191316505894 115.6261586229084 L 71.39470622781664 114.87421426724177 L 70.64245663629845 114.15971112414263 L 69.83516439190134 113.45144818350673 L 68.95710302237421 112.67454301926773 L 68.06331518059596 111.85395644034725 L 67.17739057494327 111.0084090528544 L 66.31505567813292 110.23462398978882 L 65.45272078039125 109.44211832026485 L 64.58252264698967 108.69641416682862 L 63.73591422196478 107.97255072067492 L 62.88144256034866 107.19564555655234 L 62.021728741936386 106.37505897751544 L 61.196088946890086 105.56383270164952 L 60.35996483732015 104.78380743646994 L 59.52384072681889 104.00066207023337 L 58.70606416836381 103.24871771456674 L 57.9276037896052 102.47805275255814 L 57.11506938841194 101.68866718420759 L 56.31039822194725 100.87120070622768 L 55.50834813620895 100.12549655255862 L 54.66698186751455 99.49211603729054 L 53.80202589230612 98.7994536019396 L 52.887269421014935 98.08183035778347 L 51.990860499907285 97.32988600223325 L 51.104935894254595 96.59354215185158 L 50.284538256470114 95.87279880675487 L 49.51394111383706 95.13021475425921 L 48.71975426375866 94.42819201562088 L 47.95964143611491 93.7448898833245 L 47.16807566443458 93.08966866054107 L 46.36078341957182 92.40636652801186 L 45.57708088448271 91.66066237469204 L 44.84055776614696 90.98984064662363 L 44.03850767854601 90.30653851421084 L 43.28625808795914 89.63259668520186 L 42.54187173163518 89.05849809001666 L 41.76079027540982 88.42199747334234 L 40.998056368902326 87.71061443153303 L 40.290365115739405 87.10219472483732 L 39.61674788687378 86.56241724127904 L 38.94575173500925 86.0039191513788 L 38.15418596332893 85.2862959074555 L 37.415041766129434 84.53123145049904 L 36.70472943363711 83.84792931831907 L 36.01014357479289 83.05542364879511 L 35.221198881044984 82.33468030381482 L 34.51874978560954 81.86042494256981 L 33.76650019455701 81.3362479644129 L 33.00114520918578 80.77462977345567 L 32.3065593498759 80.09756784327328 L 31.591004860587418 79.40178530663252 L 30.794196931645274 78.6810419614194 L 29.973799293395132 77.93221770704258 L 29.200581072829664 77.2520356758032 L 28.474542268551886 76.63113556464668 L 27.874315242283046 75.92287262366153 L 27.300299005117267 75.23957049148157 L 26.707935214508325 74.56562866247259 L 26.21517241653055 73.9291280459147 L 25.7905576643534 73.32382844015956 L 25.56514489557594 72.8277323715156" stroke-linejoin="bevel" stroke-miterlimit="10" stroke-width="3"/></g></g></g><g><g fill="#444444"><path fill="" stroke="none" d=""/><g transform="translate(10,22)"><path fill="none" stroke="none"/><text fill="" stroke="none" font-family="helvetica" font-size="10pt" font-style="normal" font-weight="bold" text-decoration="normal" x="0" y="0" text-anchor="start" dominant-baseline="text-after-edge">1.01012</text></g></g></g><g/></g></g></svg>