<svg version="1.1" xmlns="http://www.w3.org/2000/svg" xmlns:xlink="http://www.w3.org/1999/xlink" width="150" height="160" style="width: 150px; height: 160px;"><defs><clipPath id="PHaUFPfmdKLu"><path fill="none" stroke="none" d=" M 10 27 L 140 27 L 140 150 L 10 150 L 10 27 Z"/></clipPath></defs><g><g transform="scale(1,1) translate(0.5,0.5)"><rect fill="#FFFFFF" stroke="none" x="0" y="0" width="150" height="160"/><rect fill="#ffffff" stroke="none" x="0" y="0" width="150" height="160"/><rect fill="#FFFFFF" stroke="none" x="10" y="27" width="130" height="123"/><rect fill="#ffffff" stroke="none" x="10" y="27" width="130" height="123"/><g><rect fill="none" stroke="#FFFFFF" x="10" y="27" width="130" height="123" stroke-linejoin="bevel" stroke-miterlimit="10"/></g><g clip-path="url(#PHaUFPfmdKLu)"><g><g/><g/><g><path fill="none" stroke="none"/><path fill="none" stroke="#440154" paint-order="fill stroke markers" d=" M 42.84156594891101 67.61553103057668 L 43.18882466107607 67.34346732776612 L 43.41084252949804 67.30766947194934 L 42.94972849916667 67.99498829990625 L 42.11289192456752 68.96868997300044 L 41.42976002767682 69.57009394699708 L 40.524610264226794 70.36480634193867 L 39.56822560913861 71.15951873688027 L 38.65738307964057 71.82535885134712 L 37.46190225891769 72.61291167512536 L 36.07856016792357 73.6009324900806 L 34.66106147971004 74.47440016735345 L 33.28910491988063 75.29059127531946 L 31.92284112703055 76.17121852375567 L 30.59073392767459 77.04468620056286 L 29.474951829761267 77.93963259179145 L 27.898055700585246 78.73434498626739 L 26.042214048095047 79.10664268489927 L 24.322998773306608 78.8274194104597 L 22.717638815753162 77.9539517336525 L 21.550621824339032 76.44328222656623 L 20.594237168319523 74.42428316967562 L 20.00788228958845 72.32652882998809 L 20.081888245418668 70.37912548426539 L 20.554387806914747 68.43888170924038 L 21.28875459730625 66.74922292400151 L 22.085741812363267 65.93303181603551 L 23.247066034935415 65.05956413876265 L 24.288842177018523 63.813798763323575 L 25.43308810610324 62.84009709069505 L 26.71965317800641 61.723203994799405 L 27.84112804196775 60.53471518866718 L 29.025223331525922 59.44646037789062 L 30.38579436019063 58.27229071315378 L 31.80898581072688 57.34870603820309 L 33.1638640742749 56.50387664558366 L 34.581362758763134 55.53017497295514 L 36.10702399723232 54.685345579870045 L 37.46190225891769 53.84767575841397 L 38.69153967406601 52.98136765230447 L 39.9382553845644 52.19381482899189 L 41.230513223446906 51.4921768582426 L 42.67078297305852 50.53995389863849 L 44.26475739944726 49.587730939500034 L 45.90427395142615 48.63550797989592 L 47.6007181648165 47.439859602134675 L 49.41671045683324 46.294328222982585 L 51.10746190138161 45.32062654942274 L 52.82098441105336 44.18225474096835 L 54.65974776726216 43.25867006601766 L 56.50420388765633 42.29212796362117 L 58.25757575780153 41.325585862156004 L 59.98817656375468 40.3876820448786 L 61.895253107883036 39.5213739387691 L 63.78525135759264 38.70518283126876 L 64.3089858116582 39.49273565458134 L 65.30521982721984 39.65024621877819 L 66.58039936888963 39.256469807587564 L 68.0035908203572 38.67654454614967 L 69.30154142528772 38.13241714099422 L 70.62795585952699 37.201672894880176 L 72.0226834807545 36.88665176508948 L 73.51418812386692 36.636066775768995 L 75.02846383024007 36.32820521760732 L 76.53135400172323 35.65520553197712 L 78.01147311087698 34.853333566337824 L 79.45174286235124 34.151695595588535 L 80.89770537801087 33.421419341117144 L 82.48598703555763 32.948887647129595 L 84.29628656432033 32.590909090824425 L 86.2602907679975 32.913089791312814 L 88.0193554032594 34.06578074209392 L 89.36854089889675 35.676684245001525 L 90.45585916936398 37.43793874140829 L 91.4464004188776 39.027363531291485 L 92.58495358098298 40.41632032953203 L 93.89998248405755 41.69788356125355 L 95.35163776390254 43.058202074375004 L 96.90007006470114 44.40420144563541 L 98.4997372571379 45.77883910154924 L 99.9115431746468 47.518614884931594 L 100.9760903827846 49.51613522833213 L 101.97232439927757 51.6067299968563 L 102.87178139574826 53.86199490074068 L 103.7484673326835 55.931110955774784 L 104.59668943658471 57.74964202102274 L 105.39936941675842 59.54669437324628 L 106.11665790807456 61.422502007801086 L 106.91933788638562 63.28399050049484 L 107.79602382145822 65.03808542573825 L 108.66701699048281 66.67046764213592 L 109.44123313948512 68.35296685621142 L 110.3748467322439 70.12138092378154 L 111.16614117939025 72.01150770112872 L 111.9460500953719 73.81571962404996 L 112.67472411878407 75.5411762651056 L 113.57418111618608 77.30959033267573 L 114.51918024104089 79.18539796676487 L 115.35032404959202 81.19007788179442 L 116.25547381304204 83.05872594518587 L 117.03538272716105 85.06340586021543 L 117.65589420124888 87.27571333758533 L 118.28209844045341 89.35198896331713 L 119.02785076200962 91.29939230950549 L 119.710982657969 93.34702965104952 L 120.45673497952521 95.33023085212335 L 121.30495708435774 97.00557049550116 L 122.20441408082843 98.83126113191247 L 123.22911192663014 100.728547480423 L 124.84585741627961 103.08404637966305 L 126.34874759148806 105.28919428633526 L 127.57269223965704 107.6876506130211 L 128.52907689567655 109.96439423039556 L 129.42853389307857 112.25545699009672 L 130.19136451277882 114.65391331678256 L 130.57847258634865 117.09532706998289 L 130.31660535838455 119.55821953667328 L 129.4228411288932 121.87076100986451 L 128.20458924397826 123.46018579928204 L 126.6447714138776 124.76322774449363 L 124.8970923088491 126.15934411343187 L 123.34866001177579 127.37647120421752 L 121.50420388765633 129.02317256247625 L 119.61989840492606 130.11142737418413 L 117.76974951662123 131.092288617976 L 116.01068488135934 132.16622428642586 L 114.14915046282113 133.60529808234423 L 112.2306883847341 134.82242517359555 L 110.52285864204168 136.00375440903008 L 109.0085829384625 137.26383892679587 L 107.38045191671699 138.55972130037844 L 105.7864774921909 139.92719938512892 L 104.01033455785364 141.40207103686407 L 102.07479418534786 142.6478364118375 L 100.2075669998303 143.5785806584172 L 98.29479768592864 144.1155484924093 L 96.07461902219802 144.4090909087099 L 93.98537397012115 144.13702720636502 L 92.13522508274764 143.42822966491804 L 90.46724470052868 141.98915586899966 L 89.14652303326875 140.19926308793947 L 88.32676475681365 138.60267872735858 L 87.63224732782692 136.6982328076847 L 87.37607286684215 134.60763803962618 L 87.20528989098966 132.84638354275376 L 86.65878437552601 130.78442705934867 L 85.63408653065562 128.70099186245352 L 84.7687861258164 126.56743966741487 L 83.8636363632977 124.5269618970342 L 82.63399894814938 122.76570740016177 L 81.59222280513495 120.9185380502604 L 80.69845857284963 119.09284741384909 L 79.4460500953719 117.20272063696757 L 78.1651777876541 115.2338385777548 L 77.15186547487974 113.35803094319999 L 76.04177614301443 111.60393601749092 L 74.90322298090905 109.67801138479263 L 73.81021194625646 107.66617189906538 L 72.91075494978577 105.72592812450603 L 72.22762304916978 103.78568434994668 L 71.39078647643328 101.8168022907339 L 69.91636013239622 99.56153738684952 L 68.88027675449848 97.66425103880465 L 68.2142231548205 95.6094541256316 L 67.04720616526902 93.5045402161777 L 66.31283937580884 91.64305172348395 L 65.45323173888028 89.55245695495978 L 64.5879313359037 87.81268117204309 L 63.66001050826162 85.951192679815 L 62.78332457412034 84.04674676060677 L 61.92371693812311 82.19241783907637 L 60.93886845279485 80.64595047663897 L 59.6864599743858 79.2999511049129 L 58.3201961806044 78.25465372065082 L 57.00516727939248 77.68188803130761 L 55.71290943957865 77.35254775965586 L 54.215712033212185 76.9444522052072 L 52.598966545425355 76.57215450704098 L 50.578034681268036 76.35736737307161 L 48.790506216697395 76.65090978937224 L 47.162375195883214 77.17355848150328 L 45.551322472281754 77.79644116898999 L 44.03135400265455 78.56251527974382 L 42.75617446191609 79.35722767421976 L 41.42406726162881 80.4812803408131 L 39.94394815154374 81.7556840009056 L 38.42397968098521 82.90121538052335 L 36.93247504066676 84.01810847595334 L 35.68006656039506 85.17795899836347 L 34.23979680985212 86.25189466681331 L 32.657207916490734 87.25423462409526 L 31.25678752642125 88.22077672602609 L 29.77097565215081 88.86513812700287 L 28.35916973091662 89.53813781309873 L 27.049833595752716 90.37580763408914 L 25.740497460588813 91.23495616903529 L 24.385619197040796 92.10126427514479 L 22.62086179666221 92.55947682727128 L 20.759327376261353 92.15854084445164 L 19.131196355447173 91.12756260251626 L 17.736468732357025 89.48086124379188 L 16.643457697704434 87.46902175806463 L 15.909090909175575 85.54309712536633 L 16.13110877480358 83.13748122751713 L 18.055263618007302 81.94899242091924 L 19.82571378350258 80.6960674743168 L 21.5107724647969 79.54337652307004 L 23.40077071264386 78.37636643042788 L 25.28507619444281 77.19503719452769 L 26.970134873874485 76.02086753025651 L 28.6210369579494 74.79658086784184 L 30.31178840342909 73.49353892309591 L 31.945612189359963 72.09026298299432 L 33.59651427529752 70.88029546290636 L 35.275880188681185 69.5987322316505 L 36.755999298766255 68.31716900039464 L 38.23042564280331 67.10004190960899 L 39.9382553845644 66.13349980767816 L 41.640392360277474 65.09536199457943 L 43.35960763692856 64.3221283131279 L 45.1471361014992 63.684926483314484 L 46.735417760908604 62.96180979954079 L 48.29523559194058 62.138459119945765 L 50.03152916394174 61.4368211501278 L 51.745051672682166 60.69938532495871 L 53.56104396563023 59.89035378722474 L 55.45673498045653 59.33190723974258 L 57.20441408269107 58.544354415964335 L 58.815466806292534 57.63508888334036 L 60.35820633824915 56.45375964790583 L 61.878174810670316 55.229472985025495 L 63.46645647101104 54.14837774541229 L 65.36784025002271 53.146037788596004 L 67.40015764534473 52.04346383502707 L 69.33569801971316 50.80485803075135 L 71.22569626849145 49.587730939500034 L 72.92783324420452 48.28468899521977 L 74.41933788638562 47.103359759319574 L 75.92792082577944 46.10101980203763 L 77.5332807842642 44.97696713544428 L 79.01909265946597 43.67392519116402 L 80.49351900443435 42.46395767107606 L 82.15580661967397 41.46877728495747 L 83.87502189539373 40.69554360350594 L 85.43483972456306 39.729001502040774 L 87.15405500121415 38.91281039360911 L 89.14083026628941 38.332885132171214 L 91.35531616583467 38.13241714099422 L 93.66088631935418 38.43311912799254 L 95.68181818071753 39.270788949448615 L 97.45796111226082 40.473596898373216 L 99.17717638704926 42.17757482593879 L 100.94762655440718 44.01042503397912 L 102.70669118966907 45.692924248054624 L 104.55684007704258 47.33246603561565 L 106.25328428763896 49.322826807852834 L 107.55123489256948 51.16283658705652 L 108.51900507789105 53.26059092627838 L 109.45831143762916 55.16503684548661 L 110.27806971315295 57.00504662422463 L 111.14337011892349 58.94529039924964 L 111.90050796885043 60.94281074265018 L 112.67472411878407 62.98328851303086 L 113.42047644034028 64.65146858524531 L 114.25162024796009 66.49147836398333 L 115.37309511285275 68.06658401107416 L 116.30670870374888 69.73476408328861 L 117.21185846813023 71.51749729318544 L 118.09992993436754 73.40762407006696 L 119.02215799503028 75.30491041764617 L 119.73375372122973 77.10196276986971 L 120.62751795444638 78.84173855325207 L 121.4814328243956 80.50991862500086 L 122.15887195710093 82.20673698140308 L 122.70537747256458 83.9536723359488 L 123.12664214335382 85.85811825515702 L 123.69591872394085 87.69096846273169 L 124.32781572919339 89.50233995728195 L 125.08495358098298 91.14904131554067 L 125.87055526208133 92.85301924310625 L 126.62769311480224 94.72166730696335 L 127.16281310096383 96.63327279640362 L 127.6808547899127 98.33725072443485 L 128.31275179423392 100.19157964549959 L 129.0300402874127 102.06738728005439 L 129.7245577154681 103.76420563645661 L 130.02627430390567 105.4825027063489 L 130.61262917984277 107.07908706739545 L 131.3469959711656 108.64703314332291 L 131.58039936888963 109.4990221071057 L 132.09274829179049 110.74478748301044 L 132.7360308272764 112.11942513845861 L 133.3963916618377 113.47974365204573 L 133.942897179164 114.97609401727095 L 134.09090909082443 116.95213564764708 L 133.72657207772136 118.96397513290867 L 132.88973550498486 120.54624035209417 L 131.5063934130594 121.90655886568129 L 129.90103345457464 123.03061153180897 L 128.08504116162658 124.47684489935637 L 126.21212121192366 125.9445569794625 L 124.65799614600837 126.28821639344096 L 122.99001576472074 127.37647120421752 L 121.39034857135266 128.14970488566905 L 119.78498861193657 128.93009813828394 L 118.44718864746392 130.1042678025551 L 117.06953932344913 131.0708099049516 L 115.68050446454436 132.08030943293124 L 114.4565598173067 133.433468375355 L 113.31231389008462 134.2281807702966 L 111.7411105260253 134.8152656024322 L 110.52285864204168 135.4882652880624 L 109.1338237868622 136.0968288332224 L 107.36337361950427 136.79130723280832 L 105.43352601118386 137.5215834872797 L 103.99894902575761 138.3735724510625 L 102.37651077192277 139.30431669717655 L 100.68006656132638 140.1777843744494 L 99.26256787404418 140.69327349495143 L 97.3839551564306 141.04409248102456 L 95.35163776390254 140.94385848473758 L 93.56980206631124 140.19210351677611 L 91.73103871103376 138.80314671853557 L 90.47863023262471 137.2352006426081 L 89.231914521195 135.6958928508684 L 88.16167454887182 134.4930849019438 L 87.39884393010288 133.04685153486207 L 87.16544053051621 131.1352460444905 L 86.60185671690851 129.78208710206673 L 85.9244175851345 128.69383229129016 L 85.18435803055763 127.56262005353346 L 84.26782273408026 126.29537596460432 L 83.41390786413103 124.76322774449363 L 82.40628831461072 123.2740369499661 L 81.6320721656084 121.59869730705395 L 80.82369942218065 120.13098522694781 L 79.82177263870835 118.44848601240665 L 78.64906288217753 116.51540180901065 L 77.80653354153037 114.53220060793683 L 77.11201611440629 112.77810568222776 L 77.1177088804543 110.6302343448624 L 78.23349097929895 108.42508643865585 L 79.61683307122439 106.86429993389174 L 81.05710281804204 105.26055600121617 L 82.67954107373953 103.90023748809472 L 84.21658784057945 102.69742953917012 L 85.68532142136246 101.30131316976622 L 87.26221755053848 99.89087765896693 L 88.85619197692722 98.64511228306219 L 90.33061832096428 97.67857018113136 L 91.86197232361883 96.89101735781878 L 93.45025398395956 96.35404952289537 L 94.92468032985926 95.6022945549339 L 96.39341390598565 95.20851814374328 L 97.77106323186308 94.54267802881077 L 99.25687510799617 93.62625292455778 L 100.53205464966595 92.7169873919338 L 101.95524610206485 92.02966856397688 L 103.38413031958044 91.3709880206734 L 104.79593624081463 90.57627562619746 L 106.01988088898361 89.78156323125586 L 107.30644595995545 88.85081898467615 L 108.64424592629075 88.02030873438343 L 109.93081100005656 87.23275591060519 L 111.2458399021998 86.58839450962842 L 112.64626029040664 86.11586281564087 L 114.25162024796009 86.19461809797212 L 115.85128744132817 86.77454335894436 L 117.51357505749911 88.0417874478735 L 118.90260991454124 89.73860580427572 L 119.68251882959157 91.45690287370235 L 120.39980732183903 92.981891523581 L 121.10001751501113 94.77894387533888 L 122.01655281055719 96.61179408337921 L 123.0014012940228 98.23701672861353 L 124.08302679937333 99.83360108919442 L 125.05648975260556 101.58053644374013 L 126.18365738261491 103.29883351363242 L 127.28805394843221 104.90973701654002 L 128.31844456028193 106.65667237062007 L 128.9844981599599 108.57543743215501 L 129.3317568730563 110.61591520207003 L 129.25775091908872 112.47740369476378 L 129.27482921630144 113.70169035717845 L 129.16097389999777 114.73982817027718 L 128.8478717803955 115.75648726988584" stroke-linejoin="bevel" stroke-miterlimit="10" stroke-width="3"/></g></g></g><g><g fill="#444444"><path fill="" stroke="none" d=""/><g transform="translate(10,22)"><path fill="none" stroke="none"/><text fill="" stroke="none" font-family="helvetica" font-size="10pt" font-style="normal" font-weight="bold" text-decoration="normal" x="0" y="0" text-anchor="start" dominant-baseline="text-after-edge">1.01326</text></g></g></g><g/></g></g></svg>