<svg version="1.1" xmlns="http://www.w3.org/2000/svg" xmlns:xlink="http://www.w3.org/1999/xlink" width="150" height="160" style="width: 150px; height: 160px;"><defs><clipPath id="qGdcBVEdLSlv"><path fill="none" stroke="none" d=" M 10 27 L 140 27 L 140 150 L 10 150 L 10 27 Z"/></clipPath></defs><g><g transform="scale(1,1) translate(0.5,0.5)"><rect fill="#FFFFFF" stroke="none" x="0" y="0" width="150" height="160"/><rect fill="#ffffff" stroke="none" x="0" y="0" width="150" height="160"/><rect fill="#FFFFFF" stroke="none" x="10" y="27" width="130" height="123"/><rect fill="#ffffff" stroke="none" x="10" y="27" width="130" height="123"/><g><rect fill="none" stroke="#FFFFFF" x="10" y="27" width="130" height="123" stroke-linejoin="bevel" stroke-miterlimit="10"/></g><g clip-path="url(#qGdcBVEdLSlv)"><g><g/><g/><g><path fill="none" stroke="none"/><path fill="none" stroke="#2E4E60" paint-order="fill stroke markers" d=" M 44.73392461147159 32.590909091057256 L 50.97930524777621 33.37725354824215 L 54.822616406716406 34.47813578834757 L 58.66592756845057 36.20809359429404 L 62.989652623422444 37.151706942822784 L 68.27420546952635 37.30897583439946 L 72.11751662939787 37.623513617319986 L 75.48041389416903 37.780782508896664 L 79.80413895007223 38.09532029135153 L 84.12786400597543 38.56712696584873 L 88.4515890609473 38.40985807450488 L 93.7361419070512 38.40985807450488 L 99.02069475222379 38.56712696584873 L 102.38359201792628 41.24069812055677 L 103.82483370229602 46.2733026468195 L 103.82483370229602 52.0922516300343 L 103.34441980719566 58.22573839640245 L 103.82483370229602 62.15746068255976 L 103.82483370229602 67.97640966647305 L 103.82483370229602 73.16628308407962 L 103.82483370229602 78.0416187189985 L 103.34441980719566 82.91695435391739 L 104.30524759739637 87.63502109702677 L 106.22690317686647 92.82489451463334 L 107.66814486309886 96.5993479094468 L 111.03104212880135 100.21653241245076 L 114.87435328867286 102.8901035671588 L 117.756836659275 104.1482546988409 L 122.56097560934722 102.57556578447111 L 127.84552845451981 102.26102800155059 L 131.2084257202223 103.99098580726422 L 133.13008130062371 107.76543920207769 L 134.09090909082443 112.01169927115552 L 134.09090909082443 116.25795934023336 L 133.61049519572407 121.44783275783993 L 131.2084257202223 123.17779056401923 L 126.40428677015007 121.91963943187147 L 122.56097560934722 120.66148830065504 L 118.23725055437535 119.40333716874011 L 113.91352549847215 118.61699271155521 L 110.55062823370099 117.35884158033878 L 105.74648928269744 116.57249712292105 L 101.42276422772557 116.88703490560874 L 98.54028085712343 119.56060606054962 L 96.61862527765334 124.43594169500284 L 95.6577974865213 129.46854622126557 L 95.17738359142095 134.81568853044882 L 94.21655580122024 140.00556194852106 L 91.81448632664979 142.9936708859168 L 87.01034737564623 144.2518220175989 L 83.16703621577471 144.40909090894274 L 79.32372505497187 144.09455312602222 L 75.48041389416903 143.93728423467837 L 71.63710273429751 143.93728423467837 L 67.793791574426 143.62274645175785 L 63.470066517591476 142.83640199457295 L 59.62675535865128 142.3645953205414 L 55.303030302748084 142.2073264287319 L 51.45971914194524 142.0500575369224 L 47.616407982073724 141.89278864581138 L 43.77309682313353 142.0500575369224 L 40.41019955743104 141.89278864581138 L 37.047302291728556 141.89278864581138 L 31.282335550524294 141.89278864581138 L 28.39985218178481 141.73551975446753 L 23.595713229849935 141.420981971547 L 18.791574279777706 141.26371307997033 L 15.909090909175575 140.94917529681697 L 21.19364375527948 140.3200997314416 L 26.478196600452065 139.53375527379103 L 31.762749446555972 139.53375527379103 L 35.60606060642749 139.69102416560054 L 38.968957871198654 139.84829305741005 L 44.25351071730256 140.3200997314416 L 47.616407982073724 140.79190640570596" stroke-linejoin="bevel" stroke-miterlimit="10" stroke-width="3"/></g></g></g><g><g fill="#444444"><path fill="" stroke="none" d=""/><g transform="translate(10,22)"><path fill="none" stroke="none"/><text fill="" stroke="none" font-family="helvetica" font-size="10pt" font-style="normal" font-weight="bold" text-decoration="normal" x="0" y="0" text-anchor="start" dominant-baseline="text-after-edge">0.50338</text></g></g></g><g/></g></g></svg>