<svg version="1.1" xmlns="http://www.w3.org/2000/svg" xmlns:xlink="http://www.w3.org/1999/xlink" width="150" height="160" style="width: 150px; height: 160px;"><defs><clipPath id="UwDgwcNGbrkQ"><path fill="none" stroke="none" d=" M 10 27 L 140 27 L 140 150 L 10 150 L 10 27 Z"/></clipPath></defs><g><g transform="scale(1,1) translate(0.5,0.5)"><rect fill="#FFFFFF" stroke="none" x="0" y="0" width="150" height="160"/><rect fill="#ffffff" stroke="none" x="0" y="0" width="150" height="160"/><rect fill="#FFFFFF" stroke="none" x="10" y="27" width="130" height="123"/><rect fill="#ffffff" stroke="none" x="10" y="27" width="130" height="123"/><g><rect fill="none" stroke="#FFFFFF" x="10" y="27" width="130" height="123" stroke-linejoin="bevel" stroke-miterlimit="10"/></g><g clip-path="url(#UwDgwcNGbrkQ)"><g><g/><g/><g><path fill="none" stroke="none"/><path fill="none" stroke="#2E4E60" paint-order="fill stroke markers" d=" M 15.909090909175575 64.98412184044719 L 16.142651814967394 65.05658987816423 L 16.142651814967394 65.12905791553203 L 16.37621272029355 65.05658987816423 L 16.37621272029355 64.98412184044719 L 16.84333453187719 64.83918576547876 L 17.076895436737686 64.69424969074316 L 17.544017247855663 64.83918576547876 L 18.01113905850798 64.91165380307939 L 18.478260869625956 65.12905791553203 L 18.94538268027827 65.41893006546889 L 20.81386992475018 66.6508867025841 L 22.915918074082583 68.24518352677114 L 24.317283507436514 68.67999175179284 L 26.1857707509771 67.8828433395829 L 28.054257994983345 65.78127025265712 L 29.455623427871615 64.69424969074316 L 31.55767157766968 63.60722912859637 L 33.426158821675926 62.08540034177713 L 35.061085159890354 60.12876332993619 L 36.228889687452465 58.46199846814852 L 37.630255120806396 56.28795734408777 L 38.798059647902846 53.89651210734155 L 39.96586417546496 52.44715135812294 L 41.60079051414505 50.418046309030615 L 42.7685950412415 48.82374948449433 L 43.93639956833795 47.084516585222445 L 45.10420409683138 45.417751723201945 L 46.27200862392783 43.9683909737505 L 47.90693496214226 41.72188181232195 L 48.84117858391255 40.12758498778567 L 49.775422206148505 38.46082012611441 L 50.70966582838446 36.794055264326744 L 52.344592166598886 34.40261002781335 L 53.74595759995282 33.02571731561329 L 55.147323032841086 32.59090909094084 L 57.71649299329147 33.60546161571983 L 59.351419331505895 34.90988629008643 L 60.752784764859825 36.43171507702209 L 62.15415019728243 38.02601190144196 L 63.78907653549686 39.54784068814479 L 65.42400287464261 41.069669475080445 L 66.82536830753088 42.5914982620161 L 67.99317283462733 44.113327049068175 L 69.16097736312076 45.490219760802574 L 70.56234279554337 46.79464443528559 L 72.19726913422346 47.95413303480018 L 73.83219547197223 49.1860896719154 L 75.46712181065232 50.20064219646156 L 77.33560905512422 51.21519472100772 L 79.20409629959613 52.22974724555388 L 80.83902263781056 53.31676780770067 L 82.24038807023317 54.548724444932304 L 84.10887531470507 55.9980851940345 L 85.7438016529195 57.012637718813494 L 87.8458498022519 58.75187061808538 L 89.24721523514017 60.05629529256839 L 90.6485806684941 61.43318800465204 L 92.28350700670853 62.66514464165084 L 94.38555515604094 64.40437754080631 L 96.02048149472103 65.5638661403209 L 97.65540783340111 66.57841866498347 L 99.05677326675504 67.59297118952964 L 100.69169960450381 68.6075237140758 L 102.79374775430188 70.12935250089504 L 104.4286740925163 71.21637306315824 L 105.83003952540457 72.23092558758799 L 108.1656485805288 73.53535026230384 L 109.56701401341707 74.47743474936578 L 111.20194035163149 75.49198727391195 L 113.30398850142956 77.0138160608476 L 114.93891484010965 77.95590054814238 L 116.34028027299792 78.97045307257213 L 118.67588932765648 80.78215400944464 L 120.07725476101041 81.8691745713586 L 121.71218109922484 82.88372709590476 L 123.34710743790492 83.82581158296671 L 124.7484728707932 84.8403641077457 L 126.38339920947328 85.78244859480765 L 127.78476464189589 86.94193719443865 L 129.41969098057598 87.9564897188684 L 131.0546173187904 89.1159783184994 L 132.22242184681818 90.63780710543506 L 133.6237872792408 92.30457196710631 L 134.09090909082443 94.47861309151631 L 134.09090909082443 96.50771814072505 L 133.6237872792408 98.39188711484894 L 132.22242184681818 101.00073646381497 L 131.0546173187904 102.30516113829799 L 129.6532518863678 103.609585812781 L 128.25188645347953 105.05894656211603 L 127.08408192591742 106.58077534928452 L 125.9162773983553 108.32000824843999 L 124.7484728707932 109.98677311022766 L 123.8142292490229 111.58106993464753 L 122.64642472146079 113.17536675883457 L 121.71218109922484 114.69719554600306 L 120.54437657212839 116.43642844515853 L 119.37657204456627 118.46553349436726 L 118.20876751746982 120.92944676824845 L 117.27452389476821 122.59621163026895 L 116.34028027299792 125.20506097923499 L 115.63959755655378 127.16169799107593 L 114.93891484010965 128.9733989277156 L 114.23823212366551 131.00250397692434 L 113.53754940722138 132.95914098864887 L 112.83686669031158 134.9157780003734 L 112.13618397386745 136.7999469746137 L 111.43550125742331 139.55373239854816 L 110.73481854144484 141.5828374477569 L 109.80057491920888 143.394538384513 L 108.39920948585495 144.33662287145853 L 106.06360043119639 144.40909090905916 L 103.7279913756065 143.53947445948143 L 101.39238232094795 142.45245389733464 L 99.29033417161554 141.00309314776678 L 97.65540783340111 139.91607258585282 L 96.02048149472103 138.6841159487376 L 94.61911606183276 137.4521593118552 L 92.98418972315267 136.0752666000044 L 91.34926338493824 134.69837388792075 L 89.71433704625815 133.24901313870214 L 88.07941070804372 131.8721204266185 L 86.21092346357182 130.49522771465126 L 84.57599712489173 129.11833500268403 L 82.9410707866773 127.7414422907168 L 81.30614444799721 126.21961350378115 L 79.67121810978279 124.6977847169619 L 78.03629177156836 123.24842396751046 L 76.63492633914575 121.87153125554323 L 75.00000000046566 120.49463854345959 L 73.36507366178557 119.11774583160877 L 71.73014732357115 117.81332115700934 L 70.0952209844254 116.2914923701901 L 68.69385555153713 114.76966358337086 L 67.0589292133227 113.39277087140363 L 65.42400287464261 111.94341012195218 L 64.02263744175434 110.49404937250074 L 62.38771110307425 109.04468862328213 L 60.752784764859825 107.66779591119848 L 59.11785842617974 106.29090319923125 L 57.71649299329147 104.7690744122956 L 56.08156665461138 103.31971366284415 L 54.68020122125745 101.9428209507605 L 53.27883578883484 100.63839627651032 L 51.176787639502436 98.6817592647858 L 49.775422206148505 97.30486655293498 L 48.374056773260236 95.85550580336712 L 46.73913043551147 94.47861309151631 L 45.33776500169188 93.10172037931625 L 43.93639956833795 91.72482766746543 L 42.30147323058918 90.34793495538179 L 40.90010779723525 89.04351028101519 L 39.031620553694665 87.01440523203928 L 37.630255120806396 85.70998055720702 L 36.46245059277862 84.47802392032463 L 34.59396334923804 82.73879102105275 L 32.49191519943997 80.99955812166445 L 31.090549766551703 79.76760148478206 L 29.689184333663434 78.53564484766684 L 28.287818900775164 77.23122017306741" stroke-linejoin="bevel" stroke-miterlimit="10" stroke-width="3"/></g></g></g><g><g fill="#444444"><path fill="" stroke="none" d=""/><g transform="translate(10,22)"><path fill="none" stroke="none"/><text fill="" stroke="none" font-family="helvetica" font-size="10pt" font-style="normal" font-weight="bold" text-decoration="normal" x="0" y="0" text-anchor="start" dominant-baseline="text-after-edge">1.00609</text></g></g></g><g/></g></g></svg>