<svg version="1.1" xmlns="http://www.w3.org/2000/svg" xmlns:xlink="http://www.w3.org/1999/xlink" width="150" height="160" style="width: 150px; height: 160px;"><defs><clipPath id="wRAnLxgzVRnH"><path fill="none" stroke="none" d=" M 10 27 L 140 27 L 140 150 L 10 150 L 10 27 Z"/></clipPath></defs><g><g transform="scale(1,1) translate(0.5,0.5)"><rect fill="#FFFFFF" stroke="none" x="0" y="0" width="150" height="160"/><rect fill="#ffffff" stroke="none" x="0" y="0" width="150" height="160"/><rect fill="#FFFFFF" stroke="none" x="10" y="27" width="130" height="123"/><rect fill="#ffffff" stroke="none" x="10" y="27" width="130" height="123"/><g><rect fill="none" stroke="#FFFFFF" x="10" y="27" width="130" height="123" stroke-linejoin="bevel" stroke-miterlimit="10"/></g><g clip-path="url(#wRAnLxgzVRnH)"><g><g/><g/><g><path fill="none" stroke="none"/><path fill="none" stroke="#440154" paint-order="fill stroke markers" d=" M 16.61255411338061 63.21905128075741 L 16.61255411338061 63.00079848570749 L 16.3780663786456 62.928047554334626 L 16.3780663786456 62.709794759517536 L 16.143578643444926 62.56429289642256 L 15.909090909641236 62.34604010172188 L 15.909090909641236 62.20053823851049 L 16.143578643444926 62.20053823851049 L 16.3780663786456 62.2732891702326 L 16.61255411338061 62.41879103332758 L 17.081529581919312 62.56429289642256 L 17.550505050923675 62.78254569135606 L 18.019480519928038 63.00079848570749 L 18.4884559889324 63.1463003490353 L 20.12987013021484 63.72830780153163 L 21.77128427149728 64.38306618575007 L 23.41269841324538 65.25607736443635 L 25.05411255452782 64.8923227066407 L 29.743867244105786 61.4002779914299 L 31.854256854392588 59.58150470221881 L 33.49567099614069 58.05373513919767 L 34.90259740315378 57.03522209729999 L 36.309523809701204 55.507452534511685 L 37.48196248244494 54.12518483470194 L 38.88888888899237 52.524664340307936 L 40.29581529600546 50.77864198270254 L 41.468253968749195 48.59611403581221 L 42.64069264102727 46.486337020178325 L 44.04761904850602 44.594812799594365 L 45.6890331893228 42.84879044175614 L 47.33044733060524 40.957266221172176 L 48.97186147188768 38.70198734244332 L 49.909812410362065 37.31971964274999 L 51.551226552110165 35.20994262734894 L 53.19264069292694 33.245667475042865 L 55.303030303213745 32.590909091057256 L 56.944444444496185 32.88191281724721 L 58.585858586244285 34.264180516824126 L 60.461760461796075 36.01020287454594 L 61.634199135005474 37.24696871137712 L 64.21356421383098 39.793251316063106 L 66.08946608984843 41.53927367355209 L 68.19985570013523 43.06704323645681 L 70.31024531042203 44.52206186787225 L 72.18614718643948 46.12258236238267 L 73.82756132772192 47.21384633576963 L 75.23448773473501 48.30511030938942 L 77.57936507929116 49.90563080366701 L 78.98629148630425 51.06964570900891 L 80.39321789285168 52.23366061411798 L 82.03463203413412 53.25217365589924 L 83.44155844161287 54.343437629402615 L 85.55194805189967 55.943958123913035 L 87.42784992838278 57.32622582348995 L 89.77272727293894 58.56299166032113 L 91.41414141422138 59.43600283912383 L 93.52453102450818 60.89102147042286 L 95.63492063479498 62.34604010172188 L 97.04184704134241 63.29180221213028 L 99.15223665256053 64.67406991194002 L 101.02813852811232 65.83808481681626 L 103.13852813839912 67.07485065364745 L 105.01443001441658 68.2388655586401 L 106.89033189043403 69.69388419017196 L 108.76623376598582 71.22165375296026 L 110.87662337673828 72.6766723843757 L 112.98701298702508 74.13169101555832 L 115.09740259731188 75.51395871525165 L 117.20779220759869 77.04172827827279 L 119.0836940840818 78.4967469094554 L 120.95959595963359 79.80626367777586 L 122.83549783565104 81.11578044597991 L 124.47691197693348 82.57079907739535 L 126.11832611821592 84.09856864030007 L 127.525252525229 85.48083634010982 L 129.6356421355158 87.00860590289813 L 131.7460317458026 88.09986987628508 L 133.3874458875507 89.70039037091192 L 134.0909090912901 92.17392204422504 L 133.62193362182006 94.86570651212242 L 132.9184704180807 96.68447980133351 L 132.21500721480697 99.01250961143523 L 130.80808080825955 100.68578103755135 L 129.40115440124646 102.35905246355105 L 128.69769119704142 104.5415804105578 L 127.75974025949836 106.86961022065952 L 126.82178932148963 108.47013071516994 L 126.11832611821592 110.21615307277534 L 125.41486291447654 112.83518660918344 L 124.9458874464035 115.38146921398584 L 124.71139971120283 117.12749157159124 L 124.00793650792912 119.52827231329866 L 123.53896103892475 121.7835511919111 L 123.53896103892475 124.11158100201283 L 123.06998556992039 126.29410894901957 L 122.13203463191167 128.54938782774843 L 120.95959595963359 130.80466670636088 L 120.25613275589421 132.33243626891635 L 118.84920634934679 134.5877151476452 L 117.67676767660305 137.1339977524476 L 116.97330447332934 139.31652569945436 L 116.50432900432497 141.5718045780668 L 116.03535353532061 143.68158159335144 L 114.62842712830752 144.40909090917557 L 112.28354978375137 144.1180871828692 L 109.70418470399454 143.1723250723444 L 107.82828282844275 142.29931389377452 L 105.9523809524253 141.42630271497183 L 104.31096681114286 140.55329153616913 L 102.43506493559107 139.68028035748284 L 99.85569985583425 138.37076358892955 L 97.9797979798168 137.57050334184896 L 96.33838383853436 136.62474123155698 L 94.69696969725192 135.53347725817002 L 93.05555555550382 134.44221328466665 L 91.64862914895639 133.27819837944116 L 90.47619047621265 132.1141834743321 L 89.06926406966522 130.95016856933944 L 87.19336219364777 129.27689714322332 L 86.02092352090403 128.11288223823067 L 84.14502164535224 126.51236174372025 L 82.9725829726085 125.49384870182257 L 80.8621933623217 124.03883007029071 L 79.45526695530862 123.02031702839304 L 77.34487734502181 121.49254746572115 L 75.23448773473501 119.89202697132714 L 74.06204906245694 118.80076299759094 L 71.95165945170447 117.12749157159124 L 70.07575757568702 115.38146921398584 L 68.43434343440458 113.78094871970825 L 67.02741702692583 112.61693381448276 L 65.1515151518397 110.94366238859948 L 63.27561327628791 109.34314189408906 L 61.634199135005474 107.74262139946222 L 59.75829725852236 106.2148518365575 L 57.88239538203925 104.75983320537489 L 56.00649350648746 103.23206364235375 L 54.59956709994003 102.14079966885038 L 52.95815295819193 100.39477731124498 L 51.31673881690949 98.64875495363958 L 49.44083694089204 97.04823445912916 L 47.7994227996096 95.30221210140735 L 46.39249639259651 93.48343881242909 L 44.985569986049086 91.95566924964078 L 44.04761904850602 90.20964689191896 L 42.87518037483096 88.46362453442998 L 41.9372294372879 86.4265984504018 L 40.29581529600546 84.82607795577496 L 38.185425685718656 83.29830839298666 L 37.01298701297492 82.13429348787758 L 34.90259740315378 80.46102206187788 L 33.73015872994438 79.15150529390667 L 32.55772005813196 76.67797362036072 L 31.6197691205889 74.05894008406904 L 31.150793650653213 71.5126574790338 L 30.21284271311015 69.18462766893208" stroke-linejoin="bevel" stroke-miterlimit="10" stroke-width="3"/></g></g></g><g><g fill="#444444"><path fill="" stroke="none" d=""/><g transform="translate(10,22)"><path fill="none" stroke="none"/><text fill="" stroke="none" font-family="helvetica" font-size="10pt" font-style="normal" font-weight="bold" text-decoration="normal" x="0" y="0" text-anchor="start" dominant-baseline="text-after-edge">1.02199</text></g></g></g><g/></g></g></svg>