<svg version="1.1" xmlns="http://www.w3.org/2000/svg" xmlns:xlink="http://www.w3.org/1999/xlink" width="150" height="160" style="width: 150px; height: 160px;"><defs><clipPath id="IJRmiCBSvbmw"><path fill="none" stroke="none" d=" M 10 27 L 140 27 L 140 150 L 10 150 L 10 27 Z"/></clipPath></defs><g><g transform="scale(1,1) translate(0.5,0.5)"><rect fill="#FFFFFF" stroke="none" x="0" y="0" width="150" height="160"/><rect fill="#ffffff" stroke="none" x="0" y="0" width="150" height="160"/><rect fill="#FFFFFF" stroke="none" x="10" y="27" width="130" height="123"/><rect fill="#ffffff" stroke="none" x="10" y="27" width="130" height="123"/><g><rect fill="none" stroke="#FFFFFF" x="10" y="27" width="130" height="123" stroke-linejoin="bevel" stroke-miterlimit="10"/></g><g clip-path="url(#IJRmiCBSvbmw)"><g><g/><g/><g><path fill="none" stroke="none"/><path fill="none" stroke="#440154" paint-order="fill stroke markers" d=" M 15.909090909175575 60.72285028360784 L 16.067546397913247 60.331465964438394 L 16.27535687480122 60.03235924895853 L 16.797480698209256 60.04190520790871 L 17.267651902511716 60.09918096184265 L 17.711846796330065 60.267826237599365 L 18.239165881183 60.65284658432938 L 18.431390572804958 61.20969419309404 L 18.644396311137825 61.73790392477531 L 19.00546701392159 62.234293793095276 L 19.408099812921137 62.622496126103215 L 19.878271017223597 63.15070585766807 L 20.402992471586913 63.65982367156539 L 20.901737615466118 64.21348929405212 L 21.135524401906878 65.26036279823165 L 21.468021165113896 66.00494760076981 L 21.584914558567107 66.48860952374525 L 21.660245856735855 67.37956569774542 L 22.88892530091107 67.44320542446803 L 23.964344518259168 67.59912275488023 L 25.23978131916374 67.01681925531011 L 26.333383954130113 66.37724000192247 L 27.15683296881616 65.93812588776927 L 28.02444170927629 65.45764595118817 L 28.858281247783452 64.98989395960234 L 29.718097095377743 64.95807409635745 L 30.629865563474596 64.63351149018854 L 31.73905398324132 64.28031100693624 L 32.78070399770513 63.933474496239796 L 33.77040139446035 63.370262914919294 L 34.596448039636016 62.72431968897581 L 35.461459149140865 62.04973858571611 L 36.19139344897121 61.349701591883786 L 36.936913534998894 60.72603227023501 L 37.58112601283938 59.9878114402527 L 38.24871717020869 59.335504241404124 L 38.95267516002059 58.7500187556725 L 39.64884025743231 58.12316744751297 L 40.35279824817553 57.598139702226035 L 41.046365714631975 56.99674428475555 L 41.6516137290746 56.28716133185662 L 42.23608069540933 55.57439639279619 L 42.76599741121754 54.87117741268594 L 43.454369615297765 54.1361385693308 L 44.036238950211555 53.45519349328242 L 44.56355803506449 52.76470245840028 L 45.114255799446255 52.121941218851134 L 45.68573461007327 51.43145018396899 L 46.29617788642645 50.70277531305328 L 46.91701168566942 50.15229167684447 L 47.52225969964638 49.56680619146209 L 48.16906980937347 49.05768837744836 L 48.84705148963258 48.52629665972199 L 49.621145515702665 48.04263473651372 L 50.413422957994044 47.59715664957184 L 51.091404638718814 47.17713445331901 L 51.63950477167964 46.52482725458685 L 52.27072909567505 45.652962998487055 L 52.9513084073551 44.92110614152625 L 53.62409482570365 44.35789455997292 L 54.457934364210814 43.71513332007453 L 55.135916044935584 43.002368381014094 L 55.80090957088396 42.311877346248366 L 56.47889125160873 41.6722980926279 L 56.98802691977471 41.07090267550666 L 57.53352942178026 40.55542088893708 L 58.099812970962375 40.078122938633896 L 58.60375337675214 39.56264115229715 L 59.15445114066824 39.02170347527135 L 59.52331473771483 38.33757641306147 L 59.97530252439901 37.564353733556345 L 60.39871637057513 36.10700399184134 L 60.79615390766412 35.26377761294134 L 61.38062087446451 33.93052533827722 L 61.949502054136246 33.03956916439347 L 62.63787425914779 32.610001009190455 L 63.1392170349136 32.59090909094084 L 63.58341192873195 32.70864258543588 L 64.2873699190095 33.06184306868818 L 64.46141119394451 33.35776779789012 L 64.84845820628107 33.80960985773709 L 65.65891906572506 34.57010459166486 L 65.99141582893208 35.149226104840636 L 66.14987131766975 35.78562337195035 L 66.65900698583573 36.50475228379946 L 66.9109771894291 37.12523961928673 L 67.1603497620672 37.68208722793497 L 67.43829627381638 38.25166278204415 L 67.87729590712115 38.89124203543179 L 68.40461499150842 39.57536909764167 L 68.47994628921151 40.39313958573621 L 68.65918282512575 41.11863247025758 L 69.03843694599345 41.860035286517814 L 69.4280815902166 42.553708307561465 L 69.84110491257161 43.050098175997846 L 70.49830554611981 43.77877304691356 L 70.97107438044623 44.38016846450046 L 71.41526927426457 45.121571280411445 L 71.79971865704283 46.244812457007356 L 72.30365906376392 46.88757369678933 L 72.6621321355924 47.578064731438644 L 72.96345732733607 48.504022755194455 L 73.38427354302257 49.124510090681724 L 74.43891171272844 49.54771427321248 L 75.12728391727433 50.25093325332273 L 75.8987803128548 50.88414853415452 L 76.89367297105491 51.49190792441368 L 77.63140016328543 52.28422252170276 L 78.35873683262616 53.003351433668286 L 79.3380437050946 53.891125621274114 L 79.89393672998995 54.60070857394021 L 80.40826766006649 55.30392755428329 L 80.75115494709462 55.97532667091582 L 81.37978163920343 56.748549350653775 L 82.37986955884844 57.22584730084054 L 83.0422654543072 57.677689360571094 L 83.80596895702183 58.167715256335214 L 84.79306872189045 58.69274300162215 L 85.63989641470835 59.214588760747574 L 86.38281886978075 59.691886711050756 L 87.12314369296655 60.19145856576506 L 87.85307799326256 60.70375836570747 L 88.66094122175127 61.29560782411136 L 89.3077513310127 61.807907624170184 L 90.11561456043273 62.13883420324419 L 91.04296881239861 62.67022592097055 L 91.84044151799753 63.214345584623516 L 92.40152980480343 63.6630056577269 L 93.22757645044476 64.24212717090268 L 93.87438655970618 64.69715121691115 L 94.48482983512804 65.14899327652529 L 95.31087648076937 65.79811848897953 L 96.14471601927653 66.28178041195497 L 97.07726553454995 66.77817028027494 L 97.69290407188237 67.16319062700495 L 98.3994596931152 67.64048857742455 L 99.39694998180494 68.37234543438535 L 100.14766533020884 68.86555331631098 L 100.86201384477317 69.45103880215902 L 101.76339178765193 70.10652798728552 L 102.44397109886631 70.62519175990019 L 103.08818357717246 71.18203936878126 L 103.64667423442006 71.71024910057895 L 104.34803459327668 72.28300664084964 L 105.19226465560496 72.92576788063161 L 105.86505107441917 73.33306213153992 L 106.42094409931451 73.73399240989238 L 106.83916268358007 74.30356796376873 L 107.27036942401901 74.65358646085951 L 107.85483638942242 74.96860310819466 L 108.45229151053354 75.30271167319734 L 109.11728503648192 75.82137544592842 L 109.90696484828368 76.33685723238159 L 110.37973368307576 76.75051545607857 L 110.89666224410757 77.12598984350916 L 111.87077385466546 77.80375293304678 L 112.71760154794902 78.37969245982822 L 113.69690842041746 79.02563568588812 L 114.51516217226163 79.57930130825844 L 115.38017328223214 80.1138750128448 L 116.42701855953783 80.82027597911656 L 117.18552679987624 81.35803166986443 L 117.7907748138532 81.87033146980684 L 118.65318829286844 82.43354305136018 L 119.40650127083063 83.0413024413865 L 120.06889716628939 83.61724196828436 L 121.07158271642402 84.25682122155558 L 121.76515018381178 84.82003280310892 L 122.56002525798976 85.37688041152433 L 123.3029477125965 85.91145411599427 L 123.94456255948171 86.3505682303803 L 124.76281631179154 86.77377241302747 L 125.37325958767906 87.18743063660804 L 125.99149575643241 87.6488186554052 L 126.71883242530748 88.14202653709799 L 127.27732308162376 88.55886674718931 L 128.01505027431995 89.04252867028117 L 128.56055277585983 89.50709867523983 L 129.16839842125773 89.96530470740981 L 130.04639768600464 90.48715046653524 L 130.6750243785791 90.8880807448877 L 131.30365107022226 91.38765259936918 L 132.05176878767088 91.99859397578984 L 132.72455520601943 92.76863466913346 L 133.0960164340213 93.67868276115041 L 133.58956631552428 94.5091811948223 L 134.07012804364786 95.32695168280043 L 134.09090909082443 96.10017436253838 L 133.93245360208675 96.85748711018823 L 133.63112841174006 97.58297999494243 L 133.22589798085392 98.21937726181932 L 132.57649024110287 98.94487014668994 L 132.28555557364598 99.69581892155111 L 131.95305881090462 100.20811872172635 L 131.34261553548276 100.74587441247422 L 131.0438879742287 101.26772017148323 L 130.5944978184998 101.85638764337637 L 129.90352798299864 102.47369299258571 L 129.12423869408667 103.0209946425166 L 128.63068881258368 103.62875403242651 L 128.19168917974457 104.3447009579977 L 127.74229902355 104.8029069902841 L 127.2513467730023 105.41703035298269 L 126.48504563979805 106.1138853605371 L 125.71354924282059 106.90301797178108 L 124.8926978604868 107.6985145554645 L 124.03028438147157 108.44946333067492 L 123.62245632009581 109.29587169608567 L 123.21982352109626 110.16455396579113 L 122.98343910370022 111.01414431724697 L 122.68730917433277 111.8796446005581 L 122.19116166047752 112.60831947135739 L 121.59630417078733 113.26699064299464 L 121.16769506316632 114.02430339064449 L 120.77285515656695 114.8898036738392 L 120.48451812006533 115.88258341071196 L 119.9494061418809 116.81808739353437 L 119.6091164862737 117.78859322553035 L 119.36234154552221 118.61909165931866 L 118.87658455502242 119.45913605205715 L 118.46356123220176 120.34054626675788 L 117.93104688590392 121.23150244075805 L 117.41671595536172 122.25928402715363 L 116.73353901179507 123.17569609184284 L 116.29713701130822 124.14938391046599 L 115.94385919999331 125.07215994782746 L 115.70227952161804 126.09675954794511 L 115.21652253204957 127.06408339401241 L 114.30215643392876 127.94867559499107 L 113.47091452684253 128.79826594656333 L 113.06568409688771 129.79104568331968 L 112.68642997648567 130.83473720145412 L 112.21885640313849 131.86888276040554 L 111.89934779517353 132.9030283197062 L 111.55386287719011 133.96581175574102 L 111.08888693572953 135.0476871097926 L 110.81094042258337 136.15501835464966 L 110.40830762358382 137.2018918589456 L 110.03684639651328 138.18512563663535 L 109.6134325498715 139.2001792776864 L 109.2056044889614 140.20568695967086 L 108.60814936831594 141.16982881934382 L 108.13278290210292 142.1244247200666 L 107.67040459159762 142.9644691128051 L 107.03138737566769 143.62950425676536 L 106.28326965821907 144.2372636469081 L 105.47540642973036 144.40909090917557 L 104.83638921380043 144.38681700464804 L 104.05450229393318 144.12589412508532 L 103.26742011355236 143.71859987429343 L 102.64139105193317 143.16175226541236 L 101.82053966773674 142.5412649300415 L 100.94773566536605 141.88259375852067 L 100.14247006829828 141.29074430011678 L 99.28265421977267 140.7720805275021 L 98.07735345419496 140.18023106921464 L 97.0019342363812 139.5533797609387 L 96.17588759027421 138.9710762616014 L 95.33165752980858 138.32195104903076 L 94.72121425252408 137.61873206903692 L 94.10297808470204 136.89005719788838 L 93.59124478511512 136.2122941085836 L 92.97041098587215 135.46770930604544 L 93.06392570072785 134.47174758301117 L 92.80676023568958 133.54578955925535 L 92.31580798374489 132.6643793443218 L 91.71575523121282 131.71932940289844 L 91.13648352678865 130.8029173379764 L 90.54422366851941 129.97241890453734 L 89.88962066639215 129.14510245725978 L 89.12851479463279 128.33051395544317 L 88.48170468630269 127.52865339885466 L 87.78813721891493 126.69815496529918 L 87.08937449147925 125.91220434056595 L 86.33346388069913 125.13261768803932 L 85.608724843245 124.44530863966793 L 84.8554118652828 123.90755294903647 L 84.05274389777333 123.29024759971071 L 83.30202855030075 122.69839814142324 L 82.52793452423066 122.12882258743048 L 81.85774573637173 121.4860613476485 L 81.04728487646207 120.7669324359158 L 80.2757884808816 120.04462153778877 L 79.62118547875434 119.42731618846301 L 78.94580142898485 118.82273878459819 L 78.3015889506787 118.18634151760489 L 77.59763096086681 117.47675856482238 L 76.88588007772341 116.70989985810593 L 76.24426523083821 115.93667717848439 L 75.5195261919871 115.20482032117434 L 74.74023690447211 114.47614545025863 L 73.9167878893204 113.78247242909856 L 73.05177677981555 113.0665255037602 L 72.21533961081877 112.35376056458335 L 71.40228111948818 111.6919074067846 L 70.6463705105707 111.03641822154168 L 69.9528030436486 110.4445687631378 L 69.23066163761541 110.00545464886818 L 68.4513723491691 109.435879094759 L 67.58895887015387 108.90130539052188 L 66.81226721219718 108.23308826005086 L 66.05895423470065 107.37713393557351 L 65.23290758859366 106.66755098290741 L 64.4718017168343 105.8434165220242 L 63.71329347696155 105.17201740527526 L 62.959980498068035 104.68835548206698 L 62.18328884150833 104.19196561386343 L 61.40659718355164 103.59375218278728 L 60.72082260996103 102.95099094312172 L 59.98569304822013 102.15867634536698 L 59.27913742698729 101.43318346096203 L 58.520629186648875 100.81906009826344 L 57.82446408877149 100.1826628310373 L 57.13349425373599 99.50171775522176 L 56.4165481091477 98.88759439263958 L 55.7021995941177 98.27983500238042 L 54.967070032376796 97.7357153390767 L 54.239733363036066 97.15022985322867 L 53.5513611594215 96.5488344358746 L 52.92013683496043 96.03653463581577 L 52.304498297162354 95.5815105898073 L 51.66028582025319 95.07875674893148 L 51.0836117467843 94.49963523563929 L 50.4342040065676 93.93960564071313 L 49.7718081115745 93.4273058406543 L 49.19773166952655 93.03592152136844 L 48.57949550030753 92.52998569398187 L 47.96645459393039 91.99541198951192 L 47.31444922275841 91.47993020329159 L 46.672834374941885 91.03445211611688 L 46.026024266611785 90.55397217965219 L 45.319468644913286 90.07349224295467 L 44.65967038087547 89.55164648394566 L 43.805049795191735 88.97888894367497 L 43.264742554631084 88.39340345782693 L 42.708849530201405 87.84928379429039 L 42.095808622892946 87.26061632228084 L 41.38925300166011 86.76422645396087 L 40.446312963496894 86.19783288636245 L 39.52415397251025 85.59643746877555 L 39.07216618489474 84.77866698044818 L 38.79421967221424 83.50587244634517 L 38.09026168240234 82.58627839537803 L 37.39149895263836 81.6889582487056 L 36.65896702231839 80.96664735057857 L 35.96539955586195 80.20615261641797 L 35.37833495950326 79.53793548594695 L 34.765294052660465 78.82517054688651 L 34.18342471681535 78.252413006383 L 33.40153779834509 77.64465361624025 L 32.65861534420401 76.88415888207965 L 31.985828924924135 76.2668535328703 L 31.414350112900138 75.6081823615823 L 30.92339786142111 75.05451673909556 L 30.094753584824502 74.38629960862454 L 29.601203702855855 73.58762103843037 L 29.066091724205762 72.76348657743074 L 28.56474894937128 72.07617752894294" stroke-linejoin="bevel" stroke-miterlimit="10" stroke-width="3"/></g></g></g><g><g fill="#444444"><path fill="" stroke="none" d=""/><g transform="translate(10,22)"><path fill="none" stroke="none"/><text fill="" stroke="none" font-family="helvetica" font-size="10pt" font-style="normal" font-weight="bold" text-decoration="normal" x="0" y="0" text-anchor="start" dominant-baseline="text-after-edge">1.00724</text></g></g></g><g/></g></g></svg>