<svg version="1.1" xmlns="http://www.w3.org/2000/svg" xmlns:xlink="http://www.w3.org/1999/xlink" width="150" height="160" style="width: 150px; height: 160px;"><defs><clipPath id="WyuVZwMfUKee"><path fill="none" stroke="none" d=" M 10 27 L 140 27 L 140 150 L 10 150 L 10 27 Z"/></clipPath></defs><g><g transform="scale(1,1) translate(0.5,0.5)"><rect fill="#FFFFFF" stroke="none" x="0" y="0" width="150" height="160"/><rect fill="#ffffff" stroke="none" x="0" y="0" width="150" height="160"/><rect fill="#FFFFFF" stroke="none" x="10" y="27" width="130" height="123"/><rect fill="#ffffff" stroke="none" x="10" y="27" width="130" height="123"/><g><rect fill="none" stroke="#FFFFFF" x="10" y="27" width="130" height="123" stroke-linejoin="bevel" stroke-miterlimit="10"/></g><g clip-path="url(#WyuVZwMfUKee)"><g><g/><g/><g><path fill="none" stroke="none"/><path fill="none" stroke="#2E4E60" paint-order="fill stroke markers" d=" M 96.17424242384732 144.40909090917557 L 97.15909090917557 143.14048917079344 L 97.65151515137404 142.95926035102457 L 98.14393939357251 142.41557389125228 L 98.63636363577098 141.87188743194565 L 99.12878787890077 141.32820097217336 L 99.62121212109923 140.60328569356352 L 100.60606060549617 139.69714159471914 L 101.09848484769464 138.97222631517798 L 101.59090909082443 138.24731103610247 L 102.57575757615268 137.34116693679243 L 106.51515151467174 135.3476499193348 L 109.96212121192366 133.53536172071472 L 113.90151515137404 132.2667599823326 L 118.33333333395422 130.6357006044127 L 121.78030303027481 129.00464122602716 L 125.2272727265954 127.5548106674105 L 129.16666666604578 126.28620892902836 L 132.1212121201679 123.74900545179844 L 134.09090909082443 117.94968321826309 L 133.10606060549617 113.23773390287533 L 131.13636363577098 108.5257845884189 L 128.67424242384732 103.63260645326227 L 126.21212121006101 98.7394283185713 L 123.74999999906868 94.02747900411487 L 121.78030303027481 88.95307204965502 L 119.3181818164885 83.87866509519517 L 116.85606060549617 78.80425814026967 L 114.8863636367023 73.91108000604436 L 112.91666666604578 68.65544423181564 L 110.4545454531908 63.58103727735579 L 107.99242424219847 58.506630322895944 L 105.03787878714502 53.25099454866722 L 102.08333333302289 48.35781641397625 L 98.63636363577098 44.55201119789854 L 94.69696969538927 40.564977162051946 L 91.24999999906868 36.39671430690214 L 87.80303030181676 33.31582437036559 L 84.35606060456485 32.590909090824425 L 78.44696969725192 34.58442610874772 L 74.01515151467174 35.85302784759551 L 69.58333333302289 37.84654486551881 L 66.1363636367023 40.38374834228307 L 62.196969697251916 43.10218063928187 L 57.765151515603065 45.63938411651179 L 53.82575757615268 48.35781641397625 L 49.8863636367023 50.895019891206175 L 45.45454545505345 53.25099454866722 L 41.0227272734046 55.788198025897145 L 37.08333333302289 58.506630322895944 L 32.65151515323669 61.04383380012587 L 28.71212121285498 63.762266097124666 L 24.772727272473276 66.48069839412346 L 20.833333333954215 69.38035951089114 L 17.87878787983209 72.46124944742769 L 15.909090909175575 77.71688522165641 L 16.401515152305365 84.05989391449839 L 18.863636364229023 88.04692795081064 L 21.818181819282472 90.58413142804056 L 26.250000000931323 91.30904670758173 L 30.681818182580173 89.31552968965843 L 34.128787878900766 87.14078385103494 L 37.57575757615268 84.96603801380843 L 41.0227272734046 82.79129217611626 L 44.46969696972519 80.43531751865521 L 47.91666666697711 77.89811404142529 L 51.36363636422902 75.17968174489215 L 54.31818181835115 73.36739354673773 L 58.75000000093132 73.72985118580982 L 60.71969696972519 79.34794460004196 L 60.71969696972519 84.05989391449839 L 58.75000000093132 80.9790039784275 L 57.765151515603065 76.08582584373653 L 54.81060606054962 74.81722410488874 L 50.378787878900766 76.44828348327428 L 46.43939393945038 78.2605716814287 L 42.00757575780153 80.43531751865521 L 37.57575757615268 82.9725209963508 L 33.6363636367023 86.05341093288735 L 30.189393940381706 88.95307204965502 L 26.250000000931323 90.58413142804056 L 22.803030303679407 90.58413142804056 L 19.35606060642749 87.8656991305761 L 17.87878787983209 82.0663768965751 L 20.34090909268707 77.71688522165641 L 24.28030303120613 74.81722410488874 L 29.20454545505345 71.55510534858331 L 33.14393939450383 69.01790187135339 L 36.09848484955728 66.66192721342668 L 39.5454545468092 64.12472373712808 L 42.99242424406111 61.76874907920137 L 46.43939393945038 59.23154560197145 L 50.378787878900766 56.33188448520377 L 53.82575757615268 53.613452188204974 L 57.765151515603065 51.4387063505128 L 61.21212121192366 49.26396051282063 L 65.15151515137404 46.907985855825245 L 68.59848484769464 44.73324001720175 L 72.04545454494655 42.55849417997524 L 75.49242424126714 40.74620598182082 L 79.92424242477864 38.2090025045909 L 83.37121212203056 36.215485487133265 L 86.81818181928247 35.4905702075921 L 90.26515151560307 36.94040076620877 L 93.71212121192366 40.38374834228307 L 96.66666666604578 44.37078237812966 L 100.11363636236638 48.720274053514004 L 103.06818181741983 53.613452188204974 L 105.03787878714502 58.506630322895944 L 106.51515151467174 63.399808457586914 L 108.48484848439693 68.4742154115811 L 110.4545454531908 74.27353764604777 L 111.93181818164885 80.07285987911746 L 113.90151515137404 85.87218211265281 L 115.37878787796944 91.12781788688153 L 116.3636363632977 96.02099602203816 L 117.8409090898931 100.91417415672913 L 118.82575757522136 105.26366583164781 L 121.28787878714502 109.61315750703216 L 123.25757575687021 113.9626491824165 L 124.24242424126714 119.21828495664522 L 123.25757575687021 125.01760719018057 L 120.30303030274808 128.46095476625487 L 116.3636363632977 130.9981582434848 L 112.42424242384732 132.2667599823326 L 108.48484848439693 133.71659054141492 L 104.54545454494655 135.89133637864143 L 101.59090909082443 138.7909974954091 L 98.14393939357251 141.87188743194565 L 97.15909090917557 144.2278620894067 L 102.08333333302289 142.41557389125228 L 106.0227272734046 140.2408280535601 L 110.4545454531908 136.97870929725468 L 113.90151515137404 133.89781936025247 L 117.34848484769464 131.3606158834882 L 121.28787878714502 128.46095476625487 L 124.24242424126714 125.38006483018398 L 125.2272727265954 119.94320023572072 L 123.74999999906868 111.96913216495886 L 122.27272727247328 107.07595402980223 L 120.79545454494655 102.54523353464901 L 118.33333333395422 97.83328421972692 L 116.3636363632977 92.75887726526707 L 113.90151515137404 87.50324149103835 L 111.93181818164885 82.0663768965751 L 110.4545454531908 76.62951230304316 L 108.48484848439693 71.55510534858331 L 106.51515151467174 66.48069839412346 L 104.54545454494655 61.76874907920137 L 102.57575757615268 57.05679976474494 L 100.11363636236638 52.34485044889152 L 97.15909090917557 48.176587593741715 L 93.71212121192366 44.55201119789854 L 90.26515151560307 40.92743480205536 L 86.81818181928247 37.84654486551881 L 82.38636363577098 35.671799027360976 L 77.95454545412213 33.85951082967222 L 73.52272727247328 32.590909090824425 L 69.58333333302289 32.95336673036218 L 66.1363636367023 34.58442610874772 L 62.196969697251916 36.57794312713668" stroke-linejoin="bevel" stroke-miterlimit="10" stroke-width="3"/></g></g></g><g><g fill="#444444"><path fill="" stroke="none" d=""/><g transform="translate(10,22)"><path fill="none" stroke="none"/><text fill="" stroke="none" font-family="helvetica" font-size="10pt" font-style="normal" font-weight="bold" text-decoration="normal" x="0" y="0" text-anchor="start" dominant-baseline="text-after-edge">1.0033</text></g></g></g><g/></g></g></svg>