<svg version="1.1" xmlns="http://www.w3.org/2000/svg" xmlns:xlink="http://www.w3.org/1999/xlink" width="150" height="160" style="width: 150px; height: 160px;"><defs><clipPath id="CPbGSMISrIdc"><path fill="none" stroke="none" d=" M 10 27 L 140 27 L 140 150 L 10 150 L 10 27 Z"/></clipPath></defs><g><g transform="scale(1,1) translate(0.5,0.5)"><rect fill="#FFFFFF" stroke="none" x="0" y="0" width="150" height="160"/><rect fill="#ffffff" stroke="none" x="0" y="0" width="150" height="160"/><rect fill="#FFFFFF" stroke="none" x="10" y="27" width="130" height="123"/><rect fill="#ffffff" stroke="none" x="10" y="27" width="130" height="123"/><g><rect fill="none" stroke="#FFFFFF" x="10" y="27" width="130" height="123" stroke-linejoin="bevel" stroke-miterlimit="10"/></g><g clip-path="url(#CPbGSMISrIdc)"><g><g/><g/><g><path fill="none" stroke="none"/><path fill="none" stroke="#2E4E60" paint-order="fill stroke markers" d=" M 15.909090908709913 59.8627102462342 L 15.997280487325042 59.678697879309766 L 16.04396908916533 59.83350193419028 L 16.26444303849712 59.55602296767756 L 16.23591111553833 59.39245641906746 L 16.254067793488503 59.24349402647931 L 16.32669450622052 59.179235739517026 L 16.45379125373438 59.37493143172469 L 16.75986097101122 59.73711450351402 L 17.151526456698775 60.01751430123113 L 17.657319635152817 60.403064023004845 L 18.186457112897187 61.071934374049306 L 18.567747354507446 61.737883893423714 L 19.255107313394547 62.24318769550882 L 20.051407341379672 62.605370767298155 L 20.75433016754687 63.13404121925123 L 21.62844453100115 63.6656325024087 L 22.35471165785566 64.16217381076422 L 23.16657455312088 64.6879234315129 L 23.713868708815426 65.07347315328661 L 24.01734461542219 65.65471856715158 L 24.569826394319534 65.9380391961895 L 25.17418439500034 65.79783929744735 L 25.755198096856475 65.2428813643055 L 26.406244699377567 64.38707781536505 L 27.02875937987119 63.73573245166335 L 27.793933674227446 62.80106645950582 L 28.346415451727808 62.374625100637786 L 29.05971352290362 61.75832971197087 L 29.817106384318322 61.27931339095812 L 30.514841587282717 61.03980523045175 L 31.243702525272965 60.487768128630705 L 31.957000595517457 60.1051392381778 L 32.75848824623972 59.664093723054975 L 33.47956775082275 59.06240249052644 L 34.15136484289542 58.56586118217092 L 34.74794141110033 58.0634782112902 L 35.31339224567637 57.52312443451956 L 35.8373421006836 56.8104416152928 L 36.4053867473267 56.12112544616684 L 36.991588070522994 55.344184340094216 L 37.611508938949555 54.581847390159965 L 38.1613969062455 53.98599782004021 L 38.76316109672189 53.47193152445834 L 39.375300533138216 52.77677369257435 L 39.93815755657852 52.090378354652785 L 40.52176506817341 51.54710374644492 L 41.11056020250544 50.995066644856706 L 41.67341722548008 50.30867130670231 L 42.28036903962493 49.55509685049765 L 42.84322606213391 48.81320571899414 L 43.509835531935096 47.8230439334875 L 44.17903881240636 47.142490257974714 L 44.894930695649236 46.64886978070717 L 45.54078967496753 46.067624366958626 L 46.150335300248116 45.419199834694155 L 46.78841284662485 44.60720875393599 L 47.33311319118366 44.04932998982258 L 47.86225066985935 43.44179709465243 L 48.38620052533224 42.65317266387865 L 48.850492724217474 42.09237306844443 L 49.30700348876417 41.57246511033736 L 49.709044219926 40.88314894097857 L 49.942487224936485 40.106207834905945 L 50.19149309722707 39.50451660237741 L 50.9125726018101 37.92142607807182 L 50.9125726018101 37.92142607807182 L 51.293862842954695 37.0831475162413 L 51.84634462185204 36.25363144790754 L 52.5414860136807 35.48253200459294 L 53.17178212758154 34.82534497859888 L 53.91101830964908 33.689141631824896 L 54.6710049812682 33.16339201130904 L 55.376521619036794 32.80412977037486 L 55.95494150975719 32.59090909094084 L 56.626738601364195 32.85670473240316 L 57.24406565912068 33.356166872079484 L 57.88992463890463 33.963699767016806 L 58.45796928508207 34.7640075229574 L 59.09345302032307 35.55555278505199 L 59.63555955467746 36.43180215288885 L 60.32291951403022 37.04809754167218 L 60.963590872474015 37.74325537320692 L 61.674295131117105 38.33034244959708 L 62.44206323707476 39.18030433636159 L 63.10348508460447 39.90759131149389 L 63.754531687125564 40.541411687619984 L 64.52748741488904 41.09344878909178 L 65.19409688469023 41.80613160831854 L 65.87367541063577 42.44871447805781 L 66.40021907771006 43.549867850146256 L 67.01495232386515 44.30344230646733 L 67.58040315797552 45.00444180064369 L 67.99541294388473 45.673312151338905 L 68.41301654232666 46.242874240502715 L 68.9629045096226 46.82704048557207 L 69.56726251170039 47.61274408525787 L 70.24943484738469 48.31666441075504 L 70.80191662628204 48.93588063062634 L 71.27399025904015 49.41489695163909 L 71.79015868064016 50.066242314875126 L 72.39451668318361 50.67961687257048 L 72.9859056295827 51.51497460308019 L 73.7847994682379 51.91804931219667 L 74.4851284828037 52.674544599605724 L 75.20620798738673 53.60044809838291 L 75.79240931151435 54.400755854090676 L 76.38120444631204 55.01705124275759 L 76.87402856722474 55.82904232351575 L 77.31238265475258 56.903908214648254 L 77.76111198682338 57.85317836294416 L 78.4303152677603 58.33803634648211 L 79.16955145029351 58.80536934256088 L 79.97882053395733 59.225969039136544 L 80.79327723989263 59.67285621666815 L 81.57920202426612 60.14018921286333 L 82.40662778588012 60.63673052121885 L 83.12251966819167 60.94049696868751 L 83.82284868322313 61.40490913356189 L 84.5179900759831 61.76417137449607 L 85.23906958010048 62.12635444640182 L 85.95236765081063 62.655024898122065 L 86.73051100037992 62.990920489421114 L 87.46455956110731 63.379391042282805 L 88.17526382068172 63.70944497094024 L 88.95081335911527 63.969398949993774 L 89.71339384233579 64.30529454082716 L 90.47856813622639 64.76678587472998 L 91.24893005285412 65.32174380740616 L 92.060792948585 65.80660179094411 L 92.82856105268002 66.19799317524303 L 93.61707964772359 66.3265097491676 L 94.36409726412967 66.67116783396341 L 95.08517676824704 66.97201344987843 L 95.86332011828199 67.33127569081262 L 96.67518301354721 67.61167548852973 L 97.43516968470067 67.9680168981431 L 98.23406352475286 68.28930833295453 L 99.02517593000084 68.54342064959928 L 99.81888214731589 68.94649535871577 L 100.57368119666353 69.21229100017808 L 101.30772975692526 69.50145329150837 L 102.09884216217324 69.81398223270662 L 102.87957932427526 70.19661112350877 L 103.59806501725689 70.5675566890277 L 104.31395689863712 70.96478973561898 L 104.9831601800397 71.25687285838649 L 105.68867681734264 71.7037600359181 L 106.42013156646863 72.02797230193391 L 107.08155341353267 72.40475953009445 L 107.81041435105726 72.83412172039971 L 108.39661567471921 73.19630479218904 L 109.05803752271459 73.67240028211381 L 109.74539748160169 74.15141660312656 L 110.34975548367947 74.46686637552921 L 110.99561446439475 74.97801184013952 L 111.68297442328185 75.41029486153275 L 112.3443962703459 75.85426120774355 L 113.04472528537735 76.28654422902036 L 113.71652237791568 76.66625228850171 L 114.35719373542815 77.15403110324405 L 115.09902372956276 77.46071838203352 L 115.75007033208385 77.78200981684495 L 116.39592931279913 78.15003455139231 L 117.05216353805736 78.52682177955285 L 117.75768017582595 78.85103404556867 L 118.49172873515636 79.17232548026368 L 119.14536914927885 79.55495437094942 L 119.7808528849855 79.9697124051163 L 120.49155714502558 80.346499633044 L 121.14779136981815 80.71160353627056 L 121.8662770637311 81.07670743949711 L 122.61588849080727 81.46225716127083 L 123.26174747012556 81.91206517012324 L 123.94651361834258 82.37939816631842 L 124.54049637587741 82.85549365612678 L 125.23304395750165 83.29653917113319 L 125.96709251683205 83.77555549226236 L 126.62332674255595 84.35388007492293 L 127.37812579236925 84.95265047624707 L 128.13551865238696 85.36156684765592 L 128.8073157449253 86.12098296638578 L 129.5543333608657 86.52697850693949 L 130.2339118863456 87.01183649047744 L 131.01983667025343 87.33312792528886 L 131.76685428526253 87.64857769769151 L 132.46458948915824 88.20645646180492 L 133.07154130283743 88.81983101903461 L 133.52805206784979 89.46825555118266 L 133.85227846447378 90.14880922681186 L 134.05718954605982 90.8644128771266 L 134.09090909082443 91.74358307628427 L 134.0182823780924 92.66072408121545 L 133.8341217855923 93.75019412836991 L 133.476175845135 94.64396848354954 L 133.04819700215012 95.62828860653099 L 132.50868427939713 96.83167107158806 L 131.94842106755823 97.67579129582737 L 131.2895930306986 98.16064927936532 L 130.620389750693 98.68347806890961 L 129.72811870882288 99.26472348265816 L 128.91366200335324 99.59769824251998 L 128.10698672989383 100.13221035676543 L 127.26918572280556 100.26072693080641 L 126.50919905118644 100.485630935058 L 125.88927818229422 101.01722221821547 L 125.3834850047715 101.9139174047159 L 125.06185242021456 102.44842951907776 L 124.6831559902057 103.03551659511868 L 124.33039767155424 104.34696981566958 L 124.01914033154026 105.40431071945932 L 123.78310351539403 106.33605588041246 L 123.28768558148295 107.49562587693799 L 122.91677058581263 108.33098360779695 L 122.54844939988106 109.17218300071545 L 122.12306436803192 110.15358229260892 L 121.72880507167429 110.8983942552004 L 121.29304479528219 111.71914782968815 L 120.83912784093991 112.75896374601871 L 120.38780469819903 113.81630464980844 L 119.92870012205094 114.82399142265785 L 119.47997078998014 115.72652827145066 L 118.994928102009 116.60277763928752 L 118.47357205767184 117.48778950062115 L 118.10525087127462 118.4896346112946 L 117.78361828671768 119.43014226586092 L 117.52942479262128 120.1778750596568 L 117.21297982987016 120.87303289154079 L 116.58268371736631 121.73759893421084 L 116.15729868551716 122.63137328939047 L 115.63853645231575 123.78802245471161 L 115.17424425343052 124.81031338381581 L 114.56469862954691 125.67487942671869 L 113.8228686354123 126.76434947375674 L 113.12253961991519 128.08164435671642 L 112.4611177733168 129.37557258980814 L 111.86972882691771 130.71331329108216 L 111.22127603599802 132.12699560448527 L 110.68435712344944 133.184336508275 L 110.212283491157 134.17157746257726 L 109.67277076886967 135.06535181764048 L 109.12028898997232 136.28041760774795 L 108.61449581291527 137.22384609351866 L 108.15798504743725 138.14974959206302 L 107.64700424764305 138.94421568559483 L 107.10749152535573 139.99863575806376 L 106.59651072509587 140.67918943369295 L 106.17631331644952 141.63430124451406 L 105.65755108324811 142.47550063754898 L 105.12841360503808 142.96327945229132 L 104.64077710546553 143.48902907292359 L 104.11942106159404 143.95052040647715 L 103.37240344518796 144.33022846584208 L 102.51644576108083 144.40909090905916 L 101.8446486685425 144.24844519176986 L 101.28179164556786 144.046907837037 L 100.7059655659832 144.12577028013766 L 100.16904665483162 143.63214980298653 L 99.6528782332316 143.0888751950115 L 99.12633456522599 142.32945907628164 L 98.59719708841294 141.8387594303349 L 98.07843485381454 141.1552849235013 L 97.59079835563898 140.23230225604493 L 97.12131853401661 139.61600686749443 L 96.66740158014 138.9500573480036 L 96.24979798216373 137.92192475649063 L 95.7569738603197 137.2004794437671 L 95.20449208235368 136.703938135528 L 94.68832365982234 136.29502176388633 L 94.22403146093711 135.77803463675082 L 93.82977216364816 135.11792677955236 L 93.39919951045886 134.35558982973453 L 92.7585281515494 134.06642753852066 L 92.12563822697848 133.8093943905551 L 91.40455872286111 133.43260716239456 L 90.67051016306505 132.8922533855075 L 89.97796258097515 132.1737289041048 L 89.17647493025288 131.28871704277117 L 88.53839738387614 130.32192190678325 L 87.8640064811334 129.49240583879873 L 87.22074131062254 128.74175221391488 L 86.59044519811869 128.23644841159694 L 85.96793051762506 127.7019362973515 L 85.3609787048772 127.02430345292669 L 84.73068259144202 126.37879975209944 L 84.09779266640544 125.60185864602681 L 83.7139086141251 122.71023573237471 L 83.13808253454044 121.44551581167616 L 82.57781932363287 120.42322488245554 L 82.0460880342871 119.57326299604028 L 81.48063719971105 118.77879690262489 L 80.9566873437725 118.06903491460253 L 80.45608178852126 117.55496861890424 L 79.92953812191263 116.99708985467441 L 79.3251801203005 116.43629025935661 L 78.72860355116427 115.82875736441929 L 78.10349506046623 115.23874945682473 L 77.15156636200845 114.56403744372074 L 76.52645787131041 113.98571286094375 L 75.75868976628408 113.41615077201277 L 75.07132980693132 112.84074702032376 L 74.45140893850476 112.2507391127292 L 73.74329848913476 111.6402853865875 L 73.10003332048655 111.10869410354644 L 72.47751864045858 110.5566570017254 L 71.89391112793237 109.98417408147361 L 71.32586648268625 109.40877033001743 L 70.63591271173209 108.82168325362727 L 69.94336513057351 108.29301280179061 L 69.31566282827407 107.76142151863314 L 68.66461622575298 107.2181469106581 L 68.03950773458928 106.71576393966097 L 67.31583441840485 106.21922263130546 L 66.74519596202299 105.70515633572359 L 66.17715131677687 105.21445668966044 L 65.60651285946369 104.76756951224525 L 65.06440632557496 104.24766155390535 L 64.50414311466739 103.6547328151064 L 63.92312941234559 103.01799160789233 L 63.347303334157914 102.42798370029777 L 62.73775770980865 101.85550078004599 L 62.1230244631879 101.24796788499225 L 61.394163525663316 100.56449337827507 L 60.70680356584489 99.94527715828735 L 59.97794262878597 99.34942758828402 L 59.27242599148303 98.74481552443467 L 58.61878557736054 98.07594517385587 L 57.90289369551465 97.48009560373612 L 57.27519139321521 96.90761268348433 L 56.64489528024569 96.40230888139922 L 56.01459916634485 95.86487593594939 L 55.42061640881002 95.3508096402511 L 54.754006939940155 94.8367433444364 L 54.09258509147912 94.267181255389 L 53.50897757941857 93.74435246596113 L 52.88646289939061 93.24196949508041 L 52.31323063187301 92.70745738083497 L 51.7737179081887 92.18462859140709 L 51.171953718643636 91.64427481452003 L 50.601315260864794 91.12728768750094 L 50.007332504726946 90.62782554794103 L 49.40297450264916 90.14880922681186 L 48.850492724217474 89.71360537444707 L 48.27207283396274 89.26671819679905 L 47.74293535575271 88.81398935674224 L 47.23973599029705 88.31452721718233 L 46.744318056385964 87.83259006473236 L 46.24111869093031 87.32144460023846 L 45.50707013066858 86.75772417359985 L 44.93902548449114 86.21152873453684 L 44.33726129401475 85.64780830801465 L 43.704371369443834 85.11037536233198 L 43.06888763420284 84.57294241688214 L 42.412653408478945 83.98001367796678 L 41.875734496861696 83.59738478739746 L 41.33103415230289 83.1212892975891 L 40.82005335204303 82.58969801443163 L 40.37910545384511 82.06394839391578 L 39.92259468883276 81.52359461714514 L 39.48164678970352 81.00952832133044 L 38.892851654905826 80.48377870058175 L 38.16658452898264 79.94050409272313 L 36.41316818026826 79.4614877718268 L 35.456051859539 78.70499248418491 L 34.37183879222721 78.12958873272873 L 33.694854077883065 77.5249766689958" stroke-linejoin="bevel" stroke-miterlimit="10" stroke-width="3"/></g></g></g><g><g fill="#444444"><path fill="" stroke="none" d=""/><g transform="translate(10,22)"><path fill="none" stroke="none"/><text fill="" stroke="none" font-family="helvetica" font-size="10pt" font-style="normal" font-weight="bold" text-decoration="normal" x="0" y="0" text-anchor="start" dominant-baseline="text-after-edge">1.01707</text></g></g></g><g/></g></g></svg>