<svg version="1.1" xmlns="http://www.w3.org/2000/svg" xmlns:xlink="http://www.w3.org/1999/xlink" width="150" height="160" style="width: 150px; height: 160px;"><defs><clipPath id="WtknefsELcIi"><path fill="none" stroke="none" d=" M 10 27 L 140 27 L 140 150 L 10 150 L 10 27 Z"/></clipPath></defs><g><g transform="scale(1,1) translate(0.5,0.5)"><rect fill="#FFFFFF" stroke="none" x="0" y="0" width="150" height="160"/><rect fill="#ffffff" stroke="none" x="0" y="0" width="150" height="160"/><rect fill="#FFFFFF" stroke="none" x="10" y="27" width="130" height="123"/><rect fill="#ffffff" stroke="none" x="10" y="27" width="130" height="123"/><g><rect fill="none" stroke="#FFFFFF" x="10" y="27" width="130" height="123" stroke-linejoin="bevel" stroke-miterlimit="10"/></g><g clip-path="url(#WtknefsELcIi)"><g><g/><g/><g><path fill="none" stroke="none"/><path fill="none" stroke="#2E4E60" paint-order="fill stroke markers" d=" M 15.909090908709913 90.57290061644744 L 18.903951798565686 80.44530046230648 L 19.134325713384897 80.08994607091881 L 19.595073543023318 79.43846302002203 L 20.286195286083966 79.02388289675582 L 20.977317030075938 78.60930277348962 L 22.82030834676698 78.37239984597545 L 24.43292574863881 78.66852850536816 L 26.50629098014906 79.55691448389553 L 29.04040403990075 78.13549691834487 L 30.422647527884692 76.53640215704218 L 31.804891015402973 74.93730739608873 L 33.18713450245559 73.5751155623002 L 34.569377990439534 72.33137519250158 L 35.721247563138604 70.79150616331026 L 37.103491050656885 69.4885400616331 L 38.48573453864083 67.77099383668974 L 39.867978025693446 66.46802773501258 L 41.25022151321173 64.27667565492447 L 41.9413432572037 62.79603235749528 L 42.63246500073001 60.900808936799876 L 43.55396065907553 58.82790832046885 L 44.47545631742105 55.925847457489 L 45.62732589058578 53.43836671800818 L 46.77919546328485 51.66159476118628 L 48.16143895080313 49.82559707236942 L 49.54368243785575 48.048825115547515 L 50.92592592583969 46.98276194150094 L 52.077795499004424 45.146764252800494 L 53.460038986522704 42.95541217259597 L 54.611908559221774 39.81644838210195 L 55.072656388394535 37.92122496140655 L 55.763778132386506 36.32213020022027 L 56.224525961559266 35.25606702629011 L 57.376395534258336 34.367681047762744 L 59.21938685094938 33.597746533108875 L 60.83200425282121 32.70936055469792 L 62.67499556904659 32.59090909094084 L 63.82686514314264 34.42690677952487 L 64.28761297138408 35.848324345075525 L 65.66985645936802 38.33580508467276 L 66.59135211771354 40.053351309732534 L 68.66471734875813 40.94173728802707 L 70.96845649462193 41.29709167953115 L 72.58107389695942 42.363154853577726 L 74.65443912800401 43.5476694914978 L 77.18855218868703 44.021475346642546 L 79.0315435049124 46.86431047762744 L 80.41378699289635 48.93721109384205 L 81.56565656559542 50.41785439150408 L 83.17827396746725 51.069337442168035 L 85.48201311333105 51.60236902930774 L 87.78575225919485 52.135400616331026 L 90.08949140552431 52.72765793534927 L 92.39323055092245 53.20146379049402 L 94.4665957824327 54.14907550078351 L 96.7703349282965 55.096687211073004 L 99.07407407462597 55.86662172572687 L 100.6866914764978 56.51810477650724 L 102.99043062189594 57.58416795055382 L 104.37267410894856 58.29487673356198 L 106.21566542610526 59.59784283512272 L 107.59790891362354 60.66390600928571 L 108.74977848632261 61.78919491521083 L 110.59276980301365 63.329063944518566 L 111.74463937571272 64.3359013866866 L 113.58763069286942 65.63886748848017 L 114.7395002655685 66.64570493053179 L 116.81286549707875 67.94867103244178 L 118.65585681376979 69.31086286599748 L 120.49884813046083 70.67305469943676 L 122.57221336150542 71.67989214172121 L 123.9544568490237 73.16053543926682 L 125.10632642218843 74.22659861319698 L 126.48856990924105 75.82569337449968 L 128.33156122639775 76.95098228030838 L 130.1745525430888 78.13549691834487 L 132.01754385931417 78.84620570100378 L 133.39978734683245 80.03072033904027 L 134.09090909082443 81.68904083222151 L 134.09090909082443 83.8803929121932 L 133.63016126165166 85.36103620973881 L 132.70866560330614 86.60477657942101 L 131.09604820096865 88.32232280448079 L 129.71380471345037 89.68451463780366 L 128.33156122639775 90.86902927572373 L 126.94931773887947 91.93509245000314 L 125.33670033654198 93.71186440682504 L 124.18483076384291 95.4294106317684 L 123.03296119067818 97.50231124809943 L 121.88109161797911 99.69366332818754 L 120.72922204481438 102.12191833613906 L 119.57735247258097 105.02397919888608 L 119.11660464247689 106.20849383680616 L 118.19510898459703 108.39984591701068 L 117.2736133262515 110.41352080134675 L 116.35211766790599 111.95338983065449 L 115.20024809474126 113.37480739620514 L 113.81800460768864 115.21080508478917 L 112.4357611197047 117.52060862875078 L 111.28389154700562 120.12654083198868 L 110.59276980301365 122.43634437595028 L 109.6712741451338 124.80537365190685 L 109.21052631549537 126.64137134049088 L 108.74977848632261 128.47736902942415 L 108.05865674326196 130.3133667181246 L 107.36753499880433 131.85323574743234 L 106.44603934092447 134.04458782740403 L 105.98529151128605 135.3475539291976 L 104.83342193905264 137.30200308177155 L 102.99043062189594 138.84187211107928 L 101.37781322002411 139.84870955324732 L 100.22594364685938 140.85554699541535 L 98.8437001593411 142.09928736533038 L 97.69183058664203 143.28380200313404 L 96.07921318430454 144.40909090917557 L 93.54510012408718 133.5707819723757 L 93.31472620973364 133.09697611723095 L 92.16285663610324 130.3133667181246 L 90.78061314905062 129.24730354407802 L 89.39836966153234 127.0559514638735 L 88.70724791754037 125.75298536219634 L 87.55537834530696 124.45001926051918 L 86.17313485732302 123.08782742684707 L 85.02126528415829 121.78486132516991 L 83.40864788228646 119.77118644083384 L 82.71752613876015 118.11286594765261 L 82.02640439476818 115.62538520805538 L 81.33528265077621 113.25635593233164 L 80.41378699289635 111.7164869030239 L 79.49229133455083 110.76887519273441 L 78.11004784703255 112.48642141767778 L 76.49743044469506 113.13790446845815 L 72.35069998214021 125.16072804329451 L 70.50770866544917 126.04911402158905 L 68.43434343440458 126.58214560872875 L 66.36097820289433 126.46369414485525 L 64.05723905703053 125.75298536219634 L 61.75349991116673 124.68692218803335 L 59.91050859447569 123.73931047762744 L 57.837143363431096 122.61402157170232 L 55.763778132386506 121.54795839765575 L 53.690412900876254 120.36344375973567 L 51.84742158418521 119.17892912193201 L 50.00443026749417 117.87596302013844 L 48.39181286562234 116.51377118658274 L 47.23994329245761 115.68461094016675 L 45.62732589058578 114.79622496152297 L 44.2450824030675 113.73016178747639 L 42.63246500073001 112.7825500771869 L 41.01984759885818 111.77571263490245 L 39.407230196520686 111.12422958412208 L 37.103491050656885 108.99210323567968 L 35.721247563138604 107.68913713400252 L 34.339004076085985 106.44539676432032 L 32.95676058810204 105.14243066264316 L 32.26563884457573 105.26088212640025" stroke-linejoin="bevel" stroke-miterlimit="10" stroke-width="3"/></g></g></g><g><g fill="#444444"><path fill="" stroke="none" d=""/><g transform="translate(10,22)"><path fill="none" stroke="none"/><text fill="" stroke="none" font-family="helvetica" font-size="10pt" font-style="normal" font-weight="bold" text-decoration="normal" x="0" y="0" text-anchor="start" dominant-baseline="text-after-edge">1.21047</text></g></g></g><g/></g></g></svg>