<svg version="1.1" xmlns="http://www.w3.org/2000/svg" xmlns:xlink="http://www.w3.org/1999/xlink" width="150" height="160" style="width: 150px; height: 160px;"><defs><clipPath id="rIwvQthNiXvH"><path fill="none" stroke="none" d=" M 10 27 L 140 27 L 140 150 L 10 150 L 10 27 Z"/></clipPath></defs><g><g transform="scale(1,1) translate(0.5,0.5)"><rect fill="#FFFFFF" stroke="none" x="0" y="0" width="150" height="160"/><rect fill="#ffffff" stroke="none" x="0" y="0" width="150" height="160"/><rect fill="#FFFFFF" stroke="none" x="10" y="27" width="130" height="123"/><rect fill="#ffffff" stroke="none" x="10" y="27" width="130" height="123"/><g><rect fill="none" stroke="#FFFFFF" x="10" y="27" width="130" height="123" stroke-linejoin="bevel" stroke-miterlimit="10"/></g><g clip-path="url(#rIwvQthNiXvH)"><g><g/><g/><g><path fill="none" stroke="none"/><path fill="none" stroke="#2E4E60" paint-order="fill stroke markers" d=" M 129.97785277385265 105.22870436660014 L 130.25205652788281 105.99910522578284 L 130.25205652788281 106.43933428777382 L 130.5262602828443 107.20973514672369 L 130.80046403687447 108.31030780239962 L 131.07466779183596 109.63099498930387 L 131.34887154586613 111.06173944147304 L 131.34887154586613 115.13385826768354 L 129.70364901889116 118.21546170371585 L 126.96161147486418 119.9763779528439 L 123.67116642091423 121.18700787401758 L 121.4775363849476 121.29706513951533 L 119.28390634898096 121.18700787401758 L 117.09027631301433 120.85683607705869 L 114.8966462770477 120.30654974933714 L 111.88040497805923 119.5361488906201 L 109.96097869705409 119.20597709389403 L 107.76734866108745 118.7657480314374 L 105.84792237915099 118.21546170371585 L 102.83168108109385 117.55511811003089 L 100.91225479915738 117.22494631353766 L 98.17021725419909 117.11488904827274 L 95.4281797092408 117.33500357926823 L 92.41193841025233 117.33500357926823 L 89.94410461932421 116.45454545482062 L 88.02467833831906 115.13385826768354 L 85.00843703839928 114.25340014323592 L 83.08901075739413 114.0332856120076 L 80.34697321243584 113.92322834650986 L 77.60493566747755 113.5930565497838 L 74.58869436942041 113.5930565497838 L 71.8466568235308 113.2628847528249 L 68.83041552454233 112.60254115960561 L 69.1046192785725 114.36345740873367 L 69.1046192785725 118.32551896944642 L 68.55621176958084 122.06746599869803 L 68.28200801461935 124.7088403722737 L 67.73360050749034 127.79044380830601 L 67.45939675159752 132.08267716527916 L 67.18519299756736 135.16428060107864 L 65.26576671656221 136.48496778821573 L 63.07213668059558 138.1358267716132 L 60.60430288966745 140.88725841091946 L 58.9590803636238 142.4280601288192 L 57.039654082618654 143.6386900502257 L 54.8460240457207 143.30851825349964 L 52.378190255723894 143.6386900502257 L 50.45876397378743 144.40909090917557 L 47.990930183790624 144.29903364367783 L 45.52309639379382 143.1984609880019 L 43.87787386588752 141.437544738641 L 42.50685509387404 137.80565497511998 L 41.95844758488238 133.62347888341174 L 41.68424383085221 130.87204724387266 L 41.68424383085221 126.68987115263008 L 41.68424383085221 122.72780959191732 L 41.68424383085221 119.09591982793063 L 41.41004007682204 115.79420186113566 L 40.313225058838725 113.15282748755999 L 38.39379877690226 111.50196850392967 L 36.200168740935624 110.95168217620812 L 33.73233495093882 110.29133858298883 L 31.264501160010695 109.74105225480162 L 28.796667370945215 109.08070866158232 L 26.0546298250556 108.31030780239962 L 23.586796035058796 107.6499642089475 L 20.844758490100503 107.09967788122594 L 18.3769247001037 106.10916249104775 L 16.731702173128724 103.79795991419815 L 15.909090909175575 100.49624194717035 L 15.909090909175575 96.9744094486814 L 16.183294664137065 93.45257695042528 L 16.457498418167233 89.82068718667142 L 16.731702173128724 86.2988546884153 L 16.731702173128724 82.44685039366595 L 16.457498418167233 78.26467430195771 L 16.457498418167233 74.19255547621287 L 16.457498418167233 70.01037938403897 L 16.731702173128724 65.82820329279639 L 16.731702173128724 61.646027200855315 L 16.731702173128724 57.46385110961273 L 17.005905928090215 53.61184681439772 L 17.55431343615055 50.090014316374436 L 18.651128454133868 46.678239083848894 L 19.747943472117186 43.156406585359946 L 21.39316599909216 39.85468861856498 L 23.312592280097306 36.993199713528156 L 25.50622231606394 35.01216893340461 L 27.974056106992066 33.911596277495846 L 30.44188989698887 33.14119541877881 L 33.18392744101584 32.92108088755049 L 35.651761231943965 32.811023622052744 L 37.8453912679106 32.590909091057256 L 40.58742881286889 32.590909091057256 L 43.055262602865696 33.80153901223093 L 45.79730014782399 35.122226198902354 L 48.53933769278228 35.672512526623905 L 51.007171482779086 36.22279885481112 L 53.74920902773738 36.88314244803041 L 55.668635309673846 37.213314244756475 L 58.41067285370082 37.54348604148254 L 61.15271039865911 37.763600572245196 L 63.894747944548726 37.983715103706345 L 66.6367854885757 38.20382963470183 L 69.1046192785725 38.42394416593015 L 71.57245306950063 39.08428775961511 L 74.04028685949743 40.18486041505821 L 76.23391689546406 41.50554760196246 L 78.70175068546087 42.606120257871225 L 81.16958447638899 43.156406585359946 L 83.36321451235563 42.93629205459729 L 85.8310483014211 42.93629205459729 L 88.02467833831906 43.0463493198622 L 90.76671588327736 42.93629205459729 L 92.41193841025233 42.82623478840105 L 95.1539759542793 42.606120257871225 L 97.62180974520743 41.50554760196246 L 99.81543978117406 41.065318539505824 L 102.28327357117087 41.28543307073414 L 104.4769036071375 42.16589119541459 L 106.67053364310414 42.82623478840105 L 109.13836743310094 43.48657838208601 L 111.60620122402906 44.03686470980756 L 114.07403501309454 45.02738010021858 L 116.2676650499925 46.56818181811832 L 118.46129508595914 48.65926986373961 L 120.65492512099445 51.410701502813026 L 122.84855515696108 54.16213314211927 L 124.76798143796623 57.35379384388216 L 126.6874077199027 60.76556907664053 L 127.78422273695469 63.406943450216204 L 128.88103775586933 66.04831782379188 L 129.97785277385265 68.68969219760038 L 131.07466779183596 71.33106657117605 L 131.8972790548578 73.86238367925398 L 133.2682978278026 77.60433070850559 L 134.09090909175575 81.56639226921834 L 134.09090909175575 85.52845382969826 L 133.54250158183277 89.05028632772155 L 132.44568656384945 92.2419470292516 L 131.34887154586613 95.21349319955334 L 129.97785277385265 98.29509663558565 L 128.60683400183916 99.6157838224899 L 127.51001898385584 97.19452397967689 L 127.78422273695469 93.782748747617 L 128.0584264928475 89.82068718667142 L 128.33263024687767 86.40891195437871 L 128.33263024687767 82.99713672162034" stroke-linejoin="bevel" stroke-miterlimit="10" stroke-width="3"/></g></g></g><g><g fill="#444444"><path fill="" stroke="none" d=""/><g transform="translate(10,22)"><path fill="none" stroke="none"/><text fill="" stroke="none" font-family="helvetica" font-size="10pt" font-style="normal" font-weight="bold" text-decoration="normal" x="0" y="0" text-anchor="start" dominant-baseline="text-after-edge">1.00308</text></g></g></g><g/></g></g></svg>