<svg version="1.1" xmlns="http://www.w3.org/2000/svg" xmlns:xlink="http://www.w3.org/1999/xlink" width="150" height="160" style="width: 150px; height: 160px;"><defs><clipPath id="TegwEswtEmtx"><path fill="none" stroke="none" d=" M 10 27 L 140 27 L 140 150 L 10 150 L 10 27 Z"/></clipPath></defs><g><g transform="scale(1,1) translate(0.5,0.5)"><rect fill="#FFFFFF" stroke="none" x="0" y="0" width="150" height="160"/><rect fill="#ffffff" stroke="none" x="0" y="0" width="150" height="160"/><rect fill="#FFFFFF" stroke="none" x="10" y="27" width="130" height="123"/><rect fill="#ffffff" stroke="none" x="10" y="27" width="130" height="123"/><g><rect fill="none" stroke="#FFFFFF" x="10" y="27" width="130" height="123" stroke-linejoin="bevel" stroke-miterlimit="10"/></g><g clip-path="url(#TegwEswtEmtx)"><g><g/><g/><g><path fill="none" stroke="none"/><path fill="none" stroke="#2E4E60" paint-order="fill stroke markers" d=" M 18.31605258351192 61.76086956507061 L 18.31605258351192 60.84930830029771 L 18.31605258351192 60.62141798425 L 18.31605258351192 60.24160079052672 L 18.55674875061959 59.70985671936069 L 19.038141085766256 59.17811264831107 L 19.51953342044726 58.87425889330916 L 20.241621922235936 58.7982954547042 L 20.7230142573826 58.646368577261455 L 22.88927976367995 58.26655138330534 L 25.296241437550634 58.49444169958588 L 27.221810776740313 59.48196640331298 L 28.425291613675654 60.5454545452958 L 30.110164785292 61.077198616578244 L 31.554341789335012 60.469491106807254 L 33.47991112899035 59.10214920947328 L 34.924088132567704 57.58288043469656 L 35.88687280192971 55.455904150148854 L 36.84965747222304 53.632781620603055 L 37.81244214111939 51.96158596838359 L 39.256619145162404 49.75864624523092 L 40.94149231677875 47.55570652184542 L 42.38566932128742 45.960474308463745 L 43.589150158222765 44.59313241112977 L 45.51471949694678 42.162302371580154 L 46.47750416677445 40.64303359691985 L 47.68098500370979 39.123764822259545 L 49.36585817486048 37.22467885387596 L 51.05073134647682 35.32559288549237 L 52.73560451809317 33.27458003978245 L 54.66117385728285 32.590909090824425 L 56.8274393635802 33.27458003978245 L 59.23440103745088 34.186141304438934 L 60.919274209067225 35.17366600781679 L 62.60414738114923 36.08522727282252 L 64.28902055276558 36.99678853759542 L 65.97389372438192 37.75642292492557 L 67.41807072842494 38.66798418969847 L 69.82503240182996 40.18725296447519 L 71.26920940633863 40.946887351805344 L 73.43547491263598 42.694046442746185 L 74.87965191714466 43.98542490124237 L 76.564525088761 45.27680335973855 L 78.24939826037735 46.49221837951336 L 79.9342714319937 47.70763339928817 L 81.61914460361004 48.923048419179395 L 84.02610627748072 51.05002470361069 L 85.71097944956273 52.34140316210687 L 87.63654878782108 53.55681818188168 L 89.32142195943743 54.62030632398091 L 91.24699129816145 55.53186758898664 L 92.93186446977779 56.367465415154584 L 94.85743380896747 57.203063241089694 L 96.54230698058382 58.114624505862594 L 98.46787632023916 59.02618577098474 L 100.15274949138984 59.861783597036265 L 102.07831883057952 60.77334486169275 L 103.52249583462253 61.68490612646565 L 105.68876134091988 63.20417490124237 L 107.8550268476829 64.875370553229 L 109.2992038517259 66.01482213439886 L 111.46546935802326 67.68601778661832 L 113.6317348643206 69.20528656139504 L 115.31660803593695 70.8005187746603 L 117.24217737512663 72.3957509881584 L 119.16774671431631 73.91501976270229 L 121.33401222061366 75.58621541503817 L 123.25958155933768 77.33337450597901 L 125.18515089852735 78.9286067194771 L 127.11072023771703 80.52383893285878 L 129.27698574448004 82.19503458484542 L 131.9246435854584 84.24604743078817 L 132.88742825435475 85.76531620556489 L 133.85021292418242 88.27210968371946 L 134.09090909082443 90.17119565210305 L 133.85021292418242 93.28569664026145 L 133.3688205895014 95.33670948608778 L 132.40603591967374 97.08386857714504 L 131.2025550827384 98.7550642293645 L 129.75837807822973 100.42625988135114 L 128.55489724176005 102.02149209496565 L 127.3514164048247 103.69268774695229 L 126.38863173499703 105.51581027673092 L 125.18515089852735 107.4148962451145 L 124.46306239627302 109.38994565210305 L 123.50027772691101 111.51692193665076 L 122.77818922465667 113.64389822108205 L 121.81540455529466 115.69491106714122 L 121.09331605304033 117.74592391296756 L 120.37122755078599 119.79693675879389 L 119.40844288142398 121.69602272717748 L 118.92705054674298 123.82299901172519 L 118.44565821206197 125.94997529638931 L 117.72356970980763 128.00098814221565 L 116.76078504044563 130.12796442676336 L 115.79800037108362 132.1789772725897 L 114.83521570125595 134.30595355725382 L 113.8724310323596 136.20503952540457 L 112.66895019449294 138.93972332018893 L 111.70616552559659 140.6109189724084 L 110.26198852108791 143.11771245044656 L 108.57711534947157 144.18120059277862 L 106.89224217785522 144.40909090905916 L 104.24458433687687 144.18120059277862 L 102.31901499768719 143.72541996033397 L 100.15274949138984 142.9657855728874 L 98.22718015266582 142.0542243082309 L 96.54230698058382 140.9147727272939 L 94.6167376418598 139.69935770728625 L 92.69116830267012 138.40797924890649 L 90.52490279637277 137.0406373515725 L 88.84002962475643 135.5213685769122 L 86.91446028556675 134.0020998022519 L 85.22958711348474 132.4828310275916 L 83.5447139418684 130.81163537525572 L 82.10053693829104 129.14043972326908 L 80.65635993378237 127.46924407104962 L 78.49009442748502 125.11437747010496 L 76.80522125586867 123.67107213428244 L 75.36104425229132 122.22776679834351 L 73.67617108067498 120.784461462521 L 71.99129790905863 119.26519268762786 L 70.5471209040843 117.74592391296756 L 68.86224773246795 116.30261857702862 L 67.41807072842494 114.8593132410897 L 65.73319755680859 113.34004446631297 L 64.04832438519225 111.74481225304771 L 62.60414738114923 110.22554347815458 L 61.15997037664056 108.78223814221565 L 59.47509720502421 107.26296936767176 L 58.03092020051554 105.97159090905916 L 56.58674319693819 104.68021245067939 L 55.14256619196385 103.23690711439122 L 53.457693020347506 101.71763833996374 L 52.01351601630449 100.12240612634923 L 50.32864284468815 98.52717391296756 L 48.884465840645134 97.00790513819084 L 47.19959266902879 95.56459980236832 L 45.755415664520115 93.96936758887023 L 44.07054249290377 92.37413537548855 L 42.626365488860756 90.77890316199046 L 41.18218848481774 89.33559782605153 L 39.73801148030907 87.96825592895038 L 38.293834475800395 86.67687747033779 L 36.60896130418405 85.3854990118416 L 34.924088132567704 83.25852272717748 L 33.23921496095136 81.0555830039084 L 31.795037957374007 79.4603507904103 L 30.591557119973004 77.86511857691221 L 29.628772449679673 76.34584980248474 L 27.943899278063327 74.90254446631297 L 26.499722274485976 73.53520256909542 L 25.0555452699773 72.09189723315649 L 23.370672098360956 70.72455533593893 L 21.92649509385228 69.12932312255725 L 20.48231809027493 67.53409090905916 L 19.038141085766256 66.01482213439886 L 17.35326791414991 64.72344367590267 L 15.909090909641236 63.356101778685115" stroke-linejoin="bevel" stroke-miterlimit="10" stroke-width="3"/></g></g></g><g><g fill="#444444"><path fill="" stroke="none" d=""/><g transform="translate(10,22)"><path fill="none" stroke="none"/><text fill="" stroke="none" font-family="helvetica" font-size="10pt" font-style="normal" font-weight="bold" text-decoration="normal" x="0" y="0" text-anchor="start" dominant-baseline="text-after-edge">1.01854</text></g></g></g><g/></g></g></svg>