<svg version="1.1" xmlns="http://www.w3.org/2000/svg" xmlns:xlink="http://www.w3.org/1999/xlink" width="150" height="160" style="width: 150px; height: 160px;"><defs><clipPath id="tgwWbdqsStTV"><path fill="none" stroke="none" d=" M 10 27 L 140 27 L 140 150 L 10 150 L 10 27 Z"/></clipPath></defs><g><g transform="scale(1,1) translate(0.5,0.5)"><rect fill="#FFFFFF" stroke="none" x="0" y="0" width="150" height="160"/><rect fill="#ffffff" stroke="none" x="0" y="0" width="150" height="160"/><rect fill="#FFFFFF" stroke="none" x="10" y="27" width="130" height="123"/><rect fill="#ffffff" stroke="none" x="10" y="27" width="130" height="123"/><g><rect fill="none" stroke="#FFFFFF" x="10" y="27" width="130" height="123" stroke-linejoin="bevel" stroke-miterlimit="10"/></g><g clip-path="url(#tgwWbdqsStTV)"><g><g/><g/><g><path fill="none" stroke="none"/><path fill="none" stroke="#2E4E60" paint-order="fill stroke markers" d=" M 67.64767490513623 89.84459411795251 L 66.01382488384843 90.4518301715143 L 65.46920820884407 90.62532618641853 L 64.924591537565 90.71207419433631 L 64.37997486442327 90.88557020947337 L 63.290741516277194 90.79882220178843 L 62.20150816813111 90.62532618641853 L 60.56765814870596 89.15061005717143 L 55.121491411700845 76.05166090698913 L 54.57687473855913 75.2709288385231 L 52.94302471727133 71.88775654160418 L 50.76455802284181 68.59133225190453 L 48.586091328412294 65.98889202345163 L 46.952241307124496 64.60092390165664 L 43.6845412645489 65.38165597012267 L 42.0506912432611 67.89734819089063 L 40.4168412219733 69.97930037369952 L 38.782991202548146 72.40824458724819 L 37.14914118126035 74.92393680801615 L 36.059907833114266 77.26613301364705 L 35.515291161835194 79.78182523441501 L 33.88144113868475 82.12402144004591 L 32.792207792401314 85.16020170669071 L 31.702974444255233 87.50239791232161 L 31.158357771113515 90.01809013308957 L 30.06912442483008 92.70727836946025 L 29.52450775168836 95.74345863610506 L 30.06912442483008 98.60614288714714 L 30.613741096109152 101.90256717684679 L 30.613741096109152 105.02549545117654 L 29.52450775168836 108.14842372527346 L 27.890657728537917 110.66411594604142 L 26.256807709112763 113.09306015935726 L 25.167574360966682 115.52200437267311 L 23.533724339678884 117.95094858598895 L 22.444490993395448 120.3798927993048 L 20.81064097210765 122.98233302752487 L 19.721407623961568 125.58477325621061 L 18.632174277678132 128.27396149234846 L 16.998324256390333 130.8764017210342 L 15.909090910106897 133.65233796462417 L 16.453707583248615 136.68851823126897 L 18.632174277678132 139.20421045226976 L 20.81064097210765 141.28616263507865 L 24.078341014683247 142.84762677224353 L 28.43527440354228 143.88860286353156 L 33.33682446554303 144.40909090894274 L 37.693757854402065 144.2355948940385 L 41.50607457011938 144.06209887866862 L 46.952241307124496 143.2813668102026 L 51.30917469598353 142.5873827491887 L 55.66610808484256 141.71990267303772 L 60.023041473701596 140.59217857383192 L 63.83535818941891 139.11746244458482 L 68.19229157827795 137.81624233024195 L 73.09384164214134 136.86201424640603 L 76.90615835785866 136.16803018562496 L 80.71847507357597 135.04030608641915 L 84.53079178743064 133.82583397999406 L 87.79849183186889 132.17762183514424 L 89.97695852443576 130.26916566770524 L 91.06619187258184 127.14623739360832 L 91.06619187258184 124.71729318005964 L 90.52157519757748 122.20160095905885 L 91.06619187258184 119.9461527611129 L 94.87850858643651 120.29314479161985 L 98.69082530215383 121.94135693646967 L 102.50314201787114 123.50282107340172 L 106.86007540673018 124.8907891951967 L 110.12777544744313 126.45225333259441 L 113.94009216316044 128.1004654772114 L 117.75240887887776 129.57518160669133 L 121.56472559459507 130.09566965210252 L 125.37704231217504 128.53420551517047 L 128.644742352888 126.36550532467663 L 130.2785923741758 124.02330911927857 L 132.4570590686053 121.50761689827777 L 134.0909090898931 119.25216870033182 L 133.00167574174702 116.90997249470092 L 129.1893590260297 114.91476831934415 L 126.46627566032112 113.26655617495999 L 123.74319229088724 111.61834402987733 L 120.47549224831164 109.53639184730127 L 116.66317553445697 107.9749277101364 L 112.30624214373529 106.58695958810858 L 107.40469208173454 105.11224345862865 L 104.13699203915894 104.15801537479274 L 99.7800586502999 102.5965512378607 L 96.51235860772431 100.94833909301087 L 92.700041892007 99.38687495607883 L 88.34310850314796 98.1724028494209 L 83.98617511428893 97.0446787502151 L 79.62924172542989 96.09045066661201 L 75.27230833470821 95.04947457532398 L 70.37075827457011 94.00849848357029 L 65.46920820884407 92.62053036177531 L 61.11227482184768 91.66630227817222 L 57.84457477927208 92.3602863389533 L 55.121491411700845 95.65671062842011 L 54.032258063554764 98.69289089506492 L 54.57687473855913 101.03508710069582 L 55.66610808484256 103.29053529864177 L 58.93380812741816 105.97972353477962 L 62.20150816813111 107.9749277101364 L 65.46920820884407 109.88338387780823 L 69.28152492456138 112.0520840678364 L 73.63845831528306 114.13403625087813 L 77.99539170600474 115.60875238012522 L 82.89694176614285 116.73647647933103 L 87.25387515686452 117.25696452520788 L 89.97695852443576 116.47623245650902 L 90.52157519757748 113.87379222805612 L 91.06619187258184 111.01110797654837 L 92.700041892007 107.5411876719445 L 94.33389191329479 105.19899146654643 L 95.42312526144087 102.94354326813482 L 95.96774193458259 100.60134706250392 L 96.51235860772431 98.25915085687302 L 97.05697528272867 95.83020664355718 L 98.14620862901211 92.62053036177531 L 100.32467532344162 89.67109810281545 L 103.59237536601722 87.15540588204749 L 106.86007540673018 85.16020170669071 L 110.12777544744313 82.64450948592275 L 112.85085881873965 80.12881726492196 L 115.02932551130652 77.43962902878411 L 116.66317553445697 75.2709288385231 L 117.75240887887776 73.01548064034432 L 118.84164222702384 70.49978841957636 L 116.1185588594526 68.24434022163041 L 111.76162547059357 67.20336413010955 L 107.40469208173454 65.90214401576668 L 103.0477586928755 64.16718386369757 L 99.23544197715819 62.95271175680682 L 94.87850858643651 62.1719796883408 L 91.06619187258184 60.69726355862804 L 86.70925848186016 59.482791452202946 L 82.35232509300113 58.70205938350409 L 78.54000837728381 58.26831934531219 L 74.18307499028742 57.66108329221606 L 68.73690825328231 57.31409126147628 L 62.746124843135476 56.967099231434986 L 59.47842480055988 56.44661118579097 L 54.032258063554764 55.318887086585164 L 49.67532467469573 53.23693490377627 L 48.586091328412294 50.37425065226853 L 49.13070800155401 47.25132237840444 L 49.67532467469573 44.04164609615691 L 51.30917469598353 40.91871782205999 L 52.94302471727133 37.88253755541518 L 54.57687473855913 35.106601311592385 L 56.21072475798428 32.590909090824425" stroke-linejoin="bevel" stroke-miterlimit="10" stroke-width="3"/></g></g></g><g><g fill="#444444"><path fill="" stroke="none" d=""/><g transform="translate(10,22)"><path fill="none" stroke="none"/><text fill="" stroke="none" font-family="helvetica" font-size="10pt" font-style="normal" font-weight="bold" text-decoration="normal" x="0" y="0" text-anchor="start" dominant-baseline="text-after-edge">1.00049</text></g></g></g><g/></g></g></svg>