<svg version="1.1" xmlns="http://www.w3.org/2000/svg" xmlns:xlink="http://www.w3.org/1999/xlink" width="150" height="160" style="width: 150px; height: 160px;"><defs><clipPath id="hRxrTrKHpKRN"><path fill="none" stroke="none" d=" M 10 27 L 140 27 L 140 150 L 10 150 L 10 27 Z"/></clipPath></defs><g><g transform="scale(1,1) translate(0.5,0.5)"><rect fill="#FFFFFF" stroke="none" x="0" y="0" width="150" height="160"/><rect fill="#ffffff" stroke="none" x="0" y="0" width="150" height="160"/><rect fill="#FFFFFF" stroke="none" x="10" y="27" width="130" height="123"/><rect fill="#ffffff" stroke="none" x="10" y="27" width="130" height="123"/><g><rect fill="none" stroke="#FFFFFF" x="10" y="27" width="130" height="123" stroke-linejoin="bevel" stroke-miterlimit="10"/></g><g clip-path="url(#hRxrTrKHpKRN)"><g><g/><g/><g><path fill="none" stroke="none"/><path fill="none" stroke="#2E4E60" paint-order="fill stroke markers" d=" M 16.129168782383204 74.15164923574775 L 15.909090909175575 75.21187219850253 L 15.909090909175575 75.706642914447 L 17.889791771769524 70.82961728540249 L 18.329947519581765 70.40552810032386 L 20.530726256780326 68.77985289064236 L 22.291349246166646 68.3557637053309 L 23.831894362345338 68.63848982879426 L 25.592517351731658 68.99189748300705 L 27.13306246791035 69.34530513733625 L 29.33384120510891 69.48666819906794 L 31.534619942307472 68.7091713596601 L 33.51532080490142 67.2955407424597 L 35.716099542565644 66.30599931045435 L 37.036566785071045 65.316457878449 L 39.237345521803945 62.77192276751157 L 40.99796851212159 60.86352143413387 L 42.53851362783462 59.02580163197126 L 44.07905874401331 57.046718767960556 L 45.61960385972634 54.85559131123591 L 46.71999322809279 53.371279163169675 L 48.26053834380582 51.32151476829313 L 49.58100558677688 49.34243190428242 L 51.12155070248991 47.00994138605893 L 52.22194007085636 45.31358464539517 L 53.32232943922281 43.61722790496424 L 54.202640934381634 41.920871164184064 L 54.862874555401504 40.22451442363672 L 55.963263923767954 37.750660843681544 L 57.283731166273355 35.5595333869569 L 58.824276281986386 33.36840593034867 L 60.144743524026126 32.590909091057256 L 62.34552226122469 33.01499827601947 L 63.66598950419575 33.93385817715898 L 65.42661249311641 35.63021491782274 L 66.9671576092951 37.467934720101766 L 68.72778059868142 39.588380645844154 L 69.82816996751353 40.789966670330614 L 71.58879295736551 42.27427881839685 L 72.6891823252663 43.19313871965278 L 74.44980531558394 44.606769336853176 L 76.43050617864355 46.091081484919414 L 78.19112916802987 48.070164348813705 L 80.17183003202081 49.766521089477465 L 81.49229727406055 50.68538099084981 L 83.47299813758582 52.240374669549055 L 85.01354325329885 53.30059763242025 L 86.33401049626991 54.21945753355976 L 87.87455561198294 54.99695437308401 L 89.85525647457689 56.12785886670463 L 92.05603521224111 57.400126422406174 L 94.25681394943967 58.81375703937374 L 95.57728119147941 59.732616940746084 L 97.1178263076581 60.65147684176918 L 98.43829354969785 61.570336742908694 L 100.63907228689641 62.98396736010909 L 102.17961740260944 64.04419032298028 L 103.50008464511484 65.03373175498564 L 105.04062976082787 65.95259165612515 L 106.36109700286761 66.87145155726466 L 108.56187574053183 68.28508217458148 L 109.88234298257157 69.13326054473873 L 111.86304384609684 70.54689116205554 L 113.84374470962211 71.88984024827369 L 115.82444557268173 73.37415239622351 L 117.5850685625337 74.85846454428975 L 119.56576942605898 76.48413975397125 L 121.3263924154453 77.96845190192107 L 123.08701540576294 79.45276405022014 L 124.40748264733702 80.5129870128585 L 126.168105637189 81.99729916092474 L 127.92872862704098 83.34024824749213 L 129.9094294901006 84.6125158026116 L 131.89013035362586 86.30887254339177 L 133.2105975956656 88.50000000011642 L 133.65075334347785 90.26703827129677 L 134.0909090912901 93.09429950581398 L 133.87083121715114 95.14406390080694 L 133.4306754693389 97.26450982643291 L 132.77044184831902 99.10222962882835 L 131.0098188589327 101.22267555457074 L 129.9094294901006 102.49494311003946 L 128.80904012173414 104.75675209751353 L 127.92872862704098 107.37196873920038 L 127.26849500555545 108.99764394888189 L 126.168105637189 111.25945293658879 L 125.06771626835689 113.52126192406286 L 124.40748264733702 116.06579703488387 L 123.74724902631715 118.68101367645431 L 123.30709327897057 120.44805194798391 L 122.6468596579507 122.99258705892134 L 121.76654816279188 125.53712216985878 L 120.88623666809872 127.79893115744926 L 120.00592517387122 130.0607401448069 L 118.90553580457345 132.32254913228098 L 118.24530218355358 133.9482243420789 L 116.92483494151384 136.4220779221505 L 116.04452344682068 137.97707160096616 L 115.38428982533514 140.38024365028832 L 114.2839004569687 142.78341569949407 L 112.52327746711671 144.40909090905916 L 110.32249872991815 144.33840937830973 L 107.9016421190463 143.34886794618797 L 106.14101912965998 142.43000804493204 L 104.60047401348129 141.4404666130431 L 103.05992889776826 140.30956211918965 L 101.51938378158957 139.1079760947032 L 100.19891653954983 137.83570853923447 L 98.43829354969785 136.56344098376576 L 96.89774843351915 135.29117342841346 L 95.57728119147941 134.01890587282833 L 94.25681394943967 132.6759567866102 L 92.71626883326098 131.40368923114147 L 91.39580159122124 130.13142167567275 L 90.07533434871584 128.85915412020404 L 88.7548671066761 127.58688656496815 L 87.65447773784399 126.31461900938302 L 86.33401049626991 125.11303298478015 L 84.57338750595227 123.34599471325055 L 83.25292026437819 122.14440868864767 L 81.71237514773384 120.37737041723449 L 79.95175215834752 118.68101367645431 L 78.19112916802987 116.91397540504113 L 76.43050617864355 115.28830019524321 L 74.88996106293052 113.59194345481228 L 73.12933807307854 111.8955867140321 L 71.36871508369222 110.0578669118695 L 70.04824784118682 108.8562808871502 L 68.2876248518005 107.08924261585344 L 66.9671576092951 105.88765659125056 L 65.42661249311641 104.12061831960455 L 63.4459116300568 102.35358004819136 L 62.34552226122469 101.1519940237049 L 60.58489927183837 99.31427422119305 L 58.604198407847434 97.47655441903044 L 56.623497545253485 95.63883461675141 L 55.303030302748084 94.43724859214853 L 54.202640934381634 93.16498103679623 L 52.44201794452965 91.39794276538305 L 50.90147282835096 89.63090449385345 L 49.58100558677688 88.0052292838227 L 48.48061621794477 86.30887254339177 L 47.16014897543937 84.541834272095" stroke-linejoin="bevel" stroke-miterlimit="10" stroke-width="3"/></g></g></g><g><g fill="#444444"><path fill="" stroke="none" d=""/><g transform="translate(10,22)"><path fill="none" stroke="none"/><text fill="" stroke="none" font-family="helvetica" font-size="10pt" font-style="normal" font-weight="bold" text-decoration="normal" x="0" y="0" text-anchor="start" dominant-baseline="text-after-edge">1.01194</text></g></g></g><g/></g></g></svg>