<svg version="1.1" xmlns="http://www.w3.org/2000/svg" xmlns:xlink="http://www.w3.org/1999/xlink" width="150" height="160" style="width: 150px; height: 160px;"><defs><clipPath id="gBlaaDTtkWRa"><path fill="none" stroke="none" d=" M 10 27 L 140 27 L 140 150 L 10 150 L 10 27 Z"/></clipPath></defs><g><g transform="scale(1,1) translate(0.5,0.5)"><rect fill="#FFFFFF" stroke="none" x="0" y="0" width="150" height="160"/><rect fill="#ffffff" stroke="none" x="0" y="0" width="150" height="160"/><rect fill="#FFFFFF" stroke="none" x="10" y="27" width="130" height="123"/><rect fill="#ffffff" stroke="none" x="10" y="27" width="130" height="123"/><g><rect fill="none" stroke="#FFFFFF" x="10" y="27" width="130" height="123" stroke-linejoin="bevel" stroke-miterlimit="10"/></g><g clip-path="url(#gBlaaDTtkWRa)"><g><g/><g/><g><path fill="none" stroke="none"/><path fill="none" stroke="#2E4E60" paint-order="fill stroke markers" d=" M 133.99925607815385 92.63897226983681 L 134.09090909082443 93.96124571166001 L 134.09090909082443 93.96124571166001 L 133.7875060159713 94.66816752427258 L 133.63580447994173 95.39340337342583 L 133.48726339172572 96.19922098354436 L 132.97211025469005 97.12957404227927 L 132.44115487579256 97.71928602037951 L 131.73005392123014 98.16248570615426 L 131.24018437508494 98.46649871347472 L 130.58913194481283 98.7265580331441 L 129.99180714413524 98.65330188698135 L 129.54618387948722 98.28702115500346 L 129.37868009880185 97.74858847912401 L 129.2427808046341 97.26143510569818 L 128.93937773164362 96.75963050313294 L 128.66757914423943 96.19922098354436 L 128.75923215504736 95.89887078339234 L 128.84140382148325 95.51427601464093 L 129.01838894747198 95.02345983427949 L 129.19221362564713 94.49967838777229 L 129.36919875163585 94.32386363646947 L 129.03735163994133 93.97589694103226 L 128.62649331148714 93.59862778708339 L 128.2662021610886 93.33124285330996 L 128.1145006241277 93.37519654072821 L 128.2914857501164 93.3056032017339 L 128.4874335685745 93.00525300181471 L 128.58224702998996 92.76350771891885 L 128.4115828005597 92.46682032593526 L 128.46531042829156 92.47414594050497 L 109.4678533738479 94.4703759290278 L 107.78965512197465 94.15537449996918 L 106.5855241715908 93.89897798723541 L 105.31818424817175 93.58031375077553 L 104.25943393912166 93.27996355039068 L 103.1817209366709 92.6939143796917 L 102.12613107543439 92.26902873092331 L 101.07054121419787 91.51449042302556 L 100.06235808320343 91.28373356186785 L 99.09526078402996 91.11890723276883 L 98.15344707667828 90.89913879334927 L 97.20215202122927 90.54384648357518 L 96.2508569676429 90.6500678958837 L 95.28059922065586 90.41931103495881 L 94.30718102492392 90.10430960543454 L 93.34956507291645 90.00541380839422 L 92.3824677746743 89.67942395643331 L 91.42801227234304 89.44134148093872 L 90.54940753616393 89.1409912807867 L 89.64235876314342 89.46331832464784 L 88.76375402789563 89.29116638074629 L 87.97680230531842 89.30948041728698 L 87.1898505827412 89.17395654669963 L 86.36813392397016 89.11901443684474 L 85.47372694592923 88.899245997658 L 84.51927144266665 88.72709405375645 L 83.63750625867397 88.70145440241322 L 82.75890152528882 88.6501750999596 L 81.81708781607449 89.03843267564662 L 80.88475545402616 89.64279588335194 L 80.12308731954545 89.34977129776962 L 79.29504976421595 89.56587692955509 L 78.48281445167959 89.521923241904 L 77.60737016517669 89.6647727272939 L 76.77933260984719 89.59884219546802 L 75.87544428557158 89.4486670952756 L 75.02528358995914 89.00180460256524 L 74.15616020001471 88.62453544908203 L 73.30599950253963 88.39744139485992 L 72.47164104972035 88.29121998278424 L 71.70049156993628 88.02017224137671 L 70.8945771548897 87.6758683535736 L 70.00017017684877 87.40115780453198 L 69.11840499378741 87.18505217251368 L 68.24928160570562 87.13743567746133 L 67.36751642171293 87.19970340188593 L 66.41622136626393 87.26929674088024 L 65.49020990170538 87.26929674088024 L 64.59264247491956 87.19604059471749 L 63.76776536833495 87.13011006289162 L 62.9049628758803 87.07150514586829 L 62.01687679532915 86.91034162393771 L 61.10034667607397 86.6173170383554 L 60.20277924928814 86.18510577478446 L 59.305211822502315 85.95068610622548 L 58.33179362677038 85.51114922808483 L 57.44054709747434 85.41225343034603 L 56.539819221012294 85.09725200105458 L 55.65805403795093 84.98370497417636 L 54.681475394405425 84.75661092041992 L 53.69541540462524 84.42695826175623 L 52.76940393820405 84.17056174972095 L 51.751739461906254 83.73835048591718 L 50.71827274002135 83.70904802763835 L 49.69744781497866 83.91782804438844 L 48.705066927708685 83.90317681524903 L 47.78537636063993 83.79695540317334 L 46.85620444547385 83.87753716413863 L 45.94599522370845 83.8445718982257 L 45.01050241384655 83.77497855923139 L 44.071849153377116 83.56253573461436 L 43.18060262314975 83.23288307595067 L 42.3051583385095 82.88125357334502 L 41.36650507804006 82.81166023435071 L 40.44365406129509 82.54427530011162 L 39.523963493295014 82.27322755847126 L 38.5505452984944 82.07177315605804 L 37.54868306405842 82.06811034865677 L 36.651115637272596 81.90694682695903 L 35.718783274292946 82.03880789014511 L 34.62842847779393 83.67608276149258 L 33.718219256959856 83.9068396226503 L 32.77324509900063 84.54050528886728 L 31.806147801689804 84.86283233272843 L 30.861173644661903 84.9617281302344 L 29.884595000185072 85.53312607202679 L 28.86377007421106 86.08987278444692 L 27.921956365928054 86.14847770147026 L 26.926415028981864 85.95434891385958 L 25.962478179484606 85.91772084054537 L 25.00170177873224 85.95434891385958 L 24.094653005711734 85.90673241857439 L 23.212887822650373 86.06057032593526 L 22.321641293354332 85.70894082356244 L 21.389308930374682 85.8517903087195 L 20.545469132252038 85.73458047444001 L 19.679506191052496 85.40859062317759 L 18.79142011050135 84.99469339638017 L 17.84644595347345 84.56614493997768 L 16.907792693004012 84.08265437395312 L 16.250419366173446 83.60282661532983 L 15.940695395693183 83.00212621502578 L 15.909090909175575 82.10840122913942 L 15.959658086299896 81.0791523726657 L 16.067113342694938 79.99862421373837 L 16.300986545160413 79.00234062317759 L 16.648635900579393 78.21483704959974 L 16.90463224425912 77.26616995432414 L 17.1353449979797 76.40541023458354 L 17.236479356884956 75.54465051437728 L 17.36289730388671 74.74615851906128 L 17.45771076437086 73.9879574039951 L 17.644177237525582 73.13452329905704 L 17.98866614419967 72.28108919388615 L 18.269946076907218 71.55951615213417 L 18.43744985666126 70.88555960543454 L 18.56386780552566 70.2042774441652 L 18.66500216256827 69.50468124612235 L 18.70924844406545 68.7281660947483 L 18.589151394553483 67.84909233846702 L 18.529102869331837 66.90408805035986 L 18.538584215566516 65.94076972571202 L 18.576509600505233 65.10931246425025 L 18.63023722730577 64.06541237840429 L 18.668162611313164 63.098431246122345 L 18.725050687789917 62.12778730713762 L 18.77245741803199 61.27069039433263 L 18.845147737301886 60.340337335597724 L 19.003170172683895 59.49422884499654 L 19.14855081215501 58.67009719833732 L 19.372942669317126 57.6078830761835 L 19.527804654091597 56.59694825601764 L 19.657383050769567 55.644618353340775 L 19.815405485220253 54.55310177244246 L 20.005032405257225 53.465247998712584 L 20.156733942218125 52.41768510569818 L 20.390607145614922 51.39209905639291 L 20.67188707832247 50.40680388780311 L 20.716133361682296 49.45813679229468 L 20.991092396900058 48.60103987972252 L 21.250249189324677 47.73295454541221 L 21.52836867235601 46.864869210869074 L 21.97083148919046 46.24951758119278 L 22.39433161355555 45.43637435673736 L 22.72301827557385 44.58294025133364 L 23.070667631924152 43.79177387058735 L 23.32034307718277 42.94932818738744 L 23.756484997458756 42.01164951361716 L 24.36013069562614 41.23513436247595 L 24.789951717481017 40.308444110676646 L 25.093354791402817 39.125357347074896 L 25.5105340173468 37.98988707805984 L 26.022526705637574 37.06685963389464 L 26.679900031536818 36.31964694079943 L 27.381519639864564 35.634701972361654 L 28.193754953332245 35.27208404778503 L 28.9617439834401 34.902140508638695 L 29.707609873265028 34.46992924506776 L 30.548289224505424 34.27580045722425 L 31.37000588234514 34.05603201803751 L 32.245450167916715 33.839926386252046 L 33.124054903164506 33.55056460830383 L 33.97421560063958 33.323470554547384 L 34.83069719467312 33.13666738127358 L 35.63345116004348 33.04509719833732 L 36.48677230626345 33.03044596873224 L 37.400141975842416 32.88759648357518 L 38.21553773712367 32.788700686069205 L 39.06569843366742 32.74108419078402 L 39.96010541263968 32.590909090824425 L 40.8608332881704 32.594571897992864 L 41.80896789394319 32.63486277870834 L 42.66228903923184 32.664165237220004 L 43.48084524925798 32.792363493237644 L 44.220390242524445 33.253877215553075 L 44.87460311874747 34.14760220120661 L 45.31390548776835 35.224467552732676 L 45.55409958772361 36.30865851906128 L 45.838539969176054 37.29761649505235 L 45.92071163468063 38.23895797575824 L 45.87646535318345 39.23524156631902 L 45.83221907261759 40.19489708379842 L 45.72476381622255 41.249785591615364 L 45.57306228019297 42.34862778708339 L 45.40871894732118 43.421830331441015 L 45.20328978262842 44.480381646426395 L 45.048427796922624 45.56090980558656 L 45.08635318186134 46.47294882778078 L 44.89040536340326 47.46190680377185 L 44.82403594069183 48.40324828471057 L 44.63124857004732 49.238368353340775 L 44.47006568778306 50.01122069731355 L 44.40685671381652 50.59360706107691 L 44.428979855030775 51.12471412215382 L 44.33416639454663 51.879252429818735 L 44.13821857608855 52.57518582046032 L 43.95807300042361 53.318735705921426 L 43.80637146346271 53.91211049165577 L 43.6609908239916 54.651997570181265 L 43.61674454342574 55.54205974843353 L 43.59778185002506 56.57497141207568 L 43.42711762152612 57.57858061767183 L 43.171121277846396 58.58218982256949 L 42.97201301064342 59.468589193653315 L 42.89932269137353 60.4135934819933 L 42.6780912829563 61.49412164068781 L 42.441057631745934 62.574649799847975 L 42.21982622332871 63.65884076617658 L 42.08392692916095 64.65512435673736 L 41.90062090661377 65.47193038882688 L 41.451837193220854 66.68065680377185 L 41.07890424691141 67.91502287006006 L 40.857672839425504 69.11642367043532 L 40.958807196468115 70.06875357334502 L 40.826068352907896 71.09067681524903 L 41.009374376386404 71.84887793008238 L 40.96828854363412 72.54481132072397 L 40.826068352907896 73.2260934819933 L 40.607997393235564 74.22970268735662 L 40.661725020967424 75.48970840475522 L 40.8608332881704 76.58122498565353 L 40.99041168484837 77.74599771294743 L 41.13579232338816 78.85582833038643 L 41.03149751666933 80.17810177244246 L 41.13579232338816 81.2659555459395 L 41.284333411604166 82.29154159524478 L 41.445516294799745 83.38305817591026 L 41.44235584605485 84.44527229852974 L 41.66990815196186 85.52580045745708 L 41.682549946941435 86.69789879955351 L 41.61302007455379 87.86267152661458 L 41.534008857794106 88.84796669520438 L 41.306456551887095 90.0127394227311 L 41.01569527294487 91.26541952532716 L 40.86715418472886 92.32763364771381 L 40.62379963602871 93.49973198981024 L 40.424691368825734 94.68281875364482 L 40.29827342182398 95.74869568319991 L 40.067560667172074 97.01602701563388 L 39.89057554025203 98.12219482567161 L 39.7641575941816 99.18074614065699 L 39.593493363820016 100.15871569467708 L 39.58401201851666 101.18430174398236 L 39.33117612451315 102.34541166387498 L 39.1921163816005 103.30872998852283 L 39.11626561358571 104.2097805889789 L 39.08466112613678 105.3818789308425 L 38.8887133076787 106.42211620905437 L 38.8065416412428 107.4989815610461 L 38.43676914554089 108.3341016296763 L 38.266104916110635 109.2571290738415 L 38.23450042959303 109.9677136936225 L 38.22185863554478 110.65632146946155 L 38.288228056393564 111.2643474843353 L 38.28506760857999 111.99690894782543 L 38.25030267331749 112.95656446530484 L 38.34511613380164 113.78069611219689 L 38.288228056393564 114.65976986847818 L 38.37356017064303 115.51686678081751 L 38.177612353116274 116.57175528886728 L 37.95006004720926 117.56071326485835 L 37.65297787170857 118.45077544311062 L 37.57712710276246 119.25659305322915 L 37.54868306405842 120.15031803888269 L 37.63401517923921 120.97444968554191 L 37.82996299676597 121.6337550028693 L 37.962701842188835 122.05864065163769 L 37.85840703547001 122.64835262997076 L 37.539201717823744 123.52376357931644 L 37.245279991067946 124.33324399660341 L 37.039850826375186 125.20499213854782 L 36.85338435228914 126.08040308766067 L 36.67955967504531 127.25616423669271 L 36.47729096002877 128.31471555191092 L 36.31926852464676 129.34030160098337 L 36.116999809630215 130.4501322186552 L 36.012705001980066 131.40612492873333 L 35.95897737611085 132.24490780453198 L 35.87364526093006 133.17892367066815 L 35.965298272669315 134.03235777583905 L 36.322428974322975 134.6257325615734 L 37.09357845317572 134.98468767874874 L 37.89949286915362 135.28870068630204 L 38.48417587578297 135.72091194987297 L 39.242683560587466 136.05056460853666 L 40.001191245391965 136.3838800743688 L 40.781822071410716 136.8820218697656 L 41.537169306539 137.3508612064179 L 42.25459115765989 137.94423599215224 L 42.921445831656456 138.640169382561 L 43.30069967452437 139.5302315610461 L 43.866419988684356 140.41296812449582 L 44.64072991721332 141.01733133220114 L 45.27598010189831 141.4495425960049 L 45.88910714816302 141.76088121789508 L 46.54015957843512 141.91471912525594 L 47.40928296651691 142.23338336194865 L 48.14566751010716 142.67658304749057 L 48.97686551511288 142.92565394518897 L 49.845988903194666 143.01722412812524 L 50.65190331824124 143.34687678678893 L 51.460978182032704 143.66920383065008 L 52.228967214003205 143.97687964560464 L 53.177101819776 144.2662414237857 L 53.97669533640146 144.40909090917557 L 54.87742321193218 144.20031089195982 L 55.84136006142944 143.85234419675544 L 56.79897601343691 143.3065859065391 L 57.74711062014103 142.8414093768224 L 58.73317061085254 142.60698970849626 L 59.5580477155745 142.41286092065275 L 60.424010656774044 142.19309248169884 L 61.422712441533804 141.88541666674428 L 62.16857833135873 141.70593910804018 L 62.92392556834966 141.53744997177273 L 63.74880267493427 141.67663664952852 L 64.55471708998084 141.8561142082326 L 65.47124720923603 142.0795454545878 L 66.30876611173153 142.41286092065275 L 67.0009043738246 142.6546062035486 L 67.67407994437963 143.0428637797013 L 68.27456519473344 143.58495926251635 L 68.90349448192865 143.84135577478446 L 69.567188706249 143.76077401381917 L 70.0349351130426 143.49705188698135 L 70.40154716093093 142.8414093768224 L 70.66386440116912 142.09419668396004 L 70.95778612885624 141.24076257878914 L 71.29279368929565 140.39831689558923 L 71.74789830110967 139.4936034877319 L 72.0734245153144 138.42406375077553 L 72.45899925474077 137.61092052608728 L 72.80980905983597 136.5450435965322 L 73.1701002093032 135.46085262997076 L 73.64732796140015 134.4206153517589 L 74.07082808483392 133.41700614639558 L 74.46904461923987 132.3657804459799 L 74.8356566671282 131.28891509445384 L 75.14538063853979 130.28530588932335 L 75.69529871083796 129.2707082622219 L 76.2104518469423 128.36599485436454 L 76.68767959810793 127.41000214428641 L 76.97844087705016 126.3880789023824 L 77.50623580720276 125.28191109211184 L 77.90129189286381 124.35522084054537 L 78.4448890676722 123.58603130374104 L 78.85890784487128 122.73626000573859 L 79.32033335324377 122.01468696421944 L 79.93346039857715 121.23084619781002 L 80.49918071366847 120.64479702687822 L 80.91952038928866 120.02578259003349 L 81.33353916648775 119.58624571212567 L 81.67486762534827 119.09542953129858 L 82.12365133874118 118.54600843344815 L 82.57875594962388 117.91966838226654 L 83.04966280423105 117.18344411090948 L 83.59325997717679 116.24576543737203 L 84.02308099996299 115.57913450547494 L 84.4623833661899 114.90517795900814 L 85.024943231605 114.05540666100569 L 85.5906635466963 113.23860062891617 L 86.09317488782108 112.38882933114655 L 86.44398469198495 111.62330260174349 L 86.8137571895495 110.7662056889385 L 87.27202224824578 109.76625929097645 L 87.66391788609326 108.94945325911976 L 88.09057845827192 108.12898441962898 L 88.72266819607466 107.27921312162653 L 89.35475793294609 106.37449971423484 L 89.83830658253282 105.50641437945887 L 90.2554858084768 104.65298027452081 L 90.66950458660722 103.75192967406474 L 91.25734804198146 102.94244925654493 L 91.87995643354952 102.00477058300748 L 92.44883719738573 101.11837121215649 L 93.08408738300204 100.37482132646255 L 93.75094205606729 99.32359562627971 L 94.34826685767621 98.37126572337002 L 95.17630441300571 97.51416881079786 L 96.20028978772461 96.7523048883304" stroke-linejoin="bevel" stroke-miterlimit="10" stroke-width="3"/></g></g></g><g><g fill="#444444"><path fill="" stroke="none" d=""/><g transform="translate(10,22)"><path fill="none" stroke="none"/><text fill="" stroke="none" font-family="helvetica" font-size="10pt" font-style="normal" font-weight="bold" text-decoration="normal" x="0" y="0" text-anchor="start" dominant-baseline="text-after-edge">1.00649</text></g></g></g><g/></g></g></svg>