<svg version="1.1" xmlns="http://www.w3.org/2000/svg" xmlns:xlink="http://www.w3.org/1999/xlink" width="150" height="160" style="width: 150px; height: 160px;"><defs><clipPath id="dhqHTFpOuNgJ"><path fill="none" stroke="none" d=" M 10 27 L 140 27 L 140 150 L 10 150 L 10 27 Z"/></clipPath></defs><g><g transform="scale(1,1) translate(0.5,0.5)"><rect fill="#FFFFFF" stroke="none" x="0" y="0" width="150" height="160"/><rect fill="#ffffff" stroke="none" x="0" y="0" width="150" height="160"/><rect fill="#FFFFFF" stroke="none" x="10" y="27" width="130" height="123"/><rect fill="#ffffff" stroke="none" x="10" y="27" width="130" height="123"/><g><rect fill="none" stroke="#FFFFFF" x="10" y="27" width="130" height="123" stroke-linejoin="bevel" stroke-miterlimit="10"/></g><g clip-path="url(#dhqHTFpOuNgJ)"><g><g/><g/><g><path fill="none" stroke="none"/><path fill="none" stroke="#2E4E60" paint-order="fill stroke markers" d=" M 62.39393939403817 32.59090909094084 L 60.555555555503815 34.1188594015548 L 60.29292929312214 34.44297007343266 L 59.767676767893136 35.044889892684296 L 59.50505050551146 35.739412761176936 L 19.585858585778624 81.48531902872492 L 19.060606060549617 81.8557312253397 L 17.74747474770993 83.29107848659623 L 16.434343434404582 84.8653303218307 L 15.909090909175575 86.34697910782415 L 15.909090909175575 87.64342179568484 L 16.434343434404582 88.70835686044302 L 18.010101010091603 89.21767363057006 L 20.6363636367023 88.80095990956761 L 22.474747474770993 87.92123094282579 L 24.050505050458014 86.80999435344711 L 25.626262626610696 85.7450592884561 L 27.46464646467939 84.77272727258969 L 29.04040404036641 83.8929983060807 L 30.878787878900766 83.01326933933888 L 32.45454545458779 82.08723884809297 L 34.03030303027481 81.02230378321838 L 35.60606060596183 79.86476566910278 L 37.18181818211451 78.6609260304831 L 38.49494949448854 77.27188029373065 L 40.07070707064122 75.69762845849618 L 41.121212121564895 74.72529644262977 L 42.95959595963359 73.61405985313468 L 44.53535353578627 72.4565217391355 L 45.84848484862596 71.4841897233855 L 47.68686868716031 70.51185770751908 L 49.52525252522901 70.46555618289858 L 51.626262626610696 71.16007905139122 L 53.20202020229772 72.22501411626581 L 55.04040404036641 73.475155279506 L 56.878787878900766 74.67899491812568 L 58.71717171743512 75.512422360247 L 60.81818181835115 76.29954827774782 L 62.656565656885505 77.17927724460606 L 64.75757575780153 78.05900621111505 L 66.85858585871756 78.79983060422819 L 68.69696969725192 79.81846414448228 L 70.79797979816794 80.88339920947328 L 72.89898989908397 81.8557312253397 L 74.474747474771 82.45765104447491 L 76.83838383853436 83.38368153583724 L 79.20202020229772 84.30971202708315 L 81.04040404036641 84.9116318464512 L 83.1414141417481 85.83766233769711 L 85.5050505050458 86.85629587806761 L 87.86868686880916 87.78232636931352 L 89.96969696972519 88.66205533593893 L 92.33333333348855 89.44918125343975 L 94.43434343440458 90.32891022018157 L 96.7979797986336 91.20863918680698 L 98.89898989908397 92.04206662904471 L 100.99999999953434 92.87549407116603 L 103.10101010091603 93.75522303779144 L 104.93939393945038 94.63495200441685 L 106.77777777798474 95.46837944665458 L 108.87878787890077 96.39440993790049 L 110.71717171743512 97.22783738002181 L 112.55555555550382 98.1075663465308 L 114.6565656568855 99.07989836251363 L 116.75757575780153 100.00592885375954 L 118.85858585871756 100.88565782050136 L 120.95959595963359 101.81168831163086 L 123.06060606054962 102.73771880287677 L 124.89898989908397 103.52484472037759 L 127 104.26566911337432 L 128.83838383853436 104.91389045736287 L 130.93939393898472 105.562111801235 L 132.5151515151374 106.6270468661096 L 133.82828282844275 108.06239412759896 L 134.09090909082443 109.77555053634569 L 133.82828282844275 111.6276115187211 L 133.30303030321375 112.83145115757361 L 131.9898989899084 114.22049689432606 L 130.1515151518397 115.47063805756625 L 128.31313131330535 116.81338226981461 L 127 118.43393562943675 L 125.94949494954199 119.40626764541958 L 124.3737373733893 120.74901185766794 L 123.32323232339695 122.18435911904089 L 122.01010101055726 123.71230942965485 L 121.4848484848626 124.86984754365403 L 120.43434343440458 126.62930547713768 L 119.90909090917557 127.78684359113686 L 119.38383838394657 129.3610954262549 L 118.33333333395422 130.93534726125654 L 117.54545454541221 132.5095990963746 L 116.4949494949542 134.03754940698855 L 115.18181818211451 135.4728966683615 L 113.86868686880916 137.04714850359596 L 113.08080808073282 138.11208356847055 L 112.29292929265648 139.82523997721728 L 111.5050505050458 140.9827780914493 L 110.45454545458779 142.69593450019602 L 109.40404040366411 143.66826651594602 L 107.04040404083207 144.40909090905916 L 104.41414141422138 144.13128176156897 L 102.57575757568702 143.66826651594602 L 100.73737373761833 143.06634669657797 L 99.16161616146564 142.37182382831816 L 97.32323232293129 141.630999435205 L 95.74747474770993 140.89017504220828 L 93.90909090917557 140.05674760008696 L 92.07070707064122 139.17701863357797 L 90.4949494949542 138.34359119122382 L 88.91919191880152 137.6490683228476 L 86.55555555596948 136.584133257973 L 85.24242424266413 135.7507058158517 L 83.66666666697711 134.87097684922628 L 82.3535353532061 133.99124788236804 L 80.77777777798474 133.06521739135496 L 79.20202020229772 132.23178994911723 L 77.6262626266107 131.3520609823754 L 76.05050505045801 130.5649350648746" stroke-linejoin="bevel" stroke-miterlimit="10" stroke-width="3"/></g></g></g><g><g fill="#444444"><path fill="" stroke="none" d=""/><g transform="translate(10,22)"><path fill="none" stroke="none"/><text fill="" stroke="none" font-family="helvetica" font-size="10pt" font-style="normal" font-weight="bold" text-decoration="normal" x="0" y="0" text-anchor="start" dominant-baseline="text-after-edge">1.03231</text></g></g></g><g/></g></g></svg>