<svg version="1.1" xmlns="http://www.w3.org/2000/svg" xmlns:xlink="http://www.w3.org/1999/xlink" width="150" height="160" style="width: 150px; height: 160px;"><defs><clipPath id="wzFMfWdABRtW"><path fill="none" stroke="none" d=" M 10 27 L 140 27 L 140 150 L 10 150 L 10 27 Z"/></clipPath></defs><g><g transform="scale(1,1) translate(0.5,0.5)"><rect fill="#FFFFFF" stroke="none" x="0" y="0" width="150" height="160"/><rect fill="#ffffff" stroke="none" x="0" y="0" width="150" height="160"/><rect fill="#FFFFFF" stroke="none" x="10" y="27" width="130" height="123"/><rect fill="#ffffff" stroke="none" x="10" y="27" width="130" height="123"/><g><rect fill="none" stroke="#FFFFFF" x="10" y="27" width="130" height="123" stroke-linejoin="bevel" stroke-miterlimit="10"/></g><g clip-path="url(#wzFMfWdABRtW)"><g><g/><g/><g><path fill="none" stroke="none"/><path fill="none" stroke="#2E4E60" paint-order="fill stroke markers" d=" M 16.325224071741104 61.305547926342115 L 15.909090908709913 60.74251579248812 L 15.909090908709913 60.573606152203865 L 16.047801963053644 60.23578687175177 L 16.186513016931713 59.67275473778136 L 16.463935126084834 59.109722603694536 L 16.741357234306633 58.49038725637365 L 17.29620145075023 57.75844548211899 L 18.12846777634695 56.35086514707655 L 19.09944515582174 54.88698159856722 L 19.65428937226534 53.42309805005789 L 20.2091335891746 52.01551771489903 L 21.041399914305657 50.60793737997301 L 21.734955185558647 49.144053831580095 L 22.428510456345975 47.7927767096553 L 23.122065727133304 46.385196374729276 L 23.815620998851955 45.03391925303731 L 24.647887323983014 43.68264213134535 L 25.480153649114072 42.38766822300386 L 26.45113102858886 40.98008788807783 L 27.42210840806365 39.62881076638587 L 28.25437473319471 38.33383685804438 L 29.086641058325768 37.038862949819304 L 29.780196329578757 35.74388904159423 L 30.612462654709816 34.505218346603215 L 31.306017925497144 33.32285086507909 L 31.999573196284473 32.59090909094084 L 33.38668373879045 33.15394122514408 L 34.63508322648704 34.280005492968485 L 35.4673495516181 35.237160120974295 L 36.57703798543662 36.08170832192991 L 37.54801536491141 36.7573468828341 L 38.518992744386196 37.3766822302714 L 39.628681178204715 38.10862400440965 L 40.73836961155757 38.95317220548168 L 41.70934699103236 40.07923647365533 L 42.54161331616342 41.31790716841351 L 43.23516858695075 42.612881076755 L 44.06743491254747 43.73894534481224 L 44.7609901833348 44.86500961286947 L 45.593256508465856 45.765861027291976 L 46.980367050506175 46.83562208188232 L 48.090055484324694 47.229744575801305 L 48.92232180945575 48.07429277675692 L 49.89329918893054 49.08775061799679 L 50.7255655140616 50.101208459353074 L 51.55783183919266 51.227272727293894 L 52.39009816478938 52.409640208934434 L 53.08365343557671 53.53570447687525 L 53.91591976117343 54.60546553158201 L 54.748186085838825 55.56262015935499 L 55.857874519657344 56.40716836031061 L 56.96756295347586 57.13911013456527 L 58.07725138682872 57.87105190893635 L 59.04822876630351 58.88450975017622 L 60.0192061457783 59.89796759141609 L 60.85147247137502 60.911425432539545 L 61.82244985084981 61.868580060545355 L 62.654716175515205 62.713128261384554 L 63.625693554989994 63.501373249222524 L 64.59667093446478 64.23331502336077 L 65.7063593682833 64.96525679761544 L 66.5386256929487 65.6971985718701 L 67.50960307242349 66.59804998629261 L 68.34186939802021 67.44259818736464 L 69.17413572315127 68.45605602860451 L 70.00640204874799 69.41321065637749 L 71.25480153644457 70.59557813790161 L 72.22577891591936 71.2149134852225 L 73.61288945795968 72.28467454004567 L 74.44515578309074 73.07291952765081 L 75.2774221082218 74.03007415565662 L 76.52582159591839 75.32504806364886 L 77.49679897539318 76.16959626483731 L 78.32906530052423 77.12675089261029 L 79.30004267999902 77.91499588033184 L 80.13230900559574 78.64693765458651 L 81.2419974389486 79.37887942884117 L 82.21297481842339 80.11082120297942 L 83.18395219789818 80.84276297711767 L 84.15492957737297 81.40579511143733 L 85.26461801072583 81.85622081847396 L 86.23559539020061 82.19404009892605 L 87.34528382401913 82.36294973909389 L 88.59368331171572 82.47555616591126 L 89.56466069119051 82.64446580619551 L 90.67434912454337 82.81337544636335 L 91.78403755836189 82.98228508664761 L 92.89372599264607 83.3201043670997 L 94.00341442599893 83.71422686078586 L 94.97439180547372 84.27725899487268 L 95.94536918448284 84.89659434230998 L 96.91634656395763 85.51592968974728 L 97.88732394343242 86.19156825053506 L 98.71959026856348 86.9798132381402 L 99.69056764803827 87.71175501239486 L 100.66154502751306 88.38739357329905 L 101.9099445156753 89.28824498772155 L 103.29705505771562 90.0764899753267 L 104.68416559975594 90.80843174969777 L 106.07127614179626 91.70928316400386 L 107.04225352080539 92.32861851144116 L 108.4293640628457 93.06056028569583 L 109.67776355100796 93.90510848676786 L 111.06487409304827 94.58074704755563 L 112.45198463508859 95.25638560834341 L 113.83909517666325 95.76311452896334 L 114.94878361048177 95.98832738259807 L 115.91976098995656 96.32614666305017 L 117.4455825863406 96.77657237031963 L 118.27784891147166 97.22699807747267 L 119.66495945351198 97.95893985161092 L 121.0520699955523 98.63457841263153 L 122.02304737502709 99.14130733313505 L 123.27144686272368 99.81694589403924 L 124.658557404764 100.32367481465917 L 126.32309005549178 100.94301016198006 L 127.29406743496656 101.22452622908168 L 128.95860008522868 101.50604229606688 L 130.0682885190472 101.73125514970161 L 131.3166880067438 101.84386157640256 L 132.56508749444038 102.01277121668682 L 133.3973538200371 102.85731941787526 L 133.9521980364807 104.26489975280128 L 134.09090909035876 106.01029936829582 L 134.09090909035876 107.81200219725724 L 133.9521980364807 109.72631145291962 L 133.6747759282589 111.58431749523152 L 133.3973538200371 113.38602032407653 L 132.9812206570059 115.18772315292154 L 132.56508749444038 116.93312276853248 L 132.14895433187485 118.62221917056013 L 131.73282116930932 120.31131557270419 L 131.45539906108752 122.00041197461542 L 131.039265898522 123.74581159022637 L 130.76184378983453 125.43490799237043 L 130.48442168161273 127.18030760798138 L 130.20699957292527 128.75679758307524 L 129.51344430213794 129.99546827794984 L 128.26504481444135 130.89631969237234 L 126.60051216371357 131.45935182645917 L 125.35211267601699 131.74086789344437 L 124.24242424219847 131.9660807470791 L 122.99402475496754 132.13499038724694 L 121.88433632068336 132.47280966781545 L 120.63593683298677 132.81062894815113 L 119.38753734529018 133.2047514419537 L 118.13913785712793 133.5425707224058 L 116.89073836943135 133.824086789391 L 115.78104993607849 134.04929964302573 L 114.53265044791624 134.21820928307716 L 113.42296201456338 134.4434221368283 L 112.31327358074486 134.61233177687973 L 111.06487409304827 134.7249382038135 L 109.95518565922976 134.78124141716398 L 108.8454972258769 134.89384784398135 L 107.73580879205838 135.0627574842656 L 106.62612035823986 135.28797033790033 L 105.37772087054327 135.56948640488554 L 104.26803243672475 135.79469925840385 L 103.1583440033719 136.01991211203858 L 102.04865556955338 136.35773139249068 L 100.93896713620052 136.86446031322703 L 99.96798975672573 137.42749244719744 L 98.58087921421975 138.32834386161994 L 97.60990183474496 138.89137599570677 L 96.5002134013921 139.3981049162103 L 95.39052496803924 139.79222741001286 L 94.28083653422073 140.13004669046495 L 93.03243704652414 140.2989563307492 L 91.92274861317128 140.580472397618 L 90.81306017935276 140.9745948916534 L 89.70337174506858 141.36871738533955 L 88.73239436559379 141.93174951942638 L 87.76141698658466 142.66369129356463 L 86.6517285532318 143.2830266408855 L 85.68075117375702 143.73345234827138 L 84.5710627399385 144.0712716288399 L 83.46137430611998 144.35278769570868 L 82.35168587276712 144.40909090905916 L 81.2419974389486 144.40909090905916 L 79.99359795125201 144.24018126889132 L 78.74519846355543 143.95866520190611 L 77.49679897539318 143.6208459213376 L 76.24839948769659 143.2830266408855 L 75 142.88890414708294 L 73.75160051183775 142.4947816535132 L 72.64191207848489 142.1569623729447 L 71.3935125907883 141.76283987914212 L 70.14511310262606 141.31241417198908 L 69.0354246692732 140.80568525125273 L 67.92573623545468 140.2989563307492 L 66.95475885597989 139.51071134302765 L 66.26120358519256 138.384647074854 L 65.84507042262703 136.97706673981156 L 65.84507042262703 135.3442735512508 L 66.12249253084883 133.76778357604053 L 66.5386256929487 132.19129360071383 L 66.81604780163616 130.61480362538714 L 66.5386256929487 129.31982971716207 L 65.7063593682833 127.74333974183537 L 64.87409304315224 126.7298819005955 L 64.04182671755552 125.7727272727061 L 63.209560392424464 124.75926943146624 L 62.238583012949675 123.633205163409 L 60.99018352525309 121.94410876138136 L 60.15791720012203 120.98695413337555 L 59.18693982064724 120.08610271906946 L 58.35467349551618 119.12894809118006 L 57.66111822426319 118.1154902499402 L 56.6901408447884 117.10203240870032 L 55.71916346531361 115.91966492729262 L 54.609475031960756 114.84990387258586 L 53.63849765248597 113.66753639129456 L 52.66752027301118 112.59777533635497 L 51.69654289353639 111.35910464148037 L 50.7255655140616 110.12043394672219 L 49.75458813458681 109.05067289201543 L 48.78361075511202 107.98091183730867 L 47.95134442998096 106.91115078283474 L 46.841655996628106 105.67248008796014 L 45.87067861715332 104.54641581978649 L 44.89970123767853 103.36404833837878 L 43.92872385820374 102.23798407032155 L 42.95774647872895 101.05561658903025 L 41.98676909925416 99.87324910738971 L 40.87708066543564 98.690881625982 L 39.90610328596085 97.62112057127524 L 38.796414852607995 96.55135951656848 L 37.825437473133206 95.42529524862766 L 36.85446009365842 94.24292776721995 L 35.88348271418363 93.1168634990463 L 34.91250533470884 92.10340565780643 L 34.08023900957778 91.03364460309967 L 33.24797268444672 89.79497390834149 L 32.415706359315664 88.66890964028426 L 31.860862142406404 87.5991485855775 L 30.751173709053546 86.24787146388553 L 29.918907383456826 85.23441362252925 L 28.947930003982037 84.05204614123795 L 27.97695262450725 82.81337544636335 L 27.00597524503246 81.63100796495564 L 26.034997866023332 80.44864048343152 L 25.06402048608288 79.26627300202381 L 24.370465215295553 78.0276023070328 L 23.538198890164495 76.5074155452894 L 22.289799402467906 74.9309255698463 L 21.318822022993118 73.86116451525595 L 20.625266751740128 72.73510024719872 L 19.79300042660907 71.94685525947716 L 18.82202304713428 71.2149134852225 L 17.573623559437692 70.93339741823729" stroke-linejoin="bevel" stroke-miterlimit="10" stroke-width="3"/></g></g></g><g><g fill="#444444"><path fill="" stroke="none" d=""/><g transform="translate(10,22)"><path fill="none" stroke="none"/><text fill="" stroke="none" font-family="helvetica" font-size="10pt" font-style="normal" font-weight="bold" text-decoration="normal" x="0" y="0" text-anchor="start" dominant-baseline="text-after-edge">1.6339</text></g></g></g><g/></g></g></svg>