<svg version="1.1" xmlns="http://www.w3.org/2000/svg" xmlns:xlink="http://www.w3.org/1999/xlink" width="150" height="160" style="width: 150px; height: 160px;"><defs><clipPath id="NIqgBlPgOQVr"><path fill="none" stroke="none" d=" M 10 27 L 140 27 L 140 150 L 10 150 L 10 27 Z"/></clipPath></defs><g><g transform="scale(1,1) translate(0.5,0.5)"><rect fill="#FFFFFF" stroke="none" x="0" y="0" width="150" height="160"/><rect fill="#ffffff" stroke="none" x="0" y="0" width="150" height="160"/><rect fill="#FFFFFF" stroke="none" x="10" y="27" width="130" height="123"/><rect fill="#ffffff" stroke="none" x="10" y="27" width="130" height="123"/><g><rect fill="none" stroke="#FFFFFF" x="10" y="27" width="130" height="123" stroke-linejoin="bevel" stroke-miterlimit="10"/></g><g clip-path="url(#NIqgBlPgOQVr)"><g><g/><g/><g><path fill="none" stroke="none"/><path fill="none" stroke="#2E4E60" paint-order="fill stroke markers" d=" M 15.909090909175575 32.59090909094084 L 16.080368906725198 32.90447662270162 L 16.25164690427482 32.90447662270162 L 16.422924901358783 33.09261714166496 L 16.594202898908406 33.28075766074471 L 16.93675889354199 33.594325192505494 L 17.279314888175577 33.907892724033445 L 17.793148879893124 34.284173762309365 L 18.13570487499237 34.66045480046887 L 19.677206851541996 35.72658440831583 L 20.70487483544275 36.54185999080073 L 21.903820817358792 37.545276092365384 L 23.445322793442756 39.050400244654156 L 24.644268774893135 39.9911028399365 L 26.014492753893137 40.86909192870371 L 27.38471673289314 41.74708101770375 L 28.583662714343518 42.37421608122531 L 29.782608695793897 43.0640646511456 L 31.1528326747939 43.879340233514085 L 32.35177865624428 44.694615815998986 L 33.55072463816032 45.57260490488261 L 34.7496706196107 46.38788048736751 L 35.948616601061076 47.015015550889075 L 37.147562582511455 47.704864120692946 L 39.031620553694665 48.83370723493863 L 40.57312253024429 49.83712333650328 L 41.77206851169467 50.589685412705876 L 43.48484848532826 51.71852852695156 L 45.02635046141222 52.784658134914935 L 46.2252964428626 53.66264722379856 L 47.766798419412225 55.0423443634063 L 48.965744400862604 55.98304695880506 L 49.99341238522902 56.986463060369715 L 51.1923583666794 57.98987916170154 L 52.5625823456794 58.99329526326619 L 53.76152832712978 59.93399785854854 L 54.7891963114962 60.87470045371447 L 56.501976285129786 62.1916840870399 L 57.700922266580164 63.13238668220583 L 58.72859025048092 64.13580278400332 L 59.584980237297714 65.13921888533514 L 60.955204216297716 66.64434303774033 L 62.49670619284734 67.83589965838473 L 63.86693017138168 68.96474277263042 L 65.75098814256489 70.0935858868761 L 66.94993412401527 70.72072095028125 L 68.14888010593131 71.34785601380281 L 69.34782608738169 71.91227757092565 L 70.71805006591603 72.53941263444722 L 71.91699604783207 73.10383419157006 L 73.11594202928245 73.73096925509162 L 74.31488801073283 74.10725029325113 L 76.19894598145038 74.67167185025755 L 77.39789196336642 75.11066639469936 L 79.110671937 75.6750879518222 L 80.48089591553435 76.0513689898653 L 82.1936758896336 76.55307704082225 L 83.39262187108397 76.99207158514764 L 85.27667984226719 77.61920664878562 L 86.64690382126719 78.18362820590846 L 87.84584980271757 78.68533625651617 L 89.04479578416795 79.12433080095798 L 90.75757575780153 79.68875235819723 L 92.47035573143512 80.3786009280011 L 94.18313570553437 81.13116300408728 L 95.8959156787023 81.94643858657219 L 97.09486166061834 82.385433131014 L 98.80764163425192 82.94985468813684 L 100.52042160788551 83.76513027073815 L 102.2332015815191 84.58040585333947 L 103.94598155515268 85.33296792942565 L 105.65876152878627 85.96010299294721 L 107.20026350487024 86.46181104367133 L 108.74176548141986 87.02623260079417 L 110.1119894599542 87.65336766419932 L 111.4822134389542 88.46864324680064 L 113.02371541550383 89.15849181660451 L 114.56521739112213 89.66019986732863 L 116.10671936813742 89.9110538928071 L 117.64822134375572 90.47547544992995 L 118.8471673252061 90.91446999437176 L 120.38866930222139 91.41617804509588 L 122.10144927585497 91.98059960221872 L 123.64295125193894 92.54502115945797 L 125.18445322848856 92.79587518470362 L 126.89723320212215 92.98401570378337 L 128.26745718112215 93.61115076730493 L 128.95256917038932 95.42984245135449 L 129.1238471674733 97.75024218624458 L 128.95256917038932 100.13335542741697 L 129.2951251650229 102.45375516230706 L 129.98023715429008 104.52330087183509 L 131.00790513819084 106.34199255588464 L 132.0355731230229 108.09797073365189 L 133.2345191044733 109.66580839233939 L 133.91963109374046 110.85736501286738 L 134.09090909082443 112.9269107223954 L 133.91963109374046 115.05916993832216 L 133.40579710155725 117.2541426604148 L 132.72068511229008 119.2609748635441 L 131.8642951254733 121.07966654771008 L 130.83662714110687 122.96107173815835 L 129.80895915674046 124.7170499159256 L 128.61001317529008 126.34760108101182 L 127.58234519138932 127.35101718234364 L 126.04084321530536 127.35101718234364 L 124.67061923630536 127.1628766633803 L 122.95783926267177 127.03744965069927 L 121.24505928903818 127.03744965069927 L 119.70355731248856 127.1628766633803 L 118.16205533640459 127.28830367606133 L 116.44927536230534 127.47644419514108 L 115.079051383771 127.72729822050314 L 113.88010540232062 128.0408657521475 L 112.50988142332062 128.35443328414112 L 111.13965744432062 128.79342782858294 L 109.94071146287024 129.23242237302475 L 108.57048748387024 129.73413042363245 L 107.37154150241986 130.17312496807426 L 105.65876152878627 130.92568704416044 L 103.94598155515268 131.36468158883508 L 102.40447957860306 131.80367613304406 L 100.69169960496947 132.24267067748588 L 99.15019762888551 132.61895171564538 L 97.43741765525192 132.86980574100744 L 95.72463768115267 133.12065976648591 L 94.01185770798475 133.37151379173156 L 92.12779973680153 133.68508132360876 L 91.10013175290078 133.8732218425721 L 89.38735177880153 134.50035690609366 L 87.50329380808398 135.25291898217984 L 85.7905138344504 136.06819456466474 L 84.76284584961832 136.82075664110016 L 83.56389986816794 137.69874572986737 L 82.02239789254963 138.6394483250333 L 80.30961791845039 138.89030235039536 L 79.110671937 139.0157293631928 L 77.22661396628246 139.58015092031565 L 76.02766798436642 140.1445724774385 L 74.82872200291604 140.70899403456133 L 73.62977602146566 141.14798857900314 L 72.25955204293132 142.08869117405266 L 71.06060606148094 143.09210727573372 L 69.51910408446565 143.65652883285657 L 67.97760210884735 144.09552337718196 L 66.43610013229772 144.40909090917557 L 64.8945981557481 144.40909090917557 L 63.18181818211451 144.2209503899794 L 61.29776021139696 143.7192423392553 L 60.09881422994658 143.4056748073781 L 58.386034255847335 142.77853974397294 L 56.501976285129786 142.2768316931324 L 54.7891963114962 142.08869117405266 L 52.90513834031299 141.90055065508932 L 50.849802372045815 141.58698312344495 L 49.30830039549619 141.27341559156775 L 47.93807641649619 140.5835670218803 L 46.73913043504581 139.7055779331131 L 45.368906456045806 138.38859429955482 L 44.34123847214505 136.94618365366478 L 44.34123847214505 134.37492989352904 L 44.85507246432826 130.98840055067558 L 45.368906456045806 128.41714679030702 L 45.02635046141222 126.66116861265618 L 44.51251646922901 125.34418497921433 L 43.14229249022901 123.71363381424453 L 41.60079051414505 122.020369142876 L 40.57312253024429 120.95423953491263" stroke-linejoin="bevel" stroke-miterlimit="10" stroke-width="3"/></g></g></g><g><g fill="#444444"><path fill="" stroke="none" d=""/><g transform="translate(10,22)"><path fill="none" stroke="none"/><text fill="" stroke="none" font-family="helvetica" font-size="10pt" font-style="normal" font-weight="bold" text-decoration="normal" x="0" y="0" text-anchor="start" dominant-baseline="text-after-edge">1.13534</text></g></g></g><g/></g></g></svg>