<svg version="1.1" xmlns="http://www.w3.org/2000/svg" xmlns:xlink="http://www.w3.org/1999/xlink" width="150" height="160" style="width: 150px; height: 160px;"><defs><clipPath id="wLGMFiABqqpG"><path fill="none" stroke="none" d=" M 10 27 L 140 27 L 140 150 L 10 150 L 10 27 Z"/></clipPath></defs><g><g transform="scale(1,1) translate(0.5,0.5)"><rect fill="#FFFFFF" stroke="none" x="0" y="0" width="150" height="160"/><rect fill="#ffffff" stroke="none" x="0" y="0" width="150" height="160"/><rect fill="#FFFFFF" stroke="none" x="10" y="27" width="130" height="123"/><rect fill="#ffffff" stroke="none" x="10" y="27" width="130" height="123"/><g><rect fill="none" stroke="#FFFFFF" x="10" y="27" width="130" height="123" stroke-linejoin="bevel" stroke-miterlimit="10"/></g><g clip-path="url(#wLGMFiABqqpG)"><g><g/><g/><g><path fill="none" stroke="none"/><path fill="none" stroke="#2E4E60" paint-order="fill stroke markers" d=" M 132.48663101624697 57.28302475553937 L 133.82352941203862 58.56240898685064 L 133.82352941203862 58.81828583299648 L 134.09090909082443 59.26607031398453 L 134.09090909082443 59.969731641351245 L 134.09090909082443 60.73736218013801 L 133.82352941203862 61.56896193057764 L 133.55614973325282 63.87185354693793 L 133.82352941203862 65.85489910561591 L 133.82352941203862 68.15779072185978 L 133.0213903747499 70.33274391503073 L 131.95187165774405 71.99594341591 L 130.88235294166952 73.53120449336711 L 129.81283422466367 74.93852714786772 L 128.74331550858915 76.28188059083186 L 127.6737967915833 78.39286457234994 L 126.33689839579165 80.50384855421726 L 125.26737967971712 81.84720199706499 L 123.93048128392547 83.95818597869948 L 122.32620320934802 85.55741626780946 L 120.98930481262505 87.34855419176165 L 115.10695187188685 98.8630122737959 L 114.83957219310105 99.31079675490037 L 112.70053476002067 101.10193467873614 L 110.8288770057261 102.06147285213228 L 108.95721925236285 102.82910339080263 L 107.08556149806827 104.10848762223031 L 106.28342245984823 105.83565633452963 L 105.7486631013453 107.8187018930912 L 105.4812834225595 109.41793218208477 L 104.67914438527077 111.52891616395209 L 103.60962566826493 114.53546910744626 L 102.27272727247328 116.58248387754429 L 100.93582887668163 118.30965258984361 L 99.5989304818213 120.16475972533226 L 98.26203208602965 121.95589764916804 L 97.45989304874092 123.68306636158377 L 96.925133690238 125.41023507388309 L 96.12299465294927 127.32931142079178 L 95.05347593594342 129.44029540242627 L 94.25133689772338 130.9755564801162 L 93.18181818164885 133.15050967352 L 91.84491978678852 135.13355523184873 L 90.50802139006555 136.98866236722097 L 89.17112299520522 138.84376950294245 L 88.1016042791307 140.8268150612712 L 86.49732620362192 142.74589140841272 L 84.35828877054155 144.21718327444978 L 81.68449197895825 144.40909090905916 L 79.81283422466367 143.8333680051146 L 77.9411764703691 143.1297066777479 L 76.06951871700585 142.36207613896113 L 74.19786096271127 141.40253796544857 L 72.3262032084167 140.50696900347248 L 70.72192513383925 139.67536925303284 L 68.85026737954468 138.9077387143625 L 66.97860962618142 138.14010817569215 L 64.30481283459812 136.92469315580092 L 62.70053475908935 136.02912419394124 L 60.5614973269403 134.68577075086068 L 58.15508021321148 133.59829415439162 L 56.016042781062424 132.4468483462697 L 53.87700534798205 131.2954025377985 L 51.47058823518455 130.14395672967657 L 49.064171123318374 128.80060328671243 L 47.4598930478096 127.8410651134327 L 44.786096257157624 126.4337424589321 L 43.18181818164885 125.47420428541955 L 41.5775401070714 124.57863532344345 L 39.438502673991024 123.74703557300381 L 37.56684491969645 122.91543582279701 L 35.695187165401876 122.2117744955467 L 33.823529412038624 121.57208237983286 L 31.951871658675373 120.80445184092969 L 30.3475935831666 119.9728520908393 L 27.9411764703691 118.37362180149648 L 26.871657754294574 117.03026835864875 L 25.534759358502924 114.72737674228847 L 24.7326203212142 113.0641772414092 L 23.93048128299415 111.20907010603696 L 23.128342245705426 109.41793218208477 L 22.3262032084167 107.62679425824899 L 21.791443849913776 105.83565633452963 L 21.524064172059298 104.10848762223031 L 21.256684492342174 102.44528812146746 L 20.72192513383925 100.71811940916814 L 19.919786096550524 98.92698148533236 L 19.1176470592618 97.07187434984371 L 18.31550802104175 95.34470563742798 L 17.513368983753026 93.6175369254779 L 16.978609626181424 91.89036821306217 L 16.7112299464643 90.03526107757352 L 16.4438502676785 88.18015394220129 L 16.176470587961376 86.3890160182491 L 15.909090909175575 84.66184730583336 L 16.176470587961376 82.42292490112595 L 16.4438502676785 79.92812565003987 L 16.4438502676785 77.17744955269154 L 16.7112299464643 75.45028084039222 L 16.978609626181424 73.01945080107544 L 17.245989304035902 70.65258997306228 L 18.04812834225595 68.2857291449327 L 18.850267379544675 65.982837528456 L 20.187165775336325 64.31963802792598 L 20.45454545505345 62.59246931551024 L 20.98930481262505 60.54545454541221 L 21.256684492342174 58.43447056377772 L 21.791443849913776 56.13157894741744 L 22.058823528699577 53.508841273142025 L 22.058823528699577 51.71770334930625 L 22.3262032084167 49.862596213817596 L 22.3262032084167 47.815581443719566 L 22.3262032084167 45.960474308463745 L 22.593582888133824 44.23330559604801 L 23.128342245705426 42.18629082594998 L 23.39572192542255 39.947368420893326 L 23.93048128299415 37.51653838157654 L 24.197860962711275 35.661431246087886 L 25 34.062200956977904 L 26.60427807457745 32.78281672578305 L 28.743315507657826 32.590909090824425 L 30.6149732619524 32.71884751401376 L 32.754010695032775 32.71884751401376 L 34.89304812904447 32.974724360276014 L 37.29946523997933 33.42250884126406 L 39.97326203249395 33.550447264453396 L 42.112299465574324 33.3585396297276 L 43.983957218937576 33.29457041819114 L 45.85561497323215 33.03869357181247 L 47.994652406312525 32.974724360276014 L 50.401069519110024 33.23060120642185 L 53.074866310693324 33.87029332225211 L 55.2139037437737 34.19013938016724 L 57.08556149713695 34.062200956977904 L 58.957219251431525 33.934262533672154 L 61.631016043014824 34.765862284228206 L 64.037433154881 35.661431246087886 L 66.1764705888927 36.42906178475823 L 68.58288769982755 36.812877054326236 L 70.98930481355637 36.940815477399155 L 73.66310160420835 37.13272311212495 L 76.87165775429457 37.260661535314284 L 79.27807486616075 37.260661535314284 L 81.95187165774405 37.19669232366141 L 83.8235294111073 37.13272311212495 L 85.69518716540188 36.940815477399155 L 88.36898395698518 36.6849386311369" stroke-linejoin="bevel" stroke-miterlimit="10" stroke-width="3"/></g></g></g><g><g fill="#444444"><path fill="" stroke="none" d=""/><g transform="translate(10,22)"><path fill="none" stroke="none"/><text fill="" stroke="none" font-family="helvetica" font-size="10pt" font-style="normal" font-weight="bold" text-decoration="normal" x="0" y="0" text-anchor="start" dominant-baseline="text-after-edge">0.99508</text></g></g></g><g/></g></g></svg>