<svg version="1.1" xmlns="http://www.w3.org/2000/svg" xmlns:xlink="http://www.w3.org/1999/xlink" width="150" height="160" style="width: 150px; height: 160px;"><defs><clipPath id="uGizeMsXTkgE"><path fill="none" stroke="none" d=" M 10 27 L 140 27 L 140 150 L 10 150 L 10 27 Z"/></clipPath></defs><g><g transform="scale(1,1) translate(0.5,0.5)"><rect fill="#FFFFFF" stroke="none" x="0" y="0" width="150" height="160"/><rect fill="#ffffff" stroke="none" x="0" y="0" width="150" height="160"/><rect fill="#FFFFFF" stroke="none" x="10" y="27" width="130" height="123"/><rect fill="#ffffff" stroke="none" x="10" y="27" width="130" height="123"/><g><rect fill="none" stroke="#FFFFFF" x="10" y="27" width="130" height="123" stroke-linejoin="bevel" stroke-miterlimit="10"/></g><g clip-path="url(#uGizeMsXTkgE)"><g><g/><g/><g><path fill="none" stroke="none"/><path fill="none" stroke="#2E4E60" paint-order="fill stroke markers" d=" M 133.19897084124386 62.914483821368776 L 133.19897084124386 63.5869824544061 L 132.75300171598792 63.7703911724966 L 132.75300171598792 64.19834484811872 L 132.75300171598792 64.74857100250665 L 132.75300171598792 65.5433421144262 L 132.75300171598792 66.33811322634574 L 132.75300171598792 67.13288433814887 L 132.75300171598792 68.84469904063735 L 133.19897084124386 70.61764998256695 L 134.09090909082443 72.39060092438012 L 134.09090909082443 74.28582434507553 L 132.30703259073198 75.93650280823931 L 130.0771869653836 77.46490879263729 L 127.84734133724123 78.99331477691885 L 126.06346483808011 80.52172076154966 L 124.27958833705634 82.11126298515592 L 122.94168096128851 83.6396689695539 L 120.71183533594012 85.47375615080819 L 118.92795883398503 87.24670709273778 L 115.80617495812476 89.20306675275788 L 113.1303602065891 90.48692777974065 L 110.0085763297975 91.5262438490754 L 107.33276157826185 92.50442367908545 L 106.44082332868129 94.27737462101504 L 106.88679245300591 96.47827923845034 L 106.88679245300591 98.06782146228943 L 105.10291595198214 100.39099855849054 L 103.76500857621431 101.85826830356382 L 101.98113207612187 103.44781052740291 L 100.1972555750981 104.79280779359397 L 97.96740994881839 106.99371241114568 L 96.1835334468633 108.52211839554366 L 95.29159519821405 110.17279685859103 L 93.06174957100302 112.74051891244017 L 91.72384219523519 114.39119737560395 L 89.93996569514275 116.16414831730071 L 87.71012006886303 117.8148267804645 L 85.48027444258332 119.4655052437447 L 83.25042881630361 121.17731994611677 L 81.46655231527984 122.76686216995586 L 79.23670668993145 124.60094935132656 L 77.45283018890768 126.37390029313974 L 75.66895368788391 128.0245787561871 L 74.33104631211609 129.5529847405851 L 72.99313893727958 131.08139072498307 L 71.65523156058043 132.60979670938104 L 69.87135506048799 134.07706645445433 L 67.64150943327695 136.15569859324023 L 64.96569468267262 138.05092201381922 L 63.18181818164885 139.3959192802431 L 60.506003430113196 141.3522789402632 L 57.3842195533216 143.1252298821928 L 54.262435677461326 143.98113723332062 L 51.14065180066973 144.40909090894274 L 47.57289879862219 144.28681843029335 L 44.005145797505975 143.85886475455482 L 39.54545454494655 142.94182116398588 L 35.97770154289901 142.20818629162386 L 32.409948541782796 141.3522789402632 L 29.2881646649912 140.55750782834366 L 25.72041166294366 139.6404642375419 L 22.598627786152065 138.54001192888245 L 19.92281303461641 137.5006958595477 L 17.69296740926802 136.33910731144715 L 16.355060033500195 135.1163825239055 L 15.909090909175575 133.2822953426512 L 16.801029157824814 131.2036632038653 L 18.584905659779906 128.88048610743135 L 20.368782160803676 127.2909438838251 L 21.706689536571503 125.88481037819292 L 23.936535162851214 123.9895869573811 L 26.612349913455546 121.97209105803631 L 27.50428816396743 120.38254883431364 L 28.842195539735258 118.67073413170874 L 30.626072040759027 116.95891942922026 L 32.409948541782796 115.3082409662893 L 33.7478559166193 113.71869874245021 L 35.08576329331845 112.19029275793582 L 36.8696397934109 110.60075053421315 L 38.65351629443467 109.07234454981517 L 40.437392795458436 107.11598488979507 L 43.11320754699409 104.12030916044023 L 44.89708404801786 102.46963069716003 L 46.680960548110306 100.94122471287847 L 48.46483704820275 99.35168248915579 L 50.248713550157845 97.8232765046414 L 52.032590051181614 96.60055171733256 L 55.15437392797321 95.13328197225928 L 57.3842195533216 93.48260350897908 L 60.060034304857254 91.89306128525641 L 62.289879931136966 90.48692777974065 L 64.07375643216074 88.65284059836995 L 66.30360205844045 86.45193598093465 L 68.08747855946422 84.80125751777086 L 69.42538593430072 83.02830657595769 L 71.20926243532449 81.37762811267748 L 72.54716981109232 79.84922212827951 L 74.33104631211609 78.62649734073784 L 76.11492281313986 77.40377255319618 L 72.99313893727958 76.11991152644623 L 69.42538593430072 75.63082161126658 L 65.8576329331845 74.89718673890457 L 62.289879931136966 73.98014314821921 L 58.72212693002075 73.36878075450659 L 54.70840480271727 72.87969083944336 L 50.69468267541379 72.69628212146927 L 46.680960548110306 72.63514588202816 L 42.22126929555088 72.57400964258704 L 39.099485418759286 72.26832844584715 L 37.76157804392278 70.49537750380114 L 37.31560891866684 68.47788160433993 L 37.31560891866684 66.82720314140897 L 37.31560891866684 64.38175356632564 L 37.76157804392278 62.79221134248655 L 38.20754717011005 60.71357920370065 L 38.20754717011005 58.81835578312166 L 38.65351629443467 56.73972364421934 L 39.099485418759286 54.41654654813465 L 39.991423670202494 52.21564193046652 L 40.88336192071438 50.44269098865334 L 41.77530017122626 48.42519508919213 L 42.66723842173815 46.34656295040622 L 44.005145797505975 44.329067050945014 L 44.89708404801786 42.311571151716635 L 45.34305317234248 39.743849097867496 L 47.12692967336625 38.21544311346952 L 48.91080617439002 36.992718325927854 L 52.9245283016935 35.8311297778273 L 56.492281302809715 35.21976738399826 L 60.060034304857254 34.608404990285635 L 64.07375643216074 34.1193150752224 L 68.53344768378884 33.6913613997167 L 72.54716981109232 33.07999900588766 L 76.11492281313986 32.774317809031345 L 80.12864493951201 32.590909090824425 L 83.69639794155955 32.83545404835604 L 86.81818181835115 34.241587554104626 L 88.15608919318765 36.197947214124724 L 89.04802744463086 38.39885183167644 L 89.4939965698868 39.80498533730861 L 89.4939965698868 41.944753715302795 L 89.04802744463086 44.08452209352981 L 89.04802744463086 46.34656295040622 L 89.04802744463086 48.66974004684016 L 89.04802744463086 50.931780903600156 L 88.60205831937492 53.132685521035455 L 88.60205831937492 55.27245389926247 L 88.60205831937492 57.28994979872368 L 88.15608919318765 59.30744569806848 L 87.71012006886303 61.44721407617908 L 89.04802744463086 63.342437496758066 L 90.83190394565463 64.80970724194776 L 94.39965694677085 66.21584074757993" stroke-linejoin="bevel" stroke-miterlimit="10" stroke-width="3"/></g></g></g><g><g fill="#444444"><path fill="" stroke="none" d=""/><g transform="translate(10,22)"><path fill="none" stroke="none"/><text fill="" stroke="none" font-family="helvetica" font-size="10pt" font-style="normal" font-weight="bold" text-decoration="normal" x="0" y="0" text-anchor="start" dominant-baseline="text-after-edge">1.00808</text></g></g></g><g/></g></g></svg>