<svg version="1.1" xmlns="http://www.w3.org/2000/svg" xmlns:xlink="http://www.w3.org/1999/xlink" width="150" height="160" style="width: 150px; height: 160px;"><defs><clipPath id="edZTaaJdLOaS"><path fill="none" stroke="none" d=" M 10 27 L 140 27 L 140 150 L 10 150 L 10 27 Z"/></clipPath></defs><g><g transform="scale(1,1) translate(0.5,0.5)"><rect fill="#FFFFFF" stroke="none" x="0" y="0" width="150" height="160"/><rect fill="#ffffff" stroke="none" x="0" y="0" width="150" height="160"/><rect fill="#FFFFFF" stroke="none" x="10" y="27" width="130" height="123"/><rect fill="#ffffff" stroke="none" x="10" y="27" width="130" height="123"/><g><rect fill="none" stroke="#FFFFFF" x="10" y="27" width="130" height="123" stroke-linejoin="bevel" stroke-miterlimit="10"/></g><g clip-path="url(#edZTaaJdLOaS)"><g><g/><g/><g><path fill="none" stroke="none"/><path fill="none" stroke="#2E4E60" paint-order="fill stroke markers" d=" M 15.909090909641236 61.07961783441715 L 16.04812834272161 60.257828159141354 L 16.04812834272161 60.09347022417933 L 16.04812834272161 59.76475435402244 L 16.04812834272161 59.436038483749144 L 16.04812834272161 59.16210859210696 L 16.04812834272161 58.99775065702852 L 16.04812834272161 58.99775065702852 L 16.32620320888236 59.05253663531039 L 16.465240642428398 59.21689457050525 L 16.743315508123487 59.3264665271854 L 17.160427807830274 59.38125250558369 L 18.411764706484973 58.50467685190961 L 19.245989305432886 57.24459934979677 L 19.941176471300423 55.76537793409079 L 20.775401069782674 54.39572847541422 L 21.609625668730587 52.91650705994107 L 22.304812834598124 51.437285644351505 L 22.860962567385286 50.01285020716023 L 23.556149733252823 48.643200748367235 L 24.112299465574324 47.328337267856114 L 24.80748663144186 45.90390183078125 L 25.641711229924113 43.822034653276205 L 26.6149732619524 42.39759921620134 L 27.58823529444635 41.08273573569022 L 28.561497326474637 39.822658233577386 L 29.39572192542255 38.50779475294985 L 30.22994652437046 37.302503229351714 L 30.786096257157624 36.04242572723888 L 31.20320855639875 34.45363235496916 L 31.75935828918591 33.02919691777788 L 32.871657754294574 32.59090909094084 L 33.84491978632286 33.46748474461492 L 34.679144385270774 34.946706160204485 L 35.37433155113831 36.42592757567763 L 36.3475935831666 37.795577034470625 L 37.32085561519489 38.891296601621434 L 38.1550802141428 40.0418021469377 L 38.98930481309071 41.356665627332404 L 39.823529412038624 42.507171172765084 L 40.51871657790616 43.71246269659605 L 41.49197860993445 44.9177542203106 L 42.74331550812349 45.90390183078125 L 43.99465240677819 46.670905527775176 L 45.245989304967225 47.437909224652685 L 46.35828877007589 48.31448487821035 L 47.331550802569836 49.41020444536116 L 48.4438502676785 50.50592401227914 L 49.69518716586754 51.60164357942995 L 50.52941176481545 52.36864727642387 L 51.78074866347015 53.519152821740136 L 53.03208556212485 54.56008641037624 L 54.42245989339426 55.32709010737017 L 55.534759358968586 55.87494989100378 L 56.50802139099687 56.36802369612269 L 57.48128342302516 57.08024141471833 L 58.31550802150741 57.84724511159584 L 59.2887700535357 58.72382076526992 L 60.26203208602965 59.600396418944 L 61.09625668497756 60.312614137656055 L 62.3475935831666 61.24397576949559 L 63.59893048135564 62.17533740145154 L 64.71122994692996 63.161485011922196 L 65.962566845119 64.14763262227643 L 67.2139037437737 65.13378023263067 L 68.46524064196274 66.17471382126678 L 69.85561497369781 67.2156474100193 L 70.68983957218006 67.92786512861494 L 71.80213903775439 68.91401273896918 L 72.91443850286305 69.90016034932341 L 73.88770053489134 70.7767360029975 L 75 71.70809763506986 L 75.97326203249395 72.69424524519127 L 77.08556149760261 73.6803928555455 L 78.0588235296309 74.55696850921959 L 78.89304812857881 75.5979020978557 L 79.8663101606071 76.63883568672463 L 80.70053476002067 77.46062536211684 L 81.6737967915833 78.50155895063654 L 82.78609625669196 79.48770656099077 L 83.89839572226629 80.19992427958641 L 85.14973262092099 80.69299808470532 L 86.40106951864436 81.13128591165878 L 87.51336898421869 81.78871765185613 L 88.76470588240772 82.44614939205348 L 90.01604278106242 83.04879515396897 L 91.40641711233184 83.54186895908788 L 92.79679144406691 84.08972874260508 L 94.04812834272161 84.63758852623869 L 95.29946524044499 85.1306623313576 L 96.68983957218006 85.62373613647651 L 97.94117647083476 86.11680994159542 L 99.33155080210418 86.55509776854888 L 100.72192513383925 87.04817157366779 L 101.97326203249395 87.65081733558327 L 103.36363636376336 88.36303505429532 L 104.47593582933769 88.9108948376961 L 105.8663101606071 89.4587546212133 L 107.25668449187651 90.00661440484691 L 108.50802139053121 90.5544741882477 L 109.89839572226629 91.15711995016318 L 111.2887700535357 91.81455169047695 L 112.54010695172474 92.52676940895617 L 113.79144385037944 93.23898712766822 L 115.04278074856848 93.786846911069 L 116.29411764722317 94.22513473790605 L 117.54545454541221 94.71820854302496 L 118.65775401052088 95.32085430494044 L 119.7700534760952 96.08785800193436 L 121.02139037428424 96.69050376384985 L 122.1336898393929 97.0740056122886 L 123.24598930496722 97.3479355040472 L 124.63636363623664 97.67665137420408 L 126.02673796797171 97.95058126596268 L 127.41711229924113 98.38886909268331 L 128.8074866309762 98.88194289780222 L 130.05882352916524 99.04630083299708 L 131.5882352939807 99.10108681127895 L 133.1176470592618 99.64894659479614 L 133.6737967915833 100.6350942052668 L 134.0909090912901 102.60738942585886 L 134.0909090912901 104.08661084144842 L 133.81283422466367 106.22326399723534 L 133.53475935803726 107.64769943442661 L 133.2566844918765 109.89392454677727 L 133.1176470592618 111.37314596236683 L 132.8395721926354 112.8523673779564 L 132.56149732600898 114.33158879342955 L 132.28342245984823 115.8108102089027 L 132.00534759368747 117.39960358117241 L 131.8663101606071 118.93361097516026 L 131.5882352939807 120.4676183690317 L 131.4491978609003 121.89205380610656 L 131.31016042781994 123.9191350050969 L 130.75401069503278 125.83664424752351 L 130.05882352916524 127.31586566288024 L 128.66844919789582 128.082869360107 L 127.69518716586754 128.35679925174918 L 126.02673796797171 128.63072914350778 L 124.91443850286305 128.90465903526638 L 123.80213903728873 129.34294686210342 L 122.68983957218006 129.83602066722233 L 121.43850267399102 130.27430849405937 L 120.3262032084167 130.7125963208964 L 119.21390374330804 131.20567012613174 L 118.10160427819937 131.64395795285236 L 116.98930481309071 132.08224577980582 L 115.87700534751639 132.46574762824457 L 114.62566844886169 133.01360741176177 L 113.51336898421869 133.50668121688068 L 112.26203208556399 133.9449690436013 L 111.01069518737495 134.32847089204006 L 109.89839572226629 134.60240078391507 L 108.64705882314593 134.87633067567367 L 107.39572192542255 135.31461850262713 L 106.28342245984823 135.69812035106588 L 105.03208556165919 136.02683622110635 L 103.78074866300449 136.30076611286495 L 102.66844919789582 136.57469600450713 L 101.69518716586754 136.95819785317872 L 100.16577540105209 137.45127165841404 L 99.1925133690238 137.8347735068528 L 97.80213903728873 138.54699122533202 L 96.82887700526044 139.04006503056735 L 95.71657754015177 139.4235668790061 L 94.3262032084167 139.80706872744486 L 92.93582887714729 140.13578459760174 L 91.82352941203862 140.4645004676422 L 90.29411764722317 140.84800231619738 L 89.32085561519489 141.34107612119988 L 88.3475935831666 141.8889359048335 L 87.0962566845119 142.929869493586 L 85.70588235324249 143.64208721229807 L 84.7326203212142 144.0255890606204 L 83.75935828872025 144.24473297409713 L 82.22994652437046 144.40909090905916 L 80.56149732647464 144.299518952379 L 79.44919786136597 144.0803750391351 L 78.33689839579165 143.86123112554196 L 76.80748663144186 143.42294329870492 L 75.83422459894791 143.03944145026617 L 74.30481283459812 142.60115362342913 L 73.33155080256984 142.32722373178694 L 72.35828877007589 142.1628657965921 L 70.68983957218006 141.83414992666803 L 69.71657754015177 141.50543405651115 L 68.60427807504311 141.17671818623785 L 67.49197860993445 140.73843035951722 L 66.51871657790616 140.1905705758836 L 65.54545454587787 139.4783528574044 L 64.85026738001034 138.43741926865187 L 64.57219251338392 136.30076611286495 L 64.71122994692996 134.76675871899351 L 64.98930481309071 133.23275132512208 L 65.26737967925146 131.69874393113423 L 65.4064171127975 130.1647365372628 L 64.98930481309071 128.19244131655432 L 64.15508021367714 126.76800587947946 L 63.04278074903414 125.45314239908475 L 62.3475935831666 124.46699478873052 L 61.37433155113831 123.59041913505644 L 59.9839572198689 122.3303416329436 L 59.149732620455325 121.39898000087123 L 58.17647058842704 120.412832390517 L 57.342245989479125 119.3171128234826 L 56.64705882361159 118.27617923473008 L 55.95187165820971 117.07088771101553 L 55.39572192542255 116.13952607894316 L 54.42245989339426 114.82466259854846 L 53.449197861365974 113.56458509643562 L 52.75401069549844 112.63322346436325 L 51.641711230389774 111.20878802728839 L 50.52941176481545 109.8391385684954 L 49.41711229970679 108.41470313130412 L 48.304812834598124 106.99026769399643 L 47.331550802569836 105.67540421371814 L 46.21925133699551 104.36054073320702 L 45.10695187235251 102.99089127441403 L 43.99465240677819 101.6760277939029 L 42.882352941669524 100.30637833510991 L 41.909090909175575 98.88194289780222 L 40.93582887714729 97.62186539592221 L 39.962566845119 96.25221593689639 L 38.85026738001034 94.93735245650169 L 37.87700534798205 93.786846911069 L 36.90374331595376 92.41719745239243 L 36.208556150551885 91.48583582043648 L 35.37433155113831 90.00661440484691 L 34.401069519110024 88.69175092421938 L 33.427807487081736 87.37688744382467 L 32.45454545505345 85.89766602835152 L 31.620320856105536 84.47323059127666 L 30.786096257157624 82.88443721889053 L 29.812834225129336 81.40521580341738 L 28.700534759555012 79.87120840942953 L 27.8663101606071 78.8850607991917 L 26.6149732619524 77.46062536211684 L 25.78074866347015 76.41969177313149 L 25.085561497602612 75.3787581846118 L 24.390374332200736 74.33782459597569 L 23.556149733252823 73.02296111534815 L 22.72192513430491 71.87245556991547 L 21.609625668730587 70.55759208940435 L 20.775401069782674 69.73580241424497 L 19.524064171593636 68.3113669770537 L 18.689839572180063 67.38000534509774 L 17.716577540151775 66.44864371290896 L 16.882352941669524 65.57206805946771" stroke-linejoin="bevel" stroke-miterlimit="10" stroke-width="3"/></g></g></g><g><g fill="#444444"><path fill="" stroke="none" d=""/><g transform="translate(10,22)"><path fill="none" stroke="none"/><text fill="" stroke="none" font-family="helvetica" font-size="10pt" font-style="normal" font-weight="bold" text-decoration="normal" x="0" y="0" text-anchor="start" dominant-baseline="text-after-edge">1.66527</text></g></g></g><g/></g></g></svg>