<svg version="1.1" xmlns="http://www.w3.org/2000/svg" xmlns:xlink="http://www.w3.org/1999/xlink" width="150" height="160" style="width: 150px; height: 160px;"><defs><clipPath id="ssgQdxzQzwFz"><path fill="none" stroke="none" d=" M 10 27 L 140 27 L 140 150 L 10 150 L 10 27 Z"/></clipPath></defs><g><g transform="scale(1,1) translate(0.5,0.5)"><rect fill="#FFFFFF" stroke="none" x="0" y="0" width="150" height="160"/><rect fill="#ffffff" stroke="none" x="0" y="0" width="150" height="160"/><rect fill="#FFFFFF" stroke="none" x="10" y="27" width="130" height="123"/><rect fill="#ffffff" stroke="none" x="10" y="27" width="130" height="123"/><g><rect fill="none" stroke="#FFFFFF" x="10" y="27" width="130" height="123" stroke-linejoin="bevel" stroke-miterlimit="10"/></g><g clip-path="url(#ssgQdxzQzwFz)"><g><g/><g/><g><path fill="none" stroke="none"/><path fill="none" stroke="#2E4E60" paint-order="fill stroke markers" d=" M 16.622749231755733 55.17865362484008 L 16.337285902816802 55.00172612199094 L 16.337285902816802 54.942750287707895 L 16.194554238114506 54.88377445330843 L 15.909090909175575 54.70684695057571 L 15.909090909175575 54.41196777904406 L 15.909090909175575 54.0581127734622 L 15.909090909175575 53.82220943598077 L 16.194554238114506 53.52733026468195 L 16.4800175675191 53.35040276183281 L 16.622749231755733 53.11449942458421 L 17.764602547045797 52.05293440737296 L 18.478260869625956 51.1093210587278 L 19.762845850083977 49.39902186405379 L 20.761967501137406 48.042577675543725 L 21.6183574879542 46.92203682393301 L 22.474747474770993 45.86047180672176 L 23.61660079099238 44.79890678927768 L 24.615722442045808 43.501438434934244 L 25.757575757801533 41.909090909175575 L 26.47123407991603 40.78855005756486 L 27.327624066732824 39.78596087440383 L 28.18401405401528 38.665420023025945 L 29.04040404036641 37.07307249715086 L 29.896794027183205 35.48072497115936 L 30.610452349763364 33.82940161100123 L 31.466842336114496 32.70886075962335 L 32.32323232339695 32.59090909094084 L 33.32235397445038 33.88837744516786 L 34.17874396126717 34.655063291080296 L 35.17786561278626 35.65765247424133 L 36.31971892900765 36.77819332561921 L 37.46157224429771 37.89873417711351 L 38.746157224755734 39.01927502860781 L 39.88801054051146 40.139815880334936 L 41.029863856267184 41.20138089754619 L 42.17171717155725 41.96806674322579 L 43.45630215201527 42.38089758355636 L 45.02635046141222 42.498849251889624 L 46.02547211246565 42.498849251889624 L 47.02459376398474 42.61680092057213 L 48.166447079740465 43.73734177206643 L 49.02283706655726 44.85788262379356 L 50.16469038231298 46.450230149552226 L 50.87834870442748 47.51179516699631 L 52.02020202064887 49.04516685847193 L 53.019323671702296 50.16570770996623 L 54.018445322755724 51.227272727293894 L 55.017566974274814 52.524741081753746 L 55.87395696062595 53.82220943598077 L 56.87307861214504 55.119677790557034 L 58.01493192790076 56.35817031073384 L 59.29951690835878 57.47871116234455 L 60.29863855941221 58.77617951668799 L 61.440491875167936 60.19159953959752 L 62.439613526221365 61.43009205989074 L 63.438735177740455 62.43268124270253 L 64.58058849349618 63.6121979287127 L 65.57971014501527 64.90966628317256 L 66.43610013183206 66.0891829689499 L 67.43522178335115 67.62255466054194 L 68.14888010546565 68.92002301488537 L 69.00527009228244 69.98158803209662 L 70.14712340803817 70.98417721525766 L 71.14624505955726 71.92779056390282 L 72.28809837531298 72.98935558123048 L 73.42995169106871 74.16887226700783 L 74.71453667106107 75.17146144993603 L 75.99912165151909 76.29200230154675 L 76.99824330257252 77.29459148435853 L 77.99736495409161 78.17922899883706 L 78.99648660514504 78.94591484463308 L 79.99560825666413 79.77157652471215 L 81.13746157241985 80.53826237062458 L 82.13658322347328 81.36392405070364 L 83.56389986816794 82.01265822781716 L 84.84848484862596 82.83831990789622 L 86.13306982861832 83.78193325654138 L 87.41765480907634 84.72554660518654 L 88.7022397890687 85.37428078253288 L 89.98682476952672 85.84608745691366 L 91.27140974951908 86.25891829689499 L 92.5559947299771 86.96662830840796 L 93.69784804573283 87.55638665147126 L 94.83970136148855 88.14614499430172 L 96.2670180061832 88.7359033372486 L 97.40887132193893 89.20771001151297 L 98.55072463769466 89.7384925201768 L 99.69257795345038 90.32825086300727 L 100.8344312692061 90.85903337178752 L 102.11901624966413 91.33084004593547 L 103.54633289389312 91.92059838899877 L 104.68818621011451 92.215477560414 L 106.1155028543435 92.68728423479479 L 107.25735617056489 93.04113924049307 L 108.25647782161832 93.51294591487385 L 109.25559947313741 94.10270425782073 L 110.54018445312977 94.75143843516707 L 111.82476943358779 95.45914844656363 L 113.68028107145801 96.69764096662402 L 114.82213438721374 97.22842347517144 L 115.96398770343512 97.58227848110255 L 116.96310935448855 97.99510932108387 L 118.39042599918321 98.58486766403075 L 119.67501097917557 99.05667433841154 L 120.95959595963359 99.23360184126068 L 122.24418094009161 99.4105293439934 L 123.1005709269084 99.4105293439934 L 124.6706192358397 100.29516685847193 L 126.24066754523665 100.70799769856967 L 127.6679841899313 101.29775604163297 L 129.09530083462596 101.71058688138146 L 130.52261747932062 101.94649021874648 L 131.66447079507634 102.06444188731257 L 133.2345191044733 102.53624856157694 L 134.09090909082443 104.01064441888593 L 134.09090909082443 106.0747986191418 L 133.9481774265878 107.54919447656721 L 133.8054457618855 109.84925201395527 L 133.091787439771 111.91340621409472 L 132.66359244612977 113.26985040283762 L 132.2353974529542 115.39298043737654 L 131.9499341235496 116.74942462611943 L 131.2362758014351 118.87255466054194 L 130.6653491440229 120.87773302651476 L 130.0944224856794 122.76495972392149 L 129.66622749250382 124.12140391266439 L 129.3807641635649 126.18555811268743 L 129.2380324988626 128.24971231317613 L 128.95256916992366 129.9600115076173 L 128.23891084780917 131.13952819339465 L 127.09705753205344 131.72928653634153 L 125.81247255159542 132.02416570764035 L 124.6706192358397 132.26006904500537 L 123.52876592008397 132.4369965477381 L 122.24418094009161 132.49597238225397 L 121.10232762433589 132.73187571926974 L 119.9604743081145 132.96777905663475 L 118.5331576638855 133.20368239365052 L 117.39130434766412 133.61651323363185 L 116.10671936767176 134.08831990801264 L 114.82213438721374 134.50115074811038 L 113.68028107145801 134.85500575369224 L 112.39569609146565 135.09090909094084 L 111.11111111100763 135.2678365940228 L 109.82652613101527 135.56271576532163 L 108.68467281525955 135.85759493685327 L 107.40008783480152 136.1524741082685 L 106.2582345190458 136.50632911396679 L 104.97364953905344 136.7422324513318 L 103.68906455859542 136.97813578834757 L 102.40447957860306 137.33199079416227 L 101.40535792708397 137.86277330270968 L 100.40623627603054 138.5115074798232 L 99.12165129557252 139.33716916001868 L 98.12252964451909 139.80897583439946 L 96.9806763282977 140.10385500569828 L 95.55335968406871 140.3397583430633 L 94.41150636784732 140.75258918304462 L 93.41238471632823 140.92951668601017 L 91.98506807209924 141.1064441888593 L 90.70048309164122 141.63722669740673 L 89.55862977635115 142.5808400461683 L 88.41677646012977 143.40650172624737 L 87.27492314437404 143.99626006919425 L 85.99033816438168 144.40909090905916 L 84.56302151968703 144.40909090905916 L 83.56389986816794 144.23216340632644 L 81.99385155923665 143.76035673182923 L 80.70926657877862 143.34752589208074 L 79.28194993408397 142.6987917148508 L 77.71190162515268 141.93210586893838 L 76.71277997363359 141.51927502884064 L 75.57092665787786 141.1064441888593 L 74.57180500682443 140.693613348878 L 73.57268335530534 140.28078250878025 L 72.28809837531298 139.63204833155032 L 71.00351339485496 138.92433832003735 L 70.00439174380153 138.27560414280742 L 69.00527009228244 137.33199079416227 L 68.14888010546565 136.2704257768346 L 67.72068511229008 134.9139815880917 L 67.57795344758779 133.4395857307827 L 67.72068511229008 131.25747986196075 L 67.86341677652672 129.8420598389348 L 67.72068511229008 127.89585730747785 L 67.43522178335115 126.4804372843355 L 66.72156346123666 125.47784810129087 L 65.57971014501527 124.23935558123048 L 64.72332015866414 122.52905638667289 L 64.00966183561832 121.11363636364695 L 63.01054018456489 119.9341196778696 L 61.868686868809164 118.69562715780921 L 60.869565217290074 117.39815880334936 L 59.72771190153435 116.2186421174556 L 58.72859025048092 114.9801495972788 L 57.586736934725195 113.80063291150145 L 56.58761528367177 112.68009205989074 L 55.44576196745038 111.38262370543089 L 54.44664031639695 110.08515535108745 L 53.16205533593893 108.90563866519369 L 52.30566534912214 108.07997698511463 L 51.16381203336641 106.84148446493782 L 50.02195871807635 105.66196777916048 L 49.02283706655726 104.48245109326672 L 48.02371541503817 103.18498273892328 L 47.02459376398474 101.94649021874648 L 45.882740448229015 100.7669735327363 L 44.598155467770994 99.646432681242 L 43.313570487778634 98.58486766403075 L 42.17171717155725 97.34637514385395 L 41.315327185206115 95.98993095511105 L 40.316205533687025 94.57451093220152 L 39.1743522179313 93.39499424630776 L 38.17523056641221 92.15650172613095 L 36.747913921717554 90.62313003453892 L 35.748792270664126 89.50258918316104 L 34.7496706196107 88.38204833143391 L 33.60781730338931 87.43843498278875 L 32.465963987633586 86.31789413106162 L 31.466842336114496 85.0204257768346 L 30.610452349763364 83.60500575380865 L 29.75406236294657 82.30753739946522 L 28.897672376129776 81.18699654773809 L 27.898550724610686 80.12543153064325 L 27.042160737793893 79.00489067891613 L 25.900307422038168 77.47151898732409 L 25.18664909992367 76.23302646714728 L 24.18752744840458 74.99453394697048 L 23.331137461587787 73.638089758344 L 22.61747913947329 72.5175489068497 L 21.6183574879542 71.57393555808812 L 20.761967501137406 69.98158803209662 L 20.048309179022908 68.38924050633796 L 19.04918752796948 66.79689298034646 L 18.05006587645039 65.26352128887083 L 16.908212560694665 64.26093210582621" stroke-linejoin="bevel" stroke-miterlimit="10" stroke-width="3"/></g></g></g><g><g fill="#444444"><path fill="" stroke="none" d=""/><g transform="translate(10,22)"><path fill="none" stroke="none"/><text fill="" stroke="none" font-family="helvetica" font-size="10pt" font-style="normal" font-weight="bold" text-decoration="normal" x="0" y="0" text-anchor="start" dominant-baseline="text-after-edge">1.57759</text></g></g></g><g/></g></g></svg>