<svg version="1.1" xmlns="http://www.w3.org/2000/svg" xmlns:xlink="http://www.w3.org/1999/xlink" width="150" height="160" style="width: 150px; height: 160px;"><defs><clipPath id="JSPVNanTTmaR"><path fill="none" stroke="none" d=" M 10 27 L 140 27 L 140 150 L 10 150 L 10 27 Z"/></clipPath></defs><g><g transform="scale(1,1) translate(0.5,0.5)"><rect fill="#FFFFFF" stroke="none" x="0" y="0" width="150" height="160"/><rect fill="#ffffff" stroke="none" x="0" y="0" width="150" height="160"/><rect fill="#FFFFFF" stroke="none" x="10" y="27" width="130" height="123"/><rect fill="#ffffff" stroke="none" x="10" y="27" width="130" height="123"/><g><rect fill="none" stroke="#FFFFFF" x="10" y="27" width="130" height="123" stroke-linejoin="bevel" stroke-miterlimit="10"/></g><g clip-path="url(#JSPVNanTTmaR)"><g><g/><g/><g><path fill="none" stroke="none"/><path fill="none" stroke="#440154" paint-order="fill stroke markers" d=" M NaN NaN" stroke-linejoin="bevel" stroke-miterlimit="10" stroke-width="3"/><path fill="none" stroke="none"/><path fill="none" stroke="#440154" paint-order="fill stroke markers" d=" M NaN NaN" stroke-linejoin="bevel" stroke-miterlimit="10" stroke-width="3"/><path fill="none" stroke="none"/><path fill="none" stroke="#440154" paint-order="fill stroke markers" d=" M NaN NaN" stroke-linejoin="bevel" stroke-miterlimit="10" stroke-width="3"/><path fill="none" stroke="none"/><path fill="none" stroke="#440154" paint-order="fill stroke markers" d=" M NaN NaN" stroke-linejoin="bevel" stroke-miterlimit="10" stroke-width="3"/><path fill="none" stroke="none"/><path fill="none" stroke="#440154" paint-order="fill stroke markers" d=" M NaN NaN" stroke-linejoin="bevel" stroke-miterlimit="10" stroke-width="3"/><path fill="none" stroke="none"/><path fill="none" stroke="#440154" paint-order="fill stroke markers" d=" M NaN NaN" stroke-linejoin="bevel" stroke-miterlimit="10" stroke-width="3"/><path fill="none" stroke="none"/><path fill="none" stroke="#440154" paint-order="fill stroke markers" d=" M NaN NaN" stroke-linejoin="bevel" stroke-miterlimit="10" stroke-width="3"/><path fill="none" stroke="none"/><path fill="none" stroke="#440154" paint-order="fill stroke markers" d=" M NaN NaN" stroke-linejoin="bevel" stroke-miterlimit="10" stroke-width="3"/><path fill="none" stroke="none"/><path fill="none" stroke="#440154" paint-order="fill stroke markers" d=" M NaN NaN" stroke-linejoin="bevel" stroke-miterlimit="10" stroke-width="3"/><path fill="none" stroke="none"/><path fill="none" stroke="#440154" paint-order="fill stroke markers" d=" M NaN NaN" stroke-linejoin="bevel" stroke-miterlimit="10" stroke-width="3"/><path fill="none" stroke="none"/><path fill="none" stroke="#440154" paint-order="fill stroke markers" d=" M NaN NaN" stroke-linejoin="bevel" stroke-miterlimit="10" stroke-width="3"/><path fill="none" stroke="none"/><path fill="none" stroke="#440154" paint-order="fill stroke markers" d=" M NaN NaN" stroke-linejoin="bevel" stroke-miterlimit="10" stroke-width="3"/><path fill="none" stroke="none"/><path fill="none" stroke="#440154" paint-order="fill stroke markers" d=" M NaN NaN" stroke-linejoin="bevel" stroke-miterlimit="10" stroke-width="3"/><path fill="none" stroke="none"/><path fill="none" stroke="#440154" paint-order="fill stroke markers" d=" M NaN NaN" stroke-linejoin="bevel" stroke-miterlimit="10" stroke-width="3"/><path fill="none" stroke="none"/><path fill="none" stroke="#440154" paint-order="fill stroke markers" d=" M NaN NaN" stroke-linejoin="bevel" stroke-miterlimit="10" stroke-width="3"/><path fill="none" stroke="none"/><path fill="none" stroke="#440154" paint-order="fill stroke markers" d=" M NaN NaN" stroke-linejoin="bevel" stroke-miterlimit="10" stroke-width="3"/><path fill="none" stroke="none"/><path fill="none" stroke="#440154" paint-order="fill stroke markers" d=" M NaN NaN" stroke-linejoin="bevel" stroke-miterlimit="10" stroke-width="3"/><path fill="none" stroke="none"/><path fill="none" stroke="#440154" paint-order="fill stroke markers" d=" M NaN NaN" stroke-linejoin="bevel" stroke-miterlimit="10" stroke-width="3"/><path fill="none" stroke="none"/><path fill="none" stroke="#440154" paint-order="fill stroke markers" d=" M NaN NaN" stroke-linejoin="bevel" stroke-miterlimit="10" stroke-width="3"/><path fill="none" stroke="none"/><path fill="none" stroke="#440154" paint-order="fill stroke markers" d=" M NaN NaN L 57.97417366760783 58.409650323330425 L 59.23572106636129 57.41167232836597 L 62.104584015440196 60.983383047161624 L 63.43991457624361 63.772468917188235 L 66.36809340096079 66.96599850105122 L 69.36137501546182 69.86276094429195 L 72.4515874509234 72.80942228727508 L 75.47525036754087 75.70618473051582 L 78.46419179625809 78.51102814788464 L 82.15334990038536 80.30213602306321 L 84.2409793685656 81.73869908414781 L 87.69721415708773 83.46415051224176 L 91.15778913162649 84.29930051858537 L 94.67189306672662 85.86192395805847 L 97.29336541355588 86.70495273801498 L 100.65556283877231 88.45404048706405 L 104.13639201456681 89.70676549652126 L 107.55645858636126 91.53201472410001 L 111.10239055217244 92.54575026629027 L 114.53692441061139 94.68089792388491 L 117.90346202184446 96.99200485961046 L 121.53764443635009 97.30452954745851 L 124.08678034995683 96.59281366167124 L 127.97848046757281 96.89483331795782 L 130.1355529120192 100.11462548060808 L 130.1500201986637 105.83198888855986 L 131.59674886683933 111.53622100700159 L 133.09121958119795 114.3095493298024 L 133.43264754698612 114.81641710095573 L 133.80011662864126 115.16308314132039 L 134.09090909105726 115.65944588091224 L 133.7118661799468 120.28691226802766 L 131.46654328680597 125.00892393884715 L 128.882685885299 129.2004315176746 L 126.28436119691469 130.86810527229682 L 124.47595036169514 129.73618812544737 L 120.78823898616247 130.44002523762174 L 118.86553658614866 130.66588341549505 L 115.19518595468253 131.1543673813576 L 111.50602785078809 132.2416381443618 L 108.00205101608299 133.32890890724957 L 104.60947228898294 134.28224051825237 L 101.17927861656062 135.26708722370677 L 97.35557474638335 136.16001490340568 L 93.75466709118336 137.9064763946226 L 90.05682861502282 139.06465612025931 L 89.52443246496841 139.13031256734394 L 87.52071325946599 139.80526084289886 L 86.6396555006504 139.96546257368755 L 86.17814905545674 139.99960392608773 L 84.43339428142644 140.59313820733223 L 83.69556266069412 141.26020770915784 L 82.3182769685518 143.04868932650425 L 78.84612816455774 143.84181920660194 L 75.31321675679646 142.8438412117539 L 73.28490316378884 141.99293365806807 L 72.7872285018675 141.81434812222142 L 72.31270149885677 141.5385910446057 L 71.39547552308068 141.13677358871792 L 69.54076937027276 140.47233034472447 L 68.55844060471281 140.19657326722518 L 67.58479221095331 139.9365737369517 L 66.1062355118338 139.5688976335805 L 64.95029930584133 138.97011083655525 L 62.51256149983965 135.12526929820888 L 63.8797200913541 129.34750195895322 L 63.904314478859305 126.03053825476673 L 63.76832198398188 125.639225830324 L 63.52237811032683 125.27417598490138 L 62.54728298797272 123.9006431128364 L 61.197485140524805 122.02024246973451 L 59.652378922794014 119.11822751071304 L 57.65734008932486 116.89378708519507 L 54.57580802589655 113.41399539227132 L 52.03824594174512 109.56915385380853 L 50.12567064235918 106.97966358275153 L 47.45066933473572 102.99563037662301 L 44.672950291540474 98.73321383504663 L 41.94876020913944 94.94352371210698 L 39.41843176842667 91.09605591581203 L 37.91528068203479 89.02393844735343 L 35.01603643083945 85.1817231667228 L 32.433625758159906 81.27122518129181 L 29.71088240435347 77.0692125710193 L 27.97480800235644 74.74234808806796 L 24.920763783855364 71.66962636669632 L 23.689597686985508 66.0310506952228 L 23.73589300434105 62.19934044627007 L 23.72287244652398 61.40095805027522 L 23.388678124174476 60.213889487902634 L 23.272939830552787 59.60985017509665 L 25.42856554640457 55.15046429249924 L 27.182000692235306 52.277338170213625 L 29.862788914470002 48.6110821677139 L 32.36128932470456 44.280382921220735 L 35.000122415600345 39.95493619039189 L 37.12536682933569 35.35635864001233 L 38.21041333046742 32.590909090824425 L 38.57209549751133 32.78525217412971 L 41.265904277795926 36.551305976114236 L 42.35673769377172 38.1743333467748 L 42.77050209278241 38.68645363370888 L 45.26610904559493 42.38422473077662 L 46.698370427126065 44.41432207310572 L 49.28078110003844 48.358961411053315 L 52.02233192627318 51.97269225586206 L 54.96063785161823 55.076929071801715 L 58.01757552754134 57.653288053465076 L 61.411600983468816 60.79429247963708 L 64.40632932679728 63.25509611458983 L 64.88374978723004 63.69630743865855 L 68.07812668662518 66.9922610798385 L 71.41862318175845 70.14639679552056 L 74.1992356821429 73.234876064118 L 74.64482811209746 73.78113770345226 L 75.43184850760736 74.75285311951302 L 75.89190822397359 75.20982199092396 L 78.79259920399636 78.35345267504454 L 82.1461162569467 80.75122612074483 L 84.16864293511026 81.73082031053491 L 87.2559619131498 82.83910113654565 L 88.25131123699248 83.23829233448487 L 89.22495963075198 83.63748353242408 L 91.93757588369772 84.69323920086026 L 93.88487267121673 85.56253055960406 L 97.00835986598395 86.95182097889483 L 100.6165011646226 88.37262649275362 L 104.04090792243369 90.20312823611312 L 107.46242122282274 92.22009428904857 L 108.91059661982581 92.85039618052542 L 109.43575912644155 93.05787055322435 L 112.90790793020278 95.14837182685733 L 114.36910388525575 95.67624966101721 L 115.48163823108189 96.25140013708733 L 118.81490108277649 97.95584150205832 L 120.97342025581747 98.50472939934116 L 124.71176713448949 99.19543522212189 L 128.55572520615533 100.47967532614712 L 128.99987090728246 102.37583351659123 L 128.65554948430508 108.09057066659443 L 130.12831926858053 113.94712574221194 L 132.34036740241572 118.41439039853867 L 132.30130572826602 119.13661131588742 L 130.91967985010706 123.55660333042033 L 128.84651766857132 127.79800980887376 L 126.10352011350915 131.319821627927 L 124.02891120314598 132.23375937063247 L 120.73036983958445 130.63174206297845 L 117.07159303757362 130.31396485934965 L 113.56616947427392 130.57921690540388 L 110.15478327451274 131.72426534164697 L 106.43669059709646 133.1582021448994 L 102.45818675938062 134.26910922885872 L 98.71983988047577 135.02021898294333 L 95.10157148120925 136.46466081764083 L 91.45002832263708 138.4895056443056 L 87.5612216622103 139.70021052763332 L 84.18166349316016 140.85576399543788 L 81.361989318626 143.48727439262439 L 77.74227419076487 144.40909090905916 L 73.96775909513235 142.82808366441168 L 73.45995733258314 142.53131652378943 L 69.67676186515018 140.75596619595308 L 66.22776072006673 139.4270797079662 L 63.10138006787747 137.05819509888534 L 62.82071470632218 131.06770087126642 L 63.947716338792816 126.4822546102805 L 63.8782733627595 126.37195177935064 L 61.41304771206342 121.6788289451506 L 60.6911301065702 120.43923522508703 L 57.87145593203604 116.8911608272465 L 55.47567325737327 113.64773234375753 L 54.39207348506898 112.54733029135969 L 51.58107968256809 109.17258891370147 L 50.917031223885715 107.64673308457714 L 50.01427253475413 106.23118008649908 L 49.19542410853319 105.31986860162579 L 48.13207853748463 103.2214885543799 L 47.155536686303094 101.7429053671658 L 46.241204167949036 100.85785646107979 L 45.15905112400651 99.19280896428972 L 44.267866264563054 98.0162454333622 L 41.776599497767165 93.88514178583864 L 39.05530287278816 90.91221786406823 L 37.72141904057935 89.22353404632304 L 36.32821933296509 87.1461640620837 L 33.86878059688024 84.09445240383502 L 31.386194202117622 80.09991416614503 L 30.61653455067426 78.68173491023481 L 28.48405649373308 74.2118439959595 L 25.888625262770802 70.2672046580119 L 24.3001171851065 69.16680260573048 L 23.971709777368233 68.89104552811477 L 21.131781401578337 65.50842537684366 L 18.10956521355547 62.71933950681705 L 15.909090909175575 60.04318272555247" stroke-linejoin="bevel" stroke-miterlimit="10" stroke-width="3"/></g></g></g><g><g fill="#444444"><path fill="" stroke="none" d=""/><g transform="translate(10,22)"><path fill="none" stroke="none"/><text fill="" stroke="none" font-family="helvetica" font-size="10pt" font-style="normal" font-weight="bold" text-decoration="normal" x="0" y="0" text-anchor="start" dominant-baseline="text-after-edge">3.31965</text></g></g></g><g/></g></g></svg>