<svg version="1.1" xmlns="http://www.w3.org/2000/svg" xmlns:xlink="http://www.w3.org/1999/xlink" width="150" height="160" style="width: 150px; height: 160px;"><defs><clipPath id="IbtNaDDONJVv"><path fill="none" stroke="none" d=" M 10 27 L 140 27 L 140 150 L 10 150 L 10 27 Z"/></clipPath></defs><g><g transform="scale(1,1) translate(0.5,0.5)"><rect fill="#FFFFFF" stroke="none" x="0" y="0" width="150" height="160"/><rect fill="#ffffff" stroke="none" x="0" y="0" width="150" height="160"/><rect fill="#FFFFFF" stroke="none" x="10" y="27" width="130" height="123"/><rect fill="#ffffff" stroke="none" x="10" y="27" width="130" height="123"/><g><rect fill="none" stroke="#FFFFFF" x="10" y="27" width="130" height="123" stroke-linejoin="bevel" stroke-miterlimit="10"/></g><g clip-path="url(#IbtNaDDONJVv)"><g><g/><g/><g><path fill="none" stroke="none"/><path fill="none" stroke="#3B518A" paint-order="fill stroke markers" d=" M NaN NaN" stroke-linejoin="bevel" stroke-miterlimit="10" stroke-width="3"/><path fill="none" stroke="none"/><path fill="none" stroke="#3B518A" paint-order="fill stroke markers" d=" M NaN NaN" stroke-linejoin="bevel" stroke-miterlimit="10" stroke-width="3"/><path fill="none" stroke="none"/><path fill="none" stroke="#3B518A" paint-order="fill stroke markers" d=" M NaN NaN" stroke-linejoin="bevel" stroke-miterlimit="10" stroke-width="3"/><path fill="none" stroke="none"/><path fill="none" stroke="#3B518A" paint-order="fill stroke markers" d=" M NaN NaN" stroke-linejoin="bevel" stroke-miterlimit="10" stroke-width="3"/><path fill="none" stroke="none"/><path fill="none" stroke="#3B518A" paint-order="fill stroke markers" d=" M NaN NaN" stroke-linejoin="bevel" stroke-miterlimit="10" stroke-width="3"/><path fill="none" stroke="none"/><path fill="none" stroke="#3B518A" paint-order="fill stroke markers" d=" M NaN NaN" stroke-linejoin="bevel" stroke-miterlimit="10" stroke-width="3"/><path fill="none" stroke="none"/><path fill="none" stroke="#3B518A" paint-order="fill stroke markers" d=" M NaN NaN" stroke-linejoin="bevel" stroke-miterlimit="10" stroke-width="3"/><path fill="none" stroke="none"/><path fill="none" stroke="#3B518A" paint-order="fill stroke markers" d=" M NaN NaN" stroke-linejoin="bevel" stroke-miterlimit="10" stroke-width="3"/><path fill="none" stroke="none"/><path fill="none" stroke="#3B518A" paint-order="fill stroke markers" d=" M NaN NaN" stroke-linejoin="bevel" stroke-miterlimit="10" stroke-width="3"/><path fill="none" stroke="none"/><path fill="none" stroke="#3B518A" paint-order="fill stroke markers" d=" M NaN NaN" stroke-linejoin="bevel" stroke-miterlimit="10" stroke-width="3"/><path fill="none" stroke="none"/><path fill="none" stroke="#3B518A" paint-order="fill stroke markers" d=" M NaN NaN" stroke-linejoin="bevel" stroke-miterlimit="10" stroke-width="3"/><path fill="none" stroke="none"/><path fill="none" stroke="#3B518A" paint-order="fill stroke markers" d=" M NaN NaN L 50.56768284505233 42.4535043661308 L 51.93236386741046 42.93822149132029 L 53.27717089431826 43.260744809231255 L 54.59823953767773 43.51848381909076 L 55.86686291533988 43.92163796647219 L 57.15756851003971 44.325724262191216 L 57.98123521124944 44.559227415767964 L 59.37462311598938 44.96890660139616 L 60.49529563845135 45.509086551493965 L 60.77518774126656 45.61535145970993 L 61.9460973078385 46.140617036726326 L 63.2649577294942 46.53678007173585 L 64.35802748042624 46.85790516718407 L 65.72878111258615 47.24800923813018 L 66.98746749246493 47.60968278537621 L 68.33061835297849 47.870684314344544 L 69.68701854394749 48.14100732645602 L 71.0163680188125 48.30926009779796 L 72.37828876404092 48.786986110615544 L 73.71095057146158 49.02095533834654 L 74.35354309168179 49.0442590462917 L 74.94755473418627 49.121627356653335 L 75.66688295919448 49.19899566704407 L 76.06160259142052 49.22090115249739 L 76.2719357102178 49.23115478397813 L 76.49386199295986 49.22649404240656 L 76.94599538994953 49.23814589637914 L 77.15191206522286 49.2358155255788 L 78.14892417134251 49.22975656151539 L 78.33441479573958 49.20738500187872 L 78.49506292585284 49.232086932315724 L 78.82519207277801 49.23907804468763 L 78.9979854223784 49.25725493687787 L 79.17574727069587 49.269838939158944 L 80.50123235757928 49.02281963499263 L 81.26086062891409 48.55627940199338 L 82.53058811742812 48.222104230109835 L 82.77459661732428 48.18947903899243 L 83.19581491022836 48.12376258257427 L 83.485091955401 48.12096613761969 L 83.69873740675393 48.13914302983903 L 83.87042664538603 48.17316644341918 L 83.92287191119976 48.2197738593095 L 83.98691034107469 48.245407938054996 L 84.48707256047055 48.160582441138104 L 85.72312466765288 47.76488548028283 L 87.1540523415897 47.60455596965039 L 88.33931534935255 47.32770791929215 L 89.08238195779268 46.872353466111235 L 90.1583379904041 46.35827366888407 L 90.65021937829442 46.2776428394136 L 91.9127701461548 45.89965669659432 L 92.44881596846972 45.710430588107556 L 93.21175657247659 45.45222550412291 L 93.83226687542628 45.212197312299395 L 94.02327805419918 45.093814475956606 L 94.42020590812899 44.854252358316444 L 94.59796775656287 44.76709649062832 L 94.76303233008366 44.70044788590167 L 94.91208729613572 44.642188616038766 L 95.71532794635277 44.2781846979924 L 95.8417486398248 44.21013787080301 L 97.2296159901889 43.86291262245504 L 97.95446476945654 43.60191109351581 L 99.13586338923778 43.25841443846002 L 99.26780463696923 43.178249683143804 L 100.30898117739707 42.456300811085384 L 100.5772801162675 42.271735444199294 L 100.70811725314707 42.16686875844607 L 100.96316686167847 42.00747139612213 L 101.29329600872006 41.772570020053536 L 101.41750848037191 41.65884792531142 L 101.5461373955477 41.55910805531312 L 102.51775495195761 40.85859859458287 L 103.52359994500875 40.15762305969838 L 104.71879995043855 39.575030361127574 L 105.96754933253396 39.04090937509318 L 107.09815885266289 38.530558171187295 L 108.15810527780559 37.88318116453593 L 109.17002288054209 37.183603852114175 L 110.09913216880523 36.8214642307139 L 110.65008348773699 36.60753619179013 L 111.6620010904735 35.84270849713357 L 112.58448571362533 35.2960035088181 L 113.33307287644129 34.734384147421224 L 113.9900188378524 34.35360155964736 L 114.22740267263725 34.27343680433114 L 114.63095519179478 34.131284185888944 L 115.1526475729188 33.86702013781178 L 115.27023537945934 33.82880205678521 L 116.20596933283377 33.40327634976711 L 116.6509260092862 33.24201469082618 L 116.74753570952453 33.229430688516004 L 117.84391779301222 32.76568690047134 L 118.67807354731485 32.636118284310214 L 120.03005729487631 32.70043651823653 L 121.33898071886506 33.024358058639336 L 122.45854913035873 33.52818422432756 L 123.40201185981277 33.92807585262926 L 123.70619440160226 34.12569129597978 L 124.6938215654809 34.54282766813412 L 125.37561002129223 34.8802653591265 L 125.66212678933516 35.01030004944187 L 126.25393021001946 35.373837893333985 L 126.59289224387612 35.538828145567095 L 126.71600060467608 35.61759467842057 L 126.77893492369913 35.65627883360139 L 126.8396610210184 35.695429062936455 L 127.29841908311937 36.11489580589114 L 128.11601317452732 36.955227514292346 L 128.68131793465 37.895765166846104 L 129.00813474901952 38.889901347632986 L 129.08873484178912 39.91712879372062 L 129.08487045380753 40.76445161449374 L 129.13621160876937 41.04456218396081 L 129.15939793677535 42.17059735170915 L 129.20356237119995 42.59332661377266 L 129.22674869920593 42.73547923224396 L 129.2339254198596 42.86877644166816 L 129.23889391869307 43.12837974814465 L 129.26704874564894 43.397770611947635 L 129.30790084740147 43.79346757280291 L 129.31397345720325 43.92583263391862 L 129.32059812231455 44.0530708792794 L 129.33108717552386 44.18217342128628 L 129.45474759174976 45.29376029010746 L 129.638582049869 46.295353657449596 L 129.70703692315146 46.745115220721345 L 129.7009643134661 46.850447980628815 L 129.71255747741088 46.96836474281736 L 129.81192745477892 47.483376688323915 L 129.8439466697164 48.61127615271835 L 129.87154944124632 49.62452137406217 L 130.57431600335985 50.303125349309994 L 131.25500034820288 50.51379086912493 L 132.14656986726914 50.986390066187596 L 133.43451518495567 51.39746747427853 L 133.78562243829947 52.26529755804222 L 133.40028774831444 53.36523257289082 L 133.57639343035407 54.41389943030663 L 133.78175805020146 55.429475022421684 L 133.8275786509039 56.37467341654701 L 133.94406234659255 56.89807469691732 L 133.95289523340762 57.11293488414958 L 133.97663361695595 57.35436129840673 L 133.95344728883356 57.7183652164822 L 133.83144303888548 58.02970275457483 L 133.76574844273273 58.27345953966142 L 133.69950179115403 58.46827853805735 L 133.6299428070197 58.78986970765982 L 133.57639343035407 59.086758946825285 L 133.23411906394176 60.041278824122855 L 133.09831342822872 60.406680964661064 L 132.74389384232927 61.33370246659615 L 132.53963333321735 61.849646560440306 L 132.02401356189512 62.84331666707294 L 131.55366233573295 63.822538474807516 L 131.05515628261492 64.86747673893115 L 130.57321189250797 65.8415717309108 L 130.38440893543884 66.1832040893205 L 130.08961133600678 66.71033396298299 L 130.03054140496533 66.81147205544403 L 129.98030436085537 66.91167799959658 L 129.92896320589352 67.02027327861288 L 129.87596588465385 67.13026678009192 L 129.82296856341418 67.23792991079972 L 129.7583780781133 67.3404662257235 L 129.6308532739058 67.53528522411943 L 129.4370818180032 67.94915907716495 L 129.3940214944305 68.05216146627208 L 129.29465151717886 68.27214846925926 L 128.79504135320894 69.29657947039232 L 128.50907664059196 69.82324326987145 L 128.27224486123305 70.33825521537801 L 128.05859940988012 70.73535039872513 L 127.93659515993204 70.92038183979457 L 127.77263469726313 71.17392618220765 L 127.6539427798707 71.35988977155648 L 127.61309067811817 71.46289216066361 L 127.55678102420643 71.5742838846345 L 127.16923811251763 72.22865200365777 L 126.73477048927452 73.14635202239151 L 126.20093288877979 74.06824670860078 L 125.57379792048596 75.08009370742366 L 124.97316161298659 76.02948676899541 L 124.30517454294022 76.94066174951149 L 124.13514147058595 77.16437734576175 L 123.59578331571538 77.8886565886205 L 123.32361998886336 78.27876065956661 L 123.29270488477778 78.33935030020075 L 123.09120465291198 78.58823390101315 L 122.86983042559586 78.87347128623514 L 122.71194257261232 79.18434275017353 L 122.66667402745225 79.30505595731665 L 122.20349952182733 79.7813837476424 L 121.9418252480682 80.17008959612576 L 121.66303725610487 80.52244166019955 L 121.3941862618085 80.94889951555524 L 120.7880293999333 81.89782650294364 L 120.02950523945037 82.75400473273476 L 119.85836805624422 82.99543114702101 L 119.61711983336136 83.37574766064063 L 119.38139216485433 83.74860698770499 L 119.05347123963293 84.27014397145831 L 118.93919576564804 84.39924651343608 L 118.84203400998376 84.52648475879687 L 118.41915955080185 85.18271717446623 L 118.21545109723229 85.58680347018526 L 118.15969349886291 85.74060794260004 L 117.96481793210842 86.27193248367985 L 117.96702615381218 86.38518850426772 L 117.94549599208403 86.48306407761993 L 117.58721201820299 87.18543783499626 L 117.51378864597064 87.4385161032551 L 117.23555270943325 88.20054735295707 L 117.20077321736608 88.31799804096227 L 117.16764989157673 88.42379687502398 L 117.00755381688941 88.94673208124004 L 116.87782079086173 89.28929658798734 L 116.72876582492609 89.57220360240899 L 116.69233016646467 89.62486998236272 L 116.67300822644029 89.68732391964295 L 116.65644656354561 89.79824956945959 L 116.67300822644029 90.4283818322001 L 116.79004397755489 91.08321602537762 L 116.92860989039764 91.75016814668197 L 117.13783889834303 92.76714196125977 L 117.09146624221466 93.29613613153924 L 116.9932003756985 93.79343725903891 L 116.73207815748174 94.49487886807765 L 116.8629152943613 94.6188545943296 L 117.15053617325611 95.20004907040857 L 117.20960610418115 95.35385354282334 L 117.25266642775387 95.49600616126554 L 117.3078719706973 95.64048915050807 L 117.3674939571647 95.78031139817904 L 117.50661192543339 96.0613541159546 L 117.67498883150984 96.28973045377643 L 117.77159853174817 96.39133462042082 L 118.02499197400175 96.6103894750704 L 118.13981950329617 96.72271334734978 L 118.67531327018514 97.21488765906543 L 119.47634569881484 97.84735029263538 L 119.7827364623081 98.08411596532096 L 120.03281757200602 98.35537112577003 L 120.69141969969496 99.23531913766055 L 120.91721037053503 99.74194174830336 L 121.17115586821456 100.2863163658476 L 121.55759466905147 101.19795742051792 L 121.69174413848668 101.44124813145027 L 121.83969499357045 101.69479247386334 L 121.80712372320704 102.77701667067595 L 121.67076603206806 103.37312551983632 L 121.62108104338404 103.86296946078073 L 121.49079596204683 104.92841498789494 L 121.50238912599161 105.59629925750778 L 121.53772067348473 105.9342030226544 L 121.63985092798248 106.24507448662189 L 121.80877988960128 106.59043543832377 L 121.95452252298128 106.84025118744466 L 122.14001314737834 107.2415410382091 L 122.26256945275236 107.42144566352363 L 122.68489185662474 108.03852784982882 L 123.27945555443875 108.66866011256934 L 124.25880188681185 109.33607830802794 L 124.64027218881529 109.75740934762871 L 124.77994221250992 109.97832849892438 L 124.89753001905046 110.59214816612075 L 124.91795606992673 110.64248417527415 L 125.06645898055285 111.67949917868827 L 125.25415782665368 112.67783002692158 L 125.46945944428444 113.7078539179638 L 125.55337186960969 114.00427708297502 L 125.58980752795469 114.14503147895448 L 125.60636919084936 114.2825233558251 L 125.62955551897176 114.41815093604964 L 125.70242683566175 114.70059187628794 L 125.74990360264201 114.94854332879186 L 125.77088170894422 115.07065475842683 L 125.94477916928008 115.92217224661727 L 126.0320039272774 116.22791689480073 L 126.2467534893658 116.85292234181543 L 126.28539736953098 117.00439644342987 L 126.31079191924073 117.14841335851816 L 126.40408928692341 117.58792129030917 L 126.66576356056612 118.30520942076691 L 126.68066905718297 118.41753329304629 L 126.7551965402672 118.73120120193926 L 126.77010203676764 118.82954284944572 L 126.8904501205543 119.21218973386567 L 126.94013510923833 119.36133346470888 L 126.94565566349775 119.42052488288027 L 126.97160226863343 119.66381559378351 L 126.9633214372443 119.73046419851016 L 126.9489679960534 119.79245206163614 L 126.95393649488688 119.96909416781273 L 127.00472559442278 120.86116010785918 L 127.03508864308242 120.90031033719424 L 127.10630379349459 121.15851542117889 L 127.11292845872231 121.23448550907779 L 127.11237640329637 121.46099755028263 L 127.07980513293296 121.58543935068883 L 127.06821196887176 121.97181482837186 L 127.14329150738195 122.4225085399521 L 127.33430268603843 122.94451159785967 L 127.38453973014839 123.1136965175101 L 127.47286859888118 123.43342339049559 L 127.52476180926897 123.73683766787872 L 127.64234961580951 124.18473493453348 L 127.64676605933346 124.32269288555835 L 127.66443183308002 124.47509913548129 L 127.69258665991947 124.62377679217025 L 127.78422786132433 125.18353185692104 L 127.90899238840211 125.70273846987402 L 127.93769927078392 125.85001790407114 L 128.0061541440664 126.1240695094748 L 128.02768430579454 126.89309187154868 L 128.0205075852573 126.97092625609366 L 128.01388292002957 127.02312656186405 L 128.02271580696106 127.07858938677236 L 128.01885141897947 127.1965061489609 L 128.0205075852573 127.2566297154408 L 128.0260281395167 127.31069431788637 L 128.0271322503686 127.37547862596693 L 128.0376213035779 127.43187359918375 L 128.0988994562067 127.52182591182645 L 128.1287104494404 127.56703510525404 L 128.1701146067353 127.6733000134409 L 128.18502010335214 127.73342357994989 L 128.25016264396254 127.98230718076229 L 128.25954758631997 128.10208823959692 L 128.52950269146822 129.10321553278482 L 128.62445622542873 129.5897969546204 L 128.73652347759344 130.03536385044572 L 128.8127071269555 130.78341287540388 L 128.77406324690674 131.22664940045797 L 128.70836865075398 131.44197566184448 L 128.6890467107296 131.57387464877684 L 128.64046583289746 131.8222921754641 L 128.30978463042993 132.85651073392364 L 128.03210074920207 133.7653553436685 L 127.93769927078392 133.89119536653743 L 127.3950287833577 134.54276704060612 L 127.33099035348278 134.6443712072214 L 127.27688892139122 134.75017004128313 L 127.2404532629298 134.85503672703635 L 127.24321354017593 134.9720213408873 L 127.25480670412071 135.08620950981276 L 127.41214250167832 135.52525136744953 L 127.44250555022154 135.62499123741873 L 127.52200153213926 135.8529015011154 L 127.56174952315632 136.08314213558333 L 127.56119746761397 136.2043214168807 L 127.56009335676208 136.3049934351875 L 127.57003035454545 136.41312264002045 L 127.64787017018534 136.9891903003445 L 127.73895931604784 137.34620310601895 L 127.94818832387682 138.40652181737823 L 128.059703520732 139.07300786452834 L 128.13643922552 139.3619738430134 L 128.18667626962997 139.5120497221651 L 128.98660458729137 140.54440398397855 L 129.05781973770354 140.68981912155868 L 129.11081705905963 141.3535087237251 L 129.0793498995481 141.79255058136187 L 128.9518250952242 142.28192844815203 L 128.66530832718126 143.35949190339306 L 128.65040283056442 143.49185696450877 L 129.00758269359358 144.18584138702136 L 129.19086509628687 144.40909090908826 L 128.89385927515104 143.39817605857388 L 128.87564144597854 142.78109387226868 L 128.87288116873242 142.57042835248285 L 128.43234093580395 141.63548358983826 L 128.39590527745895 140.88184167500003 L 128.2612037525978 140.12866583431605 L 128.19992559985258 139.67750604855246 L 128.1038679551566 139.25058211904252 L 128.0271322503686 138.9867841451487 L 127.97027054114733 138.85488515818724 L 127.91230472095776 138.5799014044751 L 127.8852540049702 138.3025872799626 L 127.84826629119925 137.91900824723416 L 127.76545797672588 137.44081616026233 L 127.75110453553498 137.1896021886496 L 127.66664005478378 136.86940924153896 L 127.63848522782791 136.76034788836841 L 127.45023432630114 135.8953142495593 L 127.42263155477121 135.77832963567926 L 127.30338758195285 135.17010285839206 L 127.27468069957104 134.7646183402103 L 127.43091238627676 134.27943514086655 L 127.51316864532419 134.14520578310476 L 127.55678102420643 134.09253940315102 L 127.59708107064944 134.03381405916298 L 127.63738111697603 133.97322441849974 L 127.68209760682657 133.92009196439176 L 127.78091552876867 133.79285371903097 L 127.83556901628617 133.73319622670533 L 127.88967044837773 133.6735387343797 L 127.97855137253646 133.4474927673291 L 128.172874883865 132.4738638495037 L 128.4251642152667 131.3827842436731 L 128.6056863408303 130.36907294817502 L 128.4759533148026 129.33625261220732 L 128.2910147458315 128.36588621349074 L 128.07957751618233 127.62343007847085 L 128.01001853204798 127.34192128651193 L 127.98793631489389 127.06693753279978 L 127.98793631489389 127.01100863373722 L 127.97082259657327 126.89868476145784 L 127.93273077195045 126.71831406198908 L 127.88414989411831 126.47781979604042 L 127.75165659096092 125.47389605789795 L 127.53525086247828 124.4228988297109 L 127.46348365664016 124.11715418149834 L 127.43919321766589 123.57184741567471 L 127.30504374823067 122.73804074549116 L 127.23658887494821 122.4066620185622 L 127.1101681815926 121.6828488498868 L 127.06489963631611 121.49688526050886 L 127.07428457867354 121.43862599064596 L 127.07097224600147 121.38129886912066 L 126.83358841121662 120.35407142303302 L 126.50621954142116 119.34781731409021 L 126.16836161841638 118.38071343448246 L 126.06181492039468 117.33111442878726 L 125.88846951548476 116.28244757140055 L 125.73775838315487 115.27339701750316 L 125.36898535606451 114.26807505689794 L 125.07694803376216 113.21055279049324 L 124.78270248963963 112.16048771061469 L 124.7484750529984 112.0253262045444 L 124.68940512207337 111.63755250439863 L 124.68112429056782 111.48095158702927 L 124.6573859071359 111.34672222926747 L 124.65186535287648 111.20410353667103 L 124.62647080305032 111.06474736318341 L 124.58782692300156 110.79908509264351 L 124.56022415147163 110.55206578844809 L 124.4895610564854 110.24026217620121 L 124.45588567527011 110.13492941629374 L 124.31897592870519 109.83804017709917 L 124.243896390195 109.72944489811198 L 124.07993592764251 109.5420830862422 L 124.01037694339175 109.46378262757207 L 123.90162202378269 109.37476246323786 L 123.78293010639027 109.28154763145722 L 123.31809943448752 108.90262934032944 L 123.17953352164477 108.79729658042197 L 123.01943744695745 108.6831084114965 L 122.89301675360184 108.56379342684522 L 122.69262063258793 108.32889205077663 L 122.33212843700312 107.84883566718781 L 122.17644880572334 107.58969843486557 L 122.06493360898457 107.33988268571557 L 121.89379642577842 107.03227374088601 L 121.80988400045317 106.70415753306588 L 121.73922090535052 106.54755661569652 L 121.71603457734454 106.40493792310008 L 121.65751670184545 106.26464960127487 L 121.63101804116741 106.2175761112303 L 121.5725001655519 106.12715772443335 L 121.50790968036745 106.03114644769812 L 121.41847670066636 105.87547767863725 L 121.2694217346143 104.98900462852907 L 121.17225997906644 104.27125042391708 L 121.15238598361611 103.9771576297062 L 121.17005175736267 103.7026399501483 L 121.21808057965245 103.38384522550041 L 121.24402718490455 103.02170560407103 L 121.28046284324955 102.69405547040515 L 121.25175596086774 102.31653540174011 L 121.32297111139633 101.94973503873916 L 121.29757656157017 101.79826093712472 L 121.13195993262343 101.4356552415411 L 120.87967060122173 100.93229514997802 L 120.36570699617732 99.98569853338995 L 119.88707493850961 99.27446936699562 L 119.15504943870474 98.36842120220535 L 118.42302393878344 97.41390132490778 L 118.33303890377283 97.29691671102773 L 118.25851142068859 97.18272854213137 L 118.18619215942454 97.06807429905166 L 118.05259474541526 96.8364354420919 L 117.97972342872526 96.72923838556744 L 117.82625201926567 96.50785316011752 L 117.60542984737549 96.06694700586377 L 117.560161302099 95.84742607703083 L 117.53145441971719 95.64235344715416 L 117.51213247969281 95.52303846250288 L 117.50109137105756 95.2872049381258 L 117.42711594351567 94.82952011414454 L 117.22671982250176 93.88059312672704 L 117.17924305552151 93.15631388389738 L 117.15881700464524 93.0281434902281 L 117.13783889834303 92.81887619290501 L 117.08373746625148 92.64223408669932 L 116.9865757105872 92.07968257696484 L 116.93247427849565 91.5530187774857 L 116.91812083730474 91.42018764221575 L 116.9059756178176 91.29994050922687 L 116.90652767324354 91.18621841448476 L 116.88941395492293 91.06270876238705 L 116.82592758047394 90.4610070233175 L 116.83641663368326 90.39529056692845 L 116.83420841197949 90.3277098138933 L 116.7679617604008 89.8299426122685 L 116.92695372411981 88.80364731448935 L 117.17261839041021 88.42566117167007 L 117.57120241073426 87.7032462254574 L 117.73074642987922 87.3961033547821 L 117.88476989476476 87.03209943673573 L 118.01229469908867 86.76783538868767 L 118.09068657003809 86.55204305311781 L 118.21048259839881 86.31667560292408 L 118.37223483924754 86.09109571002773 L 118.41805543994997 85.76437772469944 L 118.8790217237547 84.79261310352013 L 119.52327041036915 83.86838804653962 L 119.94172842614353 83.35197787854122 L 120.32485489430837 82.82904267232516 L 121.01271595980506 81.9714662200422 L 121.22360113402829 81.61212304356741 L 121.87778681830969 80.72425177099649 L 122.48339162475895 79.7981624173699 L 123.05973749340046 78.98626123266877 L 123.14199375244789 78.85855691315373 L 123.20768834860064 78.73411511274753 L 123.75698350113817 77.99398934849887 L 123.82488631899469 77.89052088523749 L 123.90272613463458 77.80429716585786 L 124.04239615832921 77.61553713152534 L 124.53979810059536 76.93367063713958 L 124.67891606886405 76.72906408141716 L 125.1321535767056 76.05512084774091 L 125.20723311521579 75.95771134854294 L 125.28065648733173 75.87754659319762 L 125.34359080635477 75.79598361541866 L 125.40818129153922 75.73026715902961 L 125.52852937532589 75.55082860786933 L 125.77474609692581 75.08055978160701 L 125.90503117837943 74.95565190701745 L 126.13965473603457 74.59817302718875 L 126.16173695318867 74.54504057308077 L 126.38035090337507 74.22158510686131 L 126.62656762509141 73.74479124235222 L 126.94344744179398 73.22884714850807 L 127.0737325232476 73.1155911279202 L 127.15598878217861 72.91797568456968 L 127.11734490212984 73.05406933894847 L 127.09360651869792 73.04241748497589 L 127.24873409443535 72.71709772211034 L 127.32546979910694 72.50177146072383 L 127.33154240890872 72.45003722910769 L 127.33871912944596 72.40296373906313 L 127.52973030821886 72.1163281313784 L 128.1662502186373 71.14130099106114 L 128.55324107490014 70.15508807095466 L 128.71223303873558 69.8246414923633 L 128.75529336219188 69.71464799085516 L 128.8165715149371 69.61211167593137 L 128.88005788938608 69.50957536097849 L 128.9998539176304 69.31056169513613 L 129.13069105450995 69.02672253240598 L 129.2885789073771 68.62217016253271 L 129.37801188696176 68.39565812135697 L 129.45585170260165 68.29638432551292 L 129.5358997399453 68.20876238364144 L 129.61981216527056 68.12160651595332 L 130.05427978851367 67.31156962786918 L 130.42691720358562 66.40179286981584 L 130.5671392827062 66.12960556105827 L 130.64608320919797 65.99677442578832 L 131.1705358674517 65.0091632832191 L 131.44214713887777 64.48016911293962 L 131.576296608313 64.1837459478993 L 131.73915296013 63.775931058917195 L 132.01242039783392 63.30706045511761 L 132.1890781354159 62.92394749657251 L 132.65666908433195 61.87341634253971 L 133.01384894747753 61.16125502783689 L 133.2020998490043 60.773015253507765 L 133.24681633873843 60.681198644218966 L 133.27717938739806 60.573069439356914 L 133.36882058880292 60.353082436398836 L 133.5625920445891 59.99886607567896 L 133.63215102872346 59.59105118669686 L 133.7105428997893 59.207006079814164 L 133.76298816560302 58.961851072264835 L 133.7850703827571 58.683604799443856 L 133.82481837377418 58.373665483813966 L 133.91149107622914 58.10800321327406 L 133.97221717354842 57.46435479991487 L 133.98436239291914 57.40096871429705 L 134.09090909094084 56.34764111530967 L 134.05833782057744 55.60611712859827 L 133.95675962150563 54.773708680906566 L 133.93412534880918 54.64507221308304 L 133.91425135335885 54.52202863513958 L 133.89492941333447 54.38313853580621 L 133.87781569501385 54.23166443419177 L 133.86511842010077 54.08065640673158 L 133.8342033160152 53.97345935017802 L 133.81653754226863 53.843890734046 L 133.78396627190523 53.7264400460117 L 133.7392497821711 53.62576802770491 L 133.6978456248762 53.50552089471603 L 133.64650446991436 53.40298457976314 L 133.59681948123034 53.364300424582325 L 133.55651943490375 53.409043543826556 L 133.56203998916317 53.394129170745146 L 133.5868824835634 53.38294339092681 L 133.7304168952396 53.420695397799136 L 133.82040193036664 53.44353303159005 L 133.9473746791482 53.37362190775457 L 133.88664858194534 53.32048945364659 L 133.65809763397556 53.27947492766543 L 133.50186594738625 53.24964618150261 L 133.35336303676013 53.10702748890617 L 133.12591619964223 52.84882240492152 L 132.00855600985233 52.244790295051644 L 131.60831582325045 51.62071699637454 L 131.34664154960774 51.26510241316282 L 131.07889466616325 50.94863805931527 L 130.90444515028503 50.76360661824583 L 130.75539018423297 50.62238614814123 L 130.68527914467268 50.58882880868623 L 130.29828828840982 50.366511434927816 L 129.7009643134661 49.5024099444272 L 129.7191821426386 49.20505463110749 L 129.7583780781133 48.97108540334739 L 129.85333161207382 48.28875283480738 L 129.8428425588645 47.663747387821786 L 129.77328357473016 47.52485728848842 L 129.7583780781133 47.37431533518247 L 129.69875609176233 47.028954383480595 L 129.69157937110867 46.42352405114798 L 129.6413423269987 45.80597579065943 L 129.63250944018364 45.532390259439126 L 129.59000117203686 45.32358903627028 L 129.57123128743842 45.260669024835806 L 129.57012717658654 45.197282939217985 L 129.55632579082157 45.139489743538434 L 129.43376948544756 44.114126594067784 L 129.23061308730394 43.13956552793388 L 129.30072412686422 42.06852711093961 L 129.17595959967002 41.06879804021446 L 128.93581548775546 40.06580645038048 L 128.8855784436455 39.168613694637315 L 128.84472634189297 39.05722197066643 L 128.59078084421344 38.123675430513686 L 128.42019571643323 37.707005132513586 L 127.70583599025849 36.785576520487666 L 126.81040208321065 36.02354527078569 L 125.97403810708784 35.550479999539675 L 125.03002332220785 35.13940259144874 L 124.67725990258623 35.00750360448728 L 124.51109121821355 34.94038892563549 L 124.17764973861631 34.79870238134754 L 124.00761666626204 34.74137525979313 L 123.83979181561153 34.677523100050166 L 123.67583135305904 34.61180664363201 L 123.32693232141901 34.45660394875449 L 123.13757730904035 34.37271060014609 L 122.19190635776613 33.915957924502436 L 121.55041794839781 33.56174156378256 L 120.30222062172834 33.0052490181115 L 120.11065738764592 32.94232900667703 L 118.94858070788905 32.609552057256224 L 118.72499825886916 32.59090909091174 L 118.65157488675322 32.601628796575824 L 118.61789950553793 32.64590584166581 L 118.57318301568739 32.679463181091705 L 118.37057867296971 32.771279790380504 L 117.86103151133284 32.906441296450794 L 117.25432259403169 33.06677080708323 L 117.16047317092307 33.0882102183823 L 116.56922180566471 33.404208498075604 L 116.23412415978964 33.77660175101482 L 115.95202383515425 33.97701363929082 L 115.5611685909098 34.0963286239712 L 114.92630484665278 34.412792977818754 L 114.73308544629253 34.569393895188114 L 114.14017791475635 34.75815392952063 L 113.1017616513418 35.37803256078041 L 112.46082529739942 35.76627233508043 L 112.16050714359153 35.97973429984995 L 112.07659471826628 36.05477223941125 L 112.02414945245255 36.08320276311133 L 111.06357300467789 36.777187185623916 L 109.99700191430748 37.4464696776995 L 109.59620967239607 37.72611417301232 L 108.95306509663351 38.106896760786185 L 107.86827617720701 38.750079099991126 L 107.22237132431474 39.08705071682925 L 106.14917556894943 39.67523630528012 L 104.98157833493315 40.17579995188862 L 103.85041675937828 40.732758571684826 L 103.0521446079947 41.17925761587685 L 101.90662959113251 41.784221874026116 L 101.72279513301328 41.92171375089674 L 100.83950644545257 42.69306648377096 L 100.70701314229518 42.819372580823256 L 99.66142015834339 43.41827787493821 L 98.75660130893812 43.822830244811485 L 97.51006014854647 44.170987641467946 L 96.79514836706221 44.43152309625293 L 95.5817305323435 44.97589771376806 L 94.57698965026066 45.48485069524031 L 94.16736452130135 45.6950501408719 L 93.75718733703252 45.88800484262174 L 93.35473892872687 46.07536665449152 L 92.95781107468065 46.262262392177945 L 92.12641559750773 46.626732384378556 L 91.94423730566632 46.69664350821404 L 91.75322612700984 46.775410041067516 L 91.57877661113162 46.840660423302324 L 91.21331591671333 46.99353274740861 L 90.14564071549103 47.42511741849012 L 89.99548163858708 47.498757135588676 L 89.36448228242807 47.76255510948249 L 89.22260403691325 47.820348305191146 L 89.08182990236674 47.881870094133774 L 88.76053364225663 47.99512611475075 L 88.57725123956334 48.05758005203097 L 88.4011455575237 48.12236436011153 L 87.72432560054585 48.38243374074227 L 87.35831285070162 48.51386665352038 L 87.1590208405396 48.56560088516562 L 86.63788051484153 48.71800713511766 L 85.74299866321962 49.00417666864814 L 85.62817113380879 49.02701430240995 L 85.5580600942485 49.04099652718287 L 85.49236549809575 49.03260719231912 L 85.43605584418401 49.020023190038046 L 85.25001316436101 49.01116778102005 L 85.10316642012913 48.98646585061215 L 85.01814988383558 48.991592666337965 L 84.92816484882496 48.996719482092885 L 84.84756475605536 48.990194443875225 L 84.79898387822323 48.975280070793815 L 84.75205916678533 48.963628216821235 L 83.46080151654314 49.13281313647167 L 83.26095745095517 49.16730262423516 L 83.0324065029854 49.22276544914348 L 82.7618993424112 49.27589790325146 L 82.51292234368157 49.33182680228492 L 82.25621656875592 49.41618622504757 L 81.51149379403796 49.553678101918194 L 80.8280491719488 49.72472731821472 L 80.17551965406165 49.80862066679401 L 79.32811456930358 49.990389588754624 L 78.75784131034743 49.879930013092235 L 78.34711207065266 49.911623055901146 L 77.80720186035614 49.99551640448044 L 77.32304924842902 50.00903255509911 L 76.05939436971676 49.88878542211023 L 74.68974484840874 49.840313709602924 L 73.31291860667989 49.78857947795768 L 72.87513865088113 49.76760614081286 L 72.23696257406846 49.634775005542906 L 72.03435823135078 49.59795514700818 L 71.84169088630006 49.56113528844435 L 71.64295093156397 49.531772616435774 L 71.2647929622326 49.49728312870138 L 70.87559388426598 49.44881141616497 L 69.5870965111535 49.27776219986845 L 69.14434805652127 49.23301908062422 L 67.75040809635539 48.87041338504059 L 67.23865271301474 48.836856045614695 L 66.94385511346627 48.821941672533285 L 66.73628227191512 48.75529306780663 L 66.56183275603689 48.7352518789703 L 66.03075543267187 48.4775128691399 L 65.42625473707449 48.180157555791084 L 64.76047588873189 47.896784467215184 L 64.23657528590411 47.747174662246834 L 63.89871736289933 47.752301478001755 L 63.677343135583214 47.80823037706432 L 63.60778415144887 47.828271565871546 L 63.45928124082275 47.8189500826993 L 62.8774148178054 47.55655033126823 L 62.54838978173211 47.426981715107104 L 62.38884576247074 47.3775778542913 L 62.30824566970114 47.353341998008545 L 62.05650839372538 47.143608626531204 L 61.084890837431885 46.403948936465895 L 60.5102011350682 46.13315985017107 L 59.902940162224695 45.90524958650349 L 59.2200475956779 45.51514551555738 L 58.041961308568716 45.00059964420507 L 57.563329250901006 44.8696328055521 L 56.3913155735936 44.562489934876794 L 55.11772369709797 44.21852720566676 L 53.83474687836133 43.9029950001277 L 53.66195352876093 43.83867676620139 L 52.39167398493737 43.42992972891079 L 51.2163479749579 42.94567867787555 L 49.948828708264045 42.65531447689864 L 48.62058334425092 42.61989284082665 L 48.252362372586504 42.626417879073415 L 47.870340015157126 42.530872676492436 L 47.4369765027659 42.21720476759947 L 46.76954148826189 42.087636151438346 L 46.04027626547031 42.071323555894196 L 45.97182139218785 42.039630513085285 L 45.80620476324111 41.98230339155998 L 45.64555663324427 41.90912974861567 L 45.256357555277646 41.80892380446312 L 45.027254551881924 41.75159668290871 L 44.31951949093491 41.54559190472355 L 43.90658202953637 41.50224700794206 L 43.19222230336163 41.3614926119626 L 41.913661928032525 41.19929880468408 L 40.76262635702733 41.08930530320504 L 39.432172771310434 40.83249844168313 L 38.084053411730565 40.6544581130147 L 36.736486107693054 40.53281275756308 L 35.43142707180232 40.34451879738481 L 34.48630817607045 40.23871996332309 L 33.16192720003892 39.96093976465636 L 31.80276673194021 39.886833973403554 L 30.46568848111201 39.6957435682707 L 29.150140391895548 39.789890548359836 L 27.77386620559264 39.738622390897945 L 27.524889206746593 39.731631278496934 L 26.13923007796984 39.64400933665456 L 25.141665916424245 39.552192727365764 L 24.932436908595264 39.54799805991934 L 24.722103789797984 39.53541405763826 L 24.521155613358133 39.53401583514642 L 23.92603986011818 39.49439953165711 L 23.532424338627607 39.438470632594544 L 22.970431911177002 39.38393995602382 L 22.80039883882273 39.369957731250906 L 22.23951052222401 39.30796986812493 L 20.912921324488707 39.30144482990727 L 20.717493702308275 39.30796986812493 L 20.520409913850017 39.31775742545142 L 19.641537669696845 39.30890201643342 L 19.454390879021958 39.29771623661509 L 18.49326237582136 39.26136245223461 L 17.582922972156666 39.27068393540685 L 17.353267913335003 39.275344677007524 L 16.884572853450663 39.3126306096965 L 16.209409062867053 39.39512573581305 L 15.90909090905916 39.446859967458295" stroke-linejoin="bevel" stroke-miterlimit="10" stroke-width="3"/></g></g></g><g><g fill="#444444"><path fill="" stroke="none" d=""/><g transform="translate(10,22)"><path fill="none" stroke="none"/><text fill="" stroke="none" font-family="helvetica" font-size="10pt" font-style="normal" font-weight="bold" text-decoration="normal" x="0" y="0" text-anchor="start" dominant-baseline="text-after-edge">8.1791</text></g></g></g><g/></g></g></svg>