<svg version="1.1" xmlns="http://www.w3.org/2000/svg" xmlns:xlink="http://www.w3.org/1999/xlink" width="150" height="160" style="width: 150px; height: 160px;"><defs><clipPath id="VxglXWbigtot"><path fill="none" stroke="none" d=" M 10 27 L 140 27 L 140 150 L 10 150 L 10 27 Z"/></clipPath></defs><g><g transform="scale(1,1) translate(0.5,0.5)"><rect fill="#FFFFFF" stroke="none" x="0" y="0" width="150" height="160"/><rect fill="#ffffff" stroke="none" x="0" y="0" width="150" height="160"/><rect fill="#FFFFFF" stroke="none" x="10" y="27" width="130" height="123"/><rect fill="#ffffff" stroke="none" x="10" y="27" width="130" height="123"/><g><rect fill="none" stroke="#FFFFFF" x="10" y="27" width="130" height="123" stroke-linejoin="bevel" stroke-miterlimit="10"/></g><g clip-path="url(#VxglXWbigtot)"><g><g/><g/><g><path fill="none" stroke="none"/><path fill="none" stroke="#3B518A" paint-order="fill stroke markers" d=" M NaN NaN" stroke-linejoin="bevel" stroke-miterlimit="10" stroke-width="3"/><path fill="none" stroke="none"/><path fill="none" stroke="#3B518A" paint-order="fill stroke markers" d=" M NaN NaN" stroke-linejoin="bevel" stroke-miterlimit="10" stroke-width="3"/><path fill="none" stroke="none"/><path fill="none" stroke="#3B518A" paint-order="fill stroke markers" d=" M NaN NaN" stroke-linejoin="bevel" stroke-miterlimit="10" stroke-width="3"/><path fill="none" stroke="none"/><path fill="none" stroke="#3B518A" paint-order="fill stroke markers" d=" M NaN NaN" stroke-linejoin="bevel" stroke-miterlimit="10" stroke-width="3"/><path fill="none" stroke="none"/><path fill="none" stroke="#3B518A" paint-order="fill stroke markers" d=" M NaN NaN" stroke-linejoin="bevel" stroke-miterlimit="10" stroke-width="3"/><path fill="none" stroke="none"/><path fill="none" stroke="#3B518A" paint-order="fill stroke markers" d=" M NaN NaN" stroke-linejoin="bevel" stroke-miterlimit="10" stroke-width="3"/><path fill="none" stroke="none"/><path fill="none" stroke="#3B518A" paint-order="fill stroke markers" d=" M NaN NaN" stroke-linejoin="bevel" stroke-miterlimit="10" stroke-width="3"/><path fill="none" stroke="none"/><path fill="none" stroke="#3B518A" paint-order="fill stroke markers" d=" M NaN NaN" stroke-linejoin="bevel" stroke-miterlimit="10" stroke-width="3"/><path fill="none" stroke="none"/><path fill="none" stroke="#3B518A" paint-order="fill stroke markers" d=" M NaN NaN" stroke-linejoin="bevel" stroke-miterlimit="10" stroke-width="3"/><path fill="none" stroke="none"/><path fill="none" stroke="#3B518A" paint-order="fill stroke markers" d=" M NaN NaN" stroke-linejoin="bevel" stroke-miterlimit="10" stroke-width="3"/><path fill="none" stroke="none"/><path fill="none" stroke="#3B518A" paint-order="fill stroke markers" d=" M NaN NaN" stroke-linejoin="bevel" stroke-miterlimit="10" stroke-width="3"/><path fill="none" stroke="none"/><path fill="none" stroke="#3B518A" paint-order="fill stroke markers" d=" M NaN NaN" stroke-linejoin="bevel" stroke-miterlimit="10" stroke-width="3"/><path fill="none" stroke="none"/><path fill="none" stroke="#3B518A" paint-order="fill stroke markers" d=" M NaN NaN" stroke-linejoin="bevel" stroke-miterlimit="10" stroke-width="3"/><path fill="none" stroke="none"/><path fill="none" stroke="#3B518A" paint-order="fill stroke markers" d=" M NaN NaN" stroke-linejoin="bevel" stroke-miterlimit="10" stroke-width="3"/><path fill="none" stroke="none"/><path fill="none" stroke="#3B518A" paint-order="fill stroke markers" d=" M NaN NaN" stroke-linejoin="bevel" stroke-miterlimit="10" stroke-width="3"/><path fill="none" stroke="none"/><path fill="none" stroke="#3B518A" paint-order="fill stroke markers" d=" M NaN NaN" stroke-linejoin="bevel" stroke-miterlimit="10" stroke-width="3"/><path fill="none" stroke="none"/><path fill="none" stroke="#3B518A" paint-order="fill stroke markers" d=" M NaN NaN L 30.97118433751166 46.0408972625155 L 32.33857456082478 46.352921615645755 L 33.66600502177607 46.65213558473624 L 34.904757653945126 47.024551748123486 L 36.28802230337169 47.39513785671443 L 37.5683768800227 47.64768542692764 L 38.97244250157382 48.10428411379689 L 39.416379039292224 48.138140128634404 L 40.83358211698942 48.376962287467904 L 41.40725103369914 48.603889089717995 L 42.79325265309308 49.02663176169153 L 44.21921403484885 49.3002249628189 L 45.47712545725517 49.91603842220502 L 46.716972877504304 50.56113275932148 L 46.97424805967603 50.81551038444741 L 48.22723293595482 51.3013899489888 L 48.988110602251254 51.4679249409819 L 49.53003066673409 51.69210666092113 L 49.68603795801755 51.74334819696378 L 49.83219215727877 51.841256131767295 L 51.18535013636574 52.18896655464778 L 51.31617730355356 52.192626664356794 L 52.62171200430021 52.88347237283597 L 53.88400257867761 53.5532724505174 L 54.957442221581005 54.236797939636745 L 56.140908059314825 55.0685578721459 L 57.394987723673694 55.86463173490483 L 58.65727829816751 56.68083620117977 L 59.137342840083875 56.92331846972229 L 59.771225097356364 57.55468739540083 L 60.61202228826005 58.31965032563312 L 60.745586425298825 58.45964952214854 L 60.81838982796762 58.47154487873195 L 61.21634526923299 58.906182907288894 L 61.26123157760594 58.9702348272549 L 61.64550216880161 59.38474225241225 L 62.282668790081516 59.92277838033624 L 62.51257427199744 60.00970598607091 L 62.87768607295584 60.2265674865921 L 63.67140737955924 60.5898333757068 L 64.30310006078798 60.88355718029197 L 65.36668661155272 62.119759236171376 L 65.84346678946167 62.60746885556728 L 67.00941601907834 63.55543727154145 L 68.40527073061094 64.09164334461093 L 68.86891345237382 64.24994308972964 L 69.15410572884139 64.3332105857553 L 69.41028612293303 64.40641278005205 L 69.68069876113441 64.41098791715922 L 70.07044329238124 64.6241893080296 L 70.17663772928063 64.72575735260034 L 70.28556913614739 64.80993987602415 L 70.61455293279141 65.02314126683632 L 70.85431150684599 65.0917683239677 L 71.76517513033468 65.34523092169547 L 71.96661612403113 65.40836781426333 L 72.5775078330189 65.51451099594124 L 73.19715784618165 65.65634024736937 L 73.68269632814918 65.73960774333682 L 74.01386970095336 65.82653534907149 L 75.25043275707867 66.19803648506058 L 75.83012300787959 66.2236572530237 L 76.7152591132326 66.036991657631 L 78.10728206671774 65.52366127021378 L 79.49602065619547 65.47058967937483 L 79.78504469059408 65.37542682682397 L 80.06968957290519 65.35163611365715 L 80.57438684510998 65.30954485194525 L 81.50824101676699 65.07529783027712 L 82.76396286312956 64.94444890797604 L 83.57957992993761 64.60314367717365 L 84.13135308644269 64.43477863032604 L 85.04002713400405 64.29020429658704 L 86.39209032512736 63.67439083720092 L 87.6335799273802 62.75295821670443 L 87.779734126525 62.68433115957305 L 87.92479353782255 62.58276311500231 L 88.05671549285762 62.47844998817891 L 88.3178224330768 62.13897481217282 L 88.56196015898604 61.9788450121996 L 89.30915297521278 61.32734548312146 L 90.4362372305477 60.22748251404846 L 90.9639250509208 59.782779183762614 L 92.02751160168555 59.072717899282 L 93.26188508188352 58.04514209704939 L 94.52253347425722 57.190506478829775 L 95.73993774026167 56.18672138976399 L 96.85826369153801 55.17744613613468 L 97.00606007280294 55.088688475545496 L 97.88626963202842 54.646730227570515 L 99.14637063047849 53.67222601623507 L 100.32928907417227 52.50648107234156 L 101.34579974063672 51.10557407926535 L 102.24297851405572 49.5591777251102 L 103.00823533232324 48.55539263604442 L 103.06352212675847 48.47212514001876 L 103.17300092766527 48.62218963832129 L 104.00941896659788 47.95421961549437 L 104.65698607394006 47.42624878924107 L 105.04016187705565 47.126119792694226 L 105.3357546395855 46.84703642700333 L 105.70634038059507 46.47736534586875 L 106.10265363985673 46.1552756910678 L 106.23567038297188 46.002466110512614 L 106.29862069350202 45.93017894367222 L 106.37032930809073 45.865211996249855 L 107.5105510194553 44.740643286611885 L 108.56537926616147 43.53097702609375 L 109.32680432649795 42.60862937819911 L 109.45270494755823 42.4402643313515 L 109.5890060546808 42.26640911994036 L 109.8369755387539 41.924188861681614 L 110.06797580863349 41.58837379538454 L 110.18238115555141 41.41543361142976 L 110.29404953250196 41.24615353712579 L 110.52778677234892 40.844456496008206 L 110.89180378546007 40.289034846937284 L 111.85302765737288 38.95858496584697 L 112.24113000649959 38.38486276817275 L 113.24121885281056 37.118464807164855 L 114.3945780203212 35.99206604267238 L 115.05364040180575 35.302135361591354 L 115.12206465238705 35.27651459357003 L 115.6672690808773 34.93612439016579 L 116.14514404674992 34.656125997018535 L 116.26009678770788 34.5444926507771 L 117.09760961460415 33.688026977702975 L 117.48625935788732 33.43547940743156 L 117.9329328655731 33.180186754849274 L 118.46773680800106 32.84437168861041 L 118.96039141202345 32.746463753748685 L 119.24613108241465 32.82424108515261 L 120.11703494354151 32.96790039143525 L 120.87462824583054 33.40711355715757 L 122.01977650332265 34.36240219249157 L 122.30606356763747 34.61311970790848 L 122.44893340289127 34.71834786218824 L 122.590708450065 34.86475225072354 L 122.72372519306373 35.03494735242566 L 123.14795554662123 35.44396461296128 L 123.42329473083373 35.73585836269194 L 123.99367928353604 36.29402509407373 L 124.13873869483359 36.45232483919244 L 124.28215592401102 36.596899172873236 L 124.42995230515953 36.72500301286345 L 124.99376812984701 37.21820279688109 L 125.50010758405551 37.700422251655255 L 126.48486939817667 38.776494507619645 L 126.62445486930665 38.96682021272136 L 127.51780188467819 40.526026950916275 L 128.18179081217386 42.03307712567039 L 128.57700928347185 43.33790623868117 L 128.90708786819596 45.274104277428705 L 129.03736764122732 47.34023621096276 L 129.0307989132125 47.521411641850136 L 129.02423018508125 49.077873297734186 L 129.026419761125 49.29747988056624 L 129.11509758990724 50.50531608617166 L 129.14137250208296 50.75420354673406 L 129.15450995822903 50.9701500198571 L 129.178595294361 51.34531126555521 L 129.19775408459827 51.60975419241004 L 129.20158584264573 51.71864245639881 L 129.21143893466797 51.83485093980562 L 129.22950293682516 53.82961073395563 L 129.23716645292006 54.32281051791506 L 129.27822100324556 54.88921249617124 L 129.458313630661 56.2306427063304 L 129.5114108491689 57.779784142796416 L 129.56122370355297 59.768138744926546 L 129.6165104979882 61.34198592195753 L 129.64442759228405 63.37151675840141 L 129.6909560826607 65.46784459706396 L 130.1485774704488 66.81842508155387 L 130.67079135077074 67.29881448153174 L 130.81147160986438 67.4141079375404 L 131.37692961655557 67.87528176151682 L 131.52527339174412 67.97135964146582 L 132.10770061262883 68.44168373971479 L 132.40767252701335 68.7244272151147 L 133.57909569668118 69.68429098767228 L 134.09090909094084 70.32847029733239 L 134.0109895663336 73.26479331537848 L 133.51121884013992 75.18543588783359 L 133.69404843763914 76.24229256773833 L 133.82925475679804 76.57078741455916 L 133.8560770630138 76.94228855054826 L 133.7296290480299 77.69444109679898 L 133.701164559694 78.59391305898316 L 133.67488964751828 79.06972732179565 L 133.64861473534256 81.03886634798255 L 133.42473058751784 82.98238460608991 L 133.34919021488167 83.86904618435074 L 133.1274956429843 85.63779420364881 L 132.83518724457826 87.46967911551474 L 132.5894073365489 88.78823363996344 L 132.54014187620487 88.99868994852295 L 132.3917981008999 89.67306516331155 L 132.2456439017551 90.32822480215691 L 132.02942326990888 91.14442926837364 L 131.50447241961956 93.12271856877487 L 131.09173734020442 94.75329744641203 L 131.0594410939375 94.87499609438237 L 130.99484860140365 95.09368764981627 L 130.78957584965974 95.90074184176046 L 130.52792151551694 96.96674879593775 L 130.49781484529376 97.0820422519464 L 130.44252805085853 97.310799109051 L 130.4178953206865 97.4233474827488 L 129.92743029259145 99.37693104264326 L 129.44243920454755 101.31312908133259 L 129.01656666910276 102.95011315093143 L 128.57919885939918 104.84971009253059 L 128.0712172233034 106.79963354265783 L 127.79095149296336 107.81165387859801 L 127.24793664051685 109.68654507957399 L 126.77553561457898 111.39764637092594 L 126.2314259740524 113.33384440961527 L 125.80774301453494 114.57919673982542 L 125.7267287018476 114.78599293867592 L 125.58933280676138 115.17030445864657 L 125.45741085172631 115.56193619803526 L 125.3873444191413 115.75317693059333 L 125.25323288794607 116.14846877969103 L 125.15908111922909 116.52546008024365 L 125.05069710628595 116.90519646310713 L 124.77645271003712 117.59878725389717 L 124.06429311016109 119.34374456002843 L 123.92853939707857 119.70243531203596 L 123.26838222763035 121.50686940102605 L 122.61588857416064 123.43757727515185 L 122.46426043496467 123.85574481001822 L 121.94587831269018 125.28227257105755 L 121.3623563038418 126.65023857663618 L 120.96330607461277 127.94500238797627 L 120.61352130572777 128.87284020049265 L 120.46025098441169 129.26172685762867 L 119.97088074439671 130.69740489294054 L 119.26036332652438 132.61530238308478 L 118.69381053186953 134.39045559440274 L 118.3100873347139 136.40077085478697 L 118.10207761300262 137.10351191990776 L 117.96687129384372 137.5701759084477 L 117.76926205819473 138.57945116207702 L 117.37404358689673 140.6007467516465 L 117.18136089737527 141.55512035958236 L 117.01385833194945 142.2688417538302 L 116.74070872366428 143.1921044291812 L 116.38928177277558 144.40909090905916 L 116.9476236574119 142.89655056974152 L 117.3127354583703 140.84231399279088 L 117.55577839643229 138.68376428890042 L 117.60230688680895 138.47605306265177 L 118.20662986778188 136.49959381710505 L 118.42285049962811 135.20483000576496 L 118.71515889803413 134.23947606870206 L 119.34028285113163 132.41765645850683 L 119.99715565657243 130.68459450895898 L 120.5576871172525 129.48865365987876 L 121.23043434880674 127.6796444337233 L 121.5736503895605 126.85703477548668 L 121.66397040034644 126.55416069668718 L 121.82271466171369 126.09024179039989 L 122.06849456974305 125.4680231390521 L 122.30989532568492 124.85678481677314 L 122.48341922508553 124.41940170596354 L 122.56717050785664 124.20437026023865 L 122.60986724018585 124.11195248999866 L 122.64654263842385 124.02136477455497 L 122.74890531727578 123.70476528431755 L 123.41782079078257 121.77954757469706 L 123.65484239475336 121.18203466391424 L 123.73421452543698 120.98072862962727 L 123.81249186804052 120.7894878970692 L 124.03035468189046 120.23498127539642 L 124.34127447649371 119.31080357264727 L 124.4157200610498 119.12779808690539 L 124.67627960722893 118.43054718640633 L 124.73156640166417 118.25303186528618 L 125.25761204003356 116.34245459455997 L 125.90079999528825 114.57004646555288 L 126.39290720538702 112.9156768748071 L 126.52975570654962 112.3858759936993 L 126.59653777512722 112.19738034339389 L 126.85873950319365 111.48548900405876 L 126.89979405363556 111.36379035603022 L 127.07331795303617 110.76261733553838 L 127.49919048848096 109.51543495047372 L 127.96228581632022 107.65792927058646 L 128.2540468208026 106.50407968327636 L 128.73356396867894 104.51114994398085 L 128.79158773319796 104.29886358056683 L 128.8468745276332 104.09206738171633 L 128.88738168403506 103.89899659430375 L 129.40576380630955 102.03966085956199 L 129.81302494567353 100.14921419229358 L 130.34235494805034 98.27340796386125 L 130.37793555832468 98.14896423358005 L 130.72443596320227 96.84413512051105 L 130.7660379075678 96.69132553995587 L 130.9592679911293 95.8559054977377 L 131.45575435319915 93.84742029220797 L 131.55702224408742 93.42467762023443 L 131.61340382648632 93.22520164080197 L 131.75517887366004 92.6404991140007 L 131.93308192514814 91.8416801688727 L 132.30093069619033 90.44992345012724 L 132.4388739853166 89.88718158158008 L 132.6134926727973 89.18993068108102 L 132.69231740944088 88.83581506623887 L 133.00214241596404 86.81909461383475 L 133.12968521902803 86.25635274528759 L 133.28186075226404 85.57648736593546 L 133.2993773603812 85.45661877276143 L 133.34590585075784 85.08328758197604 L 133.48987047397532 84.18015551002463 L 133.55282078450546 83.68329561635619 L 133.5686952106189 83.56617210549302 L 133.57581133267377 83.44904859462986 L 133.58183266676497 83.32551989180502 L 133.69569061964285 81.96212902333355 L 133.81009596667718 80.19795614114264 L 133.84567657695152 78.98920490813907 L 133.8500557289226 78.75312783155823 L 133.8484135469189 78.51430567272473 L 133.84786615299527 76.75013279053383 L 133.54406248044688 74.77001343527809 L 133.3787494910648 72.73682248912519 L 133.6491621292662 70.83722554758424 L 133.67543704155833 70.75670313386945 L 133.67379485955462 70.58833808702184 L 133.70444892381784 70.28363395330962 L 133.6902166797081 70.2076866767602 L 133.52490369032603 70.08415797387715 L 133.43075192149263 69.89017215906642 L 133.26215456810314 69.66324535681633 L 132.85872518678661 69.42899833509 L 132.58995473058894 68.13697960606078 L 132.39727204095107 67.94482384604635 L 131.99876920564566 67.86704651464242 L 131.34463337028865 67.40404263581149 L 130.62097849627025 67.0846980632632 L 130.11299686017446 66.38561710790964 L 129.59735170786735 64.67543084401404 L 129.573813765659 63.88576217321679 L 129.56067630951293 61.85623133677291 L 129.54097012535203 60.92290335969301 L 129.52345351723488 60.69140142027754 L 129.48294636094943 60.23846284317551 L 129.42984914244153 59.815720171201974 L 129.42382780846674 59.589708396350034 L 129.3991950781783 59.13768484670436 L 129.3805836820975 58.90252279757988 L 129.34445567778312 58.66095555643551 L 129.3154437955236 58.42304842505837 L 129.29519021732267 58.18514129362302 L 129.17585832439363 56.23430281603942 L 129.06309515947942 54.24686324130744 L 129.10414970980491 52.465304838027805 L 129.0307989132125 50.49891089415178 L 128.99029175681062 49.684536482789554 L 128.92953102232423 48.547157389170025 L 128.94650023651775 47.978925356059335 L 128.94923720648512 47.604679137817584 L 128.95361635857262 47.48298048984725 L 128.95471114653628 47.37226217100397 L 128.83702143561095 45.31711056653876 L 128.81895743345376 45.08469359972514 L 128.5868623754941 43.094508942740504 L 128.01921479287557 41.23517320799874 L 127.62125935149379 40.2926949566463 L 127.52984455274418 40.12066980008967 L 127.36015241139103 39.777534514374565 L 127.08645540918224 39.28250467556063 L 126.90745756961405 38.96499015786685 L 126.72517536615487 38.65022072248394 L 126.6239074752666 38.52486196474638 L 126.44217266584747 38.29519008018542 L 126.37867496127728 38.22473296819953 L 126.32667253084946 38.14878569165012 L 126.2921867085388 38.06002803106094 L 126.18927663576324 37.91087856021477 L 125.84770277689677 37.54486758884741 L 125.6840319695184 37.29598012828501 L 125.41307193727698 37.052582832286134 L 124.24274355568923 36.11559474549722 L 123.61926178447902 35.62330998899415 L 123.2234959192574 35.21429272840032 L 122.77080107748043 34.64697572274599 L 122.03510353539605 33.92501908168197 L 121.532595839235 33.505936519417446 L 121.46800334670115 33.45927012054017 L 121.40122127823997 33.40162339253584 L 120.20242840831634 32.64855581888696 L 118.84379648906179 32.59090909088263 L 117.56398930645082 33.234173373144586 L 117.31164067040663 33.45927012054017 L 117.05819724628236 33.688942005101126 L 116.81022776232567 33.90763356053503 L 116.57758531032596 34.13730544509599 L 116.46810650941916 34.245278681628406 L 115.3859085625736 35.232593277003616 L 114.37487183616031 36.219907872378826 L 113.2811786151724 37.38382276141783 L 112.2548148566857 38.710612532740925 L 111.28702225664165 40.09962416923372 L 110.13147351308726 41.1958270285395 L 109.7214754037559 41.84092136565596 L 108.72740789153613 43.13568517699605 L 108.22654237737879 43.66091092093848 L 107.56529041996691 44.23188803636003 L 107.34195366606582 44.4633899757755 L 107.2215269850567 44.57227823976427 L 106.89473276445642 44.86234193458222 L 106.62760449014604 45.081948517414276 L 106.57122290774714 45.147830492293 L 106.51648350723553 45.208222302549984 L 106.28055669134483 45.444299379130825 L 106.02601847925689 45.68769667507149 L 105.97127907874528 45.77096417109715 L 105.9198240423575 45.86063685908448 L 105.67842328641564 46.1232497310848 L 105.54102739121299 46.21475247392664 L 105.47369792871177 46.26690903736744 L 105.40144192008302 46.31357543618651 L 104.2759998467518 47.411608350405004 L 103.94920562603511 47.72546275838977 L 103.12811461929232 48.57735329429852 L 102.16251159529202 49.91512339480687 L 102.04701146041043 50.070678057614714 L 101.58555831457488 50.67642621533014 L 101.54286158224568 50.784399451862555 L 101.49688048579264 50.887797551287804 L 100.9790457575582 51.55119243694935 L 100.47161151538603 52.261253721488174 L 99.87495205039158 52.93379888142226 L 98.7588156752754 54.11418426421005 L 97.5288213470485 54.86908189271344 L 96.29006871487945 55.68894646863919 L 95.15203657944221 56.646065158885904 L 93.98335037974175 57.532726737088524 L 93.57171008840669 57.8685418033856 L 92.2716493277112 58.89886268787086 L 91.66021022456698 59.39938269124832 L 91.3668070381973 59.668400755210314 L 91.2239372030599 59.7992496775114 L 90.94367147271987 60.01062101346906 L 89.77389048505574 61.00251074600965 L 89.63430501392577 61.121464311669115 L 89.49417214875575 61.24407798709581 L 89.34801794949453 61.37584193679504 L 89.19584241625853 61.5112659962615 L 89.0464038529899 61.66865071392385 L 88.89203874371015 61.81047996535199 L 87.7020041779615 62.642239897861145 L 86.74461206397973 63.1711257515708 L 86.44464014959522 63.33217057894217 L 86.14849999314174 63.50053562578978 L 85.87644517282024 63.64968509663595 L 84.99951997760218 64.04680700064637 L 84.7761832238175 64.16576056630583 L 83.43561530672014 64.61229395144619 L 83.27030231733806 64.69098631030647 L 82.00691695488058 65.28392408398213 L 81.93794531037565 65.35346616851166 L 81.62976248573978 65.5291514347773 L 80.24814001843333 65.78901922452496 L 78.91633040539455 65.69294134451775 L 78.59063097275794 65.56758258678019 L 78.41710707324091 65.54013176396256 L 78.32897663849872 65.54104679136071 L 78.23646705178544 65.54653695592424 L 77.2763379678363 65.74967304506572 L 75.92920132272411 65.72222222218988 L 75.32816270575859 65.72771238681162 L 74.47368066466879 65.62431428738637 L 73.62193559366278 65.44405388395535 L 72.5424746167846 64.9673245936865 L 71.22982379386667 64.82641036971472 L 70.51930637611076 64.49151033087401 L 69.21650864533149 64.42105321888812 L 67.96790292102378 63.90589277661638 L 66.93770740448963 63.29465445439564 L 66.29999338916969 62.68616121442756 L 65.98962098860648 62.504985783598386 L 65.91024885803927 62.43544369901065 L 64.73335174832027 61.49754058482358 L 63.72833635599818 60.755453340301756 L 63.01125021011103 60.267743720905855 L 61.82997394830454 59.403957828413695 L 60.739017697284 58.23912791191833 L 59.77231988532003 57.54919723083731 L 58.589401441509835 56.553647388587706 L 57.33367959514726 55.76489374524681 L 56.05770417070016 55.09692372241989 L 54.852342572645284 54.36947691673413 L 54.485588589683175 54.09679874306312 L 53.28186917374842 53.36935193737736 L 52.03271605540067 52.81210023345193 L 50.75674063083716 52.122169552370906 L 49.44573199003935 51.74151814210927 L 48.17085135355592 51.317860442679375 L 46.866411440772936 50.58675352734281 L 45.78421349381097 50.07342313992558 L 45.39775332668796 49.89224770909641 L 45.10380274616182 49.77878430794226 L 44.037479225429706 49.48323044856079 L 43.16657536418643 49.14101019030204 L 42.93229073029943 48.98362547258148 L 42.87755132978782 48.943364265724085 L 42.370117087615654 48.78689457545988 L 42.01540577271953 48.79512982227607 L 40.85985702916514 48.61669947375776 L 39.53790050826501 48.09879394923337 L 38.23893453553319 47.79042970581213 L 36.91205146862194 47.48481054470176 L 35.89444601419382 47.08951869554585 L 34.5757738573011 46.79487986356253 L 33.23246897023637 46.34834647848038 L 33.14543332345784 46.33462106704246 L 31.991526761907153 46.17906640417641 L 30.66573848295957 46.03266201564111 L 29.716009885189123 45.98691064422019 L 28.644212424289435 45.74534340307582 L 28.07984920567833 45.71331744309282 L 26.74366044055205 45.81671554251807 L 25.429914829786867 45.84782647510292 L 24.459385259775445 45.64194530365057 L 23.145639648893848 45.591618795122486 L 21.84503149415832 45.69776197680039 L 20.552634249441326 45.752663622493856 L 19.283774947049096 45.72704285453074 L 17.931711755809374 45.72612782707438 L 16.609755234909244 45.708742305927444 L 15.909090909175575 45.650180550524965" stroke-linejoin="bevel" stroke-miterlimit="10" stroke-width="3"/></g></g></g><g><g fill="#444444"><path fill="" stroke="none" d=""/><g transform="translate(10,22)"><path fill="none" stroke="none"/><text fill="" stroke="none" font-family="helvetica" font-size="10pt" font-style="normal" font-weight="bold" text-decoration="normal" x="0" y="0" text-anchor="start" dominant-baseline="text-after-edge">6.13234</text></g></g></g><g/></g></g></svg>