<svg version="1.1" xmlns="http://www.w3.org/2000/svg" xmlns:xlink="http://www.w3.org/1999/xlink" width="150" height="160" style="width: 150px; height: 160px;"><defs><clipPath id="GDUfPeflFici"><path fill="none" stroke="none" d=" M 10 27 L 140 27 L 140 150 L 10 150 L 10 27 Z"/></clipPath></defs><g><g transform="scale(1,1) translate(0.5,0.5)"><rect fill="#FFFFFF" stroke="none" x="0" y="0" width="150" height="160"/><rect fill="#ffffff" stroke="none" x="0" y="0" width="150" height="160"/><rect fill="#FFFFFF" stroke="none" x="10" y="27" width="130" height="123"/><rect fill="#ffffff" stroke="none" x="10" y="27" width="130" height="123"/><g><rect fill="none" stroke="#FFFFFF" x="10" y="27" width="130" height="123" stroke-linejoin="bevel" stroke-miterlimit="10"/></g><g clip-path="url(#GDUfPeflFici)"><g><g/><g/><g><path fill="none" stroke="none"/><path fill="none" stroke="#3B518A" paint-order="fill stroke markers" d=" M NaN NaN" stroke-linejoin="bevel" stroke-miterlimit="10" stroke-width="3"/><path fill="none" stroke="none"/><path fill="none" stroke="#3B518A" paint-order="fill stroke markers" d=" M NaN NaN" stroke-linejoin="bevel" stroke-miterlimit="10" stroke-width="3"/><path fill="none" stroke="none"/><path fill="none" stroke="#3B518A" paint-order="fill stroke markers" d=" M NaN NaN" stroke-linejoin="bevel" stroke-miterlimit="10" stroke-width="3"/><path fill="none" stroke="none"/><path fill="none" stroke="#3B518A" paint-order="fill stroke markers" d=" M NaN NaN" stroke-linejoin="bevel" stroke-miterlimit="10" stroke-width="3"/><path fill="none" stroke="none"/><path fill="none" stroke="#3B518A" paint-order="fill stroke markers" d=" M NaN NaN" stroke-linejoin="bevel" stroke-miterlimit="10" stroke-width="3"/><path fill="none" stroke="none"/><path fill="none" stroke="#3B518A" paint-order="fill stroke markers" d=" M NaN NaN" stroke-linejoin="bevel" stroke-miterlimit="10" stroke-width="3"/><path fill="none" stroke="none"/><path fill="none" stroke="#3B518A" paint-order="fill stroke markers" d=" M NaN NaN" stroke-linejoin="bevel" stroke-miterlimit="10" stroke-width="3"/><path fill="none" stroke="none"/><path fill="none" stroke="#3B518A" paint-order="fill stroke markers" d=" M NaN NaN" stroke-linejoin="bevel" stroke-miterlimit="10" stroke-width="3"/><path fill="none" stroke="none"/><path fill="none" stroke="#3B518A" paint-order="fill stroke markers" d=" M NaN NaN" stroke-linejoin="bevel" stroke-miterlimit="10" stroke-width="3"/><path fill="none" stroke="none"/><path fill="none" stroke="#3B518A" paint-order="fill stroke markers" d=" M NaN NaN" stroke-linejoin="bevel" stroke-miterlimit="10" stroke-width="3"/><path fill="none" stroke="none"/><path fill="none" stroke="#3B518A" paint-order="fill stroke markers" d=" M NaN NaN" stroke-linejoin="bevel" stroke-miterlimit="10" stroke-width="3"/><path fill="none" stroke="none"/><path fill="none" stroke="#3B518A" paint-order="fill stroke markers" d=" M NaN NaN" stroke-linejoin="bevel" stroke-miterlimit="10" stroke-width="3"/><path fill="none" stroke="none"/><path fill="none" stroke="#3B518A" paint-order="fill stroke markers" d=" M NaN NaN" stroke-linejoin="bevel" stroke-miterlimit="10" stroke-width="3"/><path fill="none" stroke="none"/><path fill="none" stroke="#3B518A" paint-order="fill stroke markers" d=" M NaN NaN L 32.06662463652901 46.69120601005852 L 33.15330695814919 46.930210560618434 L 33.77042189403437 47.04874127270887 L 34.116673991666175 47.111892881570384 L 34.28899229830131 47.14686915726634 L 34.612089123460464 47.216821708658244 L 35.96748030465096 47.45874094881583 L 37.075163919944316 47.65985453402391 L 38.36593573610298 47.98629977385281 L 39.68201680353377 48.29137062293012 L 40.97494259860832 48.79172567790374 L 41.89738403423689 49.062791814503726 L 43.13861433719285 49.692364776914474 L 44.52308423258364 50.07807537273038 L 45.935017358278856 50.46281440532766 L 47.231174121494405 50.789259645098355 L 48.428247858420946 51.515988928906154 L 49.64363041543402 52.421485843951814 L 50.94194115744904 53.184162966674194 L 52.192864365293644 53.249257701972965 L 53.58541168132797 53.733096182346344 L 54.86325962445699 54.62790590210352 L 55.34790486213751 54.93783456721576 L 56.68283324444201 55.67913729924476 L 57.010776521870866 55.9191134130233 L 58.32039565278683 56.76243028242607 L 59.40977044799365 57.530936784402 L 60.34028930426575 58.17216850537807 L 60.93317197833676 58.576338802231476 L 62.15501647174824 59.681006176106166 L 63.360706123989075 60.91780614701565 L 64.50393039011396 62.02344508416718 L 65.71069703169633 63.08439211337827 L 67.0100847632857 63.97823026991682 L 68.2626234551426 65.00031477067387 L 69.48231396975461 65.82711506541818 L 70.74777653464116 66.69957883126335 L 72.03262490907218 66.38867860293249 L 73.37886168027762 66.85017112939386 L 74.65347865514923 67.31943616154604 L 75.97386768029537 67.60604730958585 L 76.60282949975226 67.58564448211109 L 77.2619470229838 67.79355900979135 L 78.20000480511226 67.52637912606588 L 79.61570739361923 67.40007590828463 L 80.99209986848291 67.46322751714615 L 82.13478563982062 67.31749303510878 L 83.0793053584639 66.90652179578319 L 83.43363487662282 66.91040804859949 L 83.78634891065303 66.84919956617523 L 85.15466396487318 66.41782549931668 L 86.47720696881879 65.9009538696846 L 87.65704887511674 65.25194964295952 L 88.85519960138481 64.31730583147146 L 89.99950085685123 63.54685620305827 L 90.44645146490075 63.177662181900814 L 90.68338913668413 62.79292314930353 L 91.08887565205805 62.22747335897293 L 91.4512825908605 61.904914372076746 L 92.09209129400551 61.58332694839919 L 92.8529843169963 60.91100520454347 L 93.70757541933563 60.034655185882 L 94.27730282093398 59.33415810886072 L 94.41892692924011 59.17093548894627 L 95.60738475085236 57.93802177091129 L 95.87178565270733 57.72816411673557 L 96.25734786386602 57.443496095133014 L 96.7629943951033 57.05875706259394 L 97.87713994691148 56.27470554917818 L 98.34509184863418 56.07844978000503 L 98.76565621595364 55.82001396518899 L 100.0068865189096 54.75615224632202 L 100.54861219564918 54.1129773989087 L 101.55882826866582 52.83537177299149 L 102.07362921000458 52.136817822407465 L 102.33856860653032 51.93959049001569 L 103.2400087484857 50.614378266676795 L 103.89051035628654 49.78660640865564 L 104.29922784003429 49.25807602045825 L 104.54693540593144 48.956891424255446 L 105.44514457962941 48.001844785234425 L 106.64060283242725 46.78544764179969 L 107.01270267600194 46.36184608069016 L 107.1435568901943 46.187936265429016 L 107.86621678888332 45.221230867900886 L 108.48548570368439 44.447866549831815 L 108.61095497070346 44.332250527397264 L 109.3196140070213 43.510308048687875 L 110.42352815938648 42.085996377514675 L 110.6561578734545 41.76829520671163 L 110.77354971994646 41.624503851053305 L 111.23773215862457 40.926921463687904 L 111.3637399203144 40.74912539561046 L 111.67768233537208 40.22642438666662 L 112.71320765977725 38.82445866946364 L 112.9986098553054 38.46400871715741 L 113.24900989467278 38.150193799170665 L 114.30984447035007 36.968772931431886 L 114.88711079780478 36.23912895802641 L 115.68408296629786 35.52114374312805 L 116.24573294725269 34.96540958498372 L 116.60006246541161 34.47768485173583 L 117.02224231685977 34.01327763561858 L 117.27641181927174 33.72860961401602 L 117.61189402267337 33.401192811026704 L 118.7901204447262 32.601596286229324 L 119.25537987286225 32.59090909088263 L 119.88488018710632 32.62782849301584 L 120.2279013163643 32.681264469749294 L 120.719546985114 32.94455810065847 L 120.87517195590772 33.06406037590932 L 121.09864725987427 33.24185644398676 L 121.93654502625577 34.0948889455758 L 123.0329202527646 34.8769973324961 L 123.35924804606475 35.17818192875711 L 124.44593036768492 36.40720939397579 L 125.58215420262422 37.43998109002132 L 126.62091049517039 38.72730234806659 L 127.49596439639572 40.24974190379726 L 127.77167368715163 40.85599734907737 L 128.41517486376688 42.70876839745324 L 128.79050567559898 44.51490441156784 L 129.01505796902347 46.4259692527703 L 129.04413668322377 47.9969869691995 L 129.08937023882754 50.27238801546628 L 129.21807047410402 51.4848989060265 L 129.26276553492062 51.959993317490444 L 129.3214614581084 52.44577492430108 L 129.34084726765286 52.70226761273807 L 129.35969458241016 52.93738591042347 L 129.37369544489775 53.17833358736243 L 129.37369544489775 53.65828581491951 L 129.36992598185316 53.91672162973555 L 129.3710029713111 54.16641337564215 L 129.3984662013827 55.9084262176184 L 129.403851148556 56.1396582624875 L 129.40438964322675 56.38740688195685 L 129.38931179139763 56.6497289496474 L 129.36615651892498 57.90304549521534 L 129.39254275965504 58.15759505715687 L 129.39631222258322 58.41894556162879 L 129.49054879660252 60.691431918297894 L 129.53308987850323 61.1325216172263 L 129.62355698959436 63.02609832060989 L 129.64078882022295 63.56142965127947 L 129.6881763546262 64.37559962429805 L 129.6741754921386 64.86429592076456 L 129.67040602921043 65.13244736770866 L 129.68171441811137 65.39574099861784 L 129.7000232381979 65.92232826037798 L 129.85134025127627 67.71389082627138 L 130.32467709993944 68.95846330292989 L 130.9078668692382 69.77263327594846 L 131.70214656426106 70.70533396099927 L 131.90569756401237 71.10076018894324 L 132.13509630982298 71.54767926718341 L 132.2853363334434 71.88772639195668 L 132.49373378569726 73.34312808595132 L 132.8082146954257 73.8745731638046 L 132.6832839230774 75.31637297279667 L 132.69243833306246 76.31028214032995 L 132.9762250444619 76.58523452980444 L 133.2912444488611 77.48101581278024 L 133.38601951755118 78.08921438449761 L 133.81843076844234 79.95850200747373 L 133.90243594301865 80.55504182062577 L 133.72742516279686 82.87707790115383 L 133.65526687179226 84.50930410006549 L 133.64503547234926 84.72596269665519 L 133.57556965493131 85.79565379489213 L 133.55241438245866 86.21828379278304 L 133.49587243807036 86.87311739876168 L 133.45871630322654 87.08783286897233 L 133.4317915678257 87.30254833918298 L 133.4010973693803 87.52503631508444 L 133.3704031710513 87.74946741748136 L 133.344555424992 87.97972789907362 L 133.29447541711852 88.44024886231637 L 133.26647369225975 88.67439559684135 L 133.24439540924504 88.89202575664967 L 133.1027713009389 89.99377844092669 L 133.06453817663714 90.2182095432654 L 132.76675060286652 92.0204593045055 L 132.73013296269346 92.22740226902533 L 132.68382241774816 92.44503242883366 L 132.5599686348578 93.0629466327373 L 132.52065852109808 93.2689180339803 L 132.213716537226 94.69808752124663 L 132.1690214764094 94.89920110645471 L 132.12540340505075 95.10614407097455 L 132.08878576487768 95.31503016187344 L 132.04193672526162 95.5336318849586 L 131.99670316977426 95.7396032862016 L 131.85346357733943 96.3487734211376 L 131.7764588339487 96.54891544318525 L 131.72853280499112 96.74419964908157 L 131.62675730499905 97.15517088846536 L 131.5761388024548 97.3728010483319 L 131.4819022284355 97.80417511513224 L 131.3742032868322 98.23846387164667 L 130.9164827845525 100.34092666592915 L 130.4248371158028 102.40355536842253 L 129.93103746813722 104.41566278378014 L 129.41623652679846 106.55115872732131 L 129.20730057987384 107.37115807965165 L 128.79265965439845 109.4580758624943 L 128.59880155941937 110.42283813358517 L 128.31232237443328 111.64506465633167 L 128.09853997523896 112.56999283569166 L 128.01022684306372 113.21122455666773 L 127.7878285284387 113.98264574829955 L 127.50134934356902 115.0163890075637 L 127.0167041058885 116.83224065380637 L 126.9310834472999 117.2228090656572 L 126.58698532858398 118.5072156341048 L 126.27088893472683 119.39328128489433 L 126.14434267824981 120.13069776404882 L 126.00918050634209 120.51252210699022 L 125.96017748792656 120.63979688799009 L 125.43999159953091 122.0942270187661 L 124.78087407641578 124.03832500916906 L 124.15998967748601 125.9192713907687 L 123.52725839510094 127.53983883105684 L 122.86867936665658 129.38192268408602 L 122.42657521099318 130.67215863178717 L 121.71630069054663 132.5346453122329 L 120.96833154046908 134.30969130352605 L 120.39591166540049 136.239215845766 L 119.74541005759966 138.1366788019659 L 119.23868653690442 140.1779331137659 L 118.6479578417493 142.08025388600072 L 118.1940068025142 144.0651575314696 L 118.18700637132861 144.20992045028834 L 118.66411268291995 144.40909090905916 L 118.83212303195614 143.39866516692564 L 119.23330158984754 141.3632402343792 L 119.85041652573273 139.2714646354434 L 120.40398908604402 137.33708227716852 L 120.55961405672133 136.88239069317933 L 120.63231084239669 136.63464207370998 L 120.70393063861411 136.39563752315007 L 120.84824722050689 135.9594056402566 L 120.92094400618225 135.74177548039006 L 121.33504643698689 134.4505679695285 L 121.47505506116431 134.0104498337605 L 121.6312185266288 133.58587670937413 L 121.96131578285713 132.55116188689135 L 122.28495110268705 131.80208664917154 L 122.42226725327782 131.33476474345662 L 123.09861660713796 129.36054829339264 L 123.77927391859703 127.35815651010489 L 124.12821848969907 126.29720948083559 L 124.41308219055645 125.4898404503474 L 124.47662456613034 125.28484061226482 L 124.79810590704437 124.25012578978203 L 125.19389951776247 123.22609816258773 L 125.79216713889036 121.32377739035292 L 126.30481410131324 119.63714365148917 L 126.43189885257743 119.30584059568355 L 127.04093636781909 117.42295108770486 L 127.44265342026483 115.83250210701954 L 127.47550159750972 115.70814201567555 L 127.50781128008384 115.58475348755019 L 127.82767713686917 114.48883018258493 L 127.89121951244306 114.22845124133164 L 128.01776576892007 113.72809618629981 L 128.47764024999924 111.86949575867038 L 128.70165404863656 110.93873819999862 L 128.91382096381858 109.990492503508 L 129.02636635792442 109.47362087387592 L 129.25899607199244 108.5477211312973 L 129.7274864682695 106.46468960132916 L 130.2363639677642 104.4953309673001 L 130.32575408939738 104.13682414148934 L 130.5341515415348 103.25367318029748 L 130.98971806489863 101.37369836197468 L 131.4388226517476 99.40531129122246 L 131.92831434181426 97.33393851976143 L 131.96062402427197 96.95017105038278 L 132.46842453442514 94.90114423289197 L 132.8976048170589 92.87737805891084 L 133.1113872162532 91.67263967404142 L 133.44633092498407 89.60223846579902 L 133.6014174009906 88.13129176042276 L 133.61326428456232 87.89131564664422 L 133.6310346099781 87.66202672821237 L 133.6579593453789 87.4317662466201 L 133.70373139553703 86.71378103172174 L 133.75488839286845 85.98608018475352 L 133.879280670546 84.74247927131364 L 133.88305013347417 84.3227639630204 L 133.89920497476123 83.92345148226013 L 133.92074476310518 83.71456539130304 L 133.94282304611988 83.47944709361764 L 133.957900897949 83.24821504874853 L 134.02036628418136 82.1309173530899 L 134.03221316775307 81.90648625075119 L 134.04459854599554 81.70634422876174 L 134.0726002708543 80.57252995850286 L 134.09090909094084 79.53587200952461 L 134.0796007020399 79.3007537118392 L 133.968132297392 77.43049452564446 L 133.94874648796394 77.1603999522631 L 133.92289874190465 76.91265133279376 L 133.9029744376894 75.83421616570558 L 133.91589831071906 75.52914531662827 L 133.92451422603335 75.01518837659387 L 133.92289874190465 74.81213166494854 L 133.87174174457323 74.63919341290602 L 133.69888494315092 72.52507186011644 L 133.51041179522872 72.0723234025645 L 133.43286855716724 72.05677839112468 L 133.18731497018598 71.89064108161256 L 132.8238310419256 71.66038059996208 L 131.71237796370406 70.75099743204191 L 131.46520889247768 70.53628196183126 L 131.07372323947493 69.9173961947672 L 130.73070211021695 69.45493210508721 L 130.38768098084256 69.03521679679397 L 130.02850501029752 68.46782388002612 L 129.7894133598311 66.98813310574042 L 129.76787357148714 66.11955559271155 L 129.79479830688797 65.37339504470583 L 129.92026757390704 63.80626358115114 L 129.87718799721915 62.766690942575224 L 129.76464260322973 60.63896750472486 L 129.7635656137718 59.80245157779427 L 129.677406460396 57.63780873786891 L 129.55032170924824 55.4751090243808 L 129.43023738928605 53.3240680693998 L 129.36723350838292 51.240064976213034 L 129.3246924263658 50.49876224424224 L 129.12329540541396 48.324403772188816 L 128.99513366480824 46.18405001255451 L 128.8346622416284 45.101728592591826 L 128.72103985818103 44.502274089783896 L 128.69196114398073 44.149596643284895 L 128.3053219432477 42.18315269891173 L 127.66559022956062 40.34204040910117 L 127.05709120898973 39.21405551809585 L 126.03933621000033 37.942279271490406 L 124.9828095920384 36.773488725477364 L 123.83850833657198 35.72808670764789 L 122.69474557577632 34.6749121840694 L 121.55205980443861 33.48863350023748 L 120.26613444066606 32.856145848170854 L 118.92635960597545 32.73372888326412 L 118.06692205125 33.19813609938137 L 116.92154380644206 34.20176089904271 L 115.83324600057676 35.32003015791997 L 114.73902475298382 36.53351261175703 L 113.63995705300476 37.73727943340782 L 112.63243345345836 39.146046093141194 L 112.39872675004881 39.51426855108002 L 111.45205305260606 40.944409601564985 L 110.43806751654483 42.37552221521037 L 109.42462047515437 43.735710714245215 L 108.37617127783597 44.989027259813156 L 107.24425540061202 46.199595023994334 L 106.08487629331648 47.31106334034121 L 104.98850106692407 48.375896622485016 L 103.90074175584596 49.63212785770884 L 102.88944869337138 50.98260072461562 L 102.32456774415914 51.891012329317164 L 102.23517762252595 52.053263386012986 L 101.27934951498173 53.55238542461302 L 101.11403163953219 53.83219563012244 L 100.56584402627777 54.612360890663695 L 100.01388695009518 55.222502588818315 L 98.82812160206959 56.0405588147114 L 97.63320184405893 56.82461032806896 L 96.84215311729349 57.46292735944735 L 95.68115852586925 58.57828192866873 L 94.48785425187089 59.618826130463276 L 93.32362869218923 60.67977315973258 L 92.1195545240771 61.65910887904465 L 91.24019266513642 62.447046645276714 L 90.03288752876688 63.41958142211661 L 88.80781206709798 64.38822994608199 L 87.9386816076003 64.91287408140488 L 87.17725008982234 65.3908831825247 L 85.87463139009196 65.99033768533263 L 84.60863033053465 66.53538464818848 L 83.3070886201458 67.02116625499912 L 82.03893358167261 67.5788435395807 L 80.77885596395936 67.9567816297058 L 79.44715854991227 67.76149742375128 L 79.05190343386494 67.67017048166599 L 78.11438414640725 67.80133151548216 L 77.98568391113076 67.84505186014576 L 76.68791166367009 68.05490951426327 L 75.41706415172666 67.74983866518596 L 74.49569970555604 67.60313261992997 L 73.20923584711272 67.46711377002066 L 71.92977241973858 66.92789618647657 L 71.45482008694671 66.62088221096201 L 70.1936654796591 65.83294444472995 L 68.94597324018832 65.4346035271301 L 67.70851240016054 64.50773222133284 L 67.18132608057931 64.08801691309782 L 66.89215442212299 63.83541047753533 L 65.6083830371499 63.16017404408194 L 64.36015230289195 62.3032552896766 L 64.28153207548894 62.26244963466888 L 63.065611023805104 61.61150228156475 L 61.931002673110925 60.62439405656187 L 60.857244224403985 59.25448992534075 L 59.71078899002168 58.22074666607659 L 58.441018467536196 57.70581816282356 L 58.139999925508164 57.592145266826265 L 56.94131070445292 56.70219336316222 L 55.78354708128609 55.69954012671951 L 54.57893441838678 54.750322867010254 L 53.34632003074512 53.93129507795675 L 52.07062606641557 53.4008215633221 L 50.75723747245502 53.253143954847474 L 49.82618012151215 52.82176988798892 L 48.649030688917264 51.995941156405024 L 47.724435274489224 51.449922630388755 L 46.43366345821414 50.95928320748499 L 45.1768168087583 50.28890459006652 L 44.67224726686254 50.0421275338158 L 44.07236416160595 50.01006594777573 L 42.775668903719634 49.42809958284488 L 41.88230618229136 49.0579339984688 L 41.488128055701964 48.953976734599564 L 40.19627925020177 48.57312395487679 L 39.68686325591989 48.48956951848231 L 38.400399397476576 48.12231862376211 L 37.08916478231549 47.72397770616226 L 35.94432503217831 47.43445186846657 L 35.0105752076488 47.39656090317294 L 34.701479244977236 47.3878168342635 L 34.22491142805666 47.2887173864292 L 32.929831654182635 47.263456742919516 L 31.614289081422612 46.99627685913583 L 30.338056622305885 46.86900207819417 L 29.00420522945933 46.87968927354086 L 27.6972785720136 46.845684561063536 L 26.879843604634516 46.799049526802264 L 25.6068421137752 46.66788849292789 L 24.289145562215708 46.63291221723193 L 23.206771198194474 46.697035389370285 L 22.968756537069567 46.74464198685018 L 22.513728508376516 46.75824387179455 L 22.367257947684266 46.774760446453 L 22.143782643717714 46.812651411804836 L 21.666676332009956 46.79710640036501 L 20.385597420623526 46.737841044319794 L 19.906337129999883 46.642627849418204 L 18.65595241705887 46.610566263319924 L 18.096994909574278 46.602793757629115 L 17.352256727870554 46.85151394031709 L 16.80622309341561 46.89523428492248 L 16.615057471906766 46.813622974965256 L 16.04586856509559 46.44151426415192 L 15.909090909175575 46.26274663285585" stroke-linejoin="bevel" stroke-miterlimit="10" stroke-width="3"/></g></g></g><g><g fill="#444444"><path fill="" stroke="none" d=""/><g transform="translate(10,22)"><path fill="none" stroke="none"/><text fill="" stroke="none" font-family="helvetica" font-size="10pt" font-style="normal" font-weight="bold" text-decoration="normal" x="0" y="0" text-anchor="start" dominant-baseline="text-after-edge">6.01586</text></g></g></g><g/></g></g></svg>