<svg version="1.1" xmlns="http://www.w3.org/2000/svg" xmlns:xlink="http://www.w3.org/1999/xlink" width="150" height="160" style="width: 150px; height: 160px;"><defs><clipPath id="nIRwDwCKthiM"><path fill="none" stroke="none" d=" M 10 27 L 140 27 L 140 150 L 10 150 L 10 27 Z"/></clipPath></defs><g><g transform="scale(1,1) translate(0.5,0.5)"><rect fill="#FFFFFF" stroke="none" x="0" y="0" width="150" height="160"/><rect fill="#ffffff" stroke="none" x="0" y="0" width="150" height="160"/><rect fill="#FFFFFF" stroke="none" x="10" y="27" width="130" height="123"/><rect fill="#ffffff" stroke="none" x="10" y="27" width="130" height="123"/><g><rect fill="none" stroke="#FFFFFF" x="10" y="27" width="130" height="123" stroke-linejoin="bevel" stroke-miterlimit="10"/></g><g clip-path="url(#nIRwDwCKthiM)"><g><g/><g/><g><path fill="none" stroke="none"/><path fill="none" stroke="#440154" paint-order="fill stroke markers" d=" M NaN NaN" stroke-linejoin="bevel" stroke-miterlimit="10" stroke-width="3"/><path fill="none" stroke="none"/><path fill="none" stroke="#440154" paint-order="fill stroke markers" d=" M NaN NaN" stroke-linejoin="bevel" stroke-miterlimit="10" stroke-width="3"/><path fill="none" stroke="none"/><path fill="none" stroke="#440154" paint-order="fill stroke markers" d=" M NaN NaN" stroke-linejoin="bevel" stroke-miterlimit="10" stroke-width="3"/><path fill="none" stroke="none"/><path fill="none" stroke="#440154" paint-order="fill stroke markers" d=" M NaN NaN" stroke-linejoin="bevel" stroke-miterlimit="10" stroke-width="3"/><path fill="none" stroke="none"/><path fill="none" stroke="#440154" paint-order="fill stroke markers" d=" M NaN NaN" stroke-linejoin="bevel" stroke-miterlimit="10" stroke-width="3"/><path fill="none" stroke="none"/><path fill="none" stroke="#440154" paint-order="fill stroke markers" d=" M NaN NaN" stroke-linejoin="bevel" stroke-miterlimit="10" stroke-width="3"/><path fill="none" stroke="none"/><path fill="none" stroke="#440154" paint-order="fill stroke markers" d=" M NaN NaN" stroke-linejoin="bevel" stroke-miterlimit="10" stroke-width="3"/><path fill="none" stroke="none"/><path fill="none" stroke="#440154" paint-order="fill stroke markers" d=" M NaN NaN" stroke-linejoin="bevel" stroke-miterlimit="10" stroke-width="3"/><path fill="none" stroke="none"/><path fill="none" stroke="#440154" paint-order="fill stroke markers" d=" M NaN NaN" stroke-linejoin="bevel" stroke-miterlimit="10" stroke-width="3"/><path fill="none" stroke="none"/><path fill="none" stroke="#440154" paint-order="fill stroke markers" d=" M NaN NaN" stroke-linejoin="bevel" stroke-miterlimit="10" stroke-width="3"/><path fill="none" stroke="none"/><path fill="none" stroke="#440154" paint-order="fill stroke markers" d=" M NaN NaN" stroke-linejoin="bevel" stroke-miterlimit="10" stroke-width="3"/><path fill="none" stroke="none"/><path fill="none" stroke="#440154" paint-order="fill stroke markers" d=" M NaN NaN" stroke-linejoin="bevel" stroke-miterlimit="10" stroke-width="3"/><path fill="none" stroke="none"/><path fill="none" stroke="#440154" paint-order="fill stroke markers" d=" M NaN NaN" stroke-linejoin="bevel" stroke-miterlimit="10" stroke-width="3"/><path fill="none" stroke="none"/><path fill="none" stroke="#440154" paint-order="fill stroke markers" d=" M NaN NaN" stroke-linejoin="bevel" stroke-miterlimit="10" stroke-width="3"/><path fill="none" stroke="none"/><path fill="none" stroke="#440154" paint-order="fill stroke markers" d=" M NaN NaN" stroke-linejoin="bevel" stroke-miterlimit="10" stroke-width="3"/><path fill="none" stroke="none"/><path fill="none" stroke="#440154" paint-order="fill stroke markers" d=" M NaN NaN" stroke-linejoin="bevel" stroke-miterlimit="10" stroke-width="3"/><path fill="none" stroke="none"/><path fill="none" stroke="#440154" paint-order="fill stroke markers" d=" M NaN NaN" stroke-linejoin="bevel" stroke-miterlimit="10" stroke-width="3"/><path fill="none" stroke="none"/><path fill="none" stroke="#440154" paint-order="fill stroke markers" d=" M NaN NaN L 75.14168443181552 78.053229336394 L 78.36075472040102 81.08929517224897 L 81.59541029646061 83.93606783461291 L 85.30470871878788 85.32503722514957 L 87.97262656781822 86.01583439100068 L 90.75955933984369 87.3015529596014 L 94.27475009066984 88.79131481912918 L 95.10218717181124 89.04206681530923 L 98.38359861029312 90.36466067738365 L 101.70468168961816 92.69026252417825 L 105.08668907475658 94.48240179091226 L 108.26325403386727 96.17374858853873 L 111.63392666424625 97.57746809639502 L 114.81757584493607 99.20243936567567 L 117.8340373961255 100.92328639817424 L 121.24438166734762 101.1519132182002 L 124.61930483090691 102.35158943512943 L 127.97155848518014 103.20217953971587 L 129.19712881953456 104.88369292579591 L 127.65560220251791 110.14948484522756 L 128.28609792375937 112.61521280743182 L 131.27847312157974 115.57506970339455 L 133.1614592189435 119.67314399359748 L 132.62022468983196 120.88757032796275 L 130.20592197333463 124.87747709045652 L 128.52554461336695 128.82313350064214 L 125.92138475831598 132.35578662296757 L 125.18604255770333 133.0760840238072 L 124.98343382030725 132.7220812056912 L 124.69581442396156 131.53961345902644 L 123.82445516902953 128.6657989147352 L 121.7558624658268 129.84580830845516 L 119.86862583551556 131.522404988762 L 116.31801397679374 130.988942408585 L 112.84957908838987 130.94223370344844 L 109.38397788861766 131.38473722606432 L 105.74410483776592 131.77069863199722 L 102.19632666767575 133.1031259057345 L 98.92483313940465 134.5707625891082 L 95.80210826452821 136.80048867268488 L 92.56178531120531 138.26566700311378 L 89.13868944090791 138.82862981804647 L 85.84594324789941 140.99935543187894 L 83.02217252389528 143.23891492700204 L 79.60332718654536 143.94937891617883 L 76.23407140024938 142.52845093794167 L 72.87048299144953 140.57651873247232 L 69.63441057107411 139.1039653433254 L 66.53293836093508 136.5964453816414 L 65.671497015981 133.6710054264404 L 66.81063984706998 128.71742432576139 L 66.07954817940481 125.93456883891486 L 63.41729770740494 122.5445001849439 L 60.93073593080044 118.82747059478424 L 58.25290017132647 115.28498406067956 L 55.59773392113857 111.96129093517084 L 52.63086192100309 108.7310152198188 L 50.04228735365905 104.7312750457786 L 47.3602010612376 101.21337204077281 L 44.95439941063523 97.31934104161337 L 42.177384549053386 94.16281591344159 L 40.86538671143353 92.57471993775107 L 39.86651146784425 91.36521030915901 L 39.11275029112585 90.25403479672968 L 37.65906802169047 88.39797835459467 L 36.85146676097065 86.81234073173255 L 35.57772371987812 84.77436617470812 L 33.82933783251792 82.16359539108817 L 31.660149182891473 78.78090179583523 L 30.627269675722346 77.05267970461864 L 30.35098503390327 76.65442653431091 L 29.860756900161505 75.92675407486968 L 28.83637845888734 74.8327870327048 L 28.51192111033015 74.47632586176042 L 27.91826334130019 73.65769434487447 L 27.623559723375365 73.31352493830491 L 27.048320930683985 72.63256118411664 L 26.784787887707353 72.36951742332894 L 26.524088533362374 72.08926519239321 L 25.673981942934915 71.02725673804525 L 24.860713304951787 70.30695933732204 L 23.57138497638516 68.36486054351553 L 21.597720842575654 65.68033917283174 L 20.3806515741162 64.01357590418775 L 20.509584407089278 63.13840227050241 L 22.470496941823512 58.68386680923868 L 24.86354699358344 54.423541227472015 L 26.915137564763427 49.651878241682425 L 29.065907238284126 45.43088630621787 L 31.72532402141951 41.40164589730557 L 34.04328132444061 37.047902905149385 L 36.348487028386444 32.93262014456559 L 36.82029618602246 32.59090909094084 L 37.49188039219007 32.8441194400657 L 40.763373920693994 35.55568269267678 L 43.33636320056394 39.71521580545232 L 46.14171494846232 43.33145292662084 L 48.58435455127619 47.71961285942234 L 49.18793023028411 48.66116202145349 L 51.91252185218036 51.746394915506244 L 54.573355479864404 55.15858874563128 L 57.61532022873871 58.120903994422406 L 60.53401952213608 61.68305735161994 L 63.44988512666896 64.64045589463785 L 66.56269209156744 67.62735467241146 L 69.63582741538994 70.96579791547265 L 72.47376658255234 73.9379465758102 L 75.28053517499939 77.08709664526395 L 78.31683254661039 80.34195588959847 L 81.3276267205365 83.53289795841556 L 84.71105094975792 85.01774311217014 L 88.32542080292478 86.64517273427919 L 89.62750073033385 87.20567719638348 L 92.95566803123802 88.4692705887137 L 94.28608484519646 88.99289975722786 L 97.90470523107797 90.40153597097378 L 101.4085612273775 92.08550770988222 L 101.82369661238045 92.32888464734424 L 105.33463683025911 93.81372980109882 L 108.45169432787225 96.075414472376 L 108.58629453810863 96.31879140983801 L 111.92012921627611 97.96834620810114 L 115.3318903320469 99.14589724887628 L 117.90629645623267 101.00441204395611 L 120.08823670470156 101.99266991124023 L 120.3574371249415 102.20162990805693 L 120.5189573771786 102.02462849894073 L 120.48211942473426 102.02462849894073 L 120.43252987368032 101.69275085697882 L 122.53654368477874 102.23358849575743 L 126.26851161615923 103.21201295137871 L 129.79078658856452 104.39202234509867 L 129.48474821588024 109.95773331867531 L 130.76982601173222 114.47864430840127 L 133.4604133698158 118.03342260688078 L 134.09090909105726 120.08368892851286 L 133.95489203650504 120.67615197820123 L 132.9163451520726 123.75892651930917 L 131.66668846434914 126.06486154277809 L 129.46349555114284 130.17522759758867 L 126.13957878318615 132.56474661978427 L 122.90067267417908 130.73327370663173 L 119.47190942661837 130.7455654712394 L 115.95671867579222 131.6772812216077 L 112.62146715330891 132.7859983810922 L 109.21537341480143 133.9414242458297 L 105.71010057418607 134.7526807039976 L 102.2714194166474 135.01080775889568 L 98.65138218621723 136.66773761587683 L 95.19711574097164 138.79421287740115 L 91.62241752888076 139.62513615877833 L 88.2999176052399 140.6846862602979 L 85.01142194517888 143.28070692636538 L 81.33612778643146 144.40909090917557 L 80.31458303378895 144.30092338135 L 76.90282191801816 142.5653262315318 L 73.7120885157492 140.49539308669046 L 70.3980896580033 139.12609051936306 L 68.69645963306539 138.23370841541328 L 67.46238823281601 137.4962025443092 L 66.19006203603931 135.86877292220015 L 66.0526281374041 135.6155625730753 L 65.87127206474543 132.92612449661829 L 65.91661108285189 131.92311651201453 L 66.5655257801991 129.90726713102777 L 66.95515796728432 127.33582999394275 L 64.17247572843917 123.7097594612278 L 61.275029100012034 119.70264422846958 L 58.58727543032728 115.66111205494963 L 56.403918337542564 112.7897558636032 L 55.900938604958355 112.20220951968804 L 54.965821355581284 111.09103400725871 L 54.41183522762731 110.338778018835 L 54.13555058580823 110.00690037675668 L 53.988198776729405 109.90364955482073 L 53.833762746304274 109.8028570858296 L 53.72891626670025 109.7168147341581 L 53.32086510350928 109.2349775651237 L 52.9142307844013 108.67938980890904 L 52.509013309841976 108.03775970102288 L 49.943108251318336 104.33793858124409 L 48.01619998016395 101.8943357950775 L 46.61210726178251 99.90306994318962 L 46.43358487775549 99.71377676958218 L 45.33978106500581 98.54360078752507 L 42.994903719983995 95.29611660190858 L 40.51825985382311 92.3731349996524 L 38.045866520376876 88.4373120010132 L 35.64573224703781 84.41544665081892 L 32.88146898429841 81.10404528968502 L 32.61085171974264 80.90737705747597 L 30.834128946065903 76.44546653749421 L 27.705736693693325 73.64786093321163 L 24.969810317270458 70.33400121924933 L 21.817331711761653 67.610146202147 L 19.276929851155728 64.15370201971382 L 17.012812632368878 63.22936132794712 L 16.30013994080946 63.497321794508025 L 15.951596238650382 65.62871376180556 L 15.909090909175575 65.68771423154976 L 16.82862287107855 67.00293303490616" stroke-linejoin="bevel" stroke-miterlimit="10" stroke-width="3"/><path fill="none" stroke="none"/></g></g></g><g><g fill="#444444"><path fill="" stroke="none" d=""/><g transform="translate(10,22)"><path fill="none" stroke="none"/><text fill="" stroke="none" font-family="helvetica" font-size="10pt" font-style="normal" font-weight="bold" text-decoration="normal" x="0" y="0" text-anchor="start" dominant-baseline="text-after-edge">3.51086</text></g></g></g><g/></g></g></svg>