<svg version="1.1" xmlns="http://www.w3.org/2000/svg" xmlns:xlink="http://www.w3.org/1999/xlink" width="150" height="160" style="width: 150px; height: 160px;"><defs><clipPath id="dhTVprZOnBom"><path fill="none" stroke="none" d=" M 10 27 L 140 27 L 140 150 L 10 150 L 10 27 Z"/></clipPath></defs><g><g transform="scale(1,1) translate(0.5,0.5)"><rect fill="#FFFFFF" stroke="none" x="0" y="0" width="150" height="160"/><rect fill="#ffffff" stroke="none" x="0" y="0" width="150" height="160"/><rect fill="#FFFFFF" stroke="none" x="10" y="27" width="130" height="123"/><rect fill="#ffffff" stroke="none" x="10" y="27" width="130" height="123"/><g><rect fill="none" stroke="#FFFFFF" x="10" y="27" width="130" height="123" stroke-linejoin="bevel" stroke-miterlimit="10"/></g><g clip-path="url(#dhTVprZOnBom)"><g><g/><g/><g><path fill="none" stroke="none"/><path fill="none" stroke="#208F8C" paint-order="fill stroke markers" d=" M 74.68155091349036 101.11710172847961 L 74.71383355290163 101.05689126928337 L 74.84022829332389 100.48154688123032 L 74.82217190193478 100.39591422810918 L 74.77839883160777 100.24338106476353 L 74.59783491655253 99.87141422784771 L 73.77380686812103 98.7448096354201 L 73.33881198207382 98.17281027286663 L 73.29941621876787 98.09587468611426 L 73.26603925263043 97.99619292584248 L 72.57223608833738 96.69497800170211 L 72.22259868937545 96.28889190455084 L 72.10878870647866 96.14706282285624 L 70.92746297176927 95.9691074656148 L 70.26156513975002 97.27835045097163 L 70.00385118834674 97.8015124410449 L 69.72862800885923 98.35076563010807 L 69.56064885156229 98.8605475181248 L 69.49936655315105 98.99100351310335 L 69.44355588848703 99.10674139580806 L 69.4068959421711 99.26730262037017 L 69.21812457649503 99.72624012062442 L 69.04686243890319 100.15841741676559 L 68.97682552644983 100.44542060568347 L 68.92046769836452 100.56316550369957 L 68.72294171864633 100.91907621818245 L 68.5390948234126 101.2830149938818 L 68.2162684298819 101.6603338716377 L 68.12325065548066 101.78476882068207 L 67.96074313204736 102.09451818306115 L 67.70959514111746 102.60563808129518 L 67.56952131621074 102.89866231614724 L 67.24614775937516 103.58171652568853 L 67.1071682611946 103.88745185747393 L 66.96162280242424 104.19720121988212 L 66.81826599710621 104.5310347659688 L 66.28861184651032 105.38869930722285 L 66.04785995988641 105.73992698598886 L 65.56854483997449 106.68322418036405 L 65.34147203783505 107.15286576224025 L 64.75600722257514 108.47214382412494 L 64.04086468648165 109.80613999828347 L 63.43898496986367 110.73070504979114 L 62.92465139378328 112.07808132600621 L 62.30362095881719 113.43683068896644 L 61.43417835002765 114.65977201610804 L 60.62164073251188 115.78838362384704 L 59.68270837457385 116.87685492544551 L 58.88275551481638 118.04895186482463 L 58.07733102119528 119.29062533483375 L 57.260416096658446 120.52895377937239 L 56.49001005932223 121.8656259739364 L 55.560926642268896 123.06113809189992 L 54.508184301434085 124.01313235261478 L 53.12769109674264 124.2880934496934 L 51.73297164426185 124.54499140899861 L 50.39132703957148 124.89555008264142 L 48.971438071574084 125.07751947050565 L 47.625963323167525 125.52106985339196 L 46.72533240169287 126.49647929266212 L 46.53273089241702 127.12066105319536 L 46.39539288438391 128.1957522527373 L 46.39046841394156 128.81859600305324 L 46.247658772044815 129.45147482992616 L 46.08186826831661 130.0783326108358 L 45.75083442416508 130.53258707537316 L 45.242519645253196 130.83765340206446 L 44.178834036923945 130.99888363172067 L 43.58406744420063 130.81089319795137 L 42.215064670541324 130.81825225410284 L 42.084839786286466 130.851033504121 L 41.35273518553004 130.74733771322644 L 40.776024984312244 130.72659855507663 L 39.75720677303616 130.50248184576049 L 39.06832807918545 130.31649842730258 L 38.468089852598496 130.22216870787088 L 37.709174246294424 130.1445641159953 L 37.223840329330415 130.25160493236035 L 37.087596648023464 130.2890692180954 L 36.20830509823281 130.44427840184653 L 35.47948347777128 130.6429729172669 L 34.75832214450929 130.7801189632446 L 33.860427039908245 130.72258452445385 L 32.77047758945264 130.4957917947322 L 31.36755068623461 130.21146462621982 L 31.236778638674878 130.16329625886283 L 30.460900967591442 130.1224869475991 L 29.84643649321515 130.026150212856 L 29.301461767987348 129.16447164097917 L 28.302341438364238 128.37638363038423 L 27.754083732841536 127.74283579841722 L 27.688424127409235 127.61505582384416 L 26.9437347688945 126.80087661425932 L 26.375232018297538 126.03218975159689 L 26.273459629854187 125.72645441981149 L 25.95993501378689 124.90826117960387 L 25.42754504631739 123.75623439328047 L 25.107454469660297 122.2422758465691 L 25.159434990608133 120.73902138150879 L 25.273244973504916 119.8425545443315 L 25.840106233838014 118.65105645696167 L 26.70681302587036 117.08892954289331 L 26.89065992110409 116.77249012945686 L 27.475577573059127 115.75627137892297 L 28.074721472803503 114.81498119988828 L 28.50260323495604 113.67700352071552 L 29.29270715394523 112.37311257616966 L 29.968453926732764 110.98158196319127 L 30.045603963080794 110.82035173350596 L 30.434637125465088 109.50642571243225 L 30.688520933152176 108.99129178357543 L 30.923801186028868 108.58052265073638 L 31.40202197909821 107.81852583910222 L 32.100749613833614 106.60896461398806 L 32.85911805683281 105.33250287862029 L 32.96089044527616 105.20873693469912 L 33.54143079009373 104.20656729131588 L 34.24781871214509 103.07862468870007 L 34.74464306002483 101.78075479005929 L 34.73096397554036 101.69378412674996 L 34.567362125380896 101.67170695835375 L 34.49075925233774 101.7566706063808 L 34.01363278599456 102.75482621914125 L 33.34335764707066 104.01656984223519 L 33.22243454027921 104.26477073522983 L 32.574593099881895 105.64492826143396 L 32.374331303173676 106.16474522600765 L 31.62307598418556 107.06121206321404 L 30.727916696458124 108.15904943621717 L 30.339430697495118 108.4821789006819 L 29.721683242940344 109.40808196237776 L 29.154274819069542 109.77937979419949 L 27.97896788152866 110.7414091314422 L 27.5795386149548 111.08728476936813 L 26.974375918041915 111.65460109620471 L 26.384533795760944 112.1289257137978 L 25.241509497514926 112.92370377542102 L 24.453047068673186 113.49837915837998 L 23.394285930786282 114.43030326601001 L 23.31385291402694 114.54135811299784 L 22.287921578856185 115.48532431246713 L 22.178488903096877 115.56627392984228 L 21.264726060559042 116.30217954248656 L 21.0278043175349 116.46809280785965 L 20.886636165785603 116.50154306300101 L 20.750392484478652 116.57111959363101 L 20.608130006003194 116.6447101549129 L 20.469697671127506 116.6928785222699 L 20.323057885630988 116.73435683862772 L 19.72172533243429 116.70358260392095 L 19.286730446270667 116.75442699168343 L 18.809056816622615 116.87083387951134 L 18.632323045283556 116.9016081142181 L 18.310590978479013 116.96315658363164 L 17.35086641216185 117.57128222170286 L 16.590309315593913 118.42961576808011 L 16.47923514980357 118.67514064064017 L 16.430537609034218 118.81429370195838 L 16.379104251391254 118.92200352344662 L 16.293199601001106 119.15080326845055 L 16.135616547893733 119.36822992673842 L 15.90909090905916 120.42258196810144 L 16.255445327842608 121.93118847397272 L 16.346274448675103 122.51389191814815 L 16.784005151712336 123.38359855124145 L 17.42254481476266 124.23591105168452 L 17.945633004885167 124.93167635818827 L 19.00603563291952 125.79937597597018 L 19.11656263540499 125.87698056784575 L 19.680140915559605 126.31450990482699 L 19.825686374329962 126.4075016140414 L 20.45382993319072 127.17618847670383 L 20.533168623107485 127.30998949718196 L 20.80237300542649 127.90072100257385 L 20.92329611221794 129.16781666650786 L 20.741090707015246 130.08702967717545 L 20.5484891977394 130.9681093970139 L 20.410604026285 132.18034664256265 L 20.2727188548306 133.03199013788253 L 20.272171691409312 133.7230724086694 L 20.557790975202806 134.39140850593685 L 20.699506290256977 134.63492636321462 L 21.0464078723453 135.3474167972454 L 21.888492312282324 136.06392126189894 L 22.017075706389733 136.1676170527935 L 22.147847753833048 136.25324970588554 L 22.526484812027775 136.5221897570591 L 22.96476267836988 136.90619868581416 L 23.160647167940624 137.07077394099906 L 23.671697763726115 137.5062962626689 L 23.96278868126683 137.6735475382593 L 24.247860801639035 137.9351285332814 L 24.727723084855825 138.3545947324892 L 25.78320124244783 139.07377521754825 L 26.249384441180155 139.32532113604248 L 26.74839744262863 139.60630327905528 L 26.97984755190555 139.75013937606127 L 27.06137489527464 139.85517317714402 L 27.29829663829878 139.98763618740486 L 27.379276818362996 140.01305838130065 L 27.53357689117547 140.08263491195976 L 27.60580245719757 140.15087343240157 L 27.678028023219667 140.19636577935307 L 27.85257314098999 140.2619282793894 L 27.95981716318056 140.29671654471895 L 28.97699388442561 140.71216871330398 L 29.68174031621311 140.92758835628047 L 30.18294197123032 141.14367700435105 L 30.64638935297262 141.30892126463004 L 31.497228407068178 141.56247419843567 L 32.27310607815161 141.84747037204215 L 32.57514026318677 141.89430072921095 L 32.988248614245094 141.96722228536964 L 34.25110169243999 142.27630264268373 L 34.38406239345204 142.3278160355694 L 34.713454747456126 142.43552585705766 L 34.79443492752034 142.50844741321635 L 34.84532112174202 142.6101361887704 L 34.927395628532395 142.74193019393715 L 35.0904503155034 142.97340595937567 L 35.160487227956764 143.01956731145037 L 35.23107130383141 143.06439065330778 L 35.371145128738135 143.14935430130572 L 35.43406891729683 143.18681858704076 L 35.569765435298905 143.2456910360488 L 35.72515983483754 143.25305009217118 L 36.66901666321792 143.28583134218934 L 37.26870772638358 143.25840213298216 L 38.23335676314309 143.2028747095028 L 38.37178909801878 143.14199524518335 L 39.69866029149853 142.9874550665263 L 40.84660906018689 142.77203542354982 L 40.96479634998832 142.73791616334347 L 41.10213435802143 142.72119103575824 L 41.491167520405725 142.7071419286076 L 41.76310771959834 142.72587407147512 L 41.90372870792635 142.7064729235135 L 42.329421816626564 142.6148192244873 L 43.631670658127405 142.0749321068579 L 44.72107294527814 141.69092317810282 L 46.11196225415915 141.4360322340799 L 47.063479369855486 141.31494231056422 L 48.2661444763653 140.67002139185206 L 49.53994082217105 139.91203861084068 L 50.84437831712421 139.28785685030743 L 52.2483995470684 139.2243013655825 L 53.580742374411784 139.18884409515886 L 54.95849976222962 139.083141288982 L 56.24925817269832 138.89113682458992 L 56.92774076235946 138.74596271739574 L 57.31403810775373 138.62821781935054 L 58.693984149140306 138.1184359313338 L 59.81129176856484 137.52770442594192 L 59.95081843016669 137.44608580344357 L 60.47500094701536 137.0868300634611 L 60.71958297735546 136.95102202767157 L 61.40736734448001 136.67539192549884 L 62.63739061995875 136.1676170527935 L 63.20425188029185 136.3121221548936 L 64.01295935420785 135.89600098121446 L 64.22908888873644 135.78762215463212 L 64.80470476322807 135.79631922094268 L 66.16933022986632 135.59361067492864 L 66.28642319294158 135.54009026673157 L 66.54468430776615 135.483893838129 L 66.67053188488353 135.42836641464964 L 66.79747378872707 135.40896526668803 L 66.9255100194132 135.38822610850912 L 67.07050831476226 135.37551501154667 L 67.20784632279538 135.3460787870572 L 67.6050869358005 135.30861450132215 L 68.19219324120786 135.37283899114118 L 68.28083370858803 135.36481092992472 L 68.4105114294216 135.28519932273775 L 68.6797158117406 135.1835105471837 L 68.81322367617395 135.1099199859018 L 68.95220317435451 135.02228031749837 L 69.41729204636067 134.82291679698392 L 69.5666676487308 134.780769475532 L 69.83368337759748 134.68108771528932 L 69.9677384053357 134.6389403938374 L 70.22271653986536 134.50714638864156 L 71.55724802077748 134.12915850582067 L 71.70826511329506 134.11444039354683 L 73.1544179234188 134.12581348029198 L 73.50460248580202 134.0508849088219 L 74.13985916855745 133.86824651586358 L 74.5453072321834 133.59596143919043 L 74.88290703692473 133.39793592889328 L 75.75289680913556 133.40997802073252 L 76.5791135111358 133.54645506161614 L 77.31942556262948 133.71437534232973 L 77.56236610282212 133.75652266378165 L 78.12266140268184 133.89433771488257 L 78.17026461660862 133.89768274038215 L 78.49473250017036 134.05556794453878 L 79.20495056582149 133.82676819953485 L 80.47546393144876 133.3236763625464 L 81.10306032688823 133.05072228075005 L 81.36241576843895 132.8286125867744 L 82.15087819716427 131.9796451118309 L 82.357158791041 131.89802648933255 L 82.86930371355265 131.5575028922176 L 83.06026373268105 131.33873822374153 L 83.90727264306042 130.83430837653577 L 84.62132085242774 130.60550863153185 L 85.46340529236477 130.39811704980093 L 86.81818181811832 130.34058261098107 L 87.15687594958581 130.16597227926832 L 87.98582846845966 129.6066840136773 L 88.41425739403348 129.40196845232276 L 89.56220616272185 128.60384536519996 L 89.80076939589344 128.5449729161628 L 90.36981930979528 128.4278970232699 L 90.53670414036606 128.45800225285348 L 90.96622739266604 128.41518592630746 L 91.28248782560695 128.23388554356643 L 92.00693213904742 128.1228306965786 L 92.45505894627422 128.06395824757055 L 92.79375307774171 128.04857113020262 L 94.11898278119043 127.80371526273666 L 94.48175210133195 127.78498311986914 L 94.77940897934604 127.72008962492691 L 94.91018102690578 127.6752662830695 L 95.48689122812357 127.4404454921314 L 95.83324564690702 127.17083643586375 L 96.32022105401848 126.804890644853 L 96.48272857745178 126.60084408865077 L 96.95328908320516 126.11046334859566 L 97.41345348476898 125.77596079738578 L 97.82163736538496 125.64149077181355 L 97.96116402698681 125.61406156260637 L 98.60189234348945 125.59064638402197 L 98.73868318821769 125.5605411544384 L 98.86945523566101 125.52508388398564 L 99.00077444664203 125.4668804401008 L 99.77719928114675 125.21934855220024 L 99.91289579903241 125.17519421543693 L 100.57715214090422 125.05477329701534 L 100.70682986162137 125.0413931949588 L 100.83979056263342 125.01530199596891 L 101.54836713813711 124.76843911319156 L 102.85663477680646 124.30281156193814 L 104.32740993902553 124.10545505673508 L 105.34185084328055 124.1469333730929 L 105.64333786501084 124.27872737825965 L 106.76666428160388 124.2666852864204 L 107.15405595372431 124.15027839859249 L 107.87083997996524 123.99707623015274 L 107.92555631778669 123.93352074542781 L 108.47764416702557 123.68331283712178 L 108.52524738095235 123.6317994442361 L 108.70799994945992 123.55285684217233 L 108.95094048965257 123.33476117879036 L 109.70657311577816 122.75540276011452 L 109.99711686989758 122.61290467329673 L 110.79980554652866 122.48713171406416 L 111.1182546330383 122.4791036528186 L 111.45421294751577 122.56741232634522 L 111.80220885644667 122.6430099029094 L 111.91273585893214 122.6182567141368 L 112.4374655392021 122.56808133143932 L 112.55401133885607 122.5720953620621 L 112.67438728222623 122.5252650048933 L 113.04809986997861 122.40283707116032 L 113.57994267414324 122.19143145880662 L 113.86556195782032 122.1472771220433 L 114.20644474274013 122.13523503020406 L 115.06056677701417 122.33995059152949 L 115.27505482151173 122.57677839777898 L 115.37846870010253 122.65036895903177 L 115.47476945479866 122.72596653559594 L 115.63782414165325 122.89723184180912 L 116.24134534841869 123.39028860226972 L 116.3885322973365 123.51739957171958 L 117.15237237408292 124.5249212559429 L 117.50200977316126 124.8534027611895 L 117.69406411913224 125.02868209802546 L 118.07379550393671 125.16783515931456 L 118.3561318074353 125.37723375635687 L 118.45243256213143 125.48293656253372 L 118.79659832734615 125.59934345036163 L 119.15608466719277 125.68765212388826 L 119.29287551192101 125.73180646062247 L 120.15246917994227 125.89972674133605 L 120.47310691990424 126.09775225163321 L 121.1729288813658 126.43827584874816 L 121.69382841791958 126.81760174181545 L 122.63987389986869 126.92731857861509 L 123.8961610175902 127.42773439519806 L 124.97133705683518 127.4397764870373 L 125.61644268035889 127.63579498202307 L 125.78004453063477 127.66054817082477 L 125.93708042032085 127.69801245655981 L 126.2270770111354 127.76156794128474 L 126.3868487176951 127.75822291575605 L 126.53239417646546 127.77963107905816 L 126.69599602674134 127.85857368112192 L 127.09925543691497 127.933502252592 L 127.54191061027814 128.04589510979713 L 128.17771445645485 128.14223184454022 L 128.4108060557628 128.18571717618033 L 128.51093695417512 128.16163299250184 L 128.6460863086395 128.14022482922883 L 128.7872544603888 128.1214926863613 L 129.22170218313113 128.00976883427938 L 129.47394450078718 127.97230454854434 L 129.60416938492563 127.9582554413937 L 129.7207151845796 127.9100870740076 L 130.1037295497954 127.8405105433485 L 130.22902996349148 127.80639128314215 L 130.63174221024383 127.73882176779443 L 131.2002449608408 127.73280072188936 L 131.3381301322952 127.76424396169023 L 131.85027505480684 127.84519357906538 L 132.4844374108361 128.11011959961616 L 133.04418554727454 128.61254243151052 L 133.198485620087 128.70754115606542 L 133.36974775767885 128.8761304418731 L 133.82717634236906 129.51636832483928 L 134.01813636149745 130.0749875853362 L 134.09090909094084 130.62959281521034 L 133.79051639593672 132.02179243328283 L 133.358804490068 132.91023120924365 L 132.91614931670483 133.78328286786564 L 132.7416041988181 134.03884281698265 L 131.9859715726925 135.1540743226651 L 131.25824427895714 136.39842381310882 L 130.75649546063505 137.48890212998958 L 130.15242709044833 138.92927011544816 L 129.54398141324054 140.27196335591725 L 128.87972507148515 141.5544461372192 L 128.65648241294548 142.74326820415445 L 128.50382383016404 143.2972044289345 L 128.45950359653216 143.84511960778036 L 128.60340756515507 144.02842700583278 L 128.5678419455653 144.0511731793231 L 128.6646898635663 144.15553797528264 L 128.67399164102972 144.19835430185776 L 128.66687851713505 144.215748434508 L 128.6592182298191 144.2124034090084 L 128.5771437229123 144.2833179498557 L 129.29556923930068 144.40909090908826 L 129.4104735488072 144.08997547524632 L 129.40719056862872 143.99029371500365 L 129.04277975833975 143.45107560246834 L 128.68001043819822 142.36126629068167 L 128.7270664887037 141.910356851673 L 128.75114167737775 141.77254180057207 L 128.77631119289435 141.63807177499984 L 128.91693218122236 141.04867827979615 L 129.06794927373994 140.7295628459542 L 129.13087306229863 140.5663256009866 L 129.492548055714 139.75214639137266 L 129.55054737383034 139.58824014128186 L 129.6895268720109 139.1092324879719 L 129.83835531107616 138.7780749622907 L 130.07965436112136 138.31110940082 L 130.22027534944937 137.64678733417531 L 130.43312190379947 137.0366546807927 L 130.48619675147347 136.88479052254115 L 130.6891943650553 136.46800034376793 L 130.86647529981565 136.20842636402813 L 130.9644175445428 136.08599843029515 L 131.0776803640183 135.96089447615668 L 131.1871130397776 135.84448758832878 L 131.29764004226308 135.7220596545958 L 131.60241004417185 135.43104243505513 L 132.49921082204673 134.7319321030518 L 133.24061720026657 133.42068210238358 L 133.51912336004898 132.7804442193883 L 134.04385304031894 131.30328095331788 L 134.02743813896086 130.5225519988453 L 133.95904271665495 130.2194926874654 L 133.27618281985633 129.02197355419048 L 132.18787485954817 128.72092125809286 L 132.05600848526228 128.72894931933843 L 131.22049000579864 128.59983133457717 L 130.5168379007373 128.4794104161556 L 130.22738847334404 128.49479753349442 L 130.1004465695005 128.49078350287164 L 129.1385333496146 128.43927010998596 L 127.87677459814586 128.5255717682012 L 127.18570725072641 128.35229944667662 L 125.94255205418449 127.91410110463039 L 125.6821022859076 127.74015977801173 L 125.34504964458756 127.57625352792093 L 124.03732916922309 127.19759663997684 L 123.87646313593723 127.19090658894856 L 122.56983698741533 126.82429179284372 L 122.1725963744102 126.58411896106554 L 120.92287521727849 125.93183898626012 L 120.0452251577517 125.88567763418541 L 119.63977709400933 125.68497610348277 L 118.79550400061999 125.32973439409398 L 118.04479584493674 125.25881985324668 L 117.66834744031075 125.01463299087482 L 117.43744449445512 124.85072674078401 L 117.31433273421135 124.76643209788017 L 116.83447045111097 124.49615403651842 L 116.66484980366658 124.41453541404917 L 116.49741780967452 124.33224778642762 L 115.86270829034038 123.94021079645609 L 115.48188257869333 123.6291234238306 L 115.34892187768128 123.52542763296515 L 115.19735762174241 123.43711895943852 L 115.04086889547762 123.3494792910351 L 114.61025131633505 123.19895314300084 L 114.0291638080962 123.07451819395646 L 113.72001649904996 123.05043401027797 L 113.30690814810805 123.01363872963702 L 113.17832475411706 123.0203287806653 L 113.022930354462 123.0430749541265 L 112.70338694134261 123.07251117864507 L 112.37727756751701 123.05311003068346 L 111.13631102442741 122.72462852540775 L 110.42609295877628 122.51188490283675 L 110.29532091133296 122.4998428109975 L 109.44721767422743 122.84772546423483 L 108.6303027496906 123.3949716379866 L 107.4238074994646 124.13756730165915 L 106.3896687135566 124.29745952112717 L 105.7035258365795 124.36636704666307 L 104.55831288488116 124.32488873030525 L 103.30312009388581 125.06213235313771 L 102.25256640673615 125.64483579731314 L 101.56587636633776 125.9351840117597 L 101.4455004229676 125.94120505769388 L 100.72269759967458 125.89838873111876 L 99.58022046473343 126.0308517414087 L 99.1080184688326 126.01145059344708 L 98.11382260965183 126.14525161392521 L 96.89310111152008 127.05978158887592 L 96.09971421235241 127.75420888516237 L 94.94957679021172 128.3810666661011 L 94.45603542251047 128.50617062023957 L 93.06842909392435 128.72092125809286 L 92.27668368478771 128.90623567145667 L 90.94762383773923 129.0172905184736 L 90.77800319041125 129.02531857969007 L 90.05903051060159 129.184541794064 L 88.85910122096539 129.99002393733826 L 88.02194125147071 130.54998120802338 L 86.94129357836209 130.62156475399388 L 86.24092445359565 130.79885110611212 L 84.95563767675776 131.33137916761916 L 84.54581230611075 131.58693911673618 L 83.39841070084367 132.40044932122692 L 82.31064990384039 132.92829434701707 L 81.68797797872685 133.2534308267932 L 81.13370147603564 133.52705391365453 L 80.67791438149288 133.85754243424162 L 79.71928414190188 134.141869602754 L 78.36614910617936 134.402781592682 L 78.20856605307199 134.41549268961535 L 77.53938524087425 134.4047886079934 L 76.40456839324906 134.0488778935105 L 75.0279053322738 134.1445456231595 L 73.60746920097154 134.57270888867788 L 73.03458914346993 134.7098549346847 L 72.16514653456397 134.83830391435185 L 71.87514994374942 134.82224779188982 L 71.20651629497297 134.94868975624559 L 70.75784232432488 135.01023822565912 L 69.35272676765453 135.37618401666987 L 68.98010850674473 135.44241552180029 L 67.58429472742137 135.47185174628976 L 66.2891590098152 135.71470059847343 L 64.82713846175466 135.68593337904895 L 63.46853179228492 136.05856922108796 L 62.794973673066124 136.24722865998046 L 62.37037489109207 136.4485991957772 L 61.20382256747689 137.00521144096274 L 60.82737416296732 137.1316534053185 L 59.533879935508594 137.70900480868295 L 58.314799927640706 138.27364511508495 L 57.0645316070877 138.67705519183073 L 56.673309791251086 138.80951820212067 L 56.17320246307645 138.90384792155237 L 55.640812495490536 139.00888172263512 L 55.49964434374124 139.04166297265328 L 55.03181965497788 139.0583881002094 L 54.85727453709114 139.09719039613265 L 54.59135313506704 139.20690723293228 L 54.239527082419954 139.24437151866732 L 53.8718332919525 139.2517305747897 L 53.06039000116289 139.33334919728804 L 52.69214904727414 139.38218656976824 L 52.52198123652488 139.40560174835264 L 52.35947371297516 139.3895456258906 L 52.18657008535229 139.37482751361676 L 51.54967191244941 139.3433842738159 L 51.103733758674935 139.3413772585045 L 50.26766811590642 139.45443912080373 L 49.04858810803853 140.1869997079193 L 48.44014243083075 140.78910430008546 L 47.94112942938227 141.18515532067977 L 47.71022648352664 141.37180774426088 L 46.95787683769595 141.77254180057207 L 45.60419463866856 142.0943332548486 L 44.73639351991005 142.2836616988061 L 43.78049909719266 142.46763810195262 L 43.03799839213025 142.46429307645303 L 42.37155339680612 142.61883325511008 L 42.16198982275091 142.6576355510333 L 41.44630012335256 142.81351373990765 L 40.18344704504125 143.19016361254035 L 39.459549895022064 143.3901961381489 L 38.79967086017132 143.53603925046627 L 38.639351990190335 143.5286801943439 L 37.83994629373774 143.45575863818522 L 37.687834874494 143.4363574902236 L 37.54010076227132 143.42030136776157 L 37.26433041936252 143.3908651432721 L 36.3467374331085 143.33333070445224 L 36.21760687569622 143.3186125922075 L 35.51559626078233 143.11991807678714 L 34.79935939796269 142.8958013675001 L 34.538909629685804 142.84094294908573 L 34.24946020229254 142.78809154601186 L 34.100084599805996 142.74059218374896 L 33.44950734253507 142.62217828060966 L 32.6648750572931 142.45894103564206 L 31.672320688259788 142.25355646919343 L 30.966479929629713 141.96922930068104 L 30.517805958981626 141.8153581271472 L 30.204281343030743 141.69025417297962 L 29.751777228782885 141.4862076167774 L 29.585439561633393 141.43068019326893 L 29.283405376481824 141.28216106054606 L 28.967144943540916 141.1804722849629 L 28.67277104582172 141.0814595298143 L 28.520659626461565 141.00251692775055 L 28.112475745962 140.76836514190654 L 27.813177377684042 140.43520060091396 L 27.357937446562573 140.18298567732563 L 26.438702970277518 139.67654881480848 L 25.476789750391617 139.1065564675664 L 24.801042977604084 138.6609990693687 L 24.280690604355186 138.29706029366935 L 23.573208355577663 137.95252266596071 L 23.37021074211225 137.78058835462434 L 23.290872052195482 137.63006220659008 L 23.158458514488302 137.51833835450816 L 22.067961900611408 136.81789001231664 L 21.225877460674383 135.92811322613852 L 21.07212455116678 135.61501883820165 L 20.875145734869875 135.2504110574082 L 20.67761975515168 134.75267126123072 L 20.617978946771473 134.3091208783444 L 20.54958352446556 133.75585365868756 L 20.558885301928967 132.9945258521475 L 20.58733779762406 132.27668337730574 L 20.478999448590912 131.56954498408595 L 20.550677851191722 130.81423822348006 L 20.47790512186475 130.0488963863463 L 20.329623846220784 128.6881400080747 L 19.915421168436296 127.63244995652349 L 19.424615617725067 126.81425671628676 L 19.28290030255448 126.67711067030905 L 18.635058862157166 126.07032304245513 L 17.714182895608246 125.08153350112843 L 17.125435100053437 124.0291884750477 L 16.87702292611357 123.59165913809557 L 16.782910824986175 123.43176691862755 L 16.678402619669214 123.27120569406543 L 16.602894073352218 123.09525735213538 L 16.224257015273906 122.16266423941124 L 16.118107319809496 121.25683133077109 L 16.137258038041182 120.87081538667553 L 16.235200282768346 119.9850526311202 L 16.468291882192716 119.0430934469623 L 17.025851365178823 117.86229944124352 L 17.099171257927082 117.69036512993625 L 17.202585136517882 117.55255007883534 L 17.782578318030573 117.0902675530815 L 18.021688714507036 116.93840339485905 L 19.260466604027897 116.46006474664318 L 19.795045225182548 116.27140530777979 L 20.86146665038541 115.7977496952808 L 21.891775292577222 114.95547227136558 L 22.836726447800174 113.97203477087896 L 22.89855590951629 113.8462618116173 L 23.51575620076619 112.89493655602564 L 24.64947872166522 112.14698885154212 L 25.796880326932296 111.46527265221812 L 26.886829777504317 110.97288489685161 L 27.9554398561595 109.95599714122363 L 28.29030384402722 109.69909918191843 L 28.346661671996117 109.64557877372135 L 28.804090256686322 109.16121907960041 L 29.547685288474895 108.24334407912102 L 29.714022955624387 107.870708237082 L 30.041226656059735 107.26994165513315 L 30.370071846758947 106.80498310897383 L 31.174949176958762 105.96002966468222 L 31.42500284104608 105.71985683290404 L 32.002807368990034 104.95852902639308 L 32.097466633538716 104.81603093957528 L 32.94283405377064 103.67002519918606 L 33.49765771988314 103.04517443355871 L 34.31840278801974 101.77473374412511 L 34.994696724112146 101.22012851425097 L 35.225052506662905 101.57470121851657 L 35.303296869737096 101.84297226456692 L 35.11616699420847 102.65982749458635 L 34.78732180362567 103.18566550506512 L 34.581588373170234 103.50344292868976 L 33.787107147159986 104.71300415383303 L 33.70776845724322 104.79529178142548 L 33.01834259997122 106.01555708816159 L 32.46570758742746 106.98494548152667 L 31.704056164249778 108.21658387503703 L 31.480266342288814 108.53837532928446 L 30.825858941301703 109.64825479412684 L 30.46582543803379 110.1740928046056 L 29.80704073002562 111.24516997352475 L 29.215009954175912 112.5289907650149 L 28.625714995199814 113.49436512775719 L 28.082928923424333 114.48248566398979 L 27.340975381899625 115.77098949119681 L 26.392741246381775 116.94643145607552 L 26.241724153864197 117.08625352248782 L 25.5490153162973 118.37141232416616 L 25.285282567725517 119.84924459533067 L 25.19335912016686 120.72296525904676 L 25.23384921019897 121.64753031055443 L 25.432469516643323 122.67512214783346 L 25.858709788764827 123.94288681686157 L 26.243365644011647 125.41469804209191 L 26.517494496772997 125.9371910270711 L 27.210203334339894 127.01362023680122 L 27.81098872423172 128.1495909006626 L 29.019125464605168 128.96577712558792 L 29.577779274317436 128.9216227888246 L 30.2929218102945 128.91024970207945 L 30.70165285433177 128.90690467657987 L 31.712263614870608 128.74901947239414 L 32.14123970386572 128.15360493128537 L 32.12591912923381 127.23907495630556 L 31.811847349861637 126.0295137311914 L 31.60994406300597 125.2066374552669 L 31.441964905825444 124.642666153959 L 31.28274036257062 124.30281156193814 L 31.18753393460065 124.03989255669876 L 31.064422174356878 123.56422992888838 L 31.12898745306302 122.86311258160276 L 31.15196831501089 122.06231347404537 L 31.180420810705982 121.69837469834602 L 31.208326142979786 120.77314064174425 L 31.381776934140362 120.07737533526961 L 31.590793344774283 119.63382495238329 L 31.814583166735247 119.12136704393197 L 32.19595604168717 118.46306602319237 L 32.49689589999616 118.0556419158529 L 33.0407762984978 117.31772928789724 L 33.590675494167954 116.66344229778042 L 34.30253504996654 115.83119995039306 L 34.77364271914121 115.34148821546114 L 35.62338744639419 114.57949140382698 L 36.31281330366619 113.22074204089586 L 37.07610621699132 111.86600670855842 L 37.878247730317526 110.54672864664462 L 38.679294916801155 109.32445632456802 L 39.387324328999966 108.05334663004032 L 39.81739474472124 107.4224748184788 L 40.45100993732922 106.37213680773857 L 41.08079498633742 104.94314190905425 L 41.71659883239772 103.67136320940335 L 42.41259065025952 102.34940912708407 L 42.970150133245625 101.41547800414264 L 43.56053941894788 100.01056728913682 L 43.88719595607836 98.59495249247993 L 44.527924272581004 97.29574458365096 L 44.97057944606058 95.79382812877884 L 45.12925682589412 95.35161575610982 L 45.69830673979595 94.26916550044552 L 46.427128360257484 93.05559024470858 L 46.91793391108513 91.70419993789983 L 47.448135225102305 90.19559343199944 L 48.07737311068922 88.76726753840921 L 48.67542268370744 87.57978348166216 L 49.22532187937759 86.18156281768461 L 49.80367357074283 84.8669677914877 L 50.32840325101279 83.50821842852747 L 50.51006149267778 82.72013041793252 L 50.57790975167882 82.68668016282027 L 50.644663683953695 82.71544738221564 L 50.4969295716146 82.14478602987947 L 50.38476107898168 80.7030800342327 L 50.35247843968682 80.31840210035443 L 50.330044741160236 79.93372416647617 L 50.36342170718126 78.94359661496128 L 50.31362983980216 78.61979814540246 L 50.31855431012809 78.27526051766472 L 50.345365315675735 77.93206090014428 L 50.38749689585529 77.41692697128747 L 50.40828910423443 77.28446396102663 L 50.444949050666764 77.15869100176496 L 50.476684526656754 77.04161510887207 L 50.5034955322044 76.92186319554457 L 50.53194802789949 76.78940018525464 L 50.63973921351135 76.32310362890712 L 50.70649314566981 75.95381281236769 L 50.81483149470296 75.47012212334084 L 50.84601980727166 75.36508832228719 L 50.87392513966188 75.27276561813778 L 50.87009499594569 75.1971680415736 L 50.85915172833484 75.04329686803976 L 50.87447230296675 74.94829814348486 L 50.84930278756656 74.67266804131214 L 50.859698891756125 74.4927056687593 L 51.05613054474816 73.22427199463709 L 51.10701673896983 72.89579048936139 L 51.16884620080236 72.71449010662036 L 51.43914490984753 71.84076944290427 L 51.610954210860655 70.70279176373151 L 51.58687902218662 70.42916867687018 L 51.56389816023875 68.96204048732761 L 51.740084768272936 68.65162211982533 L 52.061269671539776 68.25557109920192 L 52.49079292395618 67.76786637955229 L 52.83988315961324 67.39991357325925 L 52.967372226761654 67.30759086910984 L 53.194992192438804 67.1303045169916 L 53.41987634100951 66.89213870052481 L 53.644213326391764 66.63925477184239 L 54.00096384936478 66.27999903185992 L 54.11532099545002 66.16359214403201 L 54.21381040371489 66.05588232254377 L 54.705163117847405 65.52603028147132 L 55.053706190083176 65.11994418432005 L 55.1029508941574 65.04300859753857 L 55.29172225983348 64.85100413314649 L 55.338231147034094 64.79012466882705 L 55.43945637217257 64.66568971978268 L 55.635340861743316 64.39139762779814 L 55.776509013492614 64.22013232161407 L 56.63993282511365 63.062084489356494 L 57.433319724397734 61.888649539789185 L 57.980483103194274 61.12464571284363 L 58.83241648389958 59.88364124792861 L 59.65425587887876 58.71689634936047 L 59.80034850095399 58.43390719103627 L 59.96176169766113 58.1683121653914 L 60.52260416094214 56.85840017491137 L 60.7808652757667 56.207458210294135 L 61.37289605161641 54.79318142385455 L 62.07600099325646 53.51605068339268 L 62.635201966390014 52.84905259631341 L 62.720012290170416 52.717258591146674 L 63.60149249329697 51.564562799729174 L 63.75086809578352 51.34178410063032 L 64.66463093832135 50.242608717409894 L 65.28566137317102 49.3240647118364 L 65.70205270440783 48.76143142071669 L 65.9225595460739 48.49316037466633 L 66.22514089453034 48.11249647141085 L 66.68311664264183 47.38394991491805 L 66.77832307049539 47.257507950562285 L 66.87352949834894 47.14645310357446 L 66.96764159959275 47.048109353519976 L 67.30633573106024 46.492835118522635 L 67.49784291360993 46.21452899594442 L 68.14130704698619 45.432462031254545 L 68.42200186033733 45.076551316771656 L 68.51830261503346 44.93873626567074 L 68.56317001208663 44.8537726176728 L 68.6140562063083 44.77616802579723 L 68.67643283144571 44.70859851044952 L 68.73880945669953 44.6430360104423 L 68.79462012124714 44.56810743897222 L 68.85699674650095 44.49317886750214 L 69.04522094875574 44.29649136739317 L 69.85392842255533 43.155168662720826 L 70.46456275333185 42.308208203088725 L 70.52256207144819 42.23394863674184 L 70.713522090693 42.01384595804848 L 71.64807714160997 40.80428473293432 L 72.24339089775458 40.00214761515963 L 72.34844626649283 39.888416747766314 L 72.44365269434638 39.79074200280593 L 72.88083623396233 39.31441036990145 L 72.99683487031143 39.21807363515836 L 73.17137998808175 39.04747733406839 L 74.07967119687237 38.255375292821554 L 74.25804645835888 38.173087665229104 L 74.97975495492574 37.867352333443705 L 75.5548236661125 37.59573626186466 L 76.85707250749692 37.178277077997336 L 77.10931482515298 37.112045572837815 L 77.36374579626136 37.015708838094724 L 78.28243310924154 36.67652325119707 L 79.3209492021706 36.28582427141373 L 80.59091540426016 35.717169934359845 L 81.15777666470967 35.452243913838174 L 81.323020005133 35.38132937296177 L 81.64256341836881 35.278302587219514 L 81.95225789071992 35.18062784225913 L 82.61323125229683 35.01471457685693 L 82.7894178602146 34.99598243398941 L 82.95739701751154 34.96922222990543 L 83.11333858047146 34.959856158471666 L 83.90453682618681 34.81602006146568 L 84.20000505074859 34.70295819916646 L 84.3433618559502 34.65813485727995 L 85.47325423313305 34.18715526521555 L 85.73808130843099 34.058706285548396 L 85.87049484613817 33.99581980591756 L 86.2392829634482 33.76233702519676 L 86.3771681349026 33.67269034148194 L 86.83186090260278 33.435862535232445 L 86.98397232196294 33.36494799438515 L 87.27287458593491 33.25389314736822 L 88.04875225701835 32.974249014572706 L 88.38963504205458 32.864532177802175 L 88.56035001622513 32.798969677765854 L 88.72559335653204 32.72805513688945 L 90.12742593302391 32.59090909091174 L 91.00617031927686 32.75147031547385 L 91.79846289183479 33.41110934643075 L 91.8230852438137 33.54223434650339 L 92.10213856701739 34.066065341670765 L 92.51907706167549 34.75714761245763 L 92.55683133471757 34.83140717880451 L 92.697452323162 35.03879876056453 L 93.61121516569983 36.15001623562421 L 94.56820391514339 37.19700922086486 L 95.49892882246058 38.16639761420083 L 96.04882801813073 38.87755003804341 L 96.15388338686898 38.987266874843044 L 96.25784442876466 39.0923006759258 L 96.76178190065548 39.587364451697795 L 97.7795057852054 40.697243916540174 L 98.62432604201604 41.92353026921046 L 98.81911620486062 42.23729366224143 L 99.66174780821893 43.35185616282979 L 100.50930388190318 44.30853345923242 L 101.20201271947008 45.071868281054776 L 101.80170378251933 45.766295577341225 L 102.05449326359667 46.036573638702976 L 102.26022669393569 46.27206343473517 L 102.48620516946539 46.566425679804524 L 102.6892027829308 46.82934468504391 L 103.65713479998522 47.841549404955 L 103.91320726124104 48.109151445911266 L 104.9238180218963 49.263854252611054 L 105.13392875925638 49.604377849726006 L 105.49232077237684 50.11415973774274 L 105.82773192354944 50.64802580946707 L 106.2961037758505 51.28625667715096 L 106.55983652442228 51.57259086097474 L 107.517919600592 52.54264825943392 L 108.1132333567366 53.156794943410205 L 108.59145414980594 53.641154637531145 L 109.18567357910797 54.33022989300662 L 109.61355534137692 54.78381535242079 L 109.77989300852641 55.000573005585466 L 109.86853347590659 55.11229685769649 L 109.96975870092865 55.23071076080669 L 110.04472008382436 55.33708257210674 L 110.10654954565689 55.42739826091565 L 110.1815109285526 55.51905195994186 L 110.32924504077528 55.89503282748046 L 110.37739541812334 55.97598244488472 L 110.40639507723972 56.06094609288266 L 110.54537457542028 56.321189077716554 L 111.34149729157798 57.17283257303643 L 111.46625054185279 57.282549409836065 L 112.16661966673564 57.89335106831277 L 113.19364532863256 58.81791611982044 L 113.42235962103587 59.16111573734088 L 113.7030544342706 59.52304749772884 L 113.78184596088249 59.611356171255466 L 113.84476974944118 59.703009870281676 L 114.22887844138313 60.22617186035495 L 114.33502813684754 60.36666293183225 L 114.75524961168412 61.08316739651491 L 115.52127834199928 62.09269609602052 L 115.71059687109664 62.4031144635228 L 115.87584021140356 62.71888487183605 L 116.10291301365942 63.264124030276434 L 116.21562866971362 63.8133772193396 L 116.28675990889315 64.86572224539123 L 116.14778041071258 65.15138742412091 L 116.03506475465838 65.4370526028506 L 114.95715289842337 66.5181648482976 L 113.77090269327164 67.45343398142722 L 113.11813678243198 67.82071778265527 L 112.72965078346897 68.10370694095036 L 112.4746726489393 68.34856280844542 L 112.27714666922111 68.55528538508224 L 111.43177924898919 69.3172821966873 L 110.58422317530494 70.12544036036707 L 109.77989300852641 70.69810872801463 L 109.31152115622535 71.15771523336298 L 108.88473372079898 71.7390806673211 L 107.85606656875461 72.8007917648356 L 107.71489841700532 72.9406138312188 L 106.73000433517154 74.03042314300546 L 106.33112223201897 74.35756663809298 L 106.02306924981531 74.58435936778551 L 105.6099608988734 74.96836829656968 L 105.05130708916113 75.57916995504638 L 104.80617789539974 75.86617314396426 L 104.5791050932603 76.29299839929445 L 103.55372092139442 77.4343211039668 L 102.54694030445535 78.44786383406608 L 102.31549019529484 78.69539572196663 L 101.82194882759359 79.15567123240908 L 101.42908552160952 79.84073245726177 L 101.15878681244794 80.68100286583649 L 100.7938288388541 81.06501179462066 L 100.53556772402953 81.3125436824921 L 100.16732677014079 81.6677853918809 L 99.81933086120989 82.00563296859036 L 98.8010598133551 82.90878985679592 L 98.55428912956268 83.23860937228892 L 97.38281233562157 83.90694546955638 L 96.02584715618286 84.40000223001698 L 95.38019436923787 84.57260554644745 L 95.22479996969923 84.59869674543734 L 94.91127535363194 84.65623118422809 L 94.75642811739817 84.67964636281249 L 94.4489222986158 84.71042059751926 L 93.08757981215604 84.91915018946747 L 92.9102988775121 84.91446715375059 L 92.55792566156015 84.91647416906198 L 92.36970145918895 84.92918526602443 L 92.20391095546074 84.93319929661811 L 92.03976194187999 84.92584024049575 L 91.8914806661196 84.93386830174131 L 91.2808463354595 84.9820366690983 L 91.2053377891425 84.9612975109194 L 90.88470004918054 84.959290495608 L 89.63662038219627 84.78668717920664 L 88.48648296005558 84.55855643929681 L 87.18915858899709 84.41003730654484 L 87.05182058084756 84.40067123511108 L 85.60895075101871 84.45017761271447 L 85.16629557765555 84.45151562290266 L 84.823224139167 84.43211447494105 L 84.650867674849 84.38729113308364 L 84.49492611188907 84.37859406674397 L 84.40902146138251 84.37725605652668 L 84.31983383069746 84.37391103102709 L 84.11957203398924 84.38461511267815 L 84.01068652165122 84.37926307183807 L 83.89961235574447 84.39933322492288 L 83.79017967998516 84.42141039328999 L 82.39983753452543 84.71175860773656 L 81.98289903986733 84.80809534247965 L 81.70110989990644 84.87499585270416 L 80.3611067852471 85.34196141417488 L 79.13491365336813 86.08121205231873 L 78.33222497673705 86.63983131281566 L 78.19324547855649 86.76761128735961 L 78.06083194084931 86.89472225683858 L 77.16950279683806 87.49816485919291 L 76.24643817683682 88.14040975747048 L 75.35784484969918 89.26166230908711 L 74.52451502380427 90.58495440159459 L 74.25476347806398 91.13420759065775 L 74.07474672643002 91.37638743771822 L 73.54180959553923 92.2982764688204 L 73.47177268308587 92.49228794849478 L 73.32732155104168 92.87629687727895 L 73.04662673780695 93.47104241329362 L 72.82447840599343 93.98885236255592 L 72.738026592182 94.1574416483345 L 72.5558211869793 94.46518399543129 L 72.34954059321899 94.97429687835393 L 72.16678802471142 95.44193144491874 L 72.80423336091917 96.76656154767261 L 73.57846954197157 97.94066550236312 L 74.45721392822452 99.20508514586254 L 74.72039951337501 100.59728476393502 L 74.27719717659056 101.18400223873323 L 74.16119854035787 101.27833195816493 L 72.9760426619323 101.42016103985952 L 72.67127265990712 101.81219802986016 L 72.9038170959102 102.21159407598316 L 72.80751634121407 102.37416231588577 L 72.82611989614088 102.15339063209831 L 72.8250255692983 102.16275670353207 L 72.87208161992021 102.38352838731953 L 72.59740560373757 102.5768708618998 L 71.91290421690792 103.05520951011567 L 71.82645240309648 103.27196716328035 L 71.76188712439034 103.27464318368584 L 71.7629814511165 103.31679050513776 L 71.77009457512759 103.32481856635422 L 71.89047051838133 103.424500326626 L 71.91399854363408 103.48738680625684 L 71.88609321136028 103.61717379611218 L 71.8133204820333 103.79914318394731 L 71.59500229381956 104.23065147499437 L 71.5687384516932 104.28149586278596 L 71.54138028272428 104.33769229138852 L 71.3870802099118 104.59927328641061 L 71.37121247197501 104.68891997012543 L 71.19830884423573 105.1197592560784 L 70.80052106792573 106.17946333825239 L 70.47660034766886 106.30724331279634 L 69.97813450952526 106.27379305768409 L 69.97594585607294 106.26375798115623 L 69.97321003919933 106.24234981788322 L 69.95132350397762 106.03964127184008 L 70.08428420510609 106.02626116981264 L 70.22271653986536 106.107879792311" stroke-linejoin="bevel" stroke-miterlimit="10" stroke-width="3"/></g></g></g><g><g fill="#444444"><path fill="" stroke="none" d=""/><g transform="translate(10,22)"><path fill="none" stroke="none"/><text fill="" stroke="none" font-family="helvetica" font-size="10pt" font-style="normal" font-weight="bold" text-decoration="normal" x="0" y="0" text-anchor="start" dominant-baseline="text-after-edge">10.92392</text></g></g></g><g/></g></g></svg>