<svg version="1.1" xmlns="http://www.w3.org/2000/svg" xmlns:xlink="http://www.w3.org/1999/xlink" width="150" height="160" style="width: 150px; height: 160px;"><defs><clipPath id="qfJPOWZVcUeT"><path fill="none" stroke="none" d=" M 10 27 L 140 27 L 140 150 L 10 150 L 10 27 Z"/></clipPath></defs><g><g transform="scale(1,1) translate(0.5,0.5)"><rect fill="#FFFFFF" stroke="none" x="0" y="0" width="150" height="160"/><rect fill="#ffffff" stroke="none" x="0" y="0" width="150" height="160"/><rect fill="#FFFFFF" stroke="none" x="10" y="27" width="130" height="123"/><rect fill="#ffffff" stroke="none" x="10" y="27" width="130" height="123"/><g><rect fill="none" stroke="#FFFFFF" x="10" y="27" width="130" height="123" stroke-linejoin="bevel" stroke-miterlimit="10"/></g><g clip-path="url(#qfJPOWZVcUeT)"><g><g/><g/><g><path fill="none" stroke="none"/><path fill="none" stroke="#440154" paint-order="fill stroke markers" d=" M NaN NaN" stroke-linejoin="bevel" stroke-miterlimit="10" stroke-width="3"/><path fill="none" stroke="none"/><path fill="none" stroke="#440154" paint-order="fill stroke markers" d=" M NaN NaN" stroke-linejoin="bevel" stroke-miterlimit="10" stroke-width="3"/><path fill="none" stroke="none"/><path fill="none" stroke="#440154" paint-order="fill stroke markers" d=" M NaN NaN" stroke-linejoin="bevel" stroke-miterlimit="10" stroke-width="3"/><path fill="none" stroke="none"/><path fill="none" stroke="#440154" paint-order="fill stroke markers" d=" M NaN NaN" stroke-linejoin="bevel" stroke-miterlimit="10" stroke-width="3"/><path fill="none" stroke="none"/><path fill="none" stroke="#440154" paint-order="fill stroke markers" d=" M NaN NaN" stroke-linejoin="bevel" stroke-miterlimit="10" stroke-width="3"/><path fill="none" stroke="none"/><path fill="none" stroke="#440154" paint-order="fill stroke markers" d=" M NaN NaN" stroke-linejoin="bevel" stroke-miterlimit="10" stroke-width="3"/><path fill="none" stroke="none"/><path fill="none" stroke="#440154" paint-order="fill stroke markers" d=" M NaN NaN" stroke-linejoin="bevel" stroke-miterlimit="10" stroke-width="3"/><path fill="none" stroke="none"/><path fill="none" stroke="#440154" paint-order="fill stroke markers" d=" M NaN NaN" stroke-linejoin="bevel" stroke-miterlimit="10" stroke-width="3"/><path fill="none" stroke="none"/><path fill="none" stroke="#440154" paint-order="fill stroke markers" d=" M NaN NaN" stroke-linejoin="bevel" stroke-miterlimit="10" stroke-width="3"/><path fill="none" stroke="none"/><path fill="none" stroke="#440154" paint-order="fill stroke markers" d=" M NaN NaN" stroke-linejoin="bevel" stroke-miterlimit="10" stroke-width="3"/><path fill="none" stroke="none"/><path fill="none" stroke="#440154" paint-order="fill stroke markers" d=" M NaN NaN" stroke-linejoin="bevel" stroke-miterlimit="10" stroke-width="3"/><path fill="none" stroke="none"/><path fill="none" stroke="#440154" paint-order="fill stroke markers" d=" M NaN NaN" stroke-linejoin="bevel" stroke-miterlimit="10" stroke-width="3"/><path fill="none" stroke="none"/><path fill="none" stroke="#440154" paint-order="fill stroke markers" d=" M NaN NaN" stroke-linejoin="bevel" stroke-miterlimit="10" stroke-width="3"/><path fill="none" stroke="none"/><path fill="none" stroke="#440154" paint-order="fill stroke markers" d=" M NaN NaN" stroke-linejoin="bevel" stroke-miterlimit="10" stroke-width="3"/><path fill="none" stroke="none"/><path fill="none" stroke="#440154" paint-order="fill stroke markers" d=" M NaN NaN" stroke-linejoin="bevel" stroke-miterlimit="10" stroke-width="3"/><path fill="none" stroke="none"/><path fill="none" stroke="#440154" paint-order="fill stroke markers" d=" M NaN NaN" stroke-linejoin="bevel" stroke-miterlimit="10" stroke-width="3"/><path fill="none" stroke="none"/><path fill="none" stroke="#440154" paint-order="fill stroke markers" d=" M NaN NaN" stroke-linejoin="bevel" stroke-miterlimit="10" stroke-width="3"/><path fill="none" stroke="none"/><path fill="none" stroke="#440154" paint-order="fill stroke markers" d=" M NaN NaN" stroke-linejoin="bevel" stroke-miterlimit="10" stroke-width="3"/><path fill="none" stroke="none"/><path fill="none" stroke="#440154" paint-order="fill stroke markers" d=" M NaN NaN" stroke-linejoin="bevel" stroke-miterlimit="10" stroke-width="3"/><path fill="none" stroke="none"/><path fill="none" stroke="#440154" paint-order="fill stroke markers" d=" M NaN NaN" stroke-linejoin="bevel" stroke-miterlimit="10" stroke-width="3"/><path fill="none" stroke="none"/><path fill="none" stroke="#440154" paint-order="fill stroke markers" d=" M NaN NaN" stroke-linejoin="bevel" stroke-miterlimit="10" stroke-width="3"/><path fill="none" stroke="none"/><path fill="none" stroke="#440154" paint-order="fill stroke markers" d=" M NaN NaN" stroke-linejoin="bevel" stroke-miterlimit="10" stroke-width="3"/><path fill="none" stroke="none"/><path fill="none" stroke="#440154" paint-order="fill stroke markers" d=" M NaN NaN" stroke-linejoin="bevel" stroke-miterlimit="10" stroke-width="3"/><path fill="none" stroke="none"/><path fill="none" stroke="#440154" paint-order="fill stroke markers" d=" M NaN NaN" stroke-linejoin="bevel" stroke-miterlimit="10" stroke-width="3"/><path fill="none" stroke="none"/><path fill="none" stroke="#440154" paint-order="fill stroke markers" d=" M NaN NaN" stroke-linejoin="bevel" stroke-miterlimit="10" stroke-width="3"/><path fill="none" stroke="none"/><path fill="none" stroke="#440154" paint-order="fill stroke markers" d=" M NaN NaN" stroke-linejoin="bevel" stroke-miterlimit="10" stroke-width="3"/><path fill="none" stroke="none"/><path fill="none" stroke="#440154" paint-order="fill stroke markers" d=" M NaN NaN" stroke-linejoin="bevel" stroke-miterlimit="10" stroke-width="3"/><path fill="none" stroke="none"/><path fill="none" stroke="#440154" paint-order="fill stroke markers" d=" M NaN NaN" stroke-linejoin="bevel" stroke-miterlimit="10" stroke-width="3"/><path fill="none" stroke="none"/><path fill="none" stroke="#440154" paint-order="fill stroke markers" d=" M NaN NaN" stroke-linejoin="bevel" stroke-miterlimit="10" stroke-width="3"/><path fill="none" stroke="none"/><path fill="none" stroke="#440154" paint-order="fill stroke markers" d=" M NaN NaN" stroke-linejoin="bevel" stroke-miterlimit="10" stroke-width="3"/><path fill="none" stroke="none"/><path fill="none" stroke="#440154" paint-order="fill stroke markers" d=" M NaN NaN" stroke-linejoin="bevel" stroke-miterlimit="10" stroke-width="3"/><path fill="none" stroke="none"/><path fill="none" stroke="#440154" paint-order="fill stroke markers" d=" M NaN NaN" stroke-linejoin="bevel" stroke-miterlimit="10" stroke-width="3"/><path fill="none" stroke="none"/><path fill="none" stroke="#440154" paint-order="fill stroke markers" d=" M NaN NaN" stroke-linejoin="bevel" stroke-miterlimit="10" stroke-width="3"/><path fill="none" stroke="none"/><path fill="none" stroke="#440154" paint-order="fill stroke markers" d=" M NaN NaN" stroke-linejoin="bevel" stroke-miterlimit="10" stroke-width="3"/><path fill="none" stroke="none"/><path fill="none" stroke="#440154" paint-order="fill stroke markers" d=" M NaN NaN" stroke-linejoin="bevel" stroke-miterlimit="10" stroke-width="3"/><path fill="none" stroke="none"/><path fill="none" stroke="#440154" paint-order="fill stroke markers" d=" M NaN NaN" stroke-linejoin="bevel" stroke-miterlimit="10" stroke-width="3"/><path fill="none" stroke="none"/><path fill="none" stroke="#440154" paint-order="fill stroke markers" d=" M NaN NaN" stroke-linejoin="bevel" stroke-miterlimit="10" stroke-width="3"/><path fill="none" stroke="none"/><path fill="none" stroke="#440154" paint-order="fill stroke markers" d=" M NaN NaN" stroke-linejoin="bevel" stroke-miterlimit="10" stroke-width="3"/><path fill="none" stroke="none"/><path fill="none" stroke="#440154" paint-order="fill stroke markers" d=" M NaN NaN" stroke-linejoin="bevel" stroke-miterlimit="10" stroke-width="3"/><path fill="none" stroke="none"/><path fill="none" stroke="#440154" paint-order="fill stroke markers" d=" M NaN NaN" stroke-linejoin="bevel" stroke-miterlimit="10" stroke-width="3"/><path fill="none" stroke="none"/><path fill="none" stroke="#440154" paint-order="fill stroke markers" d=" M NaN NaN" stroke-linejoin="bevel" stroke-miterlimit="10" stroke-width="3"/><path fill="none" stroke="none"/><path fill="none" stroke="#440154" paint-order="fill stroke markers" d=" M NaN NaN" stroke-linejoin="bevel" stroke-miterlimit="10" stroke-width="3"/><path fill="none" stroke="none"/><path fill="none" stroke="#440154" paint-order="fill stroke markers" d=" M NaN NaN" stroke-linejoin="bevel" stroke-miterlimit="10" stroke-width="3"/><path fill="none" stroke="none"/><path fill="none" stroke="#440154" paint-order="fill stroke markers" d=" M NaN NaN" stroke-linejoin="bevel" stroke-miterlimit="10" stroke-width="3"/><path fill="none" stroke="none"/><path fill="none" stroke="#440154" paint-order="fill stroke markers" d=" M NaN NaN" stroke-linejoin="bevel" stroke-miterlimit="10" stroke-width="3"/><path fill="none" stroke="none"/><path fill="none" stroke="#440154" paint-order="fill stroke markers" d=" M NaN NaN" stroke-linejoin="bevel" stroke-miterlimit="10" stroke-width="3"/><path fill="none" stroke="none"/><path fill="none" stroke="#440154" paint-order="fill stroke markers" d=" M NaN NaN" stroke-linejoin="bevel" stroke-miterlimit="10" stroke-width="3"/><path fill="none" stroke="none"/><path fill="none" stroke="#440154" paint-order="fill stroke markers" d=" M NaN NaN" stroke-linejoin="bevel" stroke-miterlimit="10" stroke-width="3"/><path fill="none" stroke="none"/><path fill="none" stroke="#440154" paint-order="fill stroke markers" d=" M NaN NaN" stroke-linejoin="bevel" stroke-miterlimit="10" stroke-width="3"/><path fill="none" stroke="none"/><path fill="none" stroke="#440154" paint-order="fill stroke markers" d=" M NaN NaN" stroke-linejoin="bevel" stroke-miterlimit="10" stroke-width="3"/><path fill="none" stroke="none"/><path fill="none" stroke="#440154" paint-order="fill stroke markers" d=" M NaN NaN" stroke-linejoin="bevel" stroke-miterlimit="10" stroke-width="3"/><path fill="none" stroke="none"/><path fill="none" stroke="#440154" paint-order="fill stroke markers" d=" M NaN NaN" stroke-linejoin="bevel" stroke-miterlimit="10" stroke-width="3"/><path fill="none" stroke="none"/><path fill="none" stroke="#440154" paint-order="fill stroke markers" d=" M NaN NaN" stroke-linejoin="bevel" stroke-miterlimit="10" stroke-width="3"/><path fill="none" stroke="none"/><path fill="none" stroke="#440154" paint-order="fill stroke markers" d=" M NaN NaN" stroke-linejoin="bevel" stroke-miterlimit="10" stroke-width="3"/><path fill="none" stroke="none"/><path fill="none" stroke="#440154" paint-order="fill stroke markers" d=" M NaN NaN" stroke-linejoin="bevel" stroke-miterlimit="10" stroke-width="3"/><path fill="none" stroke="none"/><path fill="none" stroke="#440154" paint-order="fill stroke markers" d=" M NaN NaN" stroke-linejoin="bevel" stroke-miterlimit="10" stroke-width="3"/><path fill="none" stroke="none"/><path fill="none" stroke="#440154" paint-order="fill stroke markers" d=" M NaN NaN" stroke-linejoin="bevel" stroke-miterlimit="10" stroke-width="3"/><path fill="none" stroke="none"/><path fill="none" stroke="#440154" paint-order="fill stroke markers" d=" M NaN NaN" stroke-linejoin="bevel" stroke-miterlimit="10" stroke-width="3"/><path fill="none" stroke="none"/><path fill="none" stroke="#440154" paint-order="fill stroke markers" d=" M NaN NaN" stroke-linejoin="bevel" stroke-miterlimit="10" stroke-width="3"/><path fill="none" stroke="none"/><path fill="none" stroke="#440154" paint-order="fill stroke markers" d=" M NaN NaN" stroke-linejoin="bevel" stroke-miterlimit="10" stroke-width="3"/><path fill="none" stroke="none"/><path fill="none" stroke="#440154" paint-order="fill stroke markers" d=" M NaN NaN L 68.9666327862069 32.590909090824425 L 69.92126107681543 33.237781355157495 L 70.80021761264652 33.68349212245084 L 71.56566651631147 33.97537351003848 L 72.42716033942997 34.298809642205015 L 73.17514653038234 34.69718829263002 L 73.95805814675987 35.01273573865183 L 74.7846265444532 35.430836104555055 L 75.43365736398846 35.91204595961608 L 75.98082236014307 36.41692187311128 L 76.50179328676313 37.10718191112392 L 77.10134642012417 37.67516731377691 L 77.44186931662261 38.3496499795001 L 78.09672104008496 38.815082462271675 L 78.62642332352698 39.29234797437675 L 79.28418549895287 39.789335201727226 L 79.88082818035036 40.30209980136715 L 80.41926182061434 40.78725399961695 L 81.23418840952218 41.2014100223314 L 82.0898613287136 41.611621702089906 L 82.852399780415 41.927169148111716 L 83.5043410519138 42.242716594133526 L 84.2552376948297 42.61348484316841 L 84.87516399286687 43.09469469822943 L 85.5154634565115 43.50096203479916 L 86.21397196128964 43.94272845913656 L 86.97651041299105 44.32138539431617 L 87.56442173849791 44.625099811004475 L 88.1348703512922 44.869649081723765 L 88.96143874898553 45.0432001769077 L 89.65703680180013 45.398191053653136 L 90.36427666340023 45.83601313503459 L 91.12681511510164 46.32905601919629 L 91.89517447073013 46.75110072828829 L 92.71883241645992 47.22836624016054 L 93.62107256893069 47.65829963539727 L 94.58734266832471 48.05667828582227 L 95.40517970919609 48.64438540395349 L 96.30741986259818 49.113762229913846 L 97.10197328682989 49.717246720101684 L 97.87324309442192 50.375952013535425 L 98.58339340891689 50.8966052995529 L 99.29645417444408 51.39753686985932 L 100.10555985942483 51.831414608052 L 101.08638221863657 52.10357428016141 L 101.8139952449128 52.56900676316582 L 102.44556335173547 53.09360439190641 L 103.23138542007655 53.44859526865184 L 104.02302839327604 53.90219472232275 L 104.82340272236615 54.40312629262917 L 105.41713495180011 54.994777753949165 L 105.97012085095048 55.68109344877303 L 106.66862935665995 56.213579763891175 L 107.39333193097264 56.66717921732925 L 108.42363197635859 57.02217009407468 L 109.3899020748213 57.44421480316669 L 110.20191821269691 57.921480315038934 L 110.9586357595399 58.48552137473598 L 111.70080104656518 59.00223031756468 L 112.25669739861041 59.42033068346791 L 113.16475845500827 59.73982247244567 L 114.00005820952356 60.20919929840602 L 114.74513394851238 60.73774127033539 L 115.62991138827056 61.25839455612004 L 116.40991255268455 61.85399036039598 L 117.34416767861694 62.279979412443936 L 118.15327336359769 62.77696663979441 L 119.03222989942878 63.16745660407469 L 119.75984292570502 63.62500040070154 L 120.59514267928898 64.12198762828484 L 121.3082034457475 64.68208434479311 L 122.14350319933146 65.10807339684106 L 122.84492215700448 65.68000314268284 L 123.71805778890848 66.07838179310784 L 124.60283522866666 66.42942832666449 L 125.4410454351455 66.7883635465987 L 126.32873332686722 67.06841190485284 L 127.2688093567267 67.34846026310697 L 128.08373594656587 67.83755880431272 L 128.87828937079757 68.3345460316632 L 129.70776822138578 68.88280971907079 L 130.41791853494942 69.6598453046754 L 131.06694935448468 70.42899220436811 L 131.78583102393895 71.20208344678394 L 132.26023471727967 71.89628782798536 L 132.63277258630842 72.67332341358997 L 133.1595644177869 73.40697122551501 L 133.56702771224082 74.19978418340907 L 133.87553563527763 75.05176228750497 L 134.09090909175575 75.87218564702198 L 133.89299834799021 76.80699495575391 L 133.77658026386052 77.70236083352938 L 133.73292348254472 78.54250590852462 L 133.58740087691694 79.56409076484852 L 133.5291918348521 80.46734532876872 L 133.1537435138598 81.44948675436899 L 132.91217598877847 82.22257799701765 L 132.557100831531 82.92072672117501 L 132.18747341446579 83.51632252545096 L 131.75381605047733 84.10797398653813 L 131.23284512385726 84.81401139684021 L 130.65366515517235 85.63443475635722 L 130.16761965397745 86.39963731286116 L 129.5244097383693 87.29500319063663 L 128.77060264348984 88.05626140418462 L 128.25254216883332 88.77807618677616 L 127.72575033735484 89.46439188160002 L 127.31828704290092 90.00871122581884 L 127.00686866696924 90.54514188412577 L 126.61104718130082 91.2669566667173 L 126.16865846142173 91.99271579249762 L 125.9154491275549 92.78552875039168 L 125.70298612397164 93.60595210990869 L 125.51380673702806 94.40665375394747 L 125.28388102073222 95.2665205441881 L 124.9375372203067 96.10272127599455 L 125.03649259265512 96.83636908791959 L 125.03649259265512 97.66862547653727 L 124.85604456160218 98.41410631756298 L 124.63485020212829 99.19114190340042 L 124.18373012542725 100.17328332876787 L 124.01201345119625 100.9069311406929 L 123.79372954368591 101.5932468357496 L 123.49395297653973 102.28350687376224 L 123.1039523947984 103.26564829912968 L 122.83619080111384 104.18468023557216 L 117.62066062819213 108.60628882213496 L 115.55132918152958 110.77173316990957 L 114.42498421669006 112.07731072767638 L 113.77304294519126 113.11467295628972 L 113.2084152372554 114.18358992924914 L 112.73692199587822 115.07895580725744 L 112.1635629311204 115.89543482358567 L 111.61348748300225 116.82629978936166 L 111.15072559844702 117.66644486412406 L 110.66759054921567 118.62097588810138 L 110.2630377067253 119.65044943057 L 109.93997752293944 120.53003793628886 L 109.49467835109681 121.41357078496367 L 109.10176731646061 122.23793848743662 L 108.79908029735088 123.18063648231328 L 108.42654242832214 124.26927517075092 L 108.16460173856467 125.22380619472824 L 107.85609381552786 126.27694579563104 L 107.59415312577039 127.35769579815678 L 107.43698871228844 128.28856076369993 L 107.18960028328001 129.2707021893002 L 106.96840592380613 130.24101058556698 L 106.6540770959109 131.05354525893927 L 106.27862877491862 131.91735639213584 L 105.86534457560629 132.8600543870125 L 105.54228439182043 133.7869750095997 L 105.26288098935038 134.7020626028534 L 105.03295527305454 135.53037464851514 L 104.7593727754429 136.47307264315896 L 104.42758123576641 137.52621224406175 L 104.11034195590764 138.43341115117073 L 103.73198318202049 139.28538925526664 L 103.3507139571011 140.20047684852034 L 103.08004191052169 140.95779071887955 L 102.82101167365909 141.7821584213525 L 102.41936928313226 142.68935732846148 L 101.89548790454865 143.49400331568904 L 101.38033788185567 144.11720952158794 L 100.67018756829202 144.28287193062715 L 99.93093273323029 144.40909090894274 L 99.11600614339113 144.10537649225444 L 98.32436317112297 143.63994400948286 L 97.42503347061574 143.34806262189522 L 96.62174868956208 143.08379163593054 L 95.87667295057327 142.7130233871285 L 95.02391048427671 142.2357578750234 L 94.22062570322305 141.56127520930022 L 93.62107256893069 141.15106352954172 L 93.12629571091384 140.6659093312919 L 92.67226518318057 140.30302976840176 L 92.42778720613569 140.09397958545014 L 92.17166742123663 139.89676243183203 L 91.79330864734948 139.58121498581022 L 90.90562075469643 138.92645403556526 L 90.22457496263087 138.13364107743837 L 89.56099188234657 137.38816023641266 L 89.0953195458278 137.09233450586908 L 88.50740822032094 136.73734362912364 L 87.75360112544149 135.99975147424266 L 87.06091352459043 135.48698687460274 L 86.35076321009547 134.89533541351557 L 85.56203068979084 134.13013285701163 L 84.75583545677364 133.20321223442443 L 84.02240152657032 132.56028431328014 L 83.24531081411988 131.89763467689045 L 82.415831964463 131.14426514948718 L 76.89470432046801 126.33611094183289 L 75.26776159368455 124.88064834731631 L 74.01626718882471 123.58295947592705 L 72.85499679856002 122.43909998424351 L 72.39514536596835 121.70150782936253 L 71.42305436357856 120.56948136701249 L 70.87297891546041 119.76483537978493 L 70.19484357442707 118.95624504936859 L 69.36827517673373 118.12793300393969 L 69.00737911555916 117.54417022876441 L 68.43402005080134 116.9051866508089 L 67.71222792938352 116.11237369268201 L 67.12431660387665 115.34322679322213 L 66.36177815217525 114.53069211984985 L 65.73603094927967 113.903541570995 L 64.99677611514926 113.17383810225874 L 64.14110319595784 112.34947039978579 L 63.5415500625968 111.50932532479055 L 62.83139974903315 110.60212641768157 L 62.39483193308115 109.61998499231413 L 61.882592362351716 108.91000323882326 L 61.12878526747227 108.02252604695968 L 60.61363524477929 107.2218244029209 L 59.96751487720758 106.46451053256169 L 59.30393179692328 105.65592020237818 L 58.78005041833967 105.03271399647929 L 58.07863146066666 104.38584173237905 L 57.31900346186012 103.73108078190126 L 56.68161445017904 103.11576326237991 L 55.89288192987442 102.4767796844244 L 55.23220930248499 101.84568479238078 L 54.653029332868755 101.16725778370164 L 53.96907308883965 100.37838916876353 L 53.31422136537731 99.73151690443046 L 52.7117577791214 99.18719756021164 L 52.08601057622582 98.43382803304121 L 51.47481563407928 97.83034354262054 L 50.86362069193274 97.1598052198533 L 50.234963038004935 96.50109992641956 L 49.7780220573768 96.00411269906908 L 49.15809575840831 95.3730178072583 L 48.680781613104045 94.75375594454817 L 48.3198855528608 94.11082802340388 L 47.87458638008684 93.26279426226392 L 47.43219766020775 92.63169937045313 L 46.96943577565253 92.02427053707652 L 46.431002136319876 91.31034444039688 L 45.962419346906245 90.52542016864754 L 45.42689615953714 89.92588002141565 L 44.91174613777548 89.27900775708258 L 44.43734244443476 88.73863275605254 L 43.98913281969726 88.21797947003506 L 43.39249013829976 87.63027235213667 L 42.98793729580939 87.13722946774215 L 42.51353360246867 86.48641286045313 L 41.96927905920893 85.87109534069896 L 41.50651717465371 85.35438639810309 L 40.94188946578652 84.80612271069549 L 40.40054537449032 84.33280154177919 L 39.914499872364104 83.81609259895049 L 39.35569306835532 83.12977690412663 L 38.875468471087515 82.50657069822773 L 38.371960257180035 81.89125317870639 L 37.92084018047899 81.16549405292608 L 37.577406832017004 80.58961996412836 L 37.14374946895987 80.01374587533064 L 36.646062158979475 79.43392744334415 L 36.1862107263878 78.81072123744525 L 35.71180703304708 78.10468382714316 L 35.23158243577927 77.53669842449017 L 34.73971602972597 76.94899130635895 L 34.166356964968145 76.40861630509607 L 33.68613236770034 76.07334714382887 L 33.19135550968349 75.69074586569332 L 32.6936681997031 75.17798126582056 L 32.24545857589692 74.64549495093524 L 31.68956222385168 74.07356520509347 L 31.09874044638127 73.5016354592517 L 30.571948614902794 73.08747943653725 L 30.039335880428553 72.62599129672162 L 29.59694715961814 72.17239184328355 L 29.18075250927359 71.73851410509087 L 28.674333842471242 71.27702596527524 L 28.09515387378633 70.74059530720115 L 27.501421644352376 70.10950041515753 L 26.901868510991335 69.46657249401323 L 26.407091652974486 68.89464274817146 L 25.90649389103055 68.31876865937375 L 25.37679160758853 67.7862823442556 L 24.835447516292334 67.20646391250193 L 24.285372068174183 66.42153964051977 L 23.76731159351766 65.64450405491516 L 23.292907900176942 64.99763179081492 L 22.940743195824325 64.50064456323162 L 22.710817479528487 64.16537540196441 L 22.512906735762954 63.93265916057862 L 22.198577908799052 62.85190915828571 L 21.79693551827222 62.09065094473772 L 21.342904989607632 61.4398343374487 L 20.836486323736608 60.68252046732232 L 20.027380638755858 60.5365797735285 L 19.352155749686062 60.12242375058122 L 18.787528041750193 59.5465496617835 L 18.15304948296398 59.08900586515665 L 17.387600579299033 58.77740276232362 L 16.79386834986508 58.24886079039425 L 16.316554204560816 57.73215184756555 L 15.909090909175575 57.06950221094303" stroke-linejoin="bevel" stroke-miterlimit="10" stroke-width="3"/></g></g></g><g><g fill="#444444"><path fill="" stroke="none" d=""/><g transform="translate(10,22)"><path fill="none" stroke="none"/><text fill="" stroke="none" font-family="helvetica" font-size="10pt" font-style="normal" font-weight="bold" text-decoration="normal" x="0" y="0" text-anchor="start" dominant-baseline="text-after-edge">1.00627</text></g></g></g><g/></g></g></svg>