<svg version="1.1" xmlns="http://www.w3.org/2000/svg" xmlns:xlink="http://www.w3.org/1999/xlink" width="150" height="160" style="width: 150px; height: 160px;"><defs><clipPath id="GZilBDWKUJcH"><path fill="none" stroke="none" d=" M 10 27 L 140 27 L 140 150 L 10 150 L 10 27 Z"/></clipPath></defs><g><g transform="scale(1,1) translate(0.5,0.5)"><rect fill="#FFFFFF" stroke="none" x="0" y="0" width="150" height="160"/><rect fill="#ffffff" stroke="none" x="0" y="0" width="150" height="160"/><rect fill="#FFFFFF" stroke="none" x="10" y="27" width="130" height="123"/><rect fill="#ffffff" stroke="none" x="10" y="27" width="130" height="123"/><g><rect fill="none" stroke="#FFFFFF" x="10" y="27" width="130" height="123" stroke-linejoin="bevel" stroke-miterlimit="10"/></g><g clip-path="url(#GZilBDWKUJcH)"><g><g/><g/><g><path fill="none" stroke="none"/><path fill="none" stroke="#440154" paint-order="fill stroke markers" d=" M 60.114021729677916 41.46210651251022 L 59.95856727799401 41.801206381525844 L 59.99500191491097 41.88454448495759 L 59.4922039215453 42.373078194621485 L 59.35132332472131 42.47940611967351 L 60.405498827341944 42.102947790466715 L 60.318055698182434 42.183412166137714 L 60.196606907527894 42.33284600672778 L 59.73510150285438 42.689188242016826 L 59.58450500248 42.7394784768112 L 59.47034313948825 42.90328095597215 L 59.56021524453536 43.26537064660806 L 59.41447669593617 44.70079763466492 L 58.47203408041969 45.55860535427928 L 57.82835548976436 45.99397510138806 L 57.536878392100334 46.56728377827676 L 57.70204874733463 47.301521206623875 L 57.81135265901685 47.88632479432272 L 58.258284208830446 48.244103893463034 L 58.27042908780277 48.30732590291882 L 59.14000242901966 49.09903788531665 L 60.599816892296076 50.59912374668056 L 64.29914705548435 53.074840163521 L 64.6051980080083 55.3551430964726 L 65.04484263015911 55.829308167565614 L 64.9525415492244 55.97155768889934 L 64.52989975782111 56.414111755322665 L 64.29671808006242 56.664126065559685 L 64.35744247538969 57.08800090185832 L 64.32100783800706 57.09518522111466 L 64.8675273959525 57.461585503362585 L 65.05941648501903 57.64981466793688 L 64.99140516249463 57.90557643357897 L 64.80680300062522 57.91994507209165 L 64.7727973391302 57.87540229270235 L 65.78810922894627 58.43146860337583 L 66.16217150446028 58.23030766408192 L 66.21803794801235 58.94586586236255 L 66.06744144763798 59.10104715835769 L 66.04558066511527 59.200190764153376 L 65.95327958418056 59.25910218205536 L 65.99700114876032 59.34387714933837 L 66.23746975464746 59.43439957196824 L 66.35163161763921 59.51342708384618 L 66.46093552932143 59.54072749702027 L 66.55080763436854 59.60826009808807 L 66.63825076352805 59.682977018353995 L 66.76455750595778 59.734704117057845 L 66.79613419156522 59.874079910689034 L 67.00259713549167 60.02064002357656 L 67.36937248334289 60.25772255909396 L 67.63170187128708 60.43589367676759 L 68.14421576773748 60.81235200597439 L 68.58628936577588 61.10834595945198 L 68.8559056809172 61.19599465437932 L 69.14495380269364 61.27502216625726 L 69.33441391587257 61.27933275781106 L 69.54816378746182 61.303759443282615 L 69.83964088512585 61.30088571558008 L 70.06553563568741 61.34111790347379 L 70.18455545045435 61.3985924575245 L 70.16998159559444 61.448882692318875 L 70.15054978942499 61.45319328387268 L 70.26714062830433 61.64142244850518 L 70.48331947578117 61.665849133976735 L 70.84766584774479 61.30232257943135 L 70.69706934690475 61.37272890820168 L 70.75536476681009 61.415834823739715 L 70.87195560568944 61.605500852223486 L 71.4500518492423 61.76786646747496 L 71.83383002784103 62.09834515338298 L 72.12044917372987 62.29663236497436 L 72.90986631298438 63.07684943656204 L 72.97544865962118 63.47055013192585 L 72.85399986896664 63.7507385830977 L 72.13259405270219 64.17892401095014 L 71.88969647139311 64.76372759864898 L 71.76338972896338 65.14018592785578 L 71.84354593092576 65.19478675420396 L 71.94799189083278 65.59136117732851 L 72.49208247289062 66.7925793575123 L 72.41678422270343 67.68630867340835 L 73.18434057943523 68.33720799832372 L 73.90088844439015 68.75246165151475 L 74.05634289653972 69.14041489153169 L 73.95432591252029 69.27691695746034 L 74.14864397747442 71.25835220923182 L 74.18022066308185 71.12759759870823 L 74.21908427588642 71.06724931689678 L 74.26280584046617 71.02701712906128 L 74.25308993738145 70.79855577659328 L 74.10006446111947 71.19800392742036 L 74.10249343700707 71.1735772419488 L 74.25066096149385 71.0888022746658 L 74.36239384906366 70.98965866892831 L 75.54773404588923 70.83591423678445 L 75.50401248084381 70.64912193600321 L 75.49672555364668 70.6994121708558 L 75.43843013420701 70.7396443586913 L 75.34370007738471 70.75832358875778 L 74.93563214084134 70.56434696877841 L 74.59314655140042 70.42784490279155 L 74.50084547046572 70.39479703421239 L 74.45469492999837 70.36893348488957 L 74.08549060625955 70.24536319362232 L 73.9470389848575 70.26260555983754 L 73.77458170242608 70.259731832135 L 73.15276389429346 71.59745207824744 L 73.69685447635129 70.53848341939738 L 73.33007912850007 69.82005149347242 L 73.05803383747116 70.18788863957161 L 73.37137171719223 69.29415932367556 L 73.2717837090604 69.07575601816643 L 73.27907063625753 69.04989246884361 L 72.75198288494721 69.05276619654614 L 72.19088947214186 69.28553814056795 L 72.6621107799001 71.70952745870454 L 72.65482385223731 71.74113846343243 L 72.62324716662988 71.75263337424258 L 72.58681252971292 71.77993378747487 L 72.55766481999308 71.77706005977234 L 72.56009379588068 71.82160283916164 L 72.71069029625505 72.02420064224862 L 73.83044814597815 72.24691453931155 L 73.74057604093105 72.06874342169613 L 73.50739436270669 71.93798881117254 L 73.71871525840834 71.95523117738776 L 73.19162750709802 72.25409885856789 L 73.50982333859429 72.40065897145541 L 73.69685447635129 72.28570986329578 L 73.66770676663145 72.29720477410592 L 73.77701067784801 72.16645016358234 L 73.83044814597815 72.17076075519435 L 74.01505030784756 72.20237175992224 L 73.9470389848575 72.24116708390648 L 74.4644108330831 72.74838002363686 L 74.40368643775582 72.759874934447 L 74.36239384906366 72.81734948849771 L 72.6645397557877 73.08747989265248 L 72.10587531886995 73.06017947947839 L 71.81925617251545 72.97109392064158 L 71.4500518492423 72.93373546050861 L 71.66137274494395 72.67941055871779 L 71.78039255971089 72.18369252985576 L 72.06458272971213 72.03282182535622 L 72.42164217447862 72.35036873666104 L 72.54551994102076 72.31444714037934 L 72.59409945691004 72.29576791025465 L 72.6402499973774 72.29576791025465 L 72.65239487681538 72.30438909342047 L 72.41435524681583 72.29864163795719 L 72.58195457793772 72.37192169443006 L 72.83213908690959 72.44520175090292 L 72.80299137718976 72.36761110287625 L 72.86128679662943 72.32737891504075 L 72.90986631298438 72.22536158154253 L 72.80056240130216 72.14202347811079 L 72.81513625616208 72.14202347811079 L 72.86614474793896 71.8546507077408 L 73.38837454793975 71.88338798476616 L 73.73086013738066 71.96097863279283 L 73.90817537205294 71.94804685813142 L 73.93003615410998 71.97534727130551 L 73.19648545887321 74.00132530246628 L 73.04588895849884 74.26714511506725 L 73.75029194401577 75.16374815866584 L 73.79401350859553 75.55744885408785 L 74.47169776074588 77.1638626405038 L 75.19067460112274 77.43974050006364 L 77.77024691458791 79.39674906636355 L 79.40008968533948 80.41261180961737 L 80.18950682459399 80.84223410132108 L 80.47369699459523 81.00603658048203 L 80.94006035057828 81.17414965113858 L 81.2995487707667 81.32502035557991 L 81.81206266768277 81.58221898507327 L 82.13268747460097 81.75464264728362 L 82.30028680572286 81.8408544784179 L 82.47760204039514 81.8853972578072 L 82.80065582320094 82.24605008465005 L 83.39332592161372 83.03488833934534 L 83.5463513978757 83.27340773877222 L 83.76495922124013 83.51767459354596 L 83.83297054376453 83.60819701623404 L 83.8232546406798 83.60963388008531 L 83.87669210834429 83.58520719461376 L 83.8961239149794 83.61394447163912 L 83.94713240722194 83.69440884736832 L 84.00542782666162 83.69871943892213 L 84.14387944806367 83.79067872540327 L 84.28233106946573 83.92574392748065 L 84.36248727096245 84.05075108259916 L 84.56409226357937 84.23035906412406 L 85.08875103900209 84.43152000335976 L 85.21505778143182 84.53353733685799 L 85.3656542818062 84.67434999434045 L 85.48224512068555 85.35542346013244 L 85.60855186311528 86.54945732105989 L 85.83201763778925 87.03368043916998 L 86.69673302723095 87.63860012078658 L 87.0246447622776 87.80527632759186 L 87.78491419181228 88.25645157712279 L 88.00837996648625 88.64871540869353 L 88.16869236994535 88.74642215057975 L 88.53546771779656 88.90447717433563 L 89.16214347770438 89.33697319374187 L 89.58235629322007 89.70481033984106 L 89.81796694733202 90.17035422782646 L 90.9935912406072 90.68044089525938 L 91.12475593434647 90.69624639762333 L 91.71499705687165 90.98074544029078 L 92.17893143743277 91.15173223864986 L 92.33924384089187 91.19340129039483 L 92.86147364089265 91.3155347178108 L 93.40556422295049 91.43623128137551 L 94.04438486183062 91.81987392978044 L 93.83063499024138 91.74228328181198 L 93.79905830463395 91.73366209870437 L 93.92050709528849 91.74372014566325 L 93.99337636958808 91.56554902804783 L 94.0273820310831 91.68193500000052 L 93.92536504706368 91.64313967601629 L 94.02252407930791 91.55980157258455 L 93.94722582912073 91.58135453041177 L 94.30185629799962 91.44197873678058 L 94.41116020968184 91.55549098103074 L 94.25813473341987 91.49226897157496 L 94.16826262837276 91.04827804135857 L 95.2175801792182 91.5483066617744 L 95.44833288155496 91.53250115941046 L 95.6426509465091 91.52100624860032 L 96.1114432788454 91.6158392628422 L 96.2717556823045 91.63739222061122 L 96.41263627959415 91.68337186385179 L 96.47578965034336 91.82849511294626 L 96.49279248109087 92.01385054981802 L 96.06772171379998 91.848611206864 L 95.80539232632145 91.99948191130534 L 96.0847245445475 92.16041066270554 L 96.49036350566894 92.39461947057862 L 97.83358713006601 92.52681094495347 L 98.20036247791722 92.54261644731741 L 98.39710951875895 92.48226816550596 L 98.92662624595687 92.40036692598369 L 99.10879943193868 92.32852373336209 L 99.78162573184818 92.64894437236944 L 99.73547519184649 92.75670916121453 L 100.03666819259524 92.94781205354957 L 100.51274745166302 93.16765222290996 L 100.65362804895267 93.1662153590587 L 101.28759073605761 93.519683866587 L 101.53048831736669 93.85878373566084 L 101.82925234222785 94.83010369952535 L 102.35391111811623 95.3876068740501 L 102.73768929671496 95.59020467719529 L 103.07531693438068 96.12184430239722 L 103.23320036241785 96.29426796460757 L 103.36436505615711 96.43077003053622 L 103.52467746008188 96.61612546740798 L 104.31166562344879 97.48399123398121 L 104.73187843896449 97.71963690570556 L 107.32845358317718 100.57324851554586 L 108.04743042355403 102.25294235837646 L 108.52593865897506 103.2415046885144 L 108.97044123290107 103.55617787205847 L 109.47566820168868 103.8952777411323 L 109.61897777486593 103.9800527083571 L 110.26265636505559 105.07781669124961 L 112.59447314590216 105.54336057923501 L 115.35378966946155 106.47732208296657 L 115.51896002469584 106.84946982061956 L 115.51653104880825 106.8925757361576 L 115.38779533049092 107.74750972806942 L 116.58042245497927 109.89993177819997 L 116.6775814872235 110.31374856753973 L 116.75773768918589 110.86263055895688 L 116.88161545572802 111.41007568652276 L 116.98120346385986 111.58680994028691 L 116.3350958977826 113.0926432570559 L 117.67346157087013 115.53387494146591 L 117.83377397432923 115.77383120474406 L 119.26201175246388 117.67623894463759 L 119.7186592053622 118.04838668229058 L 120.0660027465783 118.226557799906 L 120.36962472321466 119.10304474952864 L 120.2336020777002 119.27546841179719 L 120.21174129517749 119.39472811151063 L 120.24331798078492 119.52404585818294 L 120.29675544891506 119.72520679741865 L 120.37934062629938 119.94217323907651 L 120.36719574732706 120.1663239999325 L 120.33076110994443 120.13471299520461 L 120.35505086835474 120.23098287329776 L 120.42306219087914 120.40771712706191 L 120.57122971536592 120.75256445154082 L 120.82141422433779 120.8430868741707 L 121.04973795078695 120.94797793537145 L 121.28534860443324 121.01694740029052 L 121.74442503321916 121.50835483759874 L 122.22779121994972 121.90780298842583 L 122.9151913751848 122.05867369292537 L 123.51271942537278 122.14057493244763 L 123.70946646621451 122.24259226594586 L 123.6851767078042 122.45668497990118 L 123.77019086154178 122.45524811604992 L 123.86006296658888 122.563012904895 L 123.98879868444055 122.68370946845971 L 124.06895488640293 122.81015348742949 L 124.09567362023517 122.94952928106068 L 124.15154006378725 122.98976146895438 L 125.34173821238801 126.01579674100503 L 125.47290290612727 127.28167379455408 L 125.25915303453803 127.63226857437985 L 126.30361263407394 128.0690751853399 L 124.9020935902372 128.0963755985722 L 125.07940882444382 129.31627300882246 L 126.22831438388675 130.86521224112948 L 125.91011855239049 130.89538638206432 L 125.27372688939795 130.9629189830739 L 125.1571360505186 130.9269973867922 L 124.99925262248144 130.4485217240872 L 124.95067310659215 130.4298424940207 L 124.91666744509712 130.55484964913921 L 124.91180949332193 130.67554621270392 L 124.56446595210582 131.02901472029043 L 127.10031670099124 131.4428315096302 L 127.53510337136686 131.3882306832238 L 128.02089853398502 132.26040704135085 L 128.51398062426597 132.53053744550562 L 129.41755962651223 133.56939001043793 L 129.46371016697958 133.56507941888412 L 129.5511532961391 133.55933196347905 L 129.33740342454985 134.0406813538284 L 128.59170785034075 134.67577517637983 L 128.82974747987464 134.97607972141122 L 128.88561392342672 134.96602167445235 L 129.18680692417547 135.0579809609917 L 130.0636671925895 135.5105930743157 L 131.5526293660514 137.11988058843417 L 134.09090909082443 138.81537993368693 L 133.07559720100835 138.6099084028392 L 132.83755757147446 138.7852057928103 L 132.06028531119227 138.7665265626856 L 131.05468932446092 138.95331886346685 L 130.9453854127787 139.07114169932902 L 130.92352463072166 139.11424761486705 L 130.9672461953014 139.24787595309317 L 131.5623452696018 139.24069163383683 L 131.5380555111915 139.19183826289373 L 131.45789930969477 139.17315903282724 L 131.15427733305842 139.21626494836528 L 130.83122354978696 139.273739502416 L 130.75835427548736 139.21339122066274 L 131.28787100268528 139.0136671452201 L 131.40446184156463 139.03953069460113 L 131.45061238203198 138.99211418745108 L 130.350286338944 138.08545309689362 L 130.7875019852072 137.5624346547993 L 131.34130847034976 138.90877608407754 L 131.35102437390015 138.88291253469652 L 131.35102437390015 139.0625205162214 L 131.3850300349295 139.16741157736396 L 131.29758690577 139.15160607500002 L 131.1178426956758 139.12717938952846 L 131.110555768013 139.57260718359612 L 130.63204753305763 139.79963167221285 L 130.37214712100103 139.71198297728552 L 130.49359591165558 140.04677225474734 L 130.44744537118822 140.10424680879805 L 129.97865303931758 140.23356455547037 L 129.823198587168 140.31115520349704 L 129.63373847398907 140.35138739133254 L 129.25967619894072 140.3614454382914 L 127.20476266089827 139.98786083684536 L 126.36676600528881 139.85423249861924 L 125.61135452752933 139.5783546390594 L 124.98710774350911 139.65738215087913 L 124.05681000743061 139.7708943951875 L 123.6827477319166 139.7349727989058 L 122.74759204406291 139.64157664851518 L 122.04318905808032 139.78957362525398 L 121.28534860443324 140.25799124100013 L 120.35990881966427 140.9663651199662 L 120.29675544891506 140.94624902604846 L 119.70165637461469 140.97067571152002 L 119.33002307498828 140.85716346721165 L 118.86608869489282 141.2264374771621 L 118.8272250816226 141.3169598998502 L 118.81022225134075 141.54829497996252 L 119.30087536526844 141.82992029492743 L 119.35431283339858 141.91469526221044 L 119.31059126881883 142.08568206056952 L 118.88066254975274 141.96929608855862 L 113.30373408319429 141.90176348754903 L 113.20414607459679 141.96929608855862 L 113.02440186450258 142.01814945955994 L 112.81550994468853 142.24086335656466 L 112.74992759758607 142.29977477452485 L 112.7134929606691 142.36299678398063 L 112.73535374272615 142.39891838032054 L 112.8033650657162 142.40179210802307 L 112.70377705711871 143.5067404101137 L 111.6568884816952 143.3903544381028 L 111.02535477047786 142.85440422134707 L 111.09579506888986 142.69060174224433 L 112.3370017092675 143.68922211928293 L 112.108677983284 144.40909090911737 L 112.22526882216334 143.8156661382527 L 112.03823768440634 143.73663862643298 L 110.25536943785846 143.8199767298065 L 109.6772731943056 143.28833710460458 L 109.86916228337213 143.20499900123104 L 109.07974514411762 142.9018207284389 L 108.91457478888333 143.08430243766634 L 109.3275006772019 142.54691535705933 L 108.715398772154 142.22362099034945 L 108.96315430523828 142.18338880251395 L 108.16645023878664 140.96061766456114 L 108.49436197336763 140.6401970255538 L 108.49921992514282 140.00510320306057 L 108.58423407841474 139.32115600956604 L 108.60852383635938 139.19614885444753 L 108.82713165972382 139.02947264758404 L 108.78826804691926 138.964813774277 L 109.46109434682876 138.7262943748501 L 111.15651946421713 138.5438126656809 L 111.60102203814313 138.61134526669048 L 112.86894741235301 138.51507538865553 L 113.84782466525212 137.86130233603762 L 114.88499733712524 137.5265130585176 L 114.97244046675041 137.41156395035796 L 114.80969908693805 137.28799365909072 L 114.78540932899341 137.22333478578366 L 115.38050840329379 137.44892241054913 L 115.373221475631 137.4776596875745 L 115.39022430637851 137.5035232368973 L 115.302781177219 137.01642639108468 L 114.26803748076782 135.84969294338953 L 113.92312291543931 135.62985277402913 L 113.46647546254098 135.34391686751042 L 112.47545333066955 134.69876499800012 L 111.78319522412494 134.11108768259874 L 110.51526984991506 133.25040623528184 L 110.03676161449403 132.8452106290497 L 109.43923356477171 131.62387635494815 L 108.37777113448828 130.39679462544154 L 107.23858147813007 129.80049612687435 L 106.2159826606512 129.55479240824934 L 106.2888519349508 129.18982898985269 L 106.11153670074418 128.81911811605096 L 105.93179249064997 128.74871178733883 L 105.03792939148843 127.72566472477047 L 104.15135321952403 127.05033871438354 L 103.87687895260751 126.7744608548237 L 102.56766098970547 125.99568064708728 L 101.37746284110472 125.14649411063874 L 101.13213628390804 124.35047153668711 L 99.87635578867048 123.38920961972326 L 99.83749217586592 123.18804868048755 L 99.24482207745314 122.64922473602928 L 97.67570370202884 122.08597410609946 L 96.24503694847226 121.65491495054448 L 94.60304929874837 121.27414602978388 L 93.65331975603476 120.83302882721182 L 92.94405881827697 120.36604807537515 L 92.71573509182781 119.60738396155648 L 91.7878663316369 119.15046125667868 L 91.07860539387912 118.52542548108613 L 90.6486766752787 118.36162300198339 L 89.65522556751966 117.32420730090234 L 89.66251249518245 117.31558611779474 L 89.69166020490229 117.24086919752881 L 89.05041059013456 116.8960218730499 L 88.83666071854532 116.38018775021192 L 88.88524023490027 115.99510823789751 L 88.79293915396556 115.95918664161582 L 88.77836529910564 115.88159599358914 L 87.981661232654 115.00079845241271 L 87.66346540115774 114.4504795971443 L 87.7922011190094 113.98924630065449 L 87.1169458432123 113.26219319162192 L 86.72588073695078 112.92309332254808 L 86.63843760779127 112.83975521917455 L 85.59640698414296 111.62560526432935 L 85.58426210517064 111.50921929231845 L 85.58912005648017 111.4129494142253 L 85.4579553627409 111.31236894457834 L 85.35836735460907 111.076723272854 L 84.7608393044211 110.5881895632483 L 84.58352407021448 110.68877003289526 L 84.78755803825334 110.45312436117092 L 82.19826982170343 110.19736259552883 L 82.02824151469395 110.39421294321073 L 83.08241701778024 111.16580883169081 L 83.1941499048844 111.18305119790602 L 83.48076905077323 110.87412546976702 L 83.5682121803984 110.65284843655536 L 83.454050316941 110.8396407373366 L 83.34717538114637 110.8396407373366 L 83.36174923600629 110.67296453047311 L 83.1237096064724 110.25771087728208 L 82.47760204039514 110.08816094277427 L 81.70761670731008 110.26489519653842 L 81.23639539955184 110.25627401343081 L 81.10037275403738 110.26633206038969 L 80.84533029375598 110.22753673640545 L 80.67773096263409 110.15281981613953 L 79.70614063739777 109.76774030382512 L 79.51182257244363 109.2935752326739 L 78.75884007057175 108.84958430245752 L 78.86085705459118 108.63692845235346 L 78.80984856234863 108.60962803917937 L 78.73212133673951 108.50330011412734 L 77.86983492271975 108.21449047990609 L 76.51689539523795 108.24035402922891 L 76.01166842598468 108.21305361605482 L 75.72262030420825 108.10528882715153 L 75.13237918168306 108.00614522135584 L 74.76074588252231 107.82797410374042 L 73.09203949896619 106.61957160430029 L 72.67911361064762 106.44714794208994 L 72.69125848961994 106.39685770723736 L 72.71797722345218 106.38823652412975 L 72.8272811351344 106.3997314349399 L 71.91884418111295 106.83510118210688 L 72.58681252971292 106.87245964223985 L 72.37549163401127 106.52761231776094 L 72.43621602933854 106.5563495948445 L 72.50908530363813 106.56353391410084 L 72.76655673980713 106.50749622384319 L 72.79327547363937 106.49743817688432 L 74.11463831597939 106.16121203557122 L 74.12678319495171 106.15546458016615 L 74.17293373541906 106.2560450497549 L 74.2943825260736 106.53767036471982 L 75.1590979155153 106.6641143836896 L 74.73159817233682 105.27754076663405 L 72.829710111022 105.78044311481062 L 73.16733774915338 105.96292482397985 L 73.41023533046246 105.91550831688801 L 73.49039153195918 105.96579855168238 L 73.55597387906164 105.90401340607787 L 73.57297670980915 105.8709655374405 L 73.55597387906164 104.50307115045143 L 73.52196821756661 104.35507417371264 L 70.68735344382003 105.56060294545023 L 70.60962621774524 105.59077708632685 L 68.62029502680525 106.4442742143874 L 68.45026672026142 106.56928136950592 L 68.17579245334491 106.56497077795211 L 68.18065040465444 106.39542084338609 L 68.11506805801764 106.40116829879116 L 68.12235498521477 106.28909291839227 L 68.17822142923251 106.36093611095566 L 68.23894582455978 106.43421616742853 L 68.35796563932672 106.60089237423381 L 68.73202791437507 106.95723460952286 L 68.8559056809172 107.28627643157961 L 68.64215580932796 107.4745055961539 L 68.37011051829904 107.50611660094 L 68.35067871166393 107.41559417825192 L 68.17822142923251 107.42708908906206 L 68.09806522727013 107.41703104210319 L 67.50782410474494 106.94573969871271 L 67.10947207128629 106.31639333156636 L 65.26830840483308 105.92125577229308 L 63.73562466725707 105.63244613807183 L 63.6481815376319 105.63100927422056 L 63.551022505387664 105.59652454173192 L 63.5801702151075 105.49738093599444 L 63.623891779687256 105.58215590321925 L 63.31541185127571 105.61520377185661 L 63.179389205761254 105.56060294545023 L 63.145383544266224 105.48444916133303 L 63.23525564977899 105.4499644288444 L 61.741435524541885 104.18265051150229 L 60.98359507089481 102.79751375829801 L 60.925299651455134 102.6365850068396 L 60.728552610613406 101.78883533424232 L 60.71397875575349 101.54600534326164 L 60.60467484407127 101.39369777496904 L 60.10430582659319 100.92240643152036 L 59.72538559976965 100.1278207214782 L 59.730243551544845 100.18960586708272 L 59.64037144649774 100.1637423177599 L 59.6816640351899 99.97263942542486 L 58.43074149126187 98.47399042791221 L 56.599293728359044 97.42939040757483 L 55.416382507421076 96.49542890384328 L 53.7015255833976 95.51405089301988 L 52.09354359516874 94.69072790589416 L 52.0668248613365 94.72664950217586 L 49.71314729843289 94.72377577447332 L 48.95044889347628 94.43927673180588 L 48.1634607296437 93.97085911611794 L 47.03155800094828 93.06419802556047 L 46.86152969393879 92.95212264510337 L 47.8161171884276 90.1689173639752 L 48.85328986076638 87.85556656244444 L 48.41607421450317 86.88999405398499 L 47.18458347721025 85.57095303793903 L 44.301389187108725 84.31657089520013 L 44.10707112215459 84.22748533642152 L 43.01646098215133 83.18288531608414 L 42.499089133925736 82.01615186833078 L 41.96471445495263 80.59221979108406 L 42.343634681776166 79.32634273759322 L 41.74853560794145 76.21553249825956 L 41.43762670364231 75.0847206467879 L 41.345325622707605 73.3734157992294 L 40.99069515429437 72.95385155442636 L 36.756990312132984 70.71809140092228 L 36.26876617362723 70.35025425482308 L 35.06642314605415 69.27691695746034 L 34.55148027371615 67.86591665487504 L 36.56510122260079 64.53239251847845 L 38.449986453633755 63.42025989713147 L 39.27826720569283 62.739186431339476 L 43.54354873346165 60.79942023125477 L 44.21637503383681 60.70602408092236 L 44.835763866081834 60.87844774313271 L 46.45831970917061 60.91867993096821 L 47.34732485655695 58.45876901654992 L 46.41945609636605 56.967304338293616 L 42.08616324560717 54.76459205331048 L 38.180370138492435 52.75441952451365 L 38.12936164624989 52.17967398377368 L 35.11986061418429 49.377789472579025 L 33.27626797184348 48.46969151817029 L 32.31925150146708 46.959547609847505 L 32.018058500718325 46.26841609709663 L 31.755729113239795 45.97529587132158 L 32.91435057576746 44.568606160290074 L 33.319989536423236 43.723730215395335 L 33.623611513059586 43.486647679819725 L 34.454321241471916 42.47653239191277 L 34.57091208035126 41.825633067055605 L 34.245429321192205 40.11576508329017 L 32.909492623992264 39.1243290254497 L 32.4528451715596 38.67602750367951 L 31.964621033053845 38.207609887991566 L 31.233499313239008 37.957595577754546 L 30.652974093798548 37.8297146949335 L 30.17203688295558 37.71620245062513 L 26.88563260808587 37.13139886292629 L 24.218617165461183 37.286580158921424 L 23.61866013938561 37.25784288183786 L 18.012583963107318 36.588264326856006 L 16.56005642702803 35.737640926556196 L 15.909090909175575 34.421473638212774 L 18.19961510039866 32.59090909094084" stroke-linejoin="bevel" stroke-miterlimit="10" stroke-width="3"/></g></g></g><g><g fill="#444444"><path fill="" stroke="none" d=""/><g transform="translate(10,22)"><path fill="none" stroke="none"/><text fill="" stroke="none" font-family="helvetica" font-size="10pt" font-style="normal" font-weight="bold" text-decoration="normal" x="0" y="0" text-anchor="start" dominant-baseline="text-after-edge">2.22631</text></g></g></g><g/></g></g></svg>