<svg version="1.1" xmlns="http://www.w3.org/2000/svg" xmlns:xlink="http://www.w3.org/1999/xlink" width="150" height="160" style="width: 150px; height: 160px;"><defs><clipPath id="XhwWGBoHSaXi"><path fill="none" stroke="none" d=" M 10 27 L 140 27 L 140 150 L 10 150 L 10 27 Z"/></clipPath></defs><g><g transform="scale(1,1) translate(0.5,0.5)"><rect fill="#FFFFFF" stroke="none" x="0" y="0" width="150" height="160"/><rect fill="#ffffff" stroke="none" x="0" y="0" width="150" height="160"/><rect fill="#FFFFFF" stroke="none" x="10" y="27" width="130" height="123"/><rect fill="#ffffff" stroke="none" x="10" y="27" width="130" height="123"/><g><rect fill="none" stroke="#FFFFFF" x="10" y="27" width="130" height="123" stroke-linejoin="bevel" stroke-miterlimit="10"/></g><g clip-path="url(#XhwWGBoHSaXi)"><g><g/><g/><g><path fill="none" stroke="none"/><path fill="none" stroke="#440154" paint-order="fill stroke markers" d=" M NaN NaN" stroke-linejoin="bevel" stroke-miterlimit="10" stroke-width="3"/><path fill="none" stroke="none"/><path fill="none" stroke="#440154" paint-order="fill stroke markers" d=" M NaN NaN" stroke-linejoin="bevel" stroke-miterlimit="10" stroke-width="3"/><path fill="none" stroke="none"/><path fill="none" stroke="#440154" paint-order="fill stroke markers" d=" M NaN NaN" stroke-linejoin="bevel" stroke-miterlimit="10" stroke-width="3"/><path fill="none" stroke="none"/><path fill="none" stroke="#440154" paint-order="fill stroke markers" d=" M NaN NaN" stroke-linejoin="bevel" stroke-miterlimit="10" stroke-width="3"/><path fill="none" stroke="none"/><path fill="none" stroke="#440154" paint-order="fill stroke markers" d=" M NaN NaN" stroke-linejoin="bevel" stroke-miterlimit="10" stroke-width="3"/><path fill="none" stroke="none"/><path fill="none" stroke="#440154" paint-order="fill stroke markers" d=" M NaN NaN" stroke-linejoin="bevel" stroke-miterlimit="10" stroke-width="3"/><path fill="none" stroke="none"/><path fill="none" stroke="#440154" paint-order="fill stroke markers" d=" M NaN NaN" stroke-linejoin="bevel" stroke-miterlimit="10" stroke-width="3"/><path fill="none" stroke="none"/><path fill="none" stroke="#440154" paint-order="fill stroke markers" d=" M NaN NaN" stroke-linejoin="bevel" stroke-miterlimit="10" stroke-width="3"/><path fill="none" stroke="none"/><path fill="none" stroke="#440154" paint-order="fill stroke markers" d=" M 91.99231631029397 116.00715727265924 L 95.10154865682125 124.82503402698785 L 96.40308777894825 124.92605716455728 L 98.05583586916327 126.21049420442432 L 98.59297899901867 126.31151734199375 L 98.64462737739086 126.16719857323915 L 97.63231917098165 126.61458675563335 L 94.27000977378339 112.8610081197694 L 94.90011998359114 108.30053503531963 L 95.24099927674979 105.39972778968513 L 98.63946253899485 108.40155817382038 L 104.31045442633331 113.17850941047072 L 109.17056678142399 115.05465340055525 L 109.46496253553778 114.57840146496892 L 112.03188691381365 110.71065846923739 L 113.78793176077306 106.8717792276293 L 114.31991005223244 106.91507485881448 L 115.28573471866548 106.9439386120066 L 116.62342770397663 108.0407612528652 L 117.11925213132054 106.53984605986625 L 117.13474664464593 106.15018538571894 L 118.03859325684607 108.17064814455807 L 105.99419154413044 121.10160980001092 L 103.79913548566401 117.56579997204244 L 103.44276167824864 116.54113671556115 L 102.53375022858381 115.89170225802809 L 101.74869488552213 115.80511099658906 L 97.72012141346931 111.56213920377195 L 96.15517556481063 111.85077674034983 L 93.90847112890333 111.04259163700044 L 92.54495395347476 107.8242830997333 L 92.2195691736415 106.9439386120066 L 88.8882488021627 98.45799502544105 L 88.58352337311953 97.93844745866954 L 88.01022637914866 91.6750129070133 L 85.89780772477388 88.83193316776305 L 85.51560972910374 87.93715680297464 L 84.96297208592296 87.80726991128176 L 84.1159386895597 87.02794856205583 L 83.8680264763534 86.4939691182226 L 82.8763776216656 85.65692026168108 L 81.82275071367621 82.1932698180899 L 79.45725500769913 83.26122870482504 L 78.08857299480587 84.27146008424461 L 77.86132013238966 83.79520814772695 L 75.16010997164994 78.98939315788448 L 73.86890052538365 71.29720279760659 L 74.53516459930688 65.65433895029128 L 75.72824212815613 87.57635988201946 L 77.93362786155194 78.25336743798107 L 76.97296803351492 77.86370676290244 L 81.91055295523256 83.07361430581659 L 81.8330803886056 82.72724926099181 L 89.1568203670904 91.761604167521 L 90.22077695094049 90.88125967979431 L 91.43967866804451 90.0442108232528 L 99.58462785370648 88.93295630533248 L 100.52979316841811 88.65875064581633 L 102.6008931202814 87.38874548301101 L 103.46858586743474 81.99122354201972 L 104.87858658283949 82.30872483272105 L 105.94770800415426 84.58896137494594 L 106.07682894915342 87.64851926639676 L 106.67595013137907 92.46876613330096 L 108.53012689668685 91.55955789238214 L 111.86144726723433 91.94921856746078 L 124.41716792061925 85.06521331053227 L 130.10881915967911 83.4632749799639 L 129.95387402549386 88.0526118176058 L 130.3825555620715 87.93715680297464 L 131.1366218784824 94.85002581309527 L 132.417501648888 102.72983057238162 L 133.50728242099285 107.60780494660139 L 133.54860112350434 110.4220209326595 L 134.09090909082443 122.16956868674606 L 131.8855233574286 126.61458675563335 L 131.15728122927248 128.00004693306983 L 129.17914835829288 133.0944994604215 L 127.8569498853758 138.83838644623756 L 127.6038728337735 143.7452245745808 L 126.3333227392286 144.40909090917557 L 127.18552097305655 138.95384146086872 L 128.96739000920206 133.45529638137668 L 129.44255508482456 128.44743511546403 L 127.94991696532816 119.3842164548114 L 123.60628838837147 117.60909560229629 L 119.48474783729762 118.67705448903143 L 119.58287975471467 118.02762003149837 L 119.32980270311236 117.91216501686722 L 119.12837402988225 116.69988736137748 L 119.48474783729762 118.1286431690678 L 118.94243986997753 123.07877692766488 L 116.58210900239646 118.56159947440028 L 116.36518581490964 118.22966630756855 L 115.55430628266186 118.33068944513798 L 115.15144893620163 118.63375885877758 L 115.02749282866716 118.98012390360236 L 115.6885920651257 117.17613929696381 L 117.11925213132054 112.54350682906806 L 117.4756259387359 110.19111090246588 L 117.68738428782672 109.42622143030167 L 117.54276883043349 110.59520345460624 L 117.95079101528972 109.96020087320358 L 114.01518462318927 111.57657107990235 L 112.10419464297593 115.93499788828194 L 109.433973508887 121.18820106144994 L 106.62946659140289 126.1239029429853 L 106.24210375733674 126.3548129722476 L 104.79594917781651 126.00844792835414 L 103.90243224147707 126.13833482004702 L 103.47375070583075 124.10344018414617 L 103.02440981846303 123.48286947980523 L 100.5711118709296 126.8022011546418 L 100.25605676602572 126.70117801707238 L 98.64462737739086 128.17322945501655 L 98.15913262497634 128.5773220071569 L 96.39275810308754 131.44926549959928 L 95.91242818906903 134.84075655881315 L 95.65418630000204 134.98507532756776 L 95.81429627072066 134.23461773153394 L 96.13968105148524 132.17085934244096 L 96.10869202483445 131.79563054442406 L 95.0034167394042 133.12336321454495 L 91.93550309538841 136.1973529830575 L 91.25374450720847 136.09632984455675 L 88.96572136878967 133.8449570564553 L 88.03605056833476 133.41200075112283 L 85.93396158982068 132.90688506141305 L 82.44253124762326 133.22438635211438 L 79.3281340636313 134.47995963785797 L 77.92846302408725 135.8942835694179 L 77.13824284262955 135.77882855478674 L 75.65593439899385 135.14382597338408 L 73.58999928459525 132.60381564777344 L 70.73900882806629 126.3548129722476 L 70.55307466816157 126.90322429314256 L 68.92615076620132 129.63084901683033 L 68.6937330653891 130.79983104206622 L 68.1720844488591 132.02654057368636 L 67.29922686330974 135.3170084953308 L 65.33142366819084 137.85701882001013 L 59.360871189273894 126.85992866195738 L 49.82141580153257 105.54404655750841 L 47.770975201390684 99.61254517361522 L 44.91481990646571 90.0442108232528 L 37.64789314381778 71.78788661025465 L 34.36822115071118 69.60867320653051 L 33.71745159011334 73.50527995545417 L 33.25261618942022 72.81254986673594 L 33.11316556856036 71.51368094980717 L 32.415912467986345 70.5611770786345 L 30.7734940527007 63.79262683633715 L 29.848988089710474 60.7186370678246 L 29.301515283994377 54.42633876204491 L 28.619756696745753 51.25132585596293 L 27.101294388063252 41.43764959927648 L 23.76997401751578 32.73522785957903 L 23.630523396655917 32.590909090824425 L 23.92491915076971 32.8651147512719 L 24.131512662395835 33.13932041171938 L 25.727447537705302 41.45208147633821 L 25.649974970147014 47.02278593927622 L 25.469205647706985 48.494837378151715 L 25.38656824361533 49.3751818658784 L 24.952721869572997 52.85326418559998 L 23.97656752821058 57.90442108269781 L 22.437445868737996 65.32240578252822 L 15.909090909175575 83.41997934971005" stroke-linejoin="bevel" stroke-miterlimit="10" stroke-width="3"/></g></g></g><g><g fill="#444444"><path fill="" stroke="none" d=""/><g transform="translate(10,22)"><path fill="none" stroke="none"/><text fill="" stroke="none" font-family="helvetica" font-size="10pt" font-style="normal" font-weight="bold" text-decoration="normal" x="0" y="0" text-anchor="start" dominant-baseline="text-after-edge">0.73941</text></g></g></g><g/></g></g></svg>