<svg version="1.1" xmlns="http://www.w3.org/2000/svg" xmlns:xlink="http://www.w3.org/1999/xlink" width="150" height="160" style="width: 150px; height: 160px;"><defs><clipPath id="yCTXbDGikeCi"><path fill="none" stroke="none" d=" M 10 27 L 140 27 L 140 150 L 10 150 L 10 27 Z"/></clipPath></defs><g><g transform="scale(1,1) translate(0.5,0.5)"><rect fill="#FFFFFF" stroke="none" x="0" y="0" width="150" height="160"/><rect fill="#ffffff" stroke="none" x="0" y="0" width="150" height="160"/><rect fill="#FFFFFF" stroke="none" x="10" y="27" width="130" height="123"/><rect fill="#ffffff" stroke="none" x="10" y="27" width="130" height="123"/><g><rect fill="none" stroke="#FFFFFF" x="10" y="27" width="130" height="123" stroke-linejoin="bevel" stroke-miterlimit="10"/></g><g clip-path="url(#yCTXbDGikeCi)"><g><g/><g/><g><path fill="none" stroke="none"/><path fill="none" stroke="#440154" paint-order="fill stroke markers" d=" M 51.7842353861779 68.4923617199529 L 51.74578399863094 68.82035579020157 L 55.51993556600064 77.65395879838616 L 57.270952593535185 79.4996203458868 L 60.199173636734486 85.1255525322631 L 60.54523612372577 86.0039095338434 L 60.92087660077959 87.02680629491806 L 61.31722167134285 88.18868359434418 L 62.195687984116375 89.61740352702327 L 63.17767726350576 91.30740687181242 L 64.55305381398648 93.85908955312334 L 68.34790997393429 96.22731792414561 L 77.67680812533945 93.00852865935303 L 80.04896295070648 90.95717591536231 L 81.01024763658643 91.16286711185239 L 81.82955796830356 92.3747774050571 L 82.57492332533002 93.275371292606 L 88.5703819654882 100.99157077376731 L 94.9296498876065 108.85786923626438 L 96.46474758628756 110.77024144190364 L 100.18861656915396 114.68949261936359 L 101.53145733010024 115.97923201392405 L 104.47150956932455 118.71992822713219 L 107.42930860351771 121.94983593514189 L 108.16580056305975 122.57802796782926 L 114.79422819707543 127.84816997661255 L 120.58559870440513 136.46496334532276 L 127.3619162896648 140.4676028455142 L 131.07986967545003 138.7998363871593 L 133.66794382967055 137.89368327800184 L 134.09090909082443 139.0277644698508 L 127.67248518858105 143.8531687562354 L 124.86849170457572 144.40909090894274 L 120.20108482986689 135.03624341241084 L 118.95880923606455 133.20170030812733 L 118.38499622326344 132.57906749704853 L 117.73723823484033 131.923079356784 L 112.94560380093753 127.94823596416973 L 109.15074764098972 119.00344852521084 L 107.87002065964043 116.06817955826409 L 106.59520927537233 112.60478454618715 L 101.1439856570214 104.9052627296187 L 94.97697467263788 98.19528234517202 L 88.23319287598133 93.72566823638044 L 85.94681422319263 89.1115143680945 L 83.51846121624112 77.79293933673762 L 78.48724506050348 68.09209776995704 L 76.29551597684622 65.1067958092317 L 72.63671857211739 58.51355907693505 L 71.24359522759914 55.61720466078259 L 68.51354672014713 54.32190604461357 L 64.33713448420167 53.60476646735333 L 57.75898943375796 46.98929284885526 L 54.83964178804308 42.730929158395156 L 52.656786100938916 40.72405018657446 L 51.0595746235922 39.84013396361843 L 47.03696793783456 37.07720086420886 L 39.43246662244201 36.45456805289723 L 38.0038496889174 38.611546005820855 L 28.808052494190633 40.37937845196575 L 27.00971068162471 38.59486834122799 L 19.109429463744164 34.13637267565355 L 15.909090909175575 32.590909090824425 L 15.920922105200589 39.29533025389537 L 16.87037559505552 39.906844621989876 L 22.859918638132513 43.225699874339625 L 24.83868619147688 44.7044528007973 L 27.15760063380003 46.34998237318359 L 33.16489047091454 53.4546674862504 L 34.540267021395266 58.35790087399073 L 36.35635562799871 60.86510978336446 L 42.68900335859507 67.09699711645953 L 44.2181854583323 68.52015782753006 L 49.95039998553693 77.14251041784883 L 55.6382475271821 86.3763773762621 L 59.22309995535761 94.71520966850221 L 62.074418223463 106.53411463741213 L 64.60037859808654 109.4193506105803 L 70.80288317147642 108.6521780397743 L 71.66656048968434 107.77938025980256 L 74.86394124478102 105.06648015393876 L 76.69777664542198 103.7545038734097 L 77.72413291037083 103.18746327748522 L 77.82469807751477 102.35358004830778" stroke-linejoin="bevel" stroke-miterlimit="10" stroke-width="3"/><path fill="none" stroke="none"/><path fill="none" stroke="#440154" paint-order="fill stroke markers" d=" M 69.61089016124606 85.83713288791478 L 63.74853247683495 79.76646297913976 L 61.09538674354553 78.03198586241342 L 68.36269896943122 81.37307800073177 L 71.09274747688323 83.32436475716531" stroke-linejoin="bevel" stroke-miterlimit="10" stroke-width="3"/><path fill="none" stroke="none"/><path fill="none" stroke="#440154" paint-order="fill stroke markers" d=" M NaN NaN" stroke-linejoin="bevel" stroke-miterlimit="10" stroke-width="3"/></g></g></g><g><g fill="#444444"><path fill="" stroke="none" d=""/><g transform="translate(10,22)"><path fill="none" stroke="none"/><text fill="" stroke="none" font-family="helvetica" font-size="10pt" font-style="normal" font-weight="bold" text-decoration="normal" x="0" y="0" text-anchor="start" dominant-baseline="text-after-edge">1.01136</text></g></g></g><g/></g></g></svg>