<svg version="1.1" xmlns="http://www.w3.org/2000/svg" xmlns:xlink="http://www.w3.org/1999/xlink" width="150" height="160" style="width: 150px; height: 160px;"><defs><clipPath id="RLMnJNKWpihX"><path fill="none" stroke="none" d=" M 10 27 L 140 27 L 140 150 L 10 150 L 10 27 Z"/></clipPath></defs><g><g transform="scale(1,1) translate(0.5,0.5)"><rect fill="#FFFFFF" stroke="none" x="0" y="0" width="150" height="160"/><rect fill="#ffffff" stroke="none" x="0" y="0" width="150" height="160"/><rect fill="#FFFFFF" stroke="none" x="10" y="27" width="130" height="123"/><rect fill="#ffffff" stroke="none" x="10" y="27" width="130" height="123"/><g><rect fill="none" stroke="#FFFFFF" x="10" y="27" width="130" height="123" stroke-linejoin="bevel" stroke-miterlimit="10"/></g><g clip-path="url(#RLMnJNKWpihX)"><g><g/><g/><g><path fill="none" stroke="none"/><path fill="none" stroke="#440154" paint-order="fill stroke markers" d=" M 15.909090909175575 77.98238873074297 L 16.335240077693015 77.55561324837618 L 17.400612999219447 77.99741603643633 L 18.801578390877694 79.08539297012612 L 22.229415765963495 79.33785170607734 L 25.183162190485746 79.69550158211496 L 25.833039672579616 78.86298884556163 L 26.253861976787448 77.7179081501672 L 27.359186382964253 75.55397612729575 L 27.97443924518302 74.67938693473116 L 27.934487760532647 69.48595007997938 L 28.091630266513675 67.05753747664858 L 29.724314268678427 63.27967282012105 L 32.93641362665221 56.81793136300985 L 34.59839538438246 53.9296832048567 L 37.10468518221751 49.839250589488074 L 39.21945043141022 47.4228598306654 L 42.79111315077171 43.11302855180111 L 45.26011489611119 40.40811352327 L 46.04582742601633 39.3982785793487 L 47.55865697422996 37.68516572797671 L 49.1194283044897 36.23953891824931 L 55.120141284540296 32.590909090824425 L 57.95403325604275 33.10784840746783 L 58.81698532216251 33.567683962290175 L 60.68405136745423 34.62560628459323 L 62.481868172064424 36.05320032744203 L 67.25207542814314 40.42614629014861 L 70.42688673455268 42.199368364410475 L 76.22784229181707 46.16357161174528 L 81.2324315905571 50.99635312939063 L 87.55009301519021 54.77722324710339 L 93.30577022349462 58.870661323540844 L 98.84837284777313 65.32338639721274 L 104.1805643197149 70.09605869196821 L 108.62583283474669 72.98130138905253 L 114.52000852301717 76.47064177587163 L 116.2272686297074 77.53758048161399 L 122.09480999456719 81.76325884833932 L 126.09528531506658 84.3509608922759 L 131.53667751140893 88.45040989108384 L 134.09090909082443 91.45587103394791 L 132.53812805749476 98.48564464692026 L 128.14080132404342 103.14410941826645 L 126.0207092105411 106.36295830225572 L 121.99626299971715 112.55120279523544 L 118.73355842754245 119.04600432491861 L 114.96746514970437 124.71730950137135 L 112.01105529256165 131.26019840931986 L 109.21445137402043 138.0555460532196 L 106.58298025792465 144.03641372732818 L 105.58685657614842 144.40909090905916 L 102.55054374970496 143.2970702862367 L 98.85902657685801 139.6183858474251 L 93.75855371495709 134.88478454749566 L 90.70093343034387 132.05664561211597 L 85.01450546178967 127.82495632302016 L 79.83945649582893 122.5894430122571 L 75.75641477433965 117.00229074782692 L 70.67458593845367 111.48726955079474 L 65.39832654502243 107.6102246765513 L 60.95572146214545 102.72935578064062 L 55.69011579779908 97.9807271749014 L 50.464461617637426 93.31925694248639 L 45.53977528819814 89.8569657059852 L 40.46860018186271 85.64631464483682 L 35.940765265375376 80.81052766612265 L 33.844644042197615 78.47227889695205 L 29.577825491782278 78.85998338437639 L 29.146349458489567 78.40916421299335 L 28.87467936379835 77.4323893415276" stroke-linejoin="bevel" stroke-miterlimit="10" stroke-width="3"/></g></g></g><g><g fill="#444444"><path fill="" stroke="none" d=""/><g transform="translate(10,22)"><path fill="none" stroke="none"/><text fill="" stroke="none" font-family="helvetica" font-size="10pt" font-style="normal" font-weight="bold" text-decoration="normal" x="0" y="0" text-anchor="start" dominant-baseline="text-after-edge">1.01824</text></g></g></g><g/></g></g></svg>