<svg version="1.1" xmlns="http://www.w3.org/2000/svg" xmlns:xlink="http://www.w3.org/1999/xlink" width="150" height="160" style="width: 150px; height: 160px;"><defs><clipPath id="MqacOLTMTByP"><path fill="none" stroke="none" d=" M 10 27 L 140 27 L 140 150 L 10 150 L 10 27 Z"/></clipPath></defs><g><g transform="scale(1,1) translate(0.5,0.5)"><rect fill="#FFFFFF" stroke="none" x="0" y="0" width="150" height="160"/><rect fill="#ffffff" stroke="none" x="0" y="0" width="150" height="160"/><rect fill="#FFFFFF" stroke="none" x="10" y="27" width="130" height="123"/><rect fill="#ffffff" stroke="none" x="10" y="27" width="130" height="123"/><g><rect fill="none" stroke="#FFFFFF" x="10" y="27" width="130" height="123" stroke-linejoin="bevel" stroke-miterlimit="10"/></g><g clip-path="url(#MqacOLTMTByP)"><g><g/><g/><g><path fill="none" stroke="none"/><path fill="none" stroke="#440154" paint-order="fill stroke markers" d=" M 16.565811519045383 64.00106876157224 L 16.035870949737728 64.20283379557077 L 15.909090909175575 63.181592316017486 L 16.67230675322935 62.89912126841955 L 18.09477880783379 63.215737167862244 L 19.342294406611472 64.06935846537817 L 19.938160597346723 64.36114174523391 L 23.756775417830795 66.41914509166963 L 25.283207105938345 67.38761725462973 L 25.983032929711044 67.9308308075415 L 26.551007511094213 68.3995465018088 L 27.144338100682944 68.58579114859458 L 27.742739892099053 68.39644242438953 L 29.974068605341017 66.22048413509037 L 33.96510428143665 63.44233482144773 L 36.99261164944619 60.33204922103323 L 38.12095401016995 58.74276156898122 L 39.12505193101242 57.035518973949365 L 42.768710295669734 50.96704756806139 L 45.75057684909552 46.6741084610112 L 48.20250283321366 44.15359757526312 L 49.41452002059668 42.81263611884788 L 52.026188855525106 39.752015757607296 L 55.30472070351243 34.68305728910491 L 57.756646687630564 32.59090909094084 L 58.60100175719708 32.94166984222829 L 62.57175262691453 37.10423769662157 L 63.24368684180081 37.92992229713127 L 67.80776830064133 43.10752347612288 L 70.52086116792634 45.8887768673012 L 75.52360156737268 50.29967091733124 L 80.05725581664592 55.095470570609905 L 85.2400238737464 58.73034525918774 L 91.09726174594834 62.09516521007754 L 95.0578702124767 64.35493359039538 L 96.6071223076433 65.3513424503617 L 102.52775020059198 68.92103151266929 L 107.97168514085934 72.53417765919585 L 113.48915250459686 76.09455448912922 L 118.72770377947018 79.79151072667446 L 124.15642511472106 84.05030498187989 L 129.44822400668636 88.52017650334165 L 134.09090909082443 93.21043752355035 L 133.7993149976246 100.0052630516002 L 129.56993284542114 104.93764211249072 L 128.59879773529246 105.56776983395685 L 124.91456975741312 111.52139037428424 L 121.79578076023608 117.54640469595324 L 120.22624385822564 121.27440170804039 L 117.15309567609802 128.02577015187126 L 115.47706354036927 130.53386472782586 L 111.91200880054384 136.40988333208952 L 108.75265019061044 142.56526890641544 L 103.36703406879678 144.40909090905916 L 98.56460613338277 140.23100266745314 L 96.90632320335135 138.69138025457505 L 91.71594834374264 134.05388855095953 L 89.34769718674943 131.80032832559664 L 88.6301221572794 130.8846254791133 L 84.31960077956319 126.01122388977092 L 80.86357687460259 122.36703696881887 L 75.74927003961056 117.42224159813486 L 74.16451953304932 115.89503549493384 L 68.79665261693299 110.97817682137247 L 63.55049453955144 105.89990612061229 L 58.276444853749126 101.23447771999054 L 53.352308079600334 96.65285941050388 L 48.34449647832662 91.79497820837423 L 43.481214123778045 87.5579124953365 L 38.02460117917508 82.74969653226435 L 35.65381442150101 79.44385405280627 L 33.07003719545901 76.44841931795236" stroke-linejoin="bevel" stroke-miterlimit="10" stroke-width="3"/></g></g></g><g><g fill="#444444"><path fill="" stroke="none" d=""/><g transform="translate(10,22)"><path fill="none" stroke="none"/><text fill="" stroke="none" font-family="helvetica" font-size="10pt" font-style="normal" font-weight="bold" text-decoration="normal" x="0" y="0" text-anchor="start" dominant-baseline="text-after-edge">1.01469</text></g></g></g><g/></g></g></svg>