<svg version="1.1" xmlns="http://www.w3.org/2000/svg" xmlns:xlink="http://www.w3.org/1999/xlink" width="150" height="160" style="width: 150px; height: 160px;"><defs><clipPath id="VTXMOqUrqmKu"><path fill="none" stroke="none" d=" M 10 27 L 140 27 L 140 150 L 10 150 L 10 27 Z"/></clipPath></defs><g><g transform="scale(1,1) translate(0.5,0.5)"><rect fill="#FFFFFF" stroke="none" x="0" y="0" width="150" height="160"/><rect fill="#ffffff" stroke="none" x="0" y="0" width="150" height="160"/><rect fill="#FFFFFF" stroke="none" x="10" y="27" width="130" height="123"/><rect fill="#ffffff" stroke="none" x="10" y="27" width="130" height="123"/><g><rect fill="none" stroke="#FFFFFF" x="10" y="27" width="130" height="123" stroke-linejoin="bevel" stroke-miterlimit="10"/></g><g clip-path="url(#VTXMOqUrqmKu)"><g><g/><g/><g><path fill="none" stroke="none"/><path fill="none" stroke="#440154" paint-order="fill stroke markers" d=" M 23.929591777268797 36.93408976763021 L 21.995235685259104 42.34434500709176 L 21.025436560623348 45.02139171725139 L 20.414725220296532 46.64696436992381 L 18.346694114152342 55.48933077638503 L 18.100312714930624 55.02755581936799 L 17.24059889651835 55.932385127060115 L 16.569602745119482 56.86529534414876 L 16.068976710550487 57.923009603866376 L 15.909090909175575 58.568870523478836 L 15.94316493254155 59.420658113085665 L 16.18168309563771 60.0696391336387 L 16.480486068874598 60.51893368642777 L 16.82122630206868 61.049350866815075 L 17.164587613660842 61.63592986622825 L 17.486980295740068 62.0945847221883 L 17.89062641747296 62.72484513639938 L 18.46726373489946 63.158539183903486 L 19.148744200821966 63.464309087838046 L 19.979626153595746 63.969765459769405 L 20.792160555254668 64.50330274109729 L 21.444809155073017 65.14604355965275 L 22.045036180876195 65.81374518666416 L 22.60856810491532 66.29736085108016 L 23.164236792363226 66.59065035078675 L 23.78805352654308 66.82153782935347 L 24.427596732974052 66.73729510069825 L 25.019960522651672 66.28176034579519 L 25.593976761214435 65.73262255906593 L 26.123434661421925 65.24900689464994 L 26.68958766385913 64.77163143234793 L 27.384173523634672 64.1101700074505 L 28.144286350812763 63.598473433521576 L 28.967305067460984 63.15541908284649 L 29.6933438712731 62.70612453005742 L 30.34337139269337 62.078984216903336 L 31.022230779752135 61.39880218554754 L 31.690605852287263 60.84030409576371 L 32.45071867946535 60.36292863334529 L 33.13744130311534 59.81067074567545 L 33.745531565044075 59.30521437374409 L 34.37983261374757 58.765436890302226 L 35.042965528555214 58.097735263290815 L 35.72444599447772 57.352031109738164 L 36.513390687759966 56.53456463175826 L 37.09527016244829 55.80446098349057 L 37.821308966726065 54.98699450562708 L 38.44250462204218 54.28497176687233 L 39.10825861571357 53.667191756889224 L 39.80022339662537 53.00885043304879 L 40.4476298391819 52.29434729006607 L 41.07668873062357 51.48624111537356 L 41.67691575642675 50.56581130239647 L 42.27452170336619 49.73586442018859 L 42.92454922478646 49.052562287892215 L 43.495944384951144 48.32557874068152 L 44.24557289713994 47.69531832647044 L 44.968990622553974 47.139940337627195 L 45.56659656949341 46.572081944555975 L 46.40272067952901 45.75461546657607 L 47.094685460440814 44.89970777591225 L 47.736849745735526 44.02607947890647 L 48.37377187330276 43.211733101983555 L 48.98710429249331 42.447308342088945 L 49.62402642052621 41.63920216728002 L 50.18755834409967 40.79053467873018 L 50.77205889765173 39.779621935100295 L 51.41946534020826 39.01831727626268 L 52.00920805102214 38.238292011083104 L 52.5937086045742 37.383384320302866 L 53.172967000398785 36.66888117743656 L 53.767951868940145 35.985579045140184 L 54.349831343628466 35.26795580110047 L 54.887152480427176 34.4848104348639 L 55.56863294634968 33.77654749399517 L 56.21603938890621 33.09324536169879 L 56.99449976719916 32.64395080890972 L 57.86469790060073 32.59090909094084 L 58.80304408026859 33.26797102112323 L 59.69158976478502 34.09167770121712 L 60.6377991810441 34.83114165253937 L 61.678367430809885 35.67044883791823 L 62.574776351451874 36.61895956040826 L 63.44235340598971 37.6111516978126 L 64.2994461460039 38.369336255593225 L 65.09363299654797 39.01207707414869 L 65.77511346247047 39.473852031165734 L 66.4618360856548 40.163394365576096 L 67.10662144981325 40.76557387027424 L 67.78810191573575 41.289750848547556 L 68.54035150678828 42.25698217737954 L 69.287358940579 43.07756875641644 L 70.05533500388265 43.90439553745091 L 70.8154478315264 44.228886047843844 L 71.56507634418085 44.97771030245349 L 72.38547398196533 45.59861041349359 L 73.15082896640524 46.406716588302515 L 73.89521532179788 47.07753831637092 L 74.70250756572932 47.51747256598901 L 75.5229052035138 48.2382159109693 L 76.28301803115755 48.94647885183804 L 76.98022496933118 49.55177845759317 L 77.75868534762412 49.982352404040284 L 78.68130505504087 50.42540675459895 L 79.63799878628924 50.9807847434422 L 80.51606015581638 51.56112354074139 L 81.39150044647977 52.235065369983204 L 82.2905304459855 52.924607704393566 L 83.16859181551263 53.570468624006025 L 83.94443111494184 54.26625116053037 L 84.76220767432824 54.75298692600336 L 85.65861659450457 55.34268602647353 L 86.652005427517 55.916784621658735 L 87.56676189927384 56.51272392435931 L 88.46317081991583 57.15858484397177 L 89.36744297621772 57.7638844497269 L 90.20094600785524 58.38790466194041 L 91.07900737738237 58.93704244855326 L 91.97017414029688 59.4487390225986 L 92.8587198248133 60.041558224125765 L 93.72629687935114 60.63437742565293 L 94.61484256386757 61.52360622806009 L 95.55056766513735 62.17882745084353 L 96.43911334965378 62.74980594497174 L 97.4167757104151 63.47054928995203 L 98.4127856218256 64.11953031062149 L 99.25415188958868 64.77787163446192 L 99.93301127664745 65.61405871878378 L 100.68526086769998 66.4284050957067 L 101.44537369534373 67.2396313714562 L 102.28149780537933 67.97909532289486 L 103.1805278044194 68.65615725307725 L 104.06645241007209 69.41122170980088 L 104.95237701572478 70.16940626758151 L 105.74918494513258 70.91511042113416 L 106.61414092127234 71.60465275554452 L 107.46337042516097 72.22555286670104 L 108.36764258146286 72.98997762659565 L 109.29550444660708 73.67015965783503 L 110.17356581613421 74.27233916264959 L 111.03065855614841 74.94316089071799 L 111.85367727279663 75.67638463992625 L 112.64000088721514 76.34720636811107 L 113.44729313114658 77.0523492078064 L 114.23361674603075 77.59212669136468 L 115.00683496659622 78.12254387163557 L 115.86392770661041 78.70288266893476 L 116.72888368275017 79.29258176952135 L 117.64888231176883 79.97276380076073 L 118.5583966257982 80.67478653939907 L 119.40238397195935 81.33936806535348 L 120.28044534148648 82.01330989447888 L 121.09822190040722 82.62172960140742 L 121.90289306594059 83.3019116326468 L 122.75212256982923 83.98521376494318 L 123.56203589262441 84.59675357292872 L 124.39291784539819 85.23013408819679 L 125.11109341308475 85.8073527845554 L 125.79257387900725 86.41577249136753 L 126.54744454892352 87.13027563435026 L 127.26824119547382 87.7730164527893 L 128.05718588875607 88.39703666500282 L 128.86185705428943 89.07097849412821 L 129.64555959030986 89.70123890845571 L 130.46857830695808 90.2815777057549 L 131.38071369938552 90.84319589671213 L 132.1827637865208 91.49529701843858 L 132.87472856696695 92.24100117199123 L 133.43563941214234 93.08654855948407 L 133.83142229821533 94.10994170734193 L 134.08304585469887 95.22069768502843 L 134.09090909082443 96.42817679559812 L 133.9336443678476 97.64501620933879 L 133.66105218185112 98.84937521885149 L 133.32293302752078 99.99445230816491 L 132.9035604330711 101.19257111544721 L 132.34264958789572 102.24716527399141 L 131.50652547786012 103.13951417745557 L 130.65729597443715 103.91329924052116 L 129.81068754941225 104.59972147387452 L 128.8854467626661 105.1956607765751 L 127.92875303188339 105.74167846213095 L 127.09525000071153 106.41562029137276 L 126.33251609420404 107.26428777980618 L 125.83713221736252 108.47800709248986 L 125.28932676604018 109.68860630411655 L 124.66551003186032 110.7744014733471 L 124.2173055713065 111.9694001795724 L 123.7376481667161 113.09575666254386 L 123.24226428940892 114.20963274128735 L 122.7861965931952 115.29542791040149 L 122.28032840089872 116.38746328174602 L 121.70369108347222 117.360934812692 L 121.12967484490946 118.28136462566908 L 120.56352184247226 119.20491453970317 L 120.09959091013297 120.07230263459496 L 119.59110163943842 120.9615314368857 L 119.10882315598428 121.95060347323306 L 118.68158732540905 123.06447955197655 L 118.27532012434676 124.15651492320467 L 117.91099018324167 125.19238847540691 L 117.43395385704935 126.05041626712773 L 116.93070674361661 126.7898802185664 L 116.4143542367965 127.49502305826172 L 115.8088850537315 128.12216337153222 L 115.30563794029877 128.8616273229709 L 114.78404327621683 129.64789279026445 L 114.26244861166924 130.42167785333004 L 113.69629560923204 131.13618099631276 L 113.08034211117774 131.85692434140947 L 112.4827361642383 132.5589470800478 L 111.87988805957139 133.25160951551516 L 111.31897721486166 133.96299255744088 L 110.81573010142893 134.8210203491617 L 110.30199867347255 135.70400894933846 L 109.73322459217161 136.53707593260333 L 109.19852453423664 137.4606258466374 L 108.73197252303362 138.40913656912744 L 108.244451881852 139.39508850430138 L 107.82245820900425 140.43096205650363 L 107.39522237842903 141.4512351034209 L 106.99943949235603 142.47774835245218 L 106.4463918833062 143.4293791759992 L 105.59716237988323 144.11892151040956 L 104.5932892318815 144.40909090905916 L 103.66018520947546 144.3404486858053 L 102.77163952495903 143.98475716484245 L 101.91978894267231 143.5760239259107 L 101.02600110089406 143.11424896889366 L 100.22919317148626 142.6087925969623 L 99.35375288082287 142.01285329437815 L 98.45210180291906 141.28586974716745 L 97.55307180341333 140.57136660430115 L 96.63831533212215 139.79446144017857 L 95.75763288373128 138.99259546748362 L 94.94771956047043 138.2749722234439 L 94.15091163152829 137.50118716037832 L 93.29119781265035 136.78356391645502 L 92.53632714273408 136.0753009755863 L 91.8207726534456 135.357677731663 L 91.14715542411432 134.64941479079425 L 90.49712790269405 133.87874982878566 L 89.84185822401196 133.05816324974876 L 89.18920962372795 132.2656575803412 L 88.57063504680991 131.4045096875634 L 87.83149084961042 130.5433617947856 L 87.12642067484558 129.69781440729275 L 86.31126519478858 128.88658813142683 L 85.441067061387 128.12216337153222 L 84.54727921960875 127.28597628721036 L 83.61679627560079 126.4029876870336 L 82.69679764658213 125.60112171433866 L 81.713893128559 124.75869442801923 L 80.73098861053586 123.900666636182 L 79.70090467529371 123.06135945091955 L 78.70227368501946 122.20645176025573 L 77.78489613486454 121.3484239684185 L 76.90421368647367 120.51847708632704 L 76.03139447420835 119.70101060834713 L 75.1874071280472 118.91162503999658 L 74.37487272638828 118.1284796736436 L 73.57282263971865 117.27045188192278 L 72.8231941270642 116.45610550511628 L 72.0919131655246 115.6261586229084 L 71.39470622735098 114.87421426724177 L 70.64245663629845 114.15971112425905 L 69.83516439190134 113.45144818350673 L 68.95710302237421 112.67454301938415 L 68.06331518059596 111.85395644034725 L 67.17739057494327 111.0084090528544 L 66.31505567766726 110.23462398978882 L 65.45272078039125 109.44211832038127 L 64.58252264698967 108.69641416682862 L 63.73591422196478 107.97255072067492 L 62.88144256127998 107.19564555655234 L 62.02172874240205 106.37505897751544 L 61.19608894735575 105.56383270176593 L 60.35996483732015 104.78380743646994 L 59.52384072728455 104.00066207023337 L 58.70606416789815 103.24871771456674 L 57.9276037896052 102.47805275255814 L 57.11506938794628 101.68866718420759 L 56.310398222412914 100.87120070622768 L 55.50834813574329 100.12549655267503 L 54.66698186798021 99.49211603729054 L 53.80202589230612 98.79945360182319 L 52.88726942054927 98.08183035778347 L 51.990860499907285 97.32988600211684 L 51.104935894254595 96.59354215185158 L 50.284538256470114 95.87279880675487 L 49.513941114302725 95.13021475425921 L 48.71975426375866 94.42819201562088 L 47.95964143658057 93.7448898833245 L 47.16807566443458 93.08966866054107 L 46.36078342003748 92.40636652812827 L 45.57708088448271 91.66066237457562 L 44.8405577656813 90.98984064650722 L 44.03850767854601 90.30653851421084 L 43.28625808749348 89.63259668508545 L 42.541871732566506 89.05849808990024 L 41.76079027540982 88.42199747345876 L 40.99805636936799 87.71061443164945 L 40.290365116205066 87.1021947247209 L 39.61674788640812 86.56241724127904 L 38.945751735474914 86.0039191513788 L 38.15418596332893 85.28629590733908 L 37.41504176566377 84.53123145061545 L 36.704729434102774 83.84792931831907 L 36.01014357479289 83.05542364879511 L 35.221198881510645 82.33468030381482 L 34.51874978560954 81.86042494256981 L 33.76650019455701 81.33624796429649 L 33.00114520965144 80.77462977333926 L 32.30655935034156 80.09756784315687 L 31.59100486105308 79.40178530663252 L 30.794196931645274 78.68104196153581 L 29.973799293860793 77.93221770692617 L 29.200581072829664 77.25203567568678 L 28.474542269017547 76.63113556464668 L 27.87431524321437 75.92287262377795 L 27.300299004651606 75.23957049148157 L 26.707935214973986 74.56562866235618 L 26.21517241653055 73.9291280459147 L 25.79055766481906 73.32382844015956 L 25.56514489511028 72.82773237139918" stroke-linejoin="bevel" stroke-miterlimit="10" stroke-width="3"/></g></g></g><g><g fill="#444444"><path fill="" stroke="none" d=""/><g transform="translate(10,22)"><path fill="none" stroke="none"/><text fill="" stroke="none" font-family="helvetica" font-size="10pt" font-style="normal" font-weight="bold" text-decoration="normal" x="0" y="0" text-anchor="start" dominant-baseline="text-after-edge">1.01012</text></g></g></g><g/></g></g></svg>