<svg version="1.1" xmlns="http://www.w3.org/2000/svg" xmlns:xlink="http://www.w3.org/1999/xlink" width="150" height="160" style="width: 150px; height: 160px;"><defs><clipPath id="sFTGBCMuqETb"><path fill="none" stroke="none" d=" M 10 27 L 140 27 L 140 150 L 10 150 L 10 27 Z"/></clipPath></defs><g><g transform="scale(1,1) translate(0.5,0.5)"><rect fill="#FFFFFF" stroke="none" x="0" y="0" width="150" height="160"/><rect fill="#ffffff" stroke="none" x="0" y="0" width="150" height="160"/><rect fill="#FFFFFF" stroke="none" x="10" y="27" width="130" height="123"/><rect fill="#ffffff" stroke="none" x="10" y="27" width="130" height="123"/><g><rect fill="none" stroke="#FFFFFF" x="10" y="27" width="130" height="123" stroke-linejoin="bevel" stroke-miterlimit="10"/></g><g clip-path="url(#sFTGBCMuqETb)"><g><g/><g/><g><path fill="none" stroke="none"/><path fill="none" stroke="#440154" paint-order="fill stroke markers" d=" M 74.73600292764604 71.2826335625723 L 75.24308641348034 72.83391016139649 L 74.31778974365443 71.43896376248449 L 78.10261906031519 85.00361495255493 L 76.27816404402256 83.99348135339096 L 74.05117883812636 82.36403965437785 L 72.40446442551911 81.94916335470043 L 71.45302943140268 81.82890935475007 L 69.0587589526549 81.14346155547537 L 66.80040775798261 80.54820425575599 L 64.82957812771201 80.39788675587624 L 62.75942286569625 80.85485195554793 L 60.804276229813695 81.12542345537804 L 59.12096816394478 81.78682045498863 L 57.12922787386924 82.30992535455152 L 55.3936431594193 82.37005235441029 L 53.39144754037261 81.22162665519863 L 51.96952271461487 79.55610875645652 L 50.90307909436524 77.87255275784992 L 50.19211668148637 75.81620935932733 L 50.07188039086759 73.92822156054899 L 50.615557530894876 72.43105926178396 L 51.7029118090868 71.09623986273073 L 52.98891735076904 69.94180146348663 L 54.44220816530287 69.00382026424631 L 55.86936065647751 68.10191526496783 L 57.30174081213772 67.3563404653687 L 58.79162528086454 66.57468946604058 L 60.208322442136705 65.80506386654451 L 61.614564274437726 64.85505726723932 L 63.13581473194063 63.826885567978024 L 64.63092686515301 62.87687896867283 L 66.0685346852988 61.80060566961765 L 67.51137017086148 60.628129170276225 L 69.08489727601409 59.431601871270686 L 70.70024570077658 58.19899837207049 L 72.25808981154114 56.894242473179474 L 74.00935752037913 55.89012157381512 L 75.77108055818826 54.99422927456908 L 77.4543886249885 54.05624807509594 L 79.1115583665669 53.028076375834644 L 80.79486643336713 52.029968176735565 L 82.49385749362409 51.0378726774361 L 84.2398975379765 50.16001847805455 L 85.9859375813976 49.12583407876082 L 87.68492864258587 47.86316707963124 L 89.48324533458799 46.744804880581796 L 91.15087040606886 45.46409978135489 L 92.86031679622829 43.990988282486796 L 94.51225887425244 42.632118083536625 L 96.1276072980836 41.33938758447766 L 97.81614302936941 39.89032688550651 L 99.60923205595464 38.48936778656207 L 101.30299545172602 37.653602487174794 L 102.9444821998477 36.589354587951675 L 104.51278164051473 35.74156388849951 L 106.02357676811516 34.91181128914468 L 107.65460818633437 34.11212218971923 L 109.3117779288441 33.258318790467456 L 111.02122431900352 32.67508689081296 L 112.98682628478855 32.590909090824425 L 115.13016885332763 33.19819179037586 L 117.13759213779122 33.925728489877656 L 119.1972920699045 35.02003988903016 L 121.00606409087777 36.24663068819791 L 122.79915311839432 37.40106908744201 L 124.53473783284426 38.8922186861746 L 126.19190757535398 40.257101585390046 L 127.62428773101419 41.609959084307775 L 128.85278895962983 43.14921028306708 L 129.51670238934457 44.45997888222337 L 129.114172199741 43.81661998271011 L 128.7743739867583 43.44984528282657 L 128.57049505971372 43.41376908286475 L 128.51299074664712 43.630226282868534 L 128.58617805410177 44.38181378226727 L 128.86847195401788 45.22359178168699 L 129.21872549504042 46.22771268081851 L 129.51147472392768 47.38215108006261 L 130.00287521537393 48.57867837930098 L 130.48382037784904 49.99166287807748 L 131.01704218704253 51.50085057714023 L 131.63913429901004 52.961936675943434 L 132.37623503617942 54.453086274908856 L 132.940822834149 56.2809470735956 L 133.51586596295238 58.006591972196475 L 134.09090909082443 59.66609717113897 L 117.16373046208173 73.53739606100135 L 112.95546029601246 81.49219815502875 L 111.36625019647181 87.69129185052589 L 110.93758168257773 92.30303274723701 L 110.93758168257773 96.11508454452269 L 111.25646923482418 99.29580284212716 L 111.63808876555413 102.55468623968773 L 112.32814051955938 105.35059173754416 L 112.86658999416977 107.99016703572124 L 113.5095927650109 110.5996788337361 L 114.45580009371042 113.02880963194184 L 115.2817711327225 115.43388963025063 L 115.85158659610897 117.74877912853844 L 116.03455486427993 120.31018932675943 L 115.86204192601144 122.65514232497662 L 115.31313712149858 124.84977782331407 L 114.30942547973245 126.49124492215924 L 112.9711432904005 127.7839754212182 L 111.5649014590308 128.95043922029436 L 110.11683830805123 129.906458519632 L 108.58513252157718 130.6219698190689 L 107.11615871172398 131.30741761857644 L 105.66809556167573 131.94476381829008 L 104.18866642285138 132.79255451750942 L 102.70923728402704 134.34984381636605 L 101.26117413397878 135.75681561534293 L 99.77128966525197 136.89922861452214 L 98.32322651520371 138.0476543137338 L 96.86993569973856 138.89544501318596 L 95.44801087398082 139.57488011266105 L 93.92676041647792 140.47678511193953 L 92.55188457295299 141.31856311135925 L 91.06200010422617 142.04609981086105 L 89.40483036264777 142.80370001029223 L 87.64310732390732 143.45307160983793 L 85.70887134689838 143.657503409544 L 83.86350567173213 143.26667790999636 L 82.33702754974365 142.32268401049078 L 80.97260703612119 141.03596621146426 L 79.82252078037709 139.71918491250835 L 78.70380051247776 138.37234011339024 L 77.9562444454059 136.88119051465765 L 77.50143760815263 135.54637111560442 L 77.60599090438336 134.33180571650155 L 76.87934549618512 133.00299901748076 L 76.02200846932828 131.77039551828057 L 75.26399707235396 130.6159571192693 L 74.11913848109543 129.32923932000995 L 73.06837785523385 127.04441332188435 L 72.36264310777187 125.14440012327395 L 71.09754822496325 123.02792972465977 L 69.81154268421233 121.13994192611426 L 69.08489727601409 119.51651292736642 L 68.58304145559669 118.07346492842771 L 67.736159757711 116.5522518295329 L 66.85268440563232 114.75445453077555 L 65.96398138999939 113.13703823206015 L 65.08050603792071 111.51962193311192 L 64.16566469799727 110.10062473407015 L 63.156725390814245 108.39301793533377 L 62.59736525733024 106.69743653666228 L 62.03800512291491 105.15217263787054 L 61.24862773809582 103.70311193889938 L 60.140362800098956 102.16987343993969 L 59.37189607415348 100.48631744110025 L 58.76025929208845 98.86890114238486 L 57.79314130358398 97.99104694300331 L 56.50713576283306 97.3537007435225 L 55.34659417625517 96.47584654414095 L 54.15991426631808 95.68818284478039 L 52.92618537321687 94.65399844548665 L 51.82837576419115 93.46949654631317 L 50.78284280374646 92.33910894719884 L 49.90459511708468 91.78594054747373 L 48.52971927449107 91.20270864805207 L 47.520779967308044 91.04637844813988 L 46.428198023699224 91.22675944794901 L 45.05854984559119 91.51536904787645 L 43.76731663942337 91.87011834746227 L 42.48653876315802 92.18879144731909 L 41.42532280832529 92.4774010470137 L 40.181138585321605 92.69385824701749 L 39.0571906529367 93.13278534659185 L 37.76595744676888 93.80620774603449 L 36.3231219612062 94.40146504575387 L 35.1730357054621 95.1710906450171 L 34.043860107660294 96.00685594440438 L 32.84672486782074 96.80654504382983 L 31.81164723727852 97.32964994362555 L 30.781797271221876 97.97902154293843 L 29.563751372508705 98.8749138424173 L 28.110460557043552 99.71669184183702 L 26.709446390159428 100.1135300414171 L 25.21433425694704 100.49834284116514 L 23.849913743324578 101.07556204078719 L 22.49072089511901 101.53853994049132 L 21.277902660891414 101.85721304011531 L 19.903026818297803 101.9353781400714 L 18.70589157845825 101.72493364033289 L 17.48261801432818 101.00340964086354 L 16.954623869620264 99.68662834190764 L 16.322076428681612 98.09326284285635 L 15.909090909175575 96.37363064428791 L 16.285482774488628 94.49766824557446 L 16.94939620513469 92.53151534707285 L 18.03152281884104 90.89606094826013 L 19.558000940829515 89.63940664916299 L 21.246536672115326 88.42484125006013 L 22.788697788491845 87.17419965099543 L 24.456322860904038 86.00773585168645 L 26.13440326228738 84.89538635266945 L 27.70270270295441 83.81911305338144 L 29.260546813718975 82.76087785419077 L 30.870667573064566 81.82289665495045 L 32.449422342702746 80.98713135556318 L 33.897485493682325 80.07921365625225 L 35.37691463250667 79.09914355678484 L 36.89816509000957 77.92666705767624 L 38.32008991576731 76.86241915845312 L 39.91452768072486 75.83424745919183 L 41.69193371292204 75.07664725976065 L 43.38569710962474 74.26493276050314 L 44.98013487365097 73.59151036082767 L 46.59548329748213 72.79783396143466 L 48.216059386730194 71.89592896215618 L 49.74253750871867 70.99402396287769 L 51.35265826806426 70.17028406332247 L 53.114381305873394 69.37660766392946 L 54.83428302593529 68.47470266465098 L 56.53327408619225 67.42849286529236 L 58.3786397613585 66.36424496606924 L 60.25537142530084 65.43227646686137 L 62.121647760272026 64.56043496751226 L 63.92519211675972 63.694606168195605 L 65.47258089855313 62.79270116868429 L 67.10883998125792 61.9509231694974 L 68.83396936580539 61.16927216993645 L 70.41795180086046 60.48983707046136 L 71.94965758826584 59.738249571062624 L 73.63296565413475 58.80026837182231 L 75.29013539664447 57.940452272305265 L 76.67546656914055 57.02050917292945 L 78.25944900419563 56.094553373754025 L 79.84865910373628 55.28283887426369 L 81.36468189675361 54.561314874794334 L 83.12117727007717 53.96605757530779 L 85.1965601965785 53.737574975471944 L 87.3660410894081 53.80371467536315 L 89.60870928969234 54.61542917485349 L 91.68931988067925 56.03442637366243 L 93.62355585768819 57.519563272595406 L 95.33300224784762 59.12495417147875 L 97.05813163239509 60.83857367024757 L 98.66825239174068 62.66042176890187 L 100.15290919598192 64.65663816733286 L 101.48596371989697 66.82121016574092 L 102.50013069156557 68.92565516429022 L 103.37315071374178 70.83168106293306 L 104.20434941723943 72.76175776147284 L 105.06691410951316 74.5775931600947 L 105.89811281301081 76.3212761587929 L 106.79727115947753 78.16116235754453 L 107.67029118072242 79.94092155620456 L 108.522400544025 81.624477555044 L 109.41633122507483 83.35613515367731 L 110.35208322480321 85.09981815237552 L 110.98985833022743 86.74729795125313 L 111.6485440954566 88.4849682499189 L 112.42223848588765 90.12643534876406 L 113.24298186041415 91.62961034779437 L 114.02190391533077 93.13278534659185 L 114.95765591505915 94.86444294522516 L 115.77839928865433 96.47584654414095 L 116.46845104265958 98.05117394309491 L 117.21077944524586 99.80086964182556 L 118.04720581322908 101.45436214050278 L 118.82090020366013 102.96956253936514 L 119.66255423706025 104.5629280381836 L 120.56171258352697 106.07211573701352 L 121.35108996834606 107.44902403606102 L 122.27638663817197 108.87403393513523 L 123.36374091729522 110.38923433399759 L 124.4092738777399 111.89842203282751 L 125.3084322232753 113.35950813186355 L 126.30691620055586 114.98894983064383 L 127.2792618535459 116.44402322964743 L 127.79680066928267 117.98327442840673 L 128.2097861887887 119.8472114270553 L 128.25160750746727 121.88551672548056 L 127.9274922888726 123.96591092413291 L 127.23221287038177 125.87794952257536 L 125.15682994388044 127.33302292157896 L 123.71922212373465 128.45739782066084 L 122.19797166623175 129.70803941972554 L 120.58262324240059 130.89254131889902 L 118.75294056162238 131.98685271805152 L 116.99644518829882 133.2495197171811 L 115.18244550190866 134.46408511628397 L 113.35276282113045 135.51630761567503 L 111.87333368230611 136.47833961481228 L 110.2423022640869 137.71695581404492 L 108.12509801890701 138.65493701328523 L 106.17517904751003 139.12994031282142 L 104.8578075170517 139.61696901265532 L 103.35746771935374 140.392607311951 L 102.07668984308839 141.21033451147377 L 100.68090334068984 141.95590931084007 L 98.97145695053041 142.82173811015673 L 97.0842699566856 143.5252240097616 L 95.6780281253159 143.97617650940083 L 94.12541167903692 144.40909090917557 L 92.24345234967768 144.3670020091813 L 90.6594699146226 144.04832890932448 L 89.23231742344797 143.35085570975207 L 87.98290553595871 141.9919855108019 L 86.82759161479771 140.41064541204832 L 85.94934392813593 138.83531801309437 L 85.11291756015271 137.3020795143675 L 84.10397825296968 135.51630761567503 L 83.18390924762934 134.07927231653593 L 82.5513618066907 132.8226180174388 L 82.27429557219148 131.73431931831874 L 82.09132730402052 130.64602061919868 L 81.23399027623236 129.305188520113 L 80.1832296513021 127.92226752103306 L 78.9181347694248 126.52130842208862 L 77.66872288193554 125.12636202317663 L 76.57614093832672 123.59913622424938 L 75.49924198910594 122.174126325408 L 74.65758795570582 120.55671002645977 L 73.95185320731252 119.25195412756875 L 72.90632024686784 117.97726172837429 L 71.83464896213263 116.62440422945656 L 70.8884416334331 115.2535086304415 L 69.52402111981064 114.29748933110386 L 68.45757750049233 113.5098256317433 L 67.69956610351801 112.92058103205636 L 67.09838465135545 112.10886653279886 L 66.40833289735019 111.27911393321119 L 65.80715144518763 110.4373359340243 L 65.10664436221123 109.58954523457214 L 64.32772230636328 108.52529733534902 L 63.49129593838006 107.43699863622896 L 63.020806105807424 106.34869993687607 L 62.581682262942195 105.31451553758234 L 62.210518062114716 104.5629280381836 L 61.71911757066846 103.91956913867034 L 60.91405719053 102.7410799395293 L 60.354697057045996 101.32809544051997 L 59.11051283404231 99.69865374173969 L 58.67138899024576 97.58218334335834 L 58.48842072207481 95.66413204465061 L 58.41000575013459 93.95652524591424 L 58.284541795030236 92.21885494724847 L 57.662449683994055 90.64954024832696 L 57.165821528062224 88.88781914976425 L 56.80511265620589 87.06597105110995 L 56.28234617598355 85.59887225204147 L 55.456375136971474 84.39031955297105 L 54.53630613256246 83.2899954537861 L 53.5378221552819 82.08745545474812 L 52.64911913871765 81.22162665519863 L 51.572220189496875 79.73047705646604 L 50.43258926272392 78.10704805748537 L 49.13612839113921 76.78425405849703 L 47.541690627112985 75.58772675949149 L 45.86883789021522 74.6256947601214 L 44.06529353372753 74.01841206056997 L 42.26697684172541 73.71176436077803" stroke-linejoin="bevel" stroke-miterlimit="10" stroke-width="3"/></g></g></g><g><g fill="#444444"><path fill="" stroke="none" d=""/><g transform="translate(10,22)"><path fill="none" stroke="none"/><text fill="" stroke="none" font-family="helvetica" font-size="10pt" font-style="normal" font-weight="bold" text-decoration="normal" x="0" y="0" text-anchor="start" dominant-baseline="text-after-edge">1.01051</text></g></g></g><g/></g></g></svg>