<svg version="1.1" xmlns="http://www.w3.org/2000/svg" xmlns:xlink="http://www.w3.org/1999/xlink" width="150" height="160" style="width: 150px; height: 160px;"><defs><clipPath id="pcUvGaOMLGfx"><path fill="none" stroke="none" d=" M 10 27 L 140 27 L 140 150 L 10 150 L 10 27 Z"/></clipPath></defs><g><g transform="scale(1,1) translate(0.5,0.5)"><rect fill="#FFFFFF" stroke="none" x="0" y="0" width="150" height="160"/><rect fill="#ffffff" stroke="none" x="0" y="0" width="150" height="160"/><rect fill="#FFFFFF" stroke="none" x="10" y="27" width="130" height="123"/><rect fill="#ffffff" stroke="none" x="10" y="27" width="130" height="123"/><g><rect fill="none" stroke="#FFFFFF" x="10" y="27" width="130" height="123" stroke-linejoin="bevel" stroke-miterlimit="10"/></g><g clip-path="url(#pcUvGaOMLGfx)"><g><g/><g/><g><path fill="none" stroke="none"/><path fill="none" stroke="#440154" paint-order="fill stroke markers" d=" M 15.909090909175575 66.05889547546394 L 15.929186440072954 66.17205121612642 L 15.951793912798166 66.36354554654099 L 16.032176036853343 66.3548412588425 L 16.429062775336206 66.42157413158566 L 16.667697206605226 66.57244845246896 L 16.8560928106308 66.68560419313144 L 17.197716838680208 66.9380285377847 L 17.544364749453962 67.17594573623501 L 17.84328577388078 67.35293292044662 L 18.230124746914953 67.44577865640167 L 18.770192143972963 67.48639866581652 L 19.443392434623092 67.48639866581652 L 20.21707038069144 67.32391862792429 L 20.877710964530706 67.03087427373976 L 21.4428977756761 66.63627989590168 L 21.864903927780688 66.3113198201172 L 22.153777186758816 65.81807684781961 L 22.57327139796689 65.46700390870683 L 23.007837257348 65.00277522893157 L 23.43235535081476 64.54434940754436 L 23.897064506541938 64.05981072306167 L 24.36428560409695 63.639103482011706 L 24.87169776344672 63.024000481236726 L 25.384133805520833 62.39439033425879 L 25.856378785334527 61.802498767501675 L 26.373838710132986 61.387594384956174 L 26.788309038151056 61.05683145055082 L 27.250506252981722 60.50555989332497 L 27.677536287810653 60.00651406252291 L 28.061863319482654 59.49296108551789 L 28.519036651123315 58.9649009621935 L 28.963650275953114 58.393319400260225 L 29.39570419397205 57.8362449844135 L 29.86041334969923 57.232747700763866 L 30.355265802238137 56.4609675204847 L 30.759688364807516 55.77332878857851 L 31.201790048275143 54.963830028194934 L 31.67654696945101 54.075992678059265 L 32.1312083597295 53.21136676194146 L 32.55572645366192 52.33513512881473 L 32.955125133506954 51.53724208532367 L 33.402250699698925 50.739349041949026 L 33.829280734527856 49.90373741835356 L 34.3392048352398 49.09423865796998 L 34.8164736982435 48.33696562401019 L 35.28118285397068 47.64062260428909 L 35.73082036152482 46.8833495703293 L 36.23823252087459 46.155090828891844 L 36.793371566571295 45.36300064402167 L 37.37865390861407 44.588319034548476 L 37.88857800932601 43.87166601011995 L 38.30304833734408 43.26236586784944 L 38.68737536901608 42.65596715488937 L 39.12194122839719 42.130808460875414 L 39.53389961505309 41.65207263478078 L 39.89813111582771 41.16173109179363 L 40.42563880607486 40.555332378833555 L 40.940586789511144 39.96634224127047 L 41.4580467143096 39.39766210853122 L 42.07598429452628 38.945039145764895 L 42.45277550211176 38.35895043751225 L 42.89487718557939 37.80187602166552 L 43.389729637652636 37.253505893750116 L 44.00264333514497 36.722544341231696 L 44.66830780170858 36.2293013689341 L 45.18827966786921 35.62870551436208 L 45.793657541275024 35.109349678852595 L 46.51458471827209 34.58709241403267 L 47.23048801207915 34.05032800300978 L 47.5595523333177 33.5570850308286 L 47.81828229594976 32.98840489797294 L 47.72785240598023 32.70116340240929 L 47.69519716827199 32.611219095648266 L 47.1475939466618 32.59090909094084 L 46.665301200933754 32.83172771858517 L 47.07474764669314 33.3365764078917 L 47.22295218799263 33.92556654533837 L 47.35357314022258 34.49134524888359 L 47.70775687508285 35.025208230596036 L 48.262895920779556 35.50974691519514 L 48.619591597002 36.03490560920909 L 48.98633503867313 36.510740005993284 L 49.204873939044774 36.928545817849226 L 49.60678456025198 37.25640732294414 L 50.44577298220247 37.49432452139445 L 51.31490470096469 37.7206360027194 L 52.15640506427735 38.08041322964709 L 53.06572784483433 38.37345758371521 L 53.74144007684663 38.66650193789974 L 54.36691348114982 39.00306773069315 L 55.002434650901705 39.38315496232826 L 57.107441529631615 39.98665224609431 L 58.41113910730928 40.421866633347236 L 59.28278276743367 40.813559581991285 L 60.074044303037226 41.22266110603232 L 60.820090893656015 41.63756548857782 L 61.51841059792787 41.99444128619507 L 62.96780077600852 42.84165862679947 L 63.899731028825045 43.39583161333576 L 64.78644633712247 44.07186462834943 L 65.6128750522621 44.48967044008896 L 66.4593992982991 44.93358911515679 L 67.16525482665747 45.24114061554428 L 67.85855064867064 45.658946427400224 L 68.5744539424777 46.16379511670675 L 69.22755870223045 46.75858811265789 L 69.82540075108409 47.00811102800071 L 70.31522932089865 47.41431112284772 L 70.87288030795753 47.58259401936084 L 71.53603283315897 47.75667977426201 L 72.15899429609999 48.15417558129411 L 72.82968264538795 48.39499420893844 L 73.53805011510849 48.7257571433438 L 74.22883399529383 49.13485866738483 L 74.84425963414833 49.61359449347947 L 75.44712556619197 50.05461173923686 L 76.00226461188868 50.58847472106572 L 76.55740365758538 50.99757624510676 L 77.10249493736774 51.61558067507576 L 77.680241455324 52.17845794931054 L 78.16002225968987 52.9415338417748 L 78.66994636040181 53.66398972470779 L 79.16228687157854 54.50540420692414 L 79.65211544092745 55.21915580204222 L 80.21479031071067 55.811047368799336 L 80.74229800142348 56.591531836776994 L 81.24971016077325 57.197930549737066 L 81.75963426148519 57.80142783350311 L 82.33486883807927 58.306276522693224 L 82.91763923875988 58.81112521199975 L 83.48784993262962 59.388509632553905 L 84.1283949855715 59.867245458532125 L 84.78903556894511 60.37209414783865 L 85.4747955664061 60.865337120136246 L 86.16055556433275 61.36728438024875 L 86.7810050859116 61.886640215758234 L 87.42155013838783 62.35667175403796 L 88.10731013584882 62.84411186783109 L 88.77046266105026 63.398284854367375 L 89.43612712761387 63.91764068987686 L 90.06913635600358 64.38477079896256 L 90.72475305665284 64.8286894740304 L 91.35273840278387 65.29872101231012 L 91.94053268618882 65.8267811355181 L 92.54339861823246 66.36354554654099 L 93.21408696705475 66.89160566986538 L 93.83704843046144 67.39355292986147 L 94.5253203692846 67.8548801804427 L 95.20354454265907 68.32201028952841 L 95.85413736058399 68.82976040802896 L 96.51226600306109 69.32300338032655 L 97.09754834510386 69.75821776757948 L 97.71297398395836 70.21664358896669 L 98.37361456779763 70.74760514148511 L 98.9413133203052 71.2408481137827 L 99.54920313507318 71.74569680308923 L 100.22240342572331 72.27955978480168 L 100.8579245954752 72.75539418158587 L 101.4909338238649 73.20511571515817 L 102.14152664225549 73.69545725814532 L 102.7418806324713 74.15098165022209 L 103.35228238860145 74.62391461781226 L 104.01543491380289 75.14907331182621 L 104.63588443538174 75.60749913309701 L 105.23623842559755 76.07172781298868 L 105.8566879471764 76.48373076622374 L 106.46960164466873 76.85801513935439 L 107.07497951807454 77.20618664915673 L 107.74064398463815 77.59497816849034 L 108.4063084507361 77.9779668294359 L 109.11718786228448 78.3841669241665 L 109.75019709067419 78.7903670190135 L 110.33547943318263 79.19656711386051 L 110.94336924748495 79.54473862366285 L 111.46836499683559 79.99155872804113 L 111.91800250438973 80.45868883712683 L 112.43797437055036 80.88810036587529 L 113.05842389212921 81.28849760221783 L 113.72157641733065 81.64537339983508 L 114.41236029751599 82.06608064088505 L 115.09309641225263 82.48968931124546 L 115.84919076832011 82.83495939185377 L 116.53997464850545 83.35141379805282 L 117.19810329098254 83.84755819966085 L 117.88888717116788 84.34080117195845 L 118.51436057547107 84.85435414896347 L 119.08708321116865 85.26925853150897 L 119.72762826364487 85.59712003660388 L 120.31542254704982 86.03813728247769 L 120.88312129955739 86.3747030752711 L 121.44077228661627 86.76349459460471 L 122.04363821865991 87.08265181200113 L 122.65906385751441 87.42792189260945 L 123.27951337909326 87.84282627515495 L 123.88991513522342 88.22581493598409 L 124.44505418045446 88.6146064553177 L 125.13583806110546 88.92215795570519 L 125.80401446856558 89.27032946562394 L 126.45460728695616 89.71424814069178 L 127.1780464053154 90.23650540539529 L 127.8211033991538 90.70943837298546 L 128.48927980707958 91.25200564251281 L 129.09968156320974 91.68141717126127 L 129.76785797113553 91.939644374419 L 130.45361796859652 92.21818158228416 L 131.0991869037971 92.54894451668952 L 131.75982748763636 93.00737033796031 L 132.4079083641991 93.64858620194718 L 132.9354160549119 94.30721064144745 L 133.43026850698516 94.95713079313282 L 133.78194030094892 95.75212240731344 L 133.9979672599584 96.6747769084759 L 134.09090909082443 97.6003328388324 L 133.9979672599584 98.61873450514395 L 133.64127158327028 99.7270804781001 L 133.1489310725592 100.72517213970423 L 132.6892457990907 101.75227809371427 L 132.07884404342622 102.64011544384994 L 131.4634184045717 103.40609276550822 L 130.747515110299 104.13435150694568 L 129.8808953333646 104.79007451725192 L 129.07707409048453 105.44289609824773 L 128.29334837943316 106.08121053292416 L 127.44431219203398 106.72242639691103 L 126.71836113231257 107.4071636996232 L 126.03511307621375 108.16443673358299 L 125.5352367409505 109.08128837612458 L 125.12327835382894 109.97492858476471 L 124.63847366720438 110.7931316329632 L 124.21144363190979 111.6403489735676 L 123.68393594166264 112.46435488015413 L 123.10870136506855 113.27095221134368 L 122.62892056070268 114.07464811322279 L 122.19937858451158 114.9305697416421 L 121.68945448379964 115.73136421432719 L 121.30763939348981 116.61049727664795 L 120.81781082367525 117.47512319288217 L 120.36314943339676 118.28752338245977 L 119.9838462844491 119.08831785514485 L 119.58444760460407 119.95004234206863 L 119.12978621432558 120.71311823441647 L 118.66256511723623 121.4210669711465 L 118.21041566831991 122.21605858532712 L 117.85623193345964 123.10099450615235 L 117.44678548816592 123.92209898354486 L 117.01473157014698 124.64745629578829 L 116.65301201073453 125.33799645700492 L 116.23351779999211 126.03433947672602 L 115.89691765466705 126.78000679367688 L 115.643211575225 127.64173128048424 L 115.32921890215948 128.44542718236335 L 115.05039340863004 129.17948878230527 L 114.76654403237626 130.03831184003502 L 114.26415575575083 130.78978201537393 L 113.75925553776324 131.56446362484712 L 113.47791810287163 132.51323098922148 L 113.17146125435829 133.26179973536637 L 112.77206257451326 133.94073417957406 L 112.35005642194301 134.62837291148026 L 111.97577715618536 135.27249020477757 L 111.5361874140799 135.9543260781793 L 111.05138272698969 136.68258481961675 L 110.53141086082906 137.445660712081 L 110.11694053281099 138.27837090648245 L 109.71000602887943 139.08206680836156 L 109.3708939421922 139.8973684272496 L 108.95893555507064 140.70106432924513 L 108.58214434795082 141.53957738203462 L 108.19781731627882 142.3316675670212 L 107.71050068782642 143.09474345948547 L 107.12773028714582 143.77948076208122 L 106.34902845835313 144.2698223051848 L 105.40956238098443 144.40909090917557 L 104.34449923504144 144.31914660241455 L 103.38242568541318 144.16246942302678 L 102.5936760911718 143.88973507354967 L 101.87023697281256 143.59378929017112 L 101.20206056488678 143.2398149218643 L 100.54895580513403 142.89164341206197 L 99.93353016627952 142.5260633266298 L 99.34071200015023 142.03572178364266 L 98.75794159946963 141.51636594813317 L 98.18521896377206 140.98830582480878 L 97.54467391129583 140.37900568253826 L 96.9468318624422 139.78711411578115 L 96.39671669946983 139.14879968110472 L 95.84660153649747 138.54530239733867 L 95.29648637352511 137.9824251231039 L 94.73381150374189 137.40794213186018 L 94.16360080987215 136.84796628681943 L 93.61097370600328 136.27348329557572 L 93.00810777395964 135.64387314859778 L 92.60619715275243 135.0287701478228 L 92.0108670447953 134.4455828688806 L 91.43060858547688 133.83628272661008 L 90.872957598418 133.2734054523753 L 90.2801394322887 132.67571102711372 L 89.71244067931548 132.0838194603566 L 89.17488522361964 131.53835076163523 L 88.54187599522993 130.96386777039152 L 87.87118764594197 130.36907477432396 L 87.28088142070919 129.75687320285942 L 86.66796772368252 129.08954447566066 L 86.03495849482715 128.47154004569165 L 85.41199703188613 127.86514133261517 L 84.79908333485946 127.28775691217743 L 84.20375322690234 126.73648535483517 L 83.59335147077218 126.03724090592004 L 82.9578303010203 125.3728136079153 L 82.3926434898749 124.70258345152251 L 81.79731338191777 124.0584661582252 L 81.14672056399286 123.48398316698149 L 80.65186811145395 122.86888016632292 L 80.08919324167073 122.25958002405241 L 79.54159002006054 121.64737845258787 L 78.94625991256908 121.05548688583076 L 78.35344174597412 120.48680675309151 L 77.7907668761909 119.92392947874032 L 77.2406517136842 119.35815077531151 L 76.70058431616053 118.78076635475736 L 76.11530197411776 118.25850908993743 L 75.46973303845152 117.72754753741901 L 74.81662827916443 117.16757169249468 L 74.153475753963 116.60759584745392 L 73.50037099421024 116.04471857321914 L 72.88996923854575 115.47893986967392 L 72.314734661486 114.90445687843021 L 71.71186872990802 114.3299738871865 L 71.11905056331307 113.76419518364128 L 70.49357715900987 113.19841648009606 L 69.91834258241579 112.64714492287021 L 69.36571547808126 112.12778908736072 L 68.73019430832937 111.69257469999138 L 68.21775826625526 111.1906274399953 L 67.7279296964407 110.70028589700814 L 67.21549365436658 110.15771862748079 L 66.7507844986394 109.64416565035935 L 66.29109922563657 109.1364155318588 L 65.67064970405772 108.63736970105674 L 65.15067783789709 108.09770386083983 L 64.59302685083821 107.56093944981694 L 64.0655191601254 106.9922593170777 L 63.62341747712344 106.38295917480718 L 63.100933669134974 105.75334902782924 L 62.64878422021866 105.1324431685498 L 62.15141982678324 104.53474874328822 L 61.58372107381001 103.9428571765311 L 60.95824766950682 103.37127561459783 L 60.31770261703059 102.82870834507048 L 59.606823205482215 102.33836680196691 L 58.973813977092505 101.85382811748423 L 58.353364455513656 101.38669800839853 L 57.79571346845478 100.9340750456322 L 57.293325192295015 100.49305779975839 L 56.74069808796048 100.01142054446973 L 56.21319039724767 99.5675018694019 L 55.67312300018966 99.1090760481311 L 55.11044813040644 98.57521306641866 L 54.598012088332325 98.05585723079275 L 54.060456632170826 97.56261425849516 L 53.54550864873454 97.07807557401247 L 53.11847861390561 96.66897404997144 L 52.70652022678405 96.26567538431846 L 52.26190660195425 95.84786957257893 L 51.78966162214056 95.4938952041557 L 51.196843456011266 95.1399208358489 L 50.71455071028322 94.70470644847956 L 50.22723408183083 94.2317734810058 L 49.66958309523761 93.80236195214093 L 49.24004111858085 93.40776757430285 L 48.802963317837566 93.01607462577522 L 48.2955511584878 92.58086023840588 L 47.702732992358506 92.17175871436484 L 47.089819294866174 91.7191357514821 L 46.45932200783864 91.23459706699941 L 45.85394413443282 90.78197410423309 L 45.34402003372088 90.32935114135034 L 44.86423922935501 89.77227672562003 L 44.40204201499 89.22680802689865 L 43.94486868334934 88.75387505930848 L 43.4952311757952 88.27513923321385 L 43.045593668241054 87.84862913365941 L 42.58339645387605 87.35828759067226 L 42.07849623588845 86.79541031643748 L 41.563548252452165 86.15709588164464 L 41.13149433443323 85.44044285721611 L 40.6115224682726 84.94719988491852 L 39.90566693991423 84.34950545965694 L 38.89586650393903 83.96071394032333 L 38.23271397873759 83.4906824020436 L 37.29827178455889 83.02935515146237 L 36.83105068700388 82.56512647168711" stroke-linejoin="bevel" stroke-miterlimit="10" stroke-width="3"/></g></g></g><g><g fill="#444444"><path fill="" stroke="none" d=""/><g transform="translate(10,22)"><path fill="none" stroke="none"/><text fill="" stroke="none" font-family="helvetica" font-size="10pt" font-style="normal" font-weight="bold" text-decoration="normal" x="0" y="0" text-anchor="start" dominant-baseline="text-after-edge">1.01191</text></g></g></g><g/></g></g></svg>