<svg version="1.1" xmlns="http://www.w3.org/2000/svg" xmlns:xlink="http://www.w3.org/1999/xlink" width="150" height="160" style="width: 150px; height: 160px;"><defs><clipPath id="PIENnIzLTzTz"><path fill="none" stroke="none" d=" M 10 27 L 140 27 L 140 150 L 10 150 L 10 27 Z"/></clipPath></defs><g><g transform="scale(1,1) translate(0.5,0.5)"><rect fill="#FFFFFF" stroke="none" x="0" y="0" width="150" height="160"/><rect fill="#ffffff" stroke="none" x="0" y="0" width="150" height="160"/><rect fill="#FFFFFF" stroke="none" x="10" y="27" width="130" height="123"/><rect fill="#ffffff" stroke="none" x="10" y="27" width="130" height="123"/><g><rect fill="none" stroke="#FFFFFF" x="10" y="27" width="130" height="123" stroke-linejoin="bevel" stroke-miterlimit="10"/></g><g clip-path="url(#PIENnIzLTzTz)"><g><g/><g/><g><path fill="none" stroke="none"/><path fill="none" stroke="#440154" paint-order="fill stroke markers" d=" M 42.84156594891101 67.61553103057668 L 43.188824662938714 67.34346732776612 L 43.41084252949804 67.30766947194934 L 42.94972849916667 67.99498829990625 L 42.11289192549884 68.96868997300044 L 41.42976002860814 69.57009394746274 L 40.524610264226794 70.36480634193867 L 39.56822560913861 71.15951873688027 L 38.65738307964057 71.82535885134712 L 37.46190225984901 72.61291167512536 L 36.07856016792357 73.6009324900806 L 34.66106148157269 74.47440016735345 L 33.289104921743274 75.29059127578512 L 31.922841127961874 76.17121852375567 L 30.590733928605914 77.04468620102853 L 29.47495183069259 77.93963259179145 L 27.89805570151657 78.73434498626739 L 26.042214048095047 79.10664268489927 L 24.32299877423793 78.82741941092536 L 22.717638815753162 77.9539517336525 L 21.550621825270355 76.44328222656623 L 20.594237169250846 74.42428316967562 L 20.007882291451097 72.32652882998809 L 20.08188824634999 70.37912548426539 L 20.554387808777392 68.43888170970604 L 21.288754598237574 66.74922292446718 L 22.085741811431944 65.93303181603551 L 23.247066035866737 65.05956413922831 L 24.28884217888117 63.813798763323575 L 25.433088107034564 62.84009709069505 L 26.719653178937733 61.72320399526507 L 27.841128043830395 60.53471518866718 L 29.025223331525922 59.44646037789062 L 30.38579436019063 58.27229071315378 L 31.808985811658204 57.34870603820309 L 33.1638640742749 56.50387664558366 L 34.58136276062578 55.53017497295514 L 36.10702399723232 54.685345579870045 L 37.46190225984901 53.84767575841397 L 38.69153967406601 52.98136765230447 L 39.938255386427045 52.19381482899189 L 41.23051322530955 51.49217685870826 L 42.670782973989844 50.53995389910415 L 44.264757400378585 49.587730939500034 L 45.904273953288794 48.63550797989592 L 47.6007181648165 47.439859602134675 L 49.416710457764566 46.294328222516924 L 51.107461902312934 45.32062654942274 L 52.82098441105336 44.18225474096835 L 54.65974776726216 43.25867006601766 L 56.504203888587654 42.29212796408683 L 58.25757575780153 41.325585862156004 L 59.98817656375468 40.3876820448786 L 61.89525310881436 39.5213739387691 L 63.78525135759264 38.705182830803096 L 64.3089858116582 39.49273565458134 L 65.30521982815117 39.650246219243854 L 66.58039936982095 39.256469807587564 L 68.00359082128853 38.67654454614967 L 69.30154142621905 38.13241714099422 L 70.62795585952699 37.201672894880176 L 72.02268348261714 36.88665176508948 L 73.51418812386692 36.636066775768995 L 75.02846382930875 36.32820521760732 L 76.53135400265455 35.65520553197712 L 78.01147311273962 34.85333356587216 L 79.45174286235124 34.151695595588535 L 80.89770537801087 33.421419341117144 L 82.4859870383516 32.948887647129595 L 84.29628656525165 32.590909090824425 L 86.26029076892883 32.913089791312814 L 88.01935540419072 34.06578074209392 L 89.3685409007594 35.676684245467186 L 90.4558591702953 37.43793874187395 L 91.44640042074025 39.027363531291485 L 92.5849535819143 40.41632032953203 L 93.89998248405755 41.697883560787886 L 95.35163776483387 43.058202074375004 L 96.90007006470114 44.40420144563541 L 98.4997372571379 45.77883910154924 L 99.91154317744076 47.518614884931594 L 100.97609038371593 49.51613522833213 L 101.97232440020889 51.6067299968563 L 102.8717813976109 53.86199490074068 L 103.7484673326835 55.931110955774784 L 104.59668943751603 57.74964202102274 L 105.39936941675842 59.54669437324628 L 106.11665790900588 61.422502007801086 L 106.91933788731694 63.28399050049484 L 107.79602382238954 65.03808542573825 L 108.66701699048281 66.67046764213592 L 109.44123314041644 68.35296685621142 L 110.37484673317522 70.12138092378154 L 111.16614118032157 72.01150770066306 L 111.94605009630322 73.81571962404996 L 112.67472411971539 75.5411762651056 L 113.57418111804873 77.30959033267573 L 114.51918024197221 79.18539796723053 L 115.35032404959202 81.19007788179442 L 116.25547381304204 83.05872594518587 L 117.0353827290237 85.06340586021543 L 117.6558942021802 87.27571333758533 L 118.28209844138473 89.35198896378279 L 119.02785076200962 91.29939230950549 L 119.71098265890032 93.34702965104952 L 120.45673498045653 95.33023085212335 L 121.30495708528906 97.00557049550116 L 122.2044140836224 98.83126113191247 L 123.22911192849278 100.72854747995734 L 124.84585741814226 103.08404637966305 L 126.34874759148806 105.28919428633526 L 127.57269224058837 107.68765061255544 L 128.52907689660788 109.96439423039556 L 129.4285338940099 112.25545699009672 L 130.19136451277882 114.65391331678256 L 130.57847258727998 117.09532706998289 L 130.3166053602472 119.55821953667328 L 129.42284112796187 121.87076100986451 L 128.20458924490958 123.46018579928204 L 126.6447714138776 124.76322774402797 L 124.89709231071174 126.15934411343187 L 123.34866001084447 127.37647120421752 L 121.50420388858765 129.0231725629419 L 119.61989840585738 130.11142737371847 L 117.76974951848388 131.092288617976 L 116.01068488322198 132.16622428642586 L 114.14915046468377 133.60529808234423 L 112.23068838659674 134.82242517359555 L 110.52285864483565 136.00375440903008 L 109.00858293939382 137.26383892679587 L 107.38045191857964 138.55972130037844 L 105.7864774921909 139.92719938512892 L 104.01033455971628 141.40207103686407 L 102.07479418441653 142.64783641230315 L 100.2075669998303 143.5785806584172 L 98.29479768779129 144.11554849287495 L 96.07461902312934 144.4090909087099 L 93.98537397105247 144.13702720636502 L 92.13522508367896 143.42822966491804 L 90.46724470146 141.98915586899966 L 89.14652303420007 140.19926308793947 L 88.32676475774497 138.60267872735858 L 87.63224732875824 136.69823280815035 L 87.37607286777347 134.60763803962618 L 87.2052898928523 132.84638354321942 L 86.65878437552601 130.78442705934867 L 85.6340865297243 128.70099186245352 L 84.76878612767905 126.56743966741487 L 83.86363636422902 124.5269618970342 L 82.6339989490807 122.76570740016177 L 81.59222280606627 120.9185380502604 L 80.69845857471228 119.09284741384909 L 79.44605009630322 117.20272063696757 L 78.16517778951675 115.2338385777548 L 77.15186547581106 113.35803094319999 L 76.04177614301443 111.60393601749092 L 74.90322298184037 109.67801138525829 L 73.81021194625646 107.66617189953104 L 72.91075494885445 105.72592812450603 L 72.22762305103242 103.78568434994668 L 71.3907864773646 101.8168022907339 L 69.91636013332754 99.56153738684952 L 68.88027675636113 97.66425103880465 L 68.21422315668315 95.60945412609726 L 67.04720616620034 93.50454021571204 L 66.31283937674016 91.64305172348395 L 65.4532317398116 89.55245695495978 L 64.58793133683503 87.81268117204309 L 63.660010510124266 85.951192679815 L 62.783324575051665 84.04674676060677 L 61.92371693812311 82.19241783954203 L 60.93886845372617 80.64595047663897 L 59.68645997531712 79.29995110537857 L 58.32019618153572 78.25465372111648 L 57.0051672803238 77.68188803130761 L 55.7129094414413 77.3525477591902 L 54.21571203414351 76.9444522052072 L 52.59896654449403 76.57215450704098 L 50.57803468219936 76.35736737307161 L 48.79050621856004 76.65090978937224 L 47.16237519681454 77.17355848150328 L 45.55132247321308 77.79644116898999 L 44.03135400265455 78.56251527927816 L 42.75617446191609 79.35722767421976 L 41.42406726256013 80.4812803408131 L 39.94394815247506 81.7556840009056 L 38.42397968098521 82.90121538052335 L 36.932475039735436 84.01810847595334 L 35.680066561326385 85.17795899836347 L 34.23979681264609 86.25189466681331 L 32.657207917422056 87.25423462409526 L 31.256787528283894 88.22077672602609 L 29.770975653082132 88.86513812700287 L 28.359169731847942 89.53813781263307 L 27.04983359668404 90.3758076345548 L 25.740497460588813 91.23495616903529 L 24.38561919797212 92.10126427514479 L 22.620861797593534 92.55947682727128 L 20.759327378124 92.15854084445164 L 19.131196356378496 91.12756260251626 L 17.736468733288348 89.48086124379188 L 16.643457698635757 87.46902175806463 L 15.909090909175575 85.54309712536633 L 16.1311087757349 83.13748122798279 L 18.055263618938625 81.94899242091924 L 19.825713785365224 80.6960674743168 L 21.5107724647969 79.5433765235357 L 23.40077071264386 78.37636642996222 L 25.28507619537413 77.19503719452769 L 26.970134874805808 76.02086753025651 L 28.621036958880723 74.79658086784184 L 30.311788404360414 73.49353892356157 L 31.945612191222608 72.09026298299432 L 33.596514276228845 70.88029546290636 L 35.27588018961251 69.5987322316505 L 36.75599929969758 68.31716900039464 L 38.230425643734634 67.10004190960899 L 39.938255386427045 66.13349980767816 L 41.64039236307144 65.09536199457943 L 43.35960763692856 64.3221283131279 L 45.1471361014992 63.684926483314484 L 46.735417761839926 62.96180979954079 L 48.295235592871904 62.138459120411426 L 50.031529164873064 61.4368211501278 L 51.745051672682166 60.69938532449305 L 53.56104396563023 59.89035378722474 L 55.45673498045653 59.33190723974258 L 57.204414083622396 58.544354415964335 L 58.81546680722386 57.63508888334036 L 60.358206341043115 56.45375964790583 L 61.87817481160164 55.22947298549116 L 63.466456471942365 54.14837774587795 L 65.36784025281668 53.146037788596004 L 67.40015764627606 52.04346383502707 L 69.33569802064449 50.80485803075135 L 71.22569626942277 49.587730939500034 L 72.92783324606717 48.28468899521977 L 74.41933788731694 47.103359759319574 L 75.92792082671076 46.10101980203763 L 77.53328078519553 44.97696713544428 L 79.01909266039729 43.67392519116402 L 80.49351900536567 42.46395767107606 L 82.15580662153661 41.46877728495747 L 83.87502189539373 40.69554360350594 L 85.43483972735703 39.72900150157511 L 87.15405500121415 38.91281039360911 L 89.14083026815206 38.332885132171214 L 91.35531616769731 38.13241714099422 L 93.6608863202855 38.43311912799254 L 95.68181818164885 39.270788949448615 L 97.45796111412346 40.473596898373216 L 99.17717638798058 42.17757482593879 L 100.94762655440718 44.01042503397912 L 102.70669118966907 45.692924248054624 L 104.55684007704258 47.33246603561565 L 106.25328428857028 49.322826807852834 L 107.55123489256948 51.16283658705652 L 108.5190050797537 53.26059092627838 L 109.45831143856049 55.16503684548661 L 110.27806971501559 57.00504662422463 L 111.14337011706084 58.94529039878398 L 111.90050796978176 60.94281074265018 L 112.67472411971539 62.98328851303086 L 113.4204764412716 64.65146858477965 L 114.25162024889141 66.49147836398333 L 115.37309511285275 68.06658401107416 L 116.30670870561153 69.73476408328861 L 117.21185846906155 71.51749729318544 L 118.09992993529886 73.40762407006696 L 119.0221579959616 75.30491041764617 L 119.73375372216105 77.10196276986971 L 120.62751795444638 78.84173855325207 L 121.48143282532692 80.50991862500086 L 122.15887195710093 82.20673698140308 L 122.70537747442722 83.9536723359488 L 123.12664214428514 85.85811825515702 L 123.69591872487217 87.69096846273169 L 124.32781573012471 89.50233995728195 L 125.0849535819143 91.14904131554067 L 125.87055526394397 92.85301924310625 L 126.62769311666489 94.72166730696335 L 127.16281310189515 96.63327279686928 L 127.68085479084402 98.33725072443485 L 128.31275179516524 100.19157964549959 L 129.0300402874127 102.06738728005439 L 129.72455771639943 103.76420563645661 L 130.02627430390567 105.4825027063489 L 130.61262918170542 107.07908706739545 L 131.3469959711656 108.64703314332291 L 131.58039936982095 109.4990221071057 L 132.0927482927218 110.74478748301044 L 132.73603082820773 112.11942513845861 L 133.39639166276902 113.47974365204573 L 133.94289718009531 114.97609401727095 L 134.09090909082443 116.95213564764708 L 133.726572079584 118.96397513337433 L 132.88973550591618 120.54624035162851 L 131.50639341399074 121.90655886568129 L 129.9010334564373 123.03061153180897 L 128.08504116348922 124.4768448988907 L 126.21212121192366 125.9445569794625 L 124.6579961469397 126.28821639344096 L 122.99001576472074 127.37647120421752 L 121.39034857228398 128.14970488566905 L 119.78498861473054 128.93009813828394 L 118.44718864932656 130.1042678025551 L 117.06953932438046 131.07080990448594 L 115.680504466407 132.08030943293124 L 114.45655981823802 133.433468375355 L 113.31231389008462 134.2281807702966 L 111.74111052695662 134.8152656024322 L 110.52285864483565 135.4882652880624 L 109.1338237868622 136.09682883368805 L 107.3633736204356 136.79130723280832 L 105.43352601211518 137.5215834872797 L 103.99894902762026 138.3735724510625 L 102.37651077285409 139.30431669717655 L 100.68006656132638 140.1777843744494 L 99.2625678749755 140.6932734954171 L 97.38395515829325 141.0440924805589 L 95.35163776483387 140.94385848473758 L 93.56980206724256 140.19210351677611 L 91.73103871103376 138.80314671853557 L 90.47863023355603 137.2352006426081 L 89.231914521195 135.6958928508684 L 88.16167454887182 134.4930849019438 L 87.39884393103421 133.04685153486207 L 87.16544053237885 131.1352460444905 L 86.60185671783984 129.78208710206673 L 85.92441758606583 128.69383229129016 L 85.18435803148896 127.56262005353346 L 84.2678227359429 126.29537596460432 L 83.41390786506236 124.76322774402797 L 82.40628831647336 123.2740369499661 L 81.63207216653973 121.59869730705395 L 80.82369942218065 120.13098522648215 L 79.82177263963968 118.44848601240665 L 78.64906288310885 116.51540180901065 L 77.80653354339302 114.53220060747117 L 77.11201611533761 112.77810568222776 L 77.1177088804543 110.6302343448624 L 78.23349097929895 108.42508643865585 L 79.61683307029307 106.86429993342608 L 81.05710281990469 105.26055600168183 L 82.67954107560217 103.90023748809472 L 84.21658784430474 102.69742953917012 L 85.68532142229378 101.30131316976622 L 87.2622175514698 99.89087765850127 L 88.85619197785854 98.64511228306219 L 90.3306183218956 97.67857018113136 L 91.86197232455015 96.89101735735312 L 93.45025398489088 96.35404952289537 L 94.92468032985926 95.6022945549339 L 96.3934139078483 95.20851814327762 L 97.77106323372573 94.54267802881077 L 99.25687510985881 93.62625292455778 L 100.53205465059727 92.7169873919338 L 101.95524610299617 92.02966856397688 L 103.38413032051176 91.3709880206734 L 104.79593624081463 90.5762756257318 L 106.01988088991493 89.78156323125586 L 107.30644596274942 88.85081898467615 L 108.64424592722207 88.02030873438343 L 109.93081100005656 87.23275591060519 L 111.2458399021998 86.58839450962842 L 112.64626029133797 86.11586281564087 L 114.25162024889141 86.19461809797212 L 115.85128744132817 86.77454335894436 L 117.51357505749911 88.0417874478735 L 118.90260991454124 89.73860580427572 L 119.6825188305229 91.45690287416801 L 120.39980732183903 92.981891523581 L 121.10001751594245 94.77894387580454 L 122.01655281148851 96.61179408337921 L 123.00140129588544 98.23701672861353 L 124.08302680030465 99.83360108966008 L 125.05648975353688 101.58053644374013 L 126.18365738354623 103.29883351363242 L 127.28805395029485 104.90973701654002 L 128.31844456121325 106.65667237062007 L 128.98449816089123 108.57543743215501 L 129.33175687491894 110.61591520253569 L 129.25775092002004 112.47740369476378 L 129.27482921723276 113.70169035717845 L 129.1609739009291 114.73982817027718 L 128.84787178132683 115.75648726988584" stroke-linejoin="bevel" stroke-miterlimit="10" stroke-width="3"/></g></g></g><g><g fill="#444444"><path fill="" stroke="none" d=""/><g transform="translate(10,22)"><path fill="none" stroke="none"/><text fill="" stroke="none" font-family="helvetica" font-size="10pt" font-style="normal" font-weight="bold" text-decoration="normal" x="0" y="0" text-anchor="start" dominant-baseline="text-after-edge">1.01326</text></g></g></g><g/></g></g></svg>