<svg version="1.1" xmlns="http://www.w3.org/2000/svg" xmlns:xlink="http://www.w3.org/1999/xlink" width="150" height="160" style="width: 150px; height: 160px;"><defs><clipPath id="yHqVxCNXvolL"><path fill="none" stroke="none" d=" M 10 27 L 140 27 L 140 150 L 10 150 L 10 27 Z"/></clipPath></defs><g><g transform="scale(1,1) translate(0.5,0.5)"><rect fill="#FFFFFF" stroke="none" x="0" y="0" width="150" height="160"/><rect fill="#ffffff" stroke="none" x="0" y="0" width="150" height="160"/><rect fill="#FFFFFF" stroke="none" x="10" y="27" width="130" height="123"/><rect fill="#ffffff" stroke="none" x="10" y="27" width="130" height="123"/><g><rect fill="none" stroke="#FFFFFF" x="10" y="27" width="130" height="123" stroke-linejoin="bevel" stroke-miterlimit="10"/></g><g clip-path="url(#yHqVxCNXvolL)"><g><g/><g/><g><path fill="none" stroke="none"/><path fill="none" stroke="#440154" paint-order="fill stroke markers" d=" M 15.909090909175575 60.722850283724256 L 16.067546397447586 60.331465964438394 L 16.275356874335557 60.03235924884211 L 16.797480697743595 60.04190520790871 L 17.267651901580393 60.099180961959064 L 17.711846795864403 60.26782623771578 L 18.239165880717337 60.65284658432938 L 18.431390571873635 61.20969419309404 L 18.644396310672164 61.73790392477531 L 19.00546701392159 62.234293793095276 L 19.408099812921137 62.6224961259868 L 19.878271016757935 63.15070585778449 L 20.40299247065559 63.659823671448976 L 20.901737615000457 64.2134892938193 L 21.135524401441216 65.26036279823165 L 21.468021164648235 66.00494760076981 L 21.584914557635784 66.48860952374525 L 21.660245855804533 67.37956569774542 L 22.888925299979746 67.44320542446803 L 23.964344517793506 67.59912275488023 L 25.23978131916374 67.01681925542653 L 26.333383953664452 66.37724000203889 L 27.1568329683505 65.93812588765286 L 28.02444170927629 65.45764595107175 L 28.85828124731779 64.98989395971876 L 29.718097095377743 64.95807409635745 L 30.629865562543273 64.63351149007212 L 31.73905398277566 64.28031100681983 L 32.78070399770513 63.933474496239796 L 33.77040139399469 63.370262914919294 L 34.596448039170355 62.72431968874298 L 35.461459149140865 62.0497385855997 L 36.19139344897121 61.34970159176737 L 36.936913534998894 60.72603227000218 L 37.58112601283938 59.987811440136284 L 38.24871716974303 59.335504241404124 L 38.95267516002059 58.7500187556725 L 39.64884025743231 58.12316744751297 L 40.35279824770987 57.598139702226035 L 41.04636571416631 56.99674428475555 L 41.651613728143275 56.28716133197304 L 42.236080694478005 55.57439639279619 L 42.76599741028622 54.87117741256952 L 43.4543696148321 54.136138569097966 L 44.036238950211555 53.45519349328242 L 44.56355803506449 52.76470245840028 L 45.11425579851493 52.1219412186183 L 45.68573461007327 51.431450183852576 L 46.296177885495126 50.70277531305328 L 46.91701168520376 50.152291676960886 L 47.52225969918072 49.56680619122926 L 48.169069808442146 49.05768837756477 L 48.847051489166915 48.52629665948916 L 49.621145515237004 48.04263473651372 L 50.413422957994044 47.59715664945543 L 51.091404638718814 47.1771344532026 L 51.63950477167964 46.52482725435402 L 52.27072909520939 45.652962998487055 L 52.95130840688944 44.92110614129342 L 53.62409482523799 44.357894559856504 L 54.45793436374515 43.71513332007453 L 55.13591604446992 43.00236838089768 L 55.8009095704183 42.31187734613195 L 56.47889125114307 41.6722980926279 L 56.98802691930905 41.07090267527383 L 57.5335294213146 40.55542088893708 L 58.099812970496714 40.07812293851748 L 58.60375337675214 39.56264115218073 L 59.15445114066824 39.021703475154936 L 59.523314736783504 38.337576412945054 L 59.97530252393335 37.56435373343993 L 60.39871637057513 36.10700399172492 L 60.79615390766412 35.263777612824924 L 61.38062087353319 33.93052533827722 L 61.949502054136246 33.039569164277054 L 62.63787425868213 32.610001008957624 L 63.13921703398228 32.59090909094084 L 63.58341192826629 32.70864258531947 L 64.28736991854385 33.06184306857176 L 64.46141119301319 33.357767797773704 L 64.8484582058154 33.809609857504256 L 65.65891906572506 34.57010459166486 L 65.99141582846642 35.14922610472422 L 66.14987131720409 35.785623371833935 L 66.65900698537007 36.50475228368305 L 66.91097718896344 37.125239619170316 L 67.16034976113588 37.682087227818556 L 67.43829627381638 38.251662781927735 L 67.87729590618983 38.89124203543179 L 68.40461499104276 39.575369097525254 L 68.47994628874585 40.39313958573621 L 68.65918282512575 41.11863247025758 L 69.03843694552779 41.860035286517814 L 69.42808158928528 42.553708307561465 L 69.84110491210595 43.050098175997846 L 70.49830554518849 43.77877304679714 L 70.97107437998056 44.380168464267626 L 71.41526927426457 45.121571280411445 L 71.79971865657717 46.24481245689094 L 72.3036590628326 46.887573696672916 L 72.6621321355924 47.578064731438644 L 72.96345732687041 48.50402275507804 L 73.38427354255691 49.12451009056531 L 74.43891171226278 49.54771427321248 L 75.12728391680866 50.25093325332273 L 75.89878031238914 50.88414853415452 L 76.89367297012359 51.49190792418085 L 77.63140016281977 52.284222521819174 L 78.3587368321605 53.003351433668286 L 79.33804370416328 53.891125621274114 L 79.89393672952428 54.600708574056625 L 80.40826765960082 55.30392755428329 L 80.75115494662896 55.975326671032235 L 81.37978163920343 56.74854935053736 L 82.37986955884844 57.22584730095696 L 83.04226545384154 57.677689360571094 L 83.80596895609051 58.1677152562188 L 84.79306872142479 58.69274300162215 L 85.63989641424268 59.21458876063116 L 86.38281886931509 59.69188671093434 L 87.12314369296655 60.191458565648645 L 87.8530779927969 60.70375836570747 L 88.66094122175127 61.29560782411136 L 89.30775133054703 61.807907624170184 L 90.11561455950141 62.138834203011356 L 91.04296881239861 62.67022592108697 L 91.84044151706621 63.2143455845071 L 92.40152980480343 63.6630056577269 L 93.2275764499791 64.24212717090268 L 93.87438655924052 64.69715121679474 L 94.48482983512804 65.14899327652529 L 95.31087648076937 65.79811848897953 L 96.14471601881087 66.28178041195497 L 97.07726553361863 66.77817028027494 L 97.6929040714167 67.16319062688854 L 98.39945969264954 67.64048857719172 L 99.39694998133928 68.37234543438535 L 100.14766532927752 68.8655533164274 L 100.86201384337619 69.45103880215902 L 101.7633917867206 70.10652798728552 L 102.44397109840065 70.6251917600166 L 103.0881835767068 71.18203936866485 L 103.64667423302308 71.71024910046253 L 104.34803459234536 72.28300664084964 L 105.19226465467364 72.92576788063161 L 105.86505107348785 73.33306213153992 L 106.42094409884885 73.73399240989238 L 106.83916268358007 74.30356796388514 L 107.27036942308769 74.65358646085951 L 107.85483638895676 74.96860310807824 L 108.45229151006788 75.30271167331375 L 109.11728503601626 75.82137544592842 L 109.90696484781802 76.33685723238159 L 110.3797336826101 76.75051545596216 L 110.89666224410757 77.12598984350916 L 111.8707738541998 77.80375293304678 L 112.71760154748335 78.37969245982822 L 113.69690841948614 79.02563568588812 L 114.51516217179596 79.57930130825844 L 115.38017328176647 80.11387501261197 L 116.42701855907217 80.82027597911656 L 117.18552679941058 81.35803166986443 L 117.79077481338754 81.87033146992326 L 118.65318829240277 82.43354305124376 L 119.40650127083063 83.0413024413865 L 120.06889716582373 83.61724196816795 L 121.07158271642402 84.25682122155558 L 121.76515018288046 84.8200328029925 L 122.56002525705844 85.37688041164074 L 123.30294771166518 85.91145411611069 L 123.94456255901605 86.3505682303803 L 124.76281631132588 86.77377241302747 L 125.3732595872134 87.18743063660804 L 125.99149575596675 87.64881865528878 L 126.71883242484182 88.14202653733082 L 127.2773230811581 88.55886674730573 L 128.01505027385429 89.04252867028117 L 128.56055277585983 89.50709867523983 L 129.16839842079207 89.96530470752623 L 130.04639768507332 90.48715046665166 L 130.6750243776478 90.8880807448877 L 131.30365107022226 91.387652599602 L 132.05176878673956 91.99859397602268 L 132.72455520555377 92.76863466924988 L 133.09601643308997 93.67868276115041 L 133.58956631552428 94.5091811948223 L 134.0701280431822 95.32695168303326 L 134.09090909082443 96.10017436253838 L 133.93245360208675 96.85748711042106 L 133.63112841080874 97.58297999494243 L 133.22589798085392 98.21937726205215 L 132.5764902406372 98.94487014657352 L 132.28555557318032 99.69581892178394 L 131.95305881043896 100.20811872172635 L 131.34261553455144 100.74587441247422 L 131.0438879742287 101.26772017148323 L 130.59449781803414 101.8563876436092 L 129.90352798253298 102.47369299270213 L 129.12423869408667 103.02099464240018 L 128.63068881165236 103.62875403254293 L 128.1916891792789 104.3447009579977 L 127.74229902308434 104.8029069902841 L 127.25134677160531 105.41703035309911 L 126.48504563840106 106.1138853605371 L 125.71354924282059 106.90301797178108 L 124.89269785955548 107.69851455569733 L 124.03028438054025 108.44946333090775 L 123.62245631963015 109.29587169620208 L 123.21982352109626 110.16455396579113 L 122.98343910323456 111.01414431736339 L 122.6873091738671 111.87964460067451 L 122.19116166047752 112.6083194714738 L 121.59630417032167 113.26699064299464 L 121.167695062235 114.0243033907609 L 120.77285515610129 114.88980367407203 L 120.48451811959967 115.88258341082837 L 119.94940614141524 116.81808739341795 L 119.60911648580804 117.78859322576318 L 119.36234154459089 118.61909165931866 L 118.87658455502242 119.45913605194073 L 118.46356123220176 120.3405462668743 L 117.9310468849726 121.23150244087446 L 117.41671595489606 122.25928402727004 L 116.73353901226074 123.17569609184284 L 116.29713701084256 124.1493839105824 L 115.94385920045897 125.07215994794387 L 115.70227952115238 126.09675954794511 L 115.2165225315839 127.06408339401241 L 114.3021564334631 127.9486755952239 L 113.47091452591121 128.79826594679616 L 113.06568409595639 129.7910456835525 L 112.68642997602001 130.83473720157053 L 112.21885640267283 131.86888276063837 L 111.89934779470786 132.9030283197062 L 111.55386287719011 133.96581175585743 L 111.08888693526387 135.04768710990902 L 110.81094042211771 136.15501835464966 L 110.40830762358382 137.20189185906202 L 110.03684639604762 138.18512563675176 L 109.61343254940584 139.20017927780282 L 109.20560448849574 140.2056869599037 L 108.60814936785027 141.16982881957665 L 108.13278290210292 142.12442472018301 L 107.67040459113196 142.9644691128051 L 107.03138737473637 143.62950425688177 L 106.28326965821907 144.23726364702452 L 105.4754064292647 144.40909090917557 L 104.83638921286911 144.38681700476445 L 104.05450229393318 144.12589412531815 L 103.26742011262104 143.71859987429343 L 102.64139105146751 143.1617522656452 L 101.82053966773674 142.54126493015792 L 100.94773566490039 141.8825937587535 L 100.14247006736696 141.2907443002332 L 99.282654219307 140.77208052761853 L 98.0773534537293 140.18023106921464 L 97.00193423591554 139.5533797610551 L 96.17588759027421 138.9710762616014 L 95.3316575284116 138.32195104914717 L 94.72121425252408 137.61873206903692 L 94.10297808377072 136.89005719823763 L 93.59124478464946 136.2122941087 L 92.97041098494083 135.46770930616185 L 93.06392569979653 134.47174758312758 L 92.80676023475826 133.54578955948818 L 92.31580798327923 132.66437934455462 L 91.71575523121282 131.71932940289844 L 91.13648352678865 130.80291733820923 L 90.54422366805375 129.97241890465375 L 89.88962066592649 129.1451024573762 L 89.12851479463279 128.33051395555958 L 88.48170468537137 127.52865339897107 L 87.78813721891493 126.6981549654156 L 87.08937449054793 125.91220434044953 L 86.33346388069913 125.13261768827215 L 85.60872484277934 124.44530863978434 L 84.85541186435148 123.90755294903647 L 84.05274389730766 123.29024759994354 L 83.30202854983509 122.69839814153966 L 82.527934523765 122.12882258754689 L 81.85774573590606 121.48606134776492 L 81.04728487599641 120.7669324359158 L 80.2757884808816 120.04462153767236 L 79.62118547875434 119.42731618857943 L 78.94580142898485 118.82273878483102 L 78.3015889506787 118.1863415177213 L 77.59763096040115 117.47675856493879 L 76.88588007725775 116.70989985798951 L 76.24426522990689 115.93667717848439 L 75.5195261919871 115.20482032129075 L 74.74023690400645 114.47614545049146 L 73.9167878893204 113.78247242933139 L 73.0517767793499 113.0665255037602 L 72.21533961035311 112.35376056458335 L 71.40228111948818 111.6919074067846 L 70.64637051010504 111.0364182216581 L 69.9528030436486 110.44456876325421 L 69.23066163668409 110.0054546489846 L 68.45137234823778 109.43587909487542 L 67.58895886922255 108.90130539052188 L 66.81226721219718 108.23308826005086 L 66.05895423376933 107.37713393580634 L 65.232907588128 106.66755098302383 L 64.4718017168343 105.8434165220242 L 63.71329347649589 105.17201740527526 L 62.95998049760237 104.68835548229981 L 62.183288840577006 104.19196561386343 L 61.40659718308598 103.59375218278728 L 60.72082260949537 102.95099094300531 L 59.98569304775447 102.1586763454834 L 59.27913742652163 101.43318346096203 L 58.520629186183214 100.81906009814702 L 57.82446408877149 100.1826628310373 L 57.13349425327033 99.50171775522176 L 56.416548108216375 98.88759439252317 L 55.7021995941177 98.27983500238042 L 54.967070031911135 97.7357153390767 L 54.239733363036066 97.15022985334508 L 53.55136115849018 96.5488344358746 L 52.92013683496043 96.03653463581577 L 52.304498297628015 95.5815105898073 L 51.66028581932187 95.07875674881507 L 51.08361174585298 94.4996352357557 L 50.434204006101936 93.93960564071313 L 49.77180811110884 93.4273058406543 L 49.197731668595225 93.03592152136844 L 48.57949549984187 92.52998569409829 L 47.96645459346473 91.99541198962834 L 47.31444922229275 91.47993020329159 L 46.672834374941885 91.03445211634971 L 46.02602426568046 90.55397217965219 L 45.319468644447625 90.07349224295467 L 44.65967038040981 89.55164648394566 L 43.805049794726074 88.97888894355856 L 43.264742554631084 88.39340345782693 L 42.70884952927008 87.8492837944068 L 42.095808622427285 87.26061632239725 L 41.38925300119445 86.76422645396087 L 40.44631296256557 86.19783288624603 L 39.524153971578926 85.59643746889196 L 39.07216618442908 84.7786669805646 L 38.79421967174858 83.50587244634517 L 38.09026168147102 82.58627839537803 L 37.39149895310402 81.68895824882202 L 36.65896702185273 80.96664735057857 L 35.96539955539629 80.20615261641797 L 35.37833495857194 79.53793548594695 L 34.76529405172914 78.8251705467701 L 34.18342471681535 78.252413006383 L 33.401537797413766 77.64465361624025 L 32.658615342807025 76.88415888207965 L 31.985828923992813 76.26685353298672 L 31.414350112434477 75.60818236146588 L 30.923397860955447 75.05451673909556 L 30.094753584824502 74.38629960862454 L 29.601203701924533 73.58762103843037 L 29.066091724205762 72.76348657754716 L 28.564748948905617 72.07617752905935" stroke-linejoin="bevel" stroke-miterlimit="10" stroke-width="3"/></g></g></g><g><g fill="#444444"><path fill="" stroke="none" d=""/><g transform="translate(10,22)"><path fill="none" stroke="none"/><text fill="" stroke="none" font-family="helvetica" font-size="10pt" font-style="normal" font-weight="bold" text-decoration="normal" x="0" y="0" text-anchor="start" dominant-baseline="text-after-edge">1.00724</text></g></g></g><g/></g></g></svg>