<svg version="1.1" xmlns="http://www.w3.org/2000/svg" xmlns:xlink="http://www.w3.org/1999/xlink" width="150" height="160" style="width: 150px; height: 160px;"><defs><clipPath id="yJQomINrwtPd"><path fill="none" stroke="none" d=" M 10 27 L 140 27 L 140 150 L 10 150 L 10 27 Z"/></clipPath></defs><g><g transform="scale(1,1) translate(0.5,0.5)"><rect fill="#FFFFFF" stroke="none" x="0" y="0" width="150" height="160"/><rect fill="#ffffff" stroke="none" x="0" y="0" width="150" height="160"/><rect fill="#FFFFFF" stroke="none" x="10" y="27" width="130" height="123"/><rect fill="#ffffff" stroke="none" x="10" y="27" width="130" height="123"/><g><rect fill="none" stroke="#FFFFFF" x="10" y="27" width="130" height="123" stroke-linejoin="bevel" stroke-miterlimit="10"/></g><g clip-path="url(#yJQomINrwtPd)"><g><g/><g/><g><path fill="none" stroke="none"/><path fill="none" stroke="#440154" paint-order="fill stroke markers" d=" M 15.909090909175575 59.862710246350616 L 15.997280488722026 59.67869787919335 L 16.04396908963099 59.83350193419028 L 16.26444303896278 59.55602296767756 L 16.23591111600399 59.39245641906746 L 16.254067793954164 59.24349402647931 L 16.32669450668618 59.179235739517026 L 16.45379125373438 59.37493143172469 L 16.759860971476883 59.73711450363044 L 17.151526457630098 60.017514301347546 L 17.657319635152817 60.40306402312126 L 18.18645711336285 61.07193437393289 L 18.567747354507446 61.737883893423714 L 19.255107313860208 62.24318769539241 L 20.051407341845334 62.60537076741457 L 20.75433016801253 63.134041219367646 L 21.62844453100115 63.6656325024087 L 22.35471165785566 64.16217381076422 L 23.16657455312088 64.6879234315129 L 23.713868709281087 65.07347315328661 L 24.01734461542219 65.65471856715158 L 24.569826393853873 65.93803919607308 L 25.17418439593166 65.79783929721452 L 25.755198097322136 65.2428813643055 L 26.406244699843228 64.38707781524863 L 27.02875937987119 63.73573245189618 L 27.793933674227446 62.801066459622234 L 28.34641545265913 62.374625100637786 L 29.059713523369282 61.75832971197087 L 29.81710638385266 61.27931339095812 L 30.51484158774838 61.03980523045175 L 31.243702525738627 60.48776812874712 L 31.95700059644878 60.1051392381778 L 32.75848824670538 59.664093723054975 L 33.479567751288414 59.06240249052644 L 34.15136484336108 58.56586118217092 L 34.74794141156599 58.0634782112902 L 35.31339224614203 57.52312443451956 L 35.83734210161492 56.81044161540922 L 36.40538674686104 56.12112544616684 L 36.991588070522994 55.344184340094216 L 37.611508939415216 54.581847390159965 L 38.16139690671116 53.98599782004021 L 38.76316109765321 53.471931524341926 L 39.375300532672554 52.77677369257435 L 39.938157556112856 52.09037835453637 L 40.52176506817341 51.54710374644492 L 41.11056020343676 50.995066644856706 L 41.6734172264114 50.30867130670231 L 42.28036903915927 49.55509685049765 L 42.84322606259957 48.813205719110556 L 43.50983553240076 47.82304393360391 L 44.179038813337684 47.142490257974714 L 44.894930695183575 46.64886978082359 L 45.54078967589885 46.06762436684221 L 46.150335299782455 45.419199834694155 L 46.78841284662485 44.60720875393599 L 47.33311319164932 44.04932998982258 L 47.86225066985935 43.441797094768845 L 48.38620052533224 42.65317266387865 L 48.850492724217474 42.09237306844443 L 49.30700348969549 41.57246511033736 L 49.70904422039166 40.88314894097857 L 49.94248722540215 40.106207834905945 L 50.19149309722707 39.50451660237741 L 50.9125726018101 37.92142607807182 L 50.9125726018101 37.92142607807182 L 51.293862842954695 37.0831475162413 L 51.84634462138638 36.25363144802395 L 52.54148601414636 35.482532004476525 L 53.17178212758154 34.82534497859888 L 53.91101831011474 33.689141631824896 L 54.67100498219952 33.16339201119263 L 55.376521619502455 32.80412977037486 L 55.95494150929153 32.59090909094084 L 56.626738601364195 32.85670473240316 L 57.24406565912068 33.356166872079484 L 57.889924639835954 33.963699767016806 L 58.45796928508207 34.7640075229574 L 59.09345302078873 35.55555278505199 L 59.63555955467746 36.43180215288885 L 60.32291951403022 37.04809754143935 L 60.96359087200835 37.74325537320692 L 61.67429513158277 38.33034244959708 L 62.44206323707476 39.18030433636159 L 63.10348508460447 39.907591311610304 L 63.754531687125564 40.541411687619984 L 64.52748741488904 41.093448789208196 L 65.19409688469023 41.80613160831854 L 65.87367541017011 42.44871447805781 L 66.4002190772444 43.549867850146256 L 67.01495232339948 44.30344230646733 L 67.58040315797552 45.00444180064369 L 67.99541294435039 45.673312151338905 L 68.41301654232666 46.2428742403863 L 68.9629045096226 46.82704048557207 L 69.56726251170039 47.61274408525787 L 70.24943484831601 48.31666441075504 L 70.8019166267477 48.93588063062634 L 71.27399025904015 49.41489695163909 L 71.79015868110582 50.06624231499154 L 72.39451668318361 50.67961687245406 L 72.98590562911704 51.514974602963775 L 73.7847994682379 51.91804931219667 L 74.48512848326936 52.674544599605724 L 75.20620798738673 53.6004480982665 L 75.79240931104869 54.400755854090676 L 76.38120444584638 55.01705124275759 L 76.8740285676904 55.82904232351575 L 77.31238265475258 56.903908214648254 L 77.76111198682338 57.85317836306058 L 78.4303152677603 58.33803634648211 L 79.16955145029351 58.805369342677295 L 79.97882053395733 59.225969039136544 L 80.7932772403583 59.67285621666815 L 81.57920202380046 60.14018921286333 L 82.40662778588012 60.63673052121885 L 83.12251966772601 60.94049696868751 L 83.82284868275747 61.4049091336783 L 84.51799007551745 61.76417137437966 L 85.23906957963482 62.12635444640182 L 85.95236765081063 62.65502489823848 L 86.73051100037992 62.9909204893047 L 87.46455956064165 63.379391042282805 L 88.17526382021606 63.709444970823824 L 88.95081335911527 63.96939894987736 L 89.71339384233579 64.30529454082716 L 90.47856813622639 64.76678587449715 L 91.24893005285412 65.32174380740616 L 92.06079294765368 65.80660179094411 L 92.82856105314568 66.19799317524303 L 93.61707964772359 66.3265097491676 L 94.36409726366401 66.671167833847 L 95.08517676824704 66.97201344999485 L 95.86332011828199 67.33127569081262 L 96.67518301308155 67.61167548852973 L 97.43516968516633 67.96801689802669 L 98.2340635242872 68.28930833295453 L 99.02517593000084 68.54342064959928 L 99.81888214685023 68.94649535871577 L 100.57368119666353 69.2122910002945 L 101.3077297564596 69.50145329162478 L 102.0988421626389 69.81398223282304 L 102.8795793238096 70.19661112339236 L 103.59806501679122 70.5675566890277 L 104.31395689863712 70.9647897357354 L 104.98316017957404 71.25687285838649 L 105.68867681687698 71.7037600359181 L 106.42013156600296 72.02797230193391 L 107.08155341353267 72.40475953009445 L 107.81041435105726 72.83412172028329 L 108.39661567471921 73.19630479230545 L 109.05803752224892 73.67240028211381 L 109.74539748160169 74.15141660312656 L 110.34975548321381 74.46686637552921 L 110.99561446392909 74.9780118400231 L 111.68297442281619 75.41029486141633 L 112.3443962703459 75.85426120774355 L 113.04472528537735 76.2865442292532 L 113.71652237745002 76.66625228850171 L 114.35719373542815 77.15403110324405 L 115.0990237290971 77.46071838203352 L 115.75007033208385 77.78200981684495 L 116.39592931233346 78.1500345512759 L 117.0521635375917 78.52682177943643 L 117.75768017489463 78.85103404545225 L 118.49172873515636 79.17232548026368 L 119.14536914927885 79.55495437094942 L 119.7808528849855 79.96971240499988 L 120.49155714455992 80.346499633044 L 121.14779136981815 80.71160353627056 L 121.86627706279978 81.07670743949711 L 122.61588848987594 81.46225716138724 L 123.26174747059122 81.91206517012324 L 123.94651361834258 82.37939816631842 L 124.54049637541175 82.85549365612678 L 125.23304395703599 83.29653917113319 L 125.96709251729771 83.77555549226236 L 126.62332674209028 84.35388007492293 L 127.37812579190359 84.95265047624707 L 128.13551865238696 85.36156684788875 L 128.80731574445963 86.1209829665022 L 129.55433336040005 86.52697850693949 L 130.23391188587993 87.01183649047744 L 131.01983666978776 87.33312792528886 L 131.7668542857282 87.64857769769151 L 132.46458948915824 88.20645646180492 L 133.07154130237177 88.81983101915102 L 133.52805206784979 89.46825555129908 L 133.85227846354246 90.14880922692828 L 134.05718954559416 90.86441287724301 L 134.09090909082443 91.74358307628427 L 134.0182823780924 92.66072408121545 L 133.83412178512663 93.75019412836991 L 133.47617584420368 94.64396848354954 L 133.04819700168446 95.6282886066474 L 132.50868427893147 96.83167107158806 L 131.94842106709257 97.67579129594378 L 131.2895930306986 98.16064927936532 L 130.62038974976167 98.68347806879319 L 129.72811870882288 99.26472348277457 L 128.91366200242192 99.59769824251998 L 128.10698672942817 100.13221035676543 L 127.26918572280556 100.26072693080641 L 126.50919905072078 100.48563093517441 L 125.88927818229422 101.01722221821547 L 125.3834850047715 101.91391740459949 L 125.0618524197489 102.44842951884493 L 124.68315598974004 103.0355165952351 L 124.33039767108858 104.34696981566958 L 124.0191403310746 105.40431071945932 L 123.78310351492837 106.33605588041246 L 123.28768558194861 107.49562587717082 L 122.91677058534697 108.33098360768054 L 122.5484493994154 109.17218300071545 L 122.12306436849758 110.15358229260892 L 121.72880507074296 110.8983942552004 L 121.29304479481652 111.71914782968815 L 120.83912784093991 112.75896374601871 L 120.38780469773337 113.81630464980844 L 119.92870012158528 114.82399142265785 L 119.47997078951448 115.72652827145066 L 118.99492810154334 116.60277763928752 L 118.47357205674052 117.48778950062115 L 118.10525087127462 118.48963461106177 L 117.78361828671768 119.43014226586092 L 117.52942479215562 120.1778750596568 L 117.21297982987016 120.87303289142437 L 116.58268371643499 121.73759893421084 L 116.1572986850515 122.63137328939047 L 115.63853645185009 123.78802245471161 L 115.17424425296485 124.81031338381581 L 114.56469862908125 125.67487942660227 L 113.8228686354123 126.76434947387315 L 113.12253962038085 128.08164435671642 L 112.46111777285114 129.37557258980814 L 111.86972882691771 130.71331329119857 L 111.2212760350667 132.12699560448527 L 110.6843571239151 133.184336508275 L 110.21228349162266 134.17157746257726 L 109.67277076886967 135.06535181764048 L 109.12028899043798 136.28041760763153 L 108.61449581291527 137.22384609351866 L 108.15798504743725 138.14974959217943 L 107.64700424764305 138.94421568559483 L 107.10749152489007 139.99863575806376 L 106.59651072509587 140.67918943369295 L 106.17631331644952 141.63430124451406 L 105.65755108278245 142.47550063754898 L 105.12841360503808 142.96327945229132 L 104.64077710546553 143.48902907292359 L 104.11942106112838 143.95052040659357 L 103.37240344518796 144.3302284659585 L 102.51644576014951 144.40909090905916 L 101.84464866807684 144.24844519165345 L 101.2817916451022 144.046907837037 L 100.7059655659832 144.12577028013766 L 100.16904665436596 143.63214980298653 L 99.65287823230028 143.0888751950115 L 99.12633456569165 142.32945907628164 L 98.59719708748162 141.8387594303349 L 98.0784348542802 141.1552849235013 L 97.59079835517332 140.23230225616135 L 97.12131853401661 139.61600686749443 L 96.66740157967433 138.9500573480036 L 96.24979798169807 137.92192475649063 L 95.7569738603197 137.2004794437671 L 95.20449208188802 136.70393813529518 L 94.68832365982234 136.2950217637699 L 94.22403146093711 135.77803463675082 L 93.82977216364816 135.11792677966878 L 93.3991995099932 134.35558982973453 L 92.7585281515494 134.06642753840424 L 92.12563822697848 133.8093943905551 L 91.40455872286111 133.43260716239456 L 90.67051016259938 132.89225338562392 L 89.97796258097515 132.1737289041048 L 89.17647493071854 131.28871704265475 L 88.53839738387614 130.32192190689966 L 87.86400648020208 129.49240583879873 L 87.2207413110882 128.74175221379846 L 86.59044519765303 128.23644841171335 L 85.96793051762506 127.7019362973515 L 85.3609787048772 127.02430345292669 L 84.73068259097636 126.37879975209944 L 84.09779266640544 125.60185864602681 L 83.7139086141251 122.71023573237471 L 83.1380825350061 121.44551581167616 L 82.5778193231672 120.42322488257196 L 82.04608803382143 119.57326299592387 L 81.48063719971105 118.77879690250847 L 80.9566873437725 118.06903491460253 L 80.45608178852126 117.55496861890424 L 79.92953812191263 116.99708985467441 L 79.3251801203005 116.43629025935661 L 78.72860355162993 115.82875736441929 L 78.10349506046623 115.23874945682473 L 77.15156636247411 114.56403744360432 L 76.52645787131041 113.98571286094375 L 75.75868976628408 113.41615077189635 L 75.07132980693132 112.84074702032376 L 74.4514089380391 112.2507391127292 L 73.74329848960042 111.6402853865875 L 73.10003332048655 111.10869410343003 L 72.47751864045858 110.5566570017254 L 71.89391112793237 109.98417408147361 L 71.32586648222059 109.40877033001743 L 70.63591271219775 108.82168325362727 L 69.94336513057351 108.29301280179061 L 69.31566282827407 107.76142151863314 L 68.66461622575298 107.2181469106581 L 68.03950773458928 106.71576393977739 L 67.31583441887051 106.21922263142187 L 66.74519596248865 105.70515633572359 L 66.17715131677687 105.21445668977685 L 65.60651286039501 104.76756951224525 L 65.06440632650629 104.24766155402176 L 64.50414311420172 103.6547328151064 L 63.92312941327691 103.01799160789233 L 63.347303334157914 102.42798370029777 L 62.73775770980865 101.85550078004599 L 62.123024463653564 101.24796788510866 L 61.394163525663316 100.56449337827507 L 60.706803566776216 99.94527715840377 L 59.97794262878597 99.34942758828402 L 59.27242599148303 98.74481552455109 L 58.61878557736054 98.07594517385587 L 57.90289369551465 97.48009560373612 L 57.27519139321521 96.90761268348433 L 56.64489527978003 96.40230888139922 L 56.01459916634485 95.86487593594939 L 55.42061640927568 95.35080964013468 L 54.75400693947449 94.8367433444364 L 54.092585091944784 94.267181255389 L 53.50897757941857 93.74435246596113 L 52.88646289939061 93.24196949508041 L 52.31323063140735 92.70745738083497 L 51.77371790912002 92.18462859140709 L 51.171953718177974 91.64427481452003 L 50.60131526179612 91.12728768761735 L 50.007332504726946 90.62782554794103 L 49.40297450264916 90.14880922692828 L 48.850492724217474 89.71360537433065 L 48.27207283396274 89.26671819679905 L 47.74293535621837 88.81398935674224 L 47.23973598983139 88.31452721718233 L 46.744318056851625 87.83259006484877 L 46.241118690464646 87.32144460035488 L 45.50707013066858 86.75772417383268 L 44.9390254849568 86.21152873453684 L 44.33726129448041 85.64780830801465 L 43.704371369909495 85.1103753624484 L 43.06888763373718 84.57294241688214 L 42.41265340894461 83.98001367796678 L 41.87573449732736 83.59738478739746 L 41.33103415230289 83.1212892975891 L 40.820053352508694 82.58969801454805 L 40.379105454310775 82.06394839391578 L 39.92259468883276 81.52359461714514 L 39.48164679063484 81.00952832133044 L 38.89285165583715 80.48377870069817 L 38.16658452898264 79.94050409272313 L 36.41316818073392 79.46148777171038 L 35.45605186000466 78.70499248418491 L 34.37183879269287 78.12958873272873 L 33.694854077883065 77.5249766689958" stroke-linejoin="bevel" stroke-miterlimit="10" stroke-width="3"/></g></g></g><g><g fill="#444444"><path fill="" stroke="none" d=""/><g transform="translate(10,22)"><path fill="none" stroke="none"/><text fill="" stroke="none" font-family="helvetica" font-size="10pt" font-style="normal" font-weight="bold" text-decoration="normal" x="0" y="0" text-anchor="start" dominant-baseline="text-after-edge">1.01707</text></g></g></g><g/></g></g></svg>